<svg width="80" height="17" viewBox="0 0 80 17" fill="none" xmlns="http://www.w3.org/2000/svg">
<g filter="url(#filter0_d)">
<path d="M2.24141 13V10.714H5.08541V3.424L2.90741 4.702L1.84541 2.668L5.89541 0.309999H7.87541V10.714H10.5394V13H2.24141ZM15.6624 13.198C14.8824 13.198 14.1564 13.108 13.4844 12.928C12.8124 12.748 12.2544 12.502 11.8104 12.19L12.4584 10.426C12.9024 10.702 13.4064 10.924 13.9704 11.092C14.5464 11.248 15.1164 11.326 15.6804 11.326C16.1844 11.326 16.5564 11.248 16.7964 11.092C17.0364 10.924 17.1564 10.708 17.1564 10.444C17.1564 10.024 16.8504 9.76 16.2384 9.652L14.3484 9.31C13.5924 9.178 13.0164 8.908 12.6204 8.5C12.2244 8.092 12.0264 7.558 12.0264 6.898C12.0264 6.298 12.1944 5.782 12.5304 5.35C12.8664 4.918 13.3284 4.582 13.9164 4.342C14.5044 4.102 15.1824 3.982 15.9504 3.982C16.5864 3.982 17.2044 4.066 17.8044 4.234C18.4044 4.39 18.9204 4.642 19.3524 4.99L18.6684 6.736C18.3084 6.472 17.8764 6.256 17.3724 6.088C16.8804 5.92 16.4184 5.836 15.9864 5.836C15.4464 5.836 15.0564 5.926 14.8164 6.106C14.5764 6.274 14.4564 6.49 14.4564 6.754C14.4564 7.174 14.7384 7.438 15.3024 7.546L17.1924 7.888C17.9724 8.02 18.5664 8.284 18.9744 8.68C19.3824 9.064 19.5864 9.592 19.5864 10.264C19.5864 11.188 19.2264 11.908 18.5064 12.424C17.7864 12.94 16.8384 13.198 15.6624 13.198ZM25.3879 13.198C22.9039 13.198 21.6619 11.992 21.6619 9.58V6.196H19.9879V4.162H21.6619V1.57H24.3799V4.162H26.9899V6.196H24.3799V9.472C24.3799 9.976 24.4939 10.354 24.7219 10.606C24.9619 10.858 25.3399 10.984 25.8559 10.984C26.0119 10.984 26.1739 10.966 26.3419 10.93C26.5219 10.894 26.7139 10.846 26.9179 10.786L27.3139 12.766C27.0619 12.898 26.7619 13 26.4139 13.072C26.0659 13.156 25.7239 13.198 25.3879 13.198ZM33.571 13V0.309999H39.367C40.783 0.309999 41.875 0.669999 42.643 1.39C43.411 2.098 43.795 3.088 43.795 4.36C43.795 5.632 43.411 6.628 42.643 7.348C41.875 8.068 40.783 8.428 39.367 8.428H36.361V13H33.571ZM36.361 6.268H38.899C40.375 6.268 41.113 5.632 41.113 4.36C41.113 3.112 40.375 2.488 38.899 2.488H36.361V6.268ZM48.5841 13.198C47.4441 13.198 46.6101 12.904 46.0821 12.316C45.5541 11.716 45.2901 10.828 45.2901 9.652V0.309999H48.0081V9.544C48.0081 10.504 48.4341 10.984 49.2861 10.984C49.4181 10.984 49.5441 10.978 49.6641 10.966C49.7961 10.954 49.9221 10.93 50.0421 10.894L50.0061 13C49.5501 13.132 49.0761 13.198 48.5841 13.198ZM54.2722 13.198C53.6122 13.198 53.0302 13.072 52.5262 12.82C52.0222 12.568 51.6202 12.226 51.3202 11.794C51.0322 11.362 50.8882 10.876 50.8882 10.336C50.8882 9.7 51.0562 9.19 51.3922 8.806C51.7282 8.422 52.2742 8.152 53.0302 7.996C53.7862 7.828 54.7882 7.744 56.0362 7.744H56.6842V7.438C56.6842 6.91 56.5642 6.538 56.3242 6.322C56.0842 6.094 55.6762 5.98 55.1002 5.98C54.6202 5.98 54.1102 6.058 53.5702 6.214C53.0422 6.358 52.5142 6.58 51.9862 6.88L51.2482 5.062C51.5602 4.858 51.9382 4.672 52.3822 4.504C52.8382 4.336 53.3122 4.21 53.8042 4.126C54.2962 4.03 54.7642 3.982 55.2082 3.982C56.5762 3.982 57.5962 4.294 58.2682 4.918C58.9402 5.53 59.2762 6.484 59.2762 7.78V13H56.7382V11.668C56.5582 12.136 56.2522 12.508 55.8202 12.784C55.4002 13.06 54.8842 13.198 54.2722 13.198ZM54.8842 11.38C55.3882 11.38 55.8142 11.206 56.1622 10.858C56.5102 10.51 56.6842 10.06 56.6842 9.508V9.148H56.0542C55.1302 9.148 54.4762 9.232 54.0922 9.4C53.7082 9.556 53.5162 9.832 53.5162 10.228C53.5162 10.564 53.6302 10.84 53.8582 11.056C54.0982 11.272 54.4402 11.38 54.8842 11.38ZM65.6058 13.198C64.6458 13.198 63.8058 13.012 63.0858 12.64C62.3778 12.256 61.8318 11.716 61.4478 11.02C61.0638 10.324 60.8718 9.502 60.8718 8.554C60.8718 7.606 61.0638 6.79 61.4478 6.106C61.8318 5.422 62.3778 4.9 63.0858 4.54C63.8058 4.168 64.6458 3.982 65.6058 3.982C66.1698 3.982 66.7398 4.066 67.3158 4.234C67.8918 4.402 68.3598 4.642 68.7198 4.954L67.9638 6.826C67.6638 6.586 67.3278 6.4 66.9558 6.268C66.5838 6.124 66.2238 6.052 65.8758 6.052C65.1678 6.052 64.6158 6.274 64.2198 6.718C63.8358 7.15 63.6438 7.768 63.6438 8.572C63.6438 9.364 63.8358 9.988 64.2198 10.444C64.6158 10.888 65.1678 11.11 65.8758 11.11C66.2118 11.11 66.5658 11.044 66.9378 10.912C67.3218 10.78 67.6638 10.588 67.9638 10.336L68.7198 12.208C68.3598 12.52 67.8918 12.766 67.3158 12.946C66.7398 13.114 66.1698 13.198 65.6058 13.198ZM74.3137 13.198C73.2697 13.198 72.3697 13.012 71.6137 12.64C70.8697 12.256 70.2937 11.722 69.8857 11.038C69.4897 10.342 69.2917 9.526 69.2917 8.59C69.2917 7.678 69.4837 6.88 69.8677 6.196C70.2637 5.5 70.7977 4.96 71.4697 4.576C72.1537 4.18 72.9397 3.982 73.8277 3.982C75.1117 3.982 76.1317 4.39 76.8877 5.206C77.6437 6.01 78.0217 7.102 78.0217 8.482V9.166H71.8837C71.9797 9.862 72.2317 10.372 72.6397 10.696C73.0597 11.008 73.6357 11.164 74.3677 11.164C74.8477 11.164 75.3337 11.092 75.8257 10.948C76.3177 10.804 76.7617 10.582 77.1577 10.282L77.8777 12.1C77.4337 12.436 76.8877 12.706 76.2397 12.91C75.6037 13.102 74.9617 13.198 74.3137 13.198ZM73.9357 5.782C73.3597 5.782 72.8917 5.956 72.5317 6.304C72.1837 6.652 71.9677 7.138 71.8837 7.762H75.7717C75.6997 6.442 75.0877 5.782 73.9357 5.782Z" fill="#FFED8E"/>
</g>
<defs>
<filter id="filter0_d" x="0.845413" y="0.309998" width="78.1763" height="15.888" filterUnits="userSpaceOnUse" color-interpolation-filters="sRGB">
<feFlood flood-opacity="0" result="BackgroundImageFix"/>
<feColorMatrix in="SourceAlpha" type="matrix" values="0 0 0 0 0 0 0 0 0 0 0 0 0 0 0 0 0 0 127 0"/>
<feOffset dy="2"/>
<feGaussianBlur stdDeviation="0.5"/>
<feColorMatrix type="matrix" values="0 0 0 0 0 0 0 0 0 0 0 0 0 0 0 0 0 0 1 0"/>
<feBlend mode="normal" in2="BackgroundImageFix" result="effect1_dropShadow"/>
<feBlend mode="normal" in="SourceGraphic" in2="effect1_dropShadow" result="shape"/>
</filter>
</defs>
</svg>
