<svg width="209" height="211" viewBox="0 0 209 211" fill="none" xmlns="http://www.w3.org/2000/svg">
<path d="M52.1347 0L150 15.6165L100.521 93.6988L8.1227 57.0001L52.1347 0Z" fill="#7C5939"/>
<rect x="-1.50717" y="-3.15659" width="17.4548" height="101.345" rx="8.72739" transform="matrix(-0.343379 0.939197 0.946249 0.323439 14.4789 121.864)" fill="#7C5939" stroke="#392512" stroke-width="5"/>
<rect x="-1.50717" y="-3.15659" width="17.4548" height="113.519" rx="8.72739" transform="matrix(-0.343379 0.939197 0.946249 0.323439 13.9328 107.248)" fill="#7C5939" stroke="#392512" stroke-width="5"/>
<rect x="-1.50717" y="-3.15659" width="17.4548" height="113.519" rx="8.72739" transform="matrix(-0.343379 0.939197 0.946249 0.323439 13.3869 92.6322)" fill="#7C5939" stroke="#392512" stroke-width="5"/>
<rect x="-1.50717" y="-3.15659" width="17.4548" height="113.519" rx="8.72739" transform="matrix(-0.343379 0.939197 0.946249 0.323439 13.3869 79.0603)" fill="#7C5939" stroke="#392512" stroke-width="5"/>
<rect x="-1.50717" y="-3.15659" width="17.4548" height="113.519" rx="8.72739" transform="matrix(-0.343379 0.939197 0.946249 0.323439 13.3869 64.4442)" fill="#7C5939" stroke="#392512" stroke-width="5"/>
<path d="M100.722 91.6281L198.195 69.0317L150.554 17.0832L100.722 91.6281Z" fill="#7C5939"/>
<rect x="3.17437" y="1.6568" width="17.5007" height="111.74" rx="8.75036" transform="matrix(-0.311933 -0.950104 -0.957816 0.287383 207.683 141.919)" fill="#7C5939" stroke="#392512" stroke-width="5"/>
<rect x="3.17437" y="1.6568" width="17.5007" height="111.74" rx="8.75036" transform="matrix(-0.311933 -0.950104 -0.957816 0.287383 207.683 126.781)" fill="#7C5939" stroke="#392512" stroke-width="5"/>
<rect x="3.17437" y="1.6568" width="17.5007" height="111.74" rx="8.75036" transform="matrix(-0.311933 -0.950104 -0.957816 0.287383 207.683 111.643)" fill="#7C5939" stroke="#392512" stroke-width="5"/>
<rect x="3.17437" y="1.6568" width="17.5007" height="111.74" rx="8.75036" transform="matrix(-0.311933 -0.950104 -0.957816 0.287383 207.683 96.505)" fill="#7C5939" stroke="#392512" stroke-width="5"/>
<rect x="3.17437" y="1.6568" width="17.5007" height="111.74" rx="8.75036" transform="matrix(-0.311933 -0.950104 -0.957816 0.287383 207.683 81.238)" fill="#7C5939" stroke="#392512" stroke-width="5"/>
<rect width="12.8766" height="81.4337" rx="6.43831" transform="matrix(-0.812437 0.583049 0.714114 0.70003 150.331 8.26645)" fill="#392512"/>
<rect width="16.6857" height="100.635" rx="8.34284" transform="matrix(-0.911296 -0.411753 -0.541628 0.840619 155.99 16.3007)" fill="#392512"/>
<rect width="14.597" height="106.357" rx="7.2985" transform="matrix(0.358151 -0.933664 -0.943693 -0.330822 100.369 101.366)" fill="#392512"/>
<path d="M171.661 101.982L132.13 113.681V159.961L171.661 148.261V101.982Z" fill="#261504"/>
<ellipse rx="35.0939" ry="30.7499" transform="matrix(-0.996185 -0.0872643 -0.0954163 0.995438 73.894 39.4121)" fill="#0C4124"/>
<rect x="15" y="181" width="143" height="30" fill="#0C4124"/>
<path d="M41.2627 200.383C40.7881 200.951 40.1172 201.394 39.25 201.71C38.3828 202.021 37.4219 202.176 36.3672 202.176C35.2598 202.176 34.2871 201.936 33.4492 201.455C32.6172 200.969 31.9727 200.266 31.5156 199.346C31.0645 198.426 30.833 197.345 30.8213 196.103V195.232C30.8213 193.955 31.0352 192.851 31.4629 191.919C31.8965 190.981 32.5176 190.267 33.3262 189.774C34.1406 189.276 35.0928 189.027 36.1826 189.027C37.7002 189.027 38.8867 189.391 39.7422 190.117C40.5977 190.838 41.1045 191.89 41.2627 193.272H38.6963C38.5791 192.54 38.3184 192.004 37.9141 191.664C37.5156 191.324 36.9648 191.154 36.2617 191.154C35.3652 191.154 34.6826 191.491 34.2139 192.165C33.7451 192.839 33.5078 193.841 33.502 195.171V195.988C33.502 197.33 33.7568 198.344 34.2666 199.029C34.7764 199.715 35.5234 200.058 36.5078 200.058C37.498 200.058 38.2041 199.847 38.626 199.425V197.219H36.2266V195.276H41.2627V200.383ZM48.751 202C48.6338 201.771 48.5488 201.487 48.4961 201.147C47.8809 201.833 47.0811 202.176 46.0967 202.176C45.165 202.176 44.3916 201.906 43.7764 201.367C43.167 200.828 42.8623 200.148 42.8623 199.328C42.8623 198.32 43.2344 197.547 43.9785 197.008C44.7285 196.469 45.8096 196.196 47.2217 196.19H48.3906V195.646C48.3906 195.206 48.2764 194.854 48.0479 194.591C47.8252 194.327 47.4707 194.195 46.9844 194.195C46.5566 194.195 46.2197 194.298 45.9736 194.503C45.7334 194.708 45.6133 194.989 45.6133 195.347H43.0732C43.0732 194.796 43.2432 194.286 43.583 193.817C43.9229 193.349 44.4033 192.982 45.0244 192.719C45.6455 192.449 46.3428 192.314 47.1162 192.314C48.2881 192.314 49.2168 192.61 49.9023 193.202C50.5938 193.788 50.9395 194.614 50.9395 195.681V199.803C50.9453 200.705 51.0713 201.388 51.3174 201.851V202H48.751ZM46.6504 200.233C47.0254 200.233 47.3711 200.151 47.6875 199.987C48.0039 199.817 48.2383 199.592 48.3906 199.311V197.676H47.4414C46.1699 197.676 45.4932 198.115 45.4111 198.994L45.4023 199.144C45.4023 199.46 45.5137 199.721 45.7363 199.926C45.959 200.131 46.2637 200.233 46.6504 200.233ZM58.2344 194.872C57.8887 194.825 57.584 194.802 57.3203 194.802C56.3594 194.802 55.7295 195.127 55.4307 195.777V202H52.8906V192.49H55.29L55.3604 193.624C55.8701 192.751 56.5762 192.314 57.4785 192.314C57.7598 192.314 58.0234 192.353 58.2695 192.429L58.2344 194.872ZM58.8936 197.175C58.8936 195.692 59.2246 194.512 59.8867 193.633C60.5547 192.754 61.4658 192.314 62.6201 192.314C63.5459 192.314 64.3105 192.66 64.9141 193.352V188.5H67.4629V202H65.1689L65.0459 200.989C64.4131 201.78 63.5986 202.176 62.6025 202.176C61.4834 202.176 60.584 201.736 59.9043 200.857C59.2305 199.973 58.8936 198.745 58.8936 197.175ZM61.4336 197.359C61.4336 198.25 61.5889 198.933 61.8994 199.407C62.21 199.882 62.6611 200.119 63.2529 200.119C64.0381 200.119 64.5918 199.788 64.9141 199.126V195.373C64.5977 194.711 64.0498 194.38 63.2705 194.38C62.0459 194.38 61.4336 195.373 61.4336 197.359ZM73.8086 202.176C72.4141 202.176 71.2773 201.748 70.3984 200.893C69.5254 200.037 69.0889 198.897 69.0889 197.474V197.228C69.0889 196.272 69.2734 195.42 69.6426 194.67C70.0117 193.914 70.5332 193.334 71.207 192.93C71.8867 192.52 72.6602 192.314 73.5273 192.314C74.8281 192.314 75.8506 192.725 76.5947 193.545C77.3447 194.365 77.7197 195.528 77.7197 197.034V198.071H71.6641C71.7461 198.692 71.9922 199.19 72.4023 199.565C72.8184 199.94 73.3428 200.128 73.9756 200.128C74.9541 200.128 75.7188 199.773 76.2695 199.064L77.5176 200.462C77.1367 201.001 76.6211 201.423 75.9707 201.728C75.3203 202.026 74.5996 202.176 73.8086 202.176ZM73.5186 194.371C73.0146 194.371 72.6045 194.541 72.2881 194.881C71.9775 195.221 71.7783 195.707 71.6904 196.34H75.2236V196.138C75.2119 195.575 75.0596 195.142 74.7666 194.837C74.4736 194.526 74.0576 194.371 73.5186 194.371ZM81.5078 192.49L81.5869 193.589C82.2666 192.739 83.1777 192.314 84.3203 192.314C85.3281 192.314 86.0781 192.61 86.5703 193.202C87.0625 193.794 87.3145 194.679 87.3262 195.856V202H84.7861V195.918C84.7861 195.379 84.6689 194.989 84.4346 194.749C84.2002 194.503 83.8105 194.38 83.2656 194.38C82.5508 194.38 82.0146 194.685 81.6572 195.294V202H79.1172V192.49H81.5078ZM93.9092 202V189.203H98.3916C99.9443 189.203 101.122 189.502 101.925 190.1C102.728 190.691 103.129 191.562 103.129 192.71C103.129 193.337 102.968 193.891 102.646 194.371C102.323 194.846 101.875 195.194 101.301 195.417C101.957 195.581 102.473 195.912 102.848 196.41C103.229 196.908 103.419 197.518 103.419 198.238C103.419 199.469 103.026 200.4 102.241 201.033C101.456 201.666 100.337 201.988 98.8838 202H93.9092ZM96.5459 196.428V199.882H98.8047C99.4258 199.882 99.9092 199.735 100.255 199.442C100.606 199.144 100.782 198.733 100.782 198.212C100.782 197.04 100.176 196.445 98.9629 196.428H96.5459ZM96.5459 194.564H98.4971C99.8271 194.541 100.492 194.011 100.492 192.974C100.492 192.394 100.322 191.978 99.9824 191.726C99.6484 191.468 99.1182 191.339 98.3916 191.339H96.5459V194.564ZM109.615 202.176C108.221 202.176 107.084 201.748 106.205 200.893C105.332 200.037 104.896 198.897 104.896 197.474V197.228C104.896 196.272 105.08 195.42 105.449 194.67C105.818 193.914 106.34 193.334 107.014 192.93C107.693 192.52 108.467 192.314 109.334 192.314C110.635 192.314 111.657 192.725 112.401 193.545C113.151 194.365 113.526 195.528 113.526 197.034V198.071H107.471C107.553 198.692 107.799 199.19 108.209 199.565C108.625 199.94 109.149 200.128 109.782 200.128C110.761 200.128 111.525 199.773 112.076 199.064L113.324 200.462C112.943 201.001 112.428 201.423 111.777 201.728C111.127 202.026 110.406 202.176 109.615 202.176ZM109.325 194.371C108.821 194.371 108.411 194.541 108.095 194.881C107.784 195.221 107.585 195.707 107.497 196.34H111.03V196.138C111.019 195.575 110.866 195.142 110.573 194.837C110.28 194.526 109.864 194.371 109.325 194.371ZM120.487 202C120.37 201.771 120.285 201.487 120.232 201.147C119.617 201.833 118.817 202.176 117.833 202.176C116.901 202.176 116.128 201.906 115.513 201.367C114.903 200.828 114.599 200.148 114.599 199.328C114.599 198.32 114.971 197.547 115.715 197.008C116.465 196.469 117.546 196.196 118.958 196.19H120.127V195.646C120.127 195.206 120.013 194.854 119.784 194.591C119.562 194.327 119.207 194.195 118.721 194.195C118.293 194.195 117.956 194.298 117.71 194.503C117.47 194.708 117.35 194.989 117.35 195.347H114.81C114.81 194.796 114.979 194.286 115.319 193.817C115.659 193.349 116.14 192.982 116.761 192.719C117.382 192.449 118.079 192.314 118.853 192.314C120.024 192.314 120.953 192.61 121.639 193.202C122.33 193.788 122.676 194.614 122.676 195.681V199.803C122.682 200.705 122.808 201.388 123.054 201.851V202H120.487ZM118.387 200.233C118.762 200.233 119.107 200.151 119.424 199.987C119.74 199.817 119.975 199.592 120.127 199.311V197.676H119.178C117.906 197.676 117.229 198.115 117.147 198.994L117.139 199.144C117.139 199.46 117.25 199.721 117.473 199.926C117.695 200.131 118 200.233 118.387 200.233ZM126.965 192.49L127.044 193.589C127.724 192.739 128.635 192.314 129.777 192.314C130.785 192.314 131.535 192.61 132.027 193.202C132.52 193.794 132.771 194.679 132.783 195.856V202H130.243V195.918C130.243 195.379 130.126 194.989 129.892 194.749C129.657 194.503 129.268 194.38 128.723 194.38C128.008 194.38 127.472 194.685 127.114 195.294V202H124.574V192.49H126.965ZM139.867 199.372C139.867 199.062 139.712 198.818 139.401 198.643C139.097 198.461 138.604 198.3 137.925 198.159C135.663 197.685 134.532 196.724 134.532 195.276C134.532 194.433 134.881 193.729 135.578 193.167C136.281 192.599 137.198 192.314 138.329 192.314C139.536 192.314 140.5 192.599 141.221 193.167C141.947 193.735 142.311 194.474 142.311 195.382H139.771C139.771 195.019 139.653 194.72 139.419 194.485C139.185 194.245 138.818 194.125 138.32 194.125C137.893 194.125 137.562 194.222 137.327 194.415C137.093 194.608 136.976 194.854 136.976 195.153C136.976 195.435 137.107 195.663 137.371 195.839C137.641 196.009 138.092 196.158 138.725 196.287C139.357 196.41 139.891 196.551 140.324 196.709C141.666 197.201 142.337 198.054 142.337 199.267C142.337 200.134 141.965 200.837 141.221 201.376C140.477 201.909 139.516 202.176 138.338 202.176C137.541 202.176 136.832 202.035 136.211 201.754C135.596 201.467 135.112 201.077 134.761 200.585C134.409 200.087 134.233 199.551 134.233 198.977H136.642C136.665 199.428 136.832 199.773 137.143 200.014C137.453 200.254 137.869 200.374 138.391 200.374C138.877 200.374 139.243 200.283 139.489 200.102C139.741 199.914 139.867 199.671 139.867 199.372Z" fill="white"/>
</svg>
