<svg width="96" height="96" viewBox="0 0 96 96" fill="none" xmlns="http://www.w3.org/2000/svg">
<circle cx="48" cy="48" r="46.5" fill="#102037" stroke="white" stroke-width="3"/>
<path d="M86.7961 70.5036L81.9558 60.8195H83.0192C83.3362 60.8168 83.6466 60.728 83.9171 60.5626C84.1875 60.3972 84.408 60.1614 84.5548 59.8804C84.7264 59.5663 84.8144 59.2134 84.8102 58.8555C84.8059 58.4976 84.7097 58.1468 84.5307 57.8369L80.1615 49.0394H80.9118C81.2289 49.0367 81.5393 48.9478 81.8098 48.7823C82.0802 48.6167 82.3006 48.3808 82.4474 48.0997C82.6236 47.7761 82.7108 47.4116 82.7002 47.0433C82.6896 46.675 82.5816 46.3161 82.3871 46.0031L76.7368 37.2575H76.8677C77.1847 37.2548 77.4951 37.166 77.7655 37.0006C78.036 36.8352 78.2565 36.5994 78.4033 36.3184C78.5788 35.9993 78.6672 35.6396 78.6596 35.2755C78.652 34.9113 78.5486 34.5556 78.3598 34.2442L73.0521 25.4768C73.3411 25.4714 73.6228 25.3854 73.8655 25.2284C74.1082 25.0714 74.3021 24.8497 74.4255 24.5884C74.5668 24.3041 74.6282 23.9869 74.6034 23.6705C74.5785 23.354 74.4683 23.0503 74.2844 22.7916L68.9224 14.6026C68.7685 14.3577 68.555 14.1557 68.3018 14.0158C68.0487 13.8758 67.7641 13.8024 67.4748 13.8024C67.1855 13.8024 66.901 13.8758 66.6478 14.0158C66.3946 14.1557 66.1811 14.3577 66.0273 14.6026L60.6653 22.7916C60.4802 23.0498 60.3687 23.3535 60.3428 23.6702C60.3169 23.9869 60.3775 24.3046 60.5181 24.5896C60.6415 24.8509 60.8354 25.0726 61.0781 25.2296C61.3208 25.3866 61.6025 25.4726 61.8915 25.478L59.3739 29.6397L55.0524 24.0908C54.889 23.8809 54.8001 23.6227 54.7996 23.3567V22.3054C54.7982 21.5093 54.4812 20.7461 53.918 20.1833C53.3549 19.6205 52.5915 19.3039 51.7954 19.303H46.1517C45.3556 19.3039 44.5923 19.6205 44.0292 20.1834C43.4662 20.7462 43.1493 21.5093 43.148 22.3054V23.3555C43.1476 23.6212 43.0589 23.8792 42.8959 24.089L38.3367 29.9443L35.6316 25.478C35.9204 25.4726 36.202 25.3866 36.4445 25.2298C36.6871 25.0729 36.881 24.8514 37.0043 24.5902C37.145 24.3052 37.2056 23.9873 37.1797 23.6705C37.1538 23.3537 37.0423 23.0499 36.8572 22.7916L31.4952 14.6026C31.3415 14.357 31.1279 14.1544 30.8744 14.014C30.6209 13.8736 30.3359 13.8 30.0461 13.8C29.7563 13.8 29.4713 13.8736 29.2178 14.014C28.9644 14.1544 28.7507 14.357 28.597 14.6026L23.235 22.7916C23.0499 23.0499 22.9384 23.3537 22.9125 23.6705C22.8866 23.9873 22.9472 24.3052 23.0879 24.5902C23.2117 24.8518 23.4062 25.0736 23.6494 25.2305C23.8926 25.3873 24.1749 25.4731 24.4643 25.478L23.4088 27.2223C22.7154 27.2797 22.0688 27.5952 21.5968 28.1064C21.1248 28.6175 20.8619 29.2872 20.8598 29.9829V31.4341L19.171 34.2297C18.9787 34.5424 18.8725 34.9005 18.8632 35.2675C18.8539 35.6345 18.9417 35.9975 19.118 36.3196C19.2648 36.6006 19.4852 36.8364 19.7557 37.0018C20.0262 37.1672 20.3365 37.256 20.6536 37.2587H20.7845L15.1239 46.0092C14.9313 46.3217 14.825 46.6797 14.8157 47.0467C14.8063 47.4137 14.8944 47.7766 15.0708 48.0985C15.2172 48.3799 15.4376 48.616 15.7081 48.7816C15.9787 48.9471 16.2893 49.0359 16.6064 49.0382H17.3562L12.9875 57.8369C12.8081 58.1469 12.7115 58.4979 12.7072 58.856C12.7028 59.2142 12.7909 59.5674 12.9628 59.8816C13.1096 60.1626 13.3301 60.3984 13.6006 60.5638C13.871 60.7292 14.1814 60.818 14.4984 60.8207H15.7439L10.9037 70.5036C10.7104 70.8349 10.6059 71.2104 10.6003 71.5938C10.5947 71.9773 10.6882 72.3557 10.8717 72.6924C11.0278 72.9929 11.2627 73.2451 11.5513 73.422C11.84 73.599 12.1713 73.6939 12.5099 73.6967H24.2918V79.5575C24.2926 80.2016 24.5488 80.8191 25.0042 81.2745C25.4597 81.7299 26.0772 81.9862 26.7212 81.987H71.189C71.8331 81.9862 72.4506 81.7299 72.906 81.2745C73.3615 80.8191 73.6177 80.2016 73.6185 79.5575V73.6967H85.1905C85.529 73.6939 85.8603 73.599 86.1488 73.4221C86.4373 73.2451 86.6722 72.9929 86.8281 72.6924C87.0118 72.3558 87.1055 71.9773 87.0999 71.5938C87.0943 71.2103 86.9896 70.8348 86.7961 70.5036V70.5036ZM30.0464 15.6931L35.2685 23.6686H34.4204C34.2236 23.6694 34.0306 23.7225 33.861 23.8224C33.6914 23.9224 33.5515 24.0655 33.4554 24.2373C33.3543 24.4166 33.3027 24.6196 33.3058 24.8253C33.3089 25.0311 33.3665 25.2324 33.4729 25.4086L37.1437 31.4733L32.1912 37.8275V36.5747C32.74 36.3887 33.217 36.0358 33.5554 35.5654C33.8938 35.095 34.0767 34.5305 34.0785 33.951V29.9829C34.0777 29.2446 33.784 28.5368 33.2619 28.0147C32.7399 27.4926 32.032 27.199 31.2937 27.1982H25.5349L26.6205 25.4086C26.7269 25.232 26.7843 25.0303 26.7869 24.8241C26.7896 24.618 26.7374 24.4148 26.6356 24.2355C26.5396 24.0637 26.3996 23.9205 26.2301 23.8205C26.0605 23.7206 25.8674 23.6675 25.6706 23.6667H24.8262L30.0464 15.6931ZM22.6663 29.9829C22.6666 29.7244 22.7695 29.4765 22.9523 29.2936C23.1351 29.1108 23.383 29.0079 23.6416 29.0076H31.2937C31.5523 29.0079 31.8002 29.1108 31.983 29.2936C32.1658 29.4765 32.2687 29.7244 32.269 29.9829V33.951C32.2689 34.2097 32.1661 34.4577 31.9832 34.6407C31.8004 34.8237 31.5524 34.9266 31.2937 34.9269H23.6416C23.3829 34.9266 23.1349 34.8237 22.9521 34.6407C22.7692 34.4577 22.6664 34.2097 22.6663 33.951V29.9829ZM30.3818 36.7382V40.1514L24.5529 47.6304V36.7364L30.3818 36.7382ZM20.6976 35.4492C20.6767 35.4076 20.6663 35.3615 20.6673 35.3149C20.6684 35.2683 20.6808 35.2227 20.7036 35.1821L20.9799 34.7249C21.052 34.9802 21.1603 35.2239 21.3014 35.4486L20.6976 35.4492ZM24.2918 71.8872H12.5117C12.4668 71.8474 12.4361 71.7941 12.4242 71.7352C12.4087 71.6846 12.4037 71.6314 12.4097 71.5788C12.4156 71.5262 12.4322 71.4754 12.4586 71.4295C12.4749 71.4029 12.4906 71.3758 12.5044 71.3474L18.0172 60.3183C18.0862 60.1803 18.1188 60.027 18.1119 59.8729C18.1049 59.7188 18.0587 59.569 17.9776 59.4378C17.8965 59.3066 17.7832 59.1983 17.6485 59.1233C17.5137 59.0482 17.362 59.0088 17.2078 59.0088H14.5485C14.528 58.9703 14.517 58.9275 14.5163 58.8839C14.5155 58.8403 14.5251 58.7971 14.5443 58.7579C14.5611 58.7314 14.5764 58.7041 14.5901 58.6759L19.4521 48.8868C19.5392 48.7094 19.5799 48.5129 19.5704 48.3155C19.5609 48.1182 19.5016 47.9265 19.3978 47.7583C19.2996 47.597 19.1616 47.4637 18.9971 47.3712C18.8325 47.2787 18.6469 47.23 18.4581 47.2299H16.6565C16.636 47.1926 16.6246 47.1511 16.623 47.1086C16.6214 47.0661 16.6298 47.0238 16.6475 46.9851L22.7435 37.5512V49.9526L19.2494 54.437C18.9759 54.7972 18.8085 55.2267 18.7659 55.677C18.7233 56.1273 18.8073 56.5805 19.0084 56.9857C19.2096 57.3908 19.5198 57.7317 19.9043 57.97C20.2887 58.2083 20.732 58.3346 21.1843 58.3345H24.2918V71.8872ZM71.8115 79.5575C71.8113 79.7219 71.7459 79.8795 71.6297 79.9957C71.5134 80.112 71.3558 80.1774 71.1914 80.1775H26.7212C26.5569 80.1774 26.3992 80.112 26.283 79.9957C26.1667 79.8795 26.1014 79.7219 26.1012 79.5575V78.5219H71.8115V79.5575ZM26.1036 76.7124V69.2611H29.3498V76.7124H26.1036ZM31.1592 76.7124V69.2611H34.2305V76.7124H31.1592ZM36.0399 76.7124V69.2611H39.3446V76.7124H36.0399ZM41.154 76.7124V66.1543C41.1449 65.1217 41.3405 64.0974 41.7294 63.1408C42.1183 62.1841 42.6928 61.314 43.4198 60.5805C44.1469 59.8471 45.0119 59.265 45.9652 58.8677C46.9184 58.4704 47.9408 58.2658 48.9735 58.2658C50.0062 58.2658 51.0287 58.4704 51.9819 58.8677C52.9351 59.265 53.8002 59.8471 54.5272 60.5805C55.2542 61.314 55.8288 62.1841 56.2177 63.1408C56.6066 64.0974 56.8021 65.1217 56.793 66.1543V76.7094L41.154 76.7124ZM58.6025 76.7124V69.2611H61.8746V76.7124H58.6025ZM63.684 76.7124V69.2611H66.7559V76.7124H63.684ZM71.8115 76.7124H68.5629V69.2611H71.8115V76.7124ZM71.8115 67.4517H58.6025V66.1543C58.6126 64.8834 58.3709 63.6231 57.8915 62.446C57.4121 61.269 56.7045 60.1984 55.8093 59.2962C54.9142 58.3939 53.8493 57.6778 52.6761 57.1891C51.5028 56.7005 50.2445 56.4488 48.9735 56.4488C47.7026 56.4488 46.4442 56.7005 45.271 57.1891C44.0977 57.6778 43.0328 58.3939 42.1377 59.2962C41.2426 60.1984 40.5349 61.269 40.0555 62.446C39.5761 63.6231 39.3345 64.8834 39.3446 66.1543V67.4517H26.1012V57.732L27.8455 55.4092H70.0623L71.8066 57.732L71.8115 67.4517ZM67.7746 52.3597L68.7058 53.5998H29.2044L30.1339 52.3597H67.7746ZM31.4946 50.5503L47.9497 28.6385C48.0712 28.4891 48.2245 28.3687 48.3984 28.286C48.5724 28.2032 48.7625 28.1603 48.9551 28.1603C49.1477 28.1603 49.3379 28.2032 49.5118 28.286C49.6857 28.3687 49.839 28.4891 49.9606 28.6385L66.4157 50.5503H31.4946ZM73.1661 56.5251L51.4069 27.5528C51.1213 27.1725 50.751 26.8638 50.3255 26.6513C49.8999 26.4387 49.4308 26.328 48.9551 26.328C48.4795 26.328 48.0103 26.4387 47.5848 26.6513C47.1592 26.8638 46.789 27.1725 46.5033 27.5528L24.7447 56.5251H21.1862C21.0717 56.525 20.9595 56.4933 20.862 56.4334C20.7645 56.3736 20.6854 56.2879 20.6336 56.1858C20.5818 56.0838 20.5592 55.9694 20.5683 55.8553C20.5775 55.7413 20.6181 55.632 20.6855 55.5395L44.3229 25.2006C44.7323 24.6725 44.9552 24.0237 44.9569 23.3555V22.306C44.9573 21.9895 45.0833 21.686 45.3072 21.4621C45.531 21.2383 45.8345 21.1123 46.1511 21.1118H51.7899C52.1066 21.1123 52.4101 21.2382 52.6341 21.4621C52.858 21.6859 52.9841 21.9894 52.9848 22.306V23.3549C52.9863 24.0234 53.2094 24.6725 53.6193 25.2006L77.2519 55.5305C77.3216 55.6224 77.3642 55.732 77.3751 55.8469C77.3859 55.9618 77.3644 56.0775 77.3131 56.1808C77.2617 56.2842 77.1826 56.3712 77.0845 56.432C76.9864 56.4928 76.8733 56.525 76.7579 56.5251H73.1661ZM85.2762 71.7365C85.2641 71.7944 85.2341 71.8472 85.1905 71.8872H73.6209V58.3345H76.7573C77.2106 58.3347 77.655 58.2081 78.0402 57.9689C78.4253 57.7298 78.7358 57.3876 78.9366 56.9811C79.1375 56.5747 79.2205 56.1202 79.1765 55.6689C79.1324 55.2177 78.963 54.7879 78.6874 54.4279L60.5597 31.1651L64.0435 25.4086C64.1502 25.2322 64.2081 25.0306 64.2111 24.8244C64.2142 24.6183 64.1624 24.415 64.061 24.2355C63.965 24.0637 63.825 23.9205 63.6555 23.8205C63.4859 23.7206 63.2928 23.6675 63.096 23.6667H62.2491L67.4718 15.6913L72.6939 23.6667H71.8458C71.649 23.6675 71.4559 23.7206 71.2863 23.8205C71.1168 23.9205 70.9768 24.0637 70.8808 24.2355C70.7797 24.4148 70.7281 24.6177 70.7312 24.8235C70.7343 25.0293 70.7919 25.2306 70.8983 25.4068L76.823 35.1959C76.8422 35.2352 76.8518 35.2785 76.8511 35.3222C76.8503 35.3659 76.8393 35.4088 76.8188 35.4474H75.4858C75.2862 35.4483 75.0904 35.503 74.9192 35.6057C74.748 35.7085 74.6076 35.8555 74.513 36.0313C74.4131 36.2145 74.3646 36.4212 74.3724 36.6297C74.3803 36.8382 74.4442 37.0407 74.5576 37.2159L80.8647 46.9766C80.8839 47.0159 80.8935 47.0592 80.8927 47.103C80.8918 47.1467 80.8806 47.1896 80.8599 47.2281H79.0565C78.8676 47.2282 78.6819 47.2768 78.5172 47.3693C78.3526 47.4619 78.2144 47.5952 78.1162 47.7565C78.0131 47.9249 77.9543 48.1166 77.9453 48.3138C77.9362 48.511 77.9772 48.7072 78.0643 48.8844L82.9275 58.6753C82.9412 58.7035 82.9565 58.7308 82.9733 58.7573C82.9928 58.7964 83.0025 58.8396 83.0018 58.8833C83.0011 58.9269 82.9899 58.9698 82.9691 59.0082H80.492C80.3378 59.0083 80.1862 59.0477 80.0515 59.1229C79.9168 59.198 79.8036 59.3063 79.7226 59.4375C79.6416 59.5687 79.5954 59.7184 79.5885 59.8725C79.5816 60.0265 79.6142 60.1797 79.6832 60.3177L85.1953 71.3468C85.2093 71.375 85.2248 71.4024 85.2418 71.4289C85.2681 71.4751 85.2847 71.5262 85.2906 71.5791C85.2965 71.632 85.2916 71.6855 85.2762 71.7365V71.7365Z" fill="#F9FAFA"/>
<path d="M42.6722 41.2103C42.672 42.4531 43.0405 43.6681 43.7308 44.7015C44.4212 45.7349 45.4026 46.5404 46.5507 47.016C47.6989 47.4917 48.9623 47.6162 50.1813 47.3739C51.4002 47.1315 52.5199 46.5331 53.3987 45.6543C54.2776 44.7756 54.8761 43.6559 55.1186 42.437C55.3611 41.2181 55.2367 39.9547 54.7611 38.8064C54.2856 37.6582 53.4802 36.6768 52.4468 35.9864C51.4135 35.2959 50.1986 34.9273 48.9558 34.9273C47.2899 34.9293 45.6929 35.5918 44.5149 36.7697C43.3369 37.9475 42.6742 39.5445 42.6722 41.2103V41.2103ZM53.4293 41.2103C53.4294 42.0953 53.1671 42.9604 52.6755 43.6963C52.184 44.4321 51.4852 45.0057 50.6676 45.3444C49.8501 45.6831 48.9504 45.7717 48.0825 45.5991C47.2145 45.4265 46.4172 45.0004 45.7915 44.3746C45.1657 43.7489 44.7396 42.9516 44.5669 42.0836C44.3943 41.2157 44.483 40.316 44.8217 39.4985C45.1604 38.6809 45.734 37.9821 46.4698 37.4906C47.2057 36.999 48.0708 36.7367 48.9558 36.7368C50.1418 36.7381 51.279 37.2098 52.1176 38.0485C52.9563 38.8871 53.4281 40.0243 53.4293 41.2103V41.2103Z" fill="#F9FAFA"/>
<path d="M35.3211 57.4844H31.0242C30.4643 57.4844 29.9274 57.7068 29.5315 58.1027C29.1356 58.4986 28.9132 59.0355 28.9132 59.5954V63.894C28.9132 64.4539 29.1356 64.9909 29.5315 65.3867C29.9274 65.7826 30.4643 66.005 31.0242 66.005H35.3211C35.881 66.005 36.4179 65.7826 36.8138 65.3867C37.2097 64.9909 37.4321 64.4539 37.4321 63.894V59.5954C37.4321 59.0355 37.2097 58.4986 36.8138 58.1027C36.4179 57.7068 35.881 57.4844 35.3211 57.4844ZM35.6227 63.894C35.6227 63.974 35.5909 64.0507 35.5343 64.1073C35.4778 64.1638 35.4011 64.1956 35.3211 64.1956H31.0242C30.9442 64.1956 30.8675 64.1638 30.811 64.1073C30.7544 64.0507 30.7227 63.974 30.7227 63.894V59.5954C30.7227 59.5154 30.7544 59.4387 30.811 59.3821C30.8675 59.3256 30.9442 59.2938 31.0242 59.2938H35.3211C35.4011 59.2938 35.4778 59.3256 35.5343 59.3821C35.5909 59.4387 35.6227 59.5154 35.6227 59.5954V63.894Z" fill="#F9FAFA"/>
<path d="M67.1244 57.4844H62.8251C62.2653 57.4844 61.7283 57.7068 61.3324 58.1027C60.9365 58.4986 60.7141 59.0355 60.7141 59.5954V63.894C60.7141 64.4539 60.9365 64.9909 61.3324 65.3867C61.7283 65.7826 62.2653 66.005 62.8251 66.005H67.1238C67.6837 66.005 68.2206 65.7826 68.6165 65.3867C69.0124 64.9909 69.2348 64.4539 69.2348 63.894V59.5954C69.2348 59.0356 69.0125 58.4988 68.6167 58.1029C68.221 57.707 67.6842 57.4845 67.1244 57.4844ZM67.426 63.894C67.426 63.974 67.3942 64.0507 67.3376 64.1073C67.2811 64.1638 67.2044 64.1956 67.1244 64.1956H62.8251C62.7452 64.1956 62.6684 64.1638 62.6119 64.1073C62.5553 64.0507 62.5236 63.974 62.5236 63.894V59.5954C62.5236 59.5154 62.5553 59.4387 62.6119 59.3821C62.6684 59.3256 62.7452 59.2938 62.8251 59.2938H67.1238C67.2038 59.2938 67.2805 59.3256 67.337 59.3821C67.3936 59.4387 67.4254 59.5154 67.4254 59.5954L67.426 63.894Z" fill="#F9FAFA"/>
</svg>
