<svg width="209" height="210" viewBox="0 0 209 210" fill="none" xmlns="http://www.w3.org/2000/svg">
<path d="M52.1347 0.259949L150 15.8764L100.521 93.9587L8.1227 57.26L52.1347 0.259949Z" fill="#7C5939"/>
<rect x="-1.50717" y="-3.15659" width="17.4548" height="101.345" rx="8.72739" transform="matrix(-0.343379 0.939197 0.946249 0.323439 14.4789 122.124)" fill="#7C5939" stroke="#392512" stroke-width="5"/>
<rect x="-1.50717" y="-3.15659" width="17.4548" height="113.519" rx="8.72739" transform="matrix(-0.343379 0.939197 0.946249 0.323439 13.9328 107.508)" fill="#7C5939" stroke="#392512" stroke-width="5"/>
<rect x="-1.50717" y="-3.15659" width="17.4548" height="113.519" rx="8.72739" transform="matrix(-0.343379 0.939197 0.946249 0.323439 13.3869 92.8922)" fill="#7C5939" stroke="#392512" stroke-width="5"/>
<rect x="-1.50717" y="-3.15659" width="17.4548" height="113.519" rx="8.72739" transform="matrix(-0.343379 0.939197 0.946249 0.323439 13.3869 79.3202)" fill="#7C5939" stroke="#392512" stroke-width="5"/>
<rect x="-1.50717" y="-3.15659" width="17.4548" height="113.519" rx="8.72739" transform="matrix(-0.343379 0.939197 0.946249 0.323439 13.3869 64.7042)" fill="#7C5939" stroke="#392512" stroke-width="5"/>
<path d="M100.722 91.888L198.195 69.2916L150.554 17.3431L100.722 91.888Z" fill="#7C5939"/>
<rect x="3.17437" y="1.6568" width="17.5007" height="111.74" rx="8.75036" transform="matrix(-0.311933 -0.950104 -0.957816 0.287383 207.683 142.179)" fill="#7C5939" stroke="#392512" stroke-width="5"/>
<rect x="3.17437" y="1.6568" width="17.5007" height="111.74" rx="8.75036" transform="matrix(-0.311933 -0.950104 -0.957816 0.287383 207.683 127.041)" fill="#7C5939" stroke="#392512" stroke-width="5"/>
<rect x="3.17437" y="1.6568" width="17.5007" height="111.74" rx="8.75036" transform="matrix(-0.311933 -0.950104 -0.957816 0.287383 207.683 111.903)" fill="#7C5939" stroke="#392512" stroke-width="5"/>
<rect x="3.17437" y="1.6568" width="17.5007" height="111.74" rx="8.75036" transform="matrix(-0.311933 -0.950104 -0.957816 0.287383 207.683 96.7649)" fill="#7C5939" stroke="#392512" stroke-width="5"/>
<rect x="3.17437" y="1.6568" width="17.5007" height="111.74" rx="8.75036" transform="matrix(-0.311933 -0.950104 -0.957816 0.287383 207.683 81.498)" fill="#7C5939" stroke="#392512" stroke-width="5"/>
<rect width="12.8766" height="81.4337" rx="6.43831" transform="matrix(-0.812437 0.583049 0.714114 0.70003 150.331 8.5264)" fill="#392512"/>
<rect width="16.6857" height="100.635" rx="8.34284" transform="matrix(-0.911296 -0.411753 -0.541628 0.840619 155.99 16.5606)" fill="#392512"/>
<rect width="14.597" height="106.357" rx="7.2985" transform="matrix(0.358151 -0.933664 -0.943693 -0.330822 100.369 101.626)" fill="#392512"/>
<path d="M171.661 102.241L132.13 113.941V160.221L171.661 148.521V102.241Z" fill="#261504"/>
<ellipse rx="35.0939" ry="30.7499" transform="matrix(-0.996185 -0.0872643 -0.0954163 0.995438 73.894 39.6721)" fill="#953621"/>
<rect x="15" y="180" width="143" height="30" fill="#953621"/>
<path d="M46.2461 188.203H48.8828V197.062C48.8828 197.877 48.7012 198.598 48.3379 199.225C47.9805 199.846 47.4736 200.326 46.8174 200.666C46.1611 201.006 45.4199 201.176 44.5938 201.176C43.2402 201.176 42.1855 200.833 41.4297 200.147C40.6738 199.456 40.2959 198.48 40.2959 197.221H42.9502C42.9502 197.848 43.082 198.311 43.3457 198.609C43.6094 198.908 44.0254 199.058 44.5938 199.058C45.0977 199.058 45.499 198.885 45.7979 198.539C46.0967 198.193 46.2461 197.701 46.2461 197.062V188.203ZM55.3516 201.176C53.957 201.176 52.8203 200.748 51.9414 199.893C51.0684 199.037 50.6318 197.897 50.6318 196.474V196.228C50.6318 195.272 50.8164 194.42 51.1855 193.67C51.5547 192.914 52.0762 192.334 52.75 191.93C53.4297 191.52 54.2031 191.314 55.0703 191.314C56.3711 191.314 57.3936 191.725 58.1377 192.545C58.8877 193.365 59.2627 194.528 59.2627 196.034V197.071H53.207C53.2891 197.692 53.5352 198.19 53.9453 198.565C54.3613 198.94 54.8857 199.128 55.5186 199.128C56.4971 199.128 57.2617 198.773 57.8125 198.064L59.0605 199.462C58.6797 200.001 58.1641 200.423 57.5137 200.728C56.8633 201.026 56.1426 201.176 55.3516 201.176ZM55.0615 193.371C54.5576 193.371 54.1475 193.541 53.8311 193.881C53.5205 194.221 53.3213 194.707 53.2334 195.34H56.7666V195.138C56.7549 194.575 56.6025 194.142 56.3096 193.837C56.0166 193.526 55.6006 193.371 55.0615 193.371ZM63.3936 201H60.8447V187.5H63.3936V201ZM68.1748 201H65.626V187.5H68.1748V201ZM73.8262 197.405L75.584 191.49H78.3086L74.4854 202.477L74.2744 202.978C73.7061 204.22 72.7686 204.841 71.4619 204.841C71.0928 204.841 70.7178 204.785 70.3369 204.674V202.749L70.7236 202.758C71.2041 202.758 71.5615 202.685 71.7959 202.538C72.0361 202.392 72.2236 202.148 72.3584 201.809L72.6572 201.026L69.3262 191.49H72.0596L73.8262 197.405ZM83.96 201V188.203H88.4424C89.9951 188.203 91.1729 188.502 91.9756 189.1C92.7783 189.691 93.1797 190.562 93.1797 191.71C93.1797 192.337 93.0186 192.891 92.6963 193.371C92.374 193.846 91.9258 194.194 91.3516 194.417C92.0078 194.581 92.5234 194.912 92.8984 195.41C93.2793 195.908 93.4697 196.518 93.4697 197.238C93.4697 198.469 93.0771 199.4 92.292 200.033C91.5068 200.666 90.3877 200.988 88.9346 201H83.96ZM86.5967 195.428V198.882H88.8555C89.4766 198.882 89.96 198.735 90.3057 198.442C90.6572 198.144 90.833 197.733 90.833 197.212C90.833 196.04 90.2266 195.445 89.0137 195.428H86.5967ZM86.5967 193.564H88.5479C89.8779 193.541 90.543 193.011 90.543 191.974C90.543 191.394 90.373 190.978 90.0332 190.726C89.6992 190.468 89.1689 190.339 88.4424 190.339H86.5967V193.564ZM99.666 201.176C98.2715 201.176 97.1348 200.748 96.2559 199.893C95.3828 199.037 94.9463 197.897 94.9463 196.474V196.228C94.9463 195.272 95.1309 194.42 95.5 193.67C95.8691 192.914 96.3906 192.334 97.0645 191.93C97.7441 191.52 98.5176 191.314 99.3848 191.314C100.686 191.314 101.708 191.725 102.452 192.545C103.202 193.365 103.577 194.528 103.577 196.034V197.071H97.5215C97.6035 197.692 97.8496 198.19 98.2598 198.565C98.6758 198.94 99.2002 199.128 99.833 199.128C100.812 199.128 101.576 198.773 102.127 198.064L103.375 199.462C102.994 200.001 102.479 200.423 101.828 200.728C101.178 201.026 100.457 201.176 99.666 201.176ZM99.376 193.371C98.8721 193.371 98.4619 193.541 98.1455 193.881C97.835 194.221 97.6357 194.707 97.5479 195.34H101.081V195.138C101.069 194.575 100.917 194.142 100.624 193.837C100.331 193.526 99.915 193.371 99.376 193.371ZM110.538 201C110.421 200.771 110.336 200.487 110.283 200.147C109.668 200.833 108.868 201.176 107.884 201.176C106.952 201.176 106.179 200.906 105.563 200.367C104.954 199.828 104.649 199.148 104.649 198.328C104.649 197.32 105.021 196.547 105.766 196.008C106.516 195.469 107.597 195.196 109.009 195.19H110.178V194.646C110.178 194.206 110.063 193.854 109.835 193.591C109.612 193.327 109.258 193.195 108.771 193.195C108.344 193.195 108.007 193.298 107.761 193.503C107.521 193.708 107.4 193.989 107.4 194.347H104.86C104.86 193.796 105.03 193.286 105.37 192.817C105.71 192.349 106.19 191.982 106.812 191.719C107.433 191.449 108.13 191.314 108.903 191.314C110.075 191.314 111.004 191.61 111.689 192.202C112.381 192.788 112.727 193.614 112.727 194.681V198.803C112.732 199.705 112.858 200.388 113.104 200.851V201H110.538ZM108.438 199.233C108.812 199.233 109.158 199.151 109.475 198.987C109.791 198.817 110.025 198.592 110.178 198.311V196.676H109.229C107.957 196.676 107.28 197.115 107.198 197.994L107.189 198.144C107.189 198.46 107.301 198.721 107.523 198.926C107.746 199.131 108.051 199.233 108.438 199.233ZM117.016 191.49L117.095 192.589C117.774 191.739 118.686 191.314 119.828 191.314C120.836 191.314 121.586 191.61 122.078 192.202C122.57 192.794 122.822 193.679 122.834 194.856V201H120.294V194.918C120.294 194.379 120.177 193.989 119.942 193.749C119.708 193.503 119.318 193.38 118.773 193.38C118.059 193.38 117.522 193.685 117.165 194.294V201H114.625V191.49H117.016ZM129.918 198.372C129.918 198.062 129.763 197.818 129.452 197.643C129.147 197.461 128.655 197.3 127.976 197.159C125.714 196.685 124.583 195.724 124.583 194.276C124.583 193.433 124.932 192.729 125.629 192.167C126.332 191.599 127.249 191.314 128.38 191.314C129.587 191.314 130.551 191.599 131.271 192.167C131.998 192.735 132.361 193.474 132.361 194.382H129.821C129.821 194.019 129.704 193.72 129.47 193.485C129.235 193.245 128.869 193.125 128.371 193.125C127.943 193.125 127.612 193.222 127.378 193.415C127.144 193.608 127.026 193.854 127.026 194.153C127.026 194.435 127.158 194.663 127.422 194.839C127.691 195.009 128.143 195.158 128.775 195.287C129.408 195.41 129.941 195.551 130.375 195.709C131.717 196.201 132.388 197.054 132.388 198.267C132.388 199.134 132.016 199.837 131.271 200.376C130.527 200.909 129.566 201.176 128.389 201.176C127.592 201.176 126.883 201.035 126.262 200.754C125.646 200.467 125.163 200.077 124.812 199.585C124.46 199.087 124.284 198.551 124.284 197.977H126.692C126.716 198.428 126.883 198.773 127.193 199.014C127.504 199.254 127.92 199.374 128.441 199.374C128.928 199.374 129.294 199.283 129.54 199.102C129.792 198.914 129.918 198.671 129.918 198.372Z" fill="white"/>
</svg>
