<svg width="207" height="211" viewBox="0 0 207 211" fill="none" xmlns="http://www.w3.org/2000/svg">
<path d="M155.144 0L58.2129 15.5302L107.22 93.1811L198.736 56.6852L155.144 0Z" fill="#7C5939"/>
<rect x="1.50717" y="-3.15659" width="17.3515" height="100.547" rx="8.67577" transform="matrix(0.343379 0.939197 -0.946249 0.323439 191.354 118.102)" fill="#7C5939" stroke="#392512" stroke-width="5"/>
<rect x="1.50717" y="-3.15659" width="17.3515" height="112.619" rx="8.67577" transform="matrix(0.343379 0.939197 -0.946249 0.323439 191.895 103.607)" fill="#7C5939" stroke="#392512" stroke-width="5"/>
<rect x="1.50717" y="-3.15659" width="17.3515" height="112.619" rx="8.67577" transform="matrix(0.343379 0.939197 -0.946249 0.323439 192.437 89.1122)" fill="#7C5939" stroke="#392512" stroke-width="5"/>
<rect x="1.50717" y="-3.15659" width="17.3515" height="112.619" rx="8.67577" transform="matrix(0.343379 0.939197 -0.946249 0.323439 192.437 75.6528)" fill="#7C5939" stroke="#392512" stroke-width="5"/>
<rect x="1.50717" y="-3.15659" width="17.3515" height="112.619" rx="8.67577" transform="matrix(0.343379 0.939197 -0.946249 0.323439 192.437 61.1579)" fill="#7C5939" stroke="#392512" stroke-width="5"/>
<path d="M106.679 91.1104L10.2888 68.6709L57.4007 17.0832L106.679 91.1104Z" fill="#7C5939"/>
<rect x="-3.17437" y="1.6568" width="17.3971" height="110.855" rx="8.69855" transform="matrix(0.311933 -0.950104 0.957816 0.287383 2.72721 134.83)" fill="#7C5939" stroke="#392512" stroke-width="5"/>
<rect x="-3.17437" y="1.6568" width="17.3971" height="110.855" rx="8.69855" transform="matrix(0.311933 -0.950104 0.957816 0.287383 2.72721 119.818)" fill="#7C5939" stroke="#392512" stroke-width="5"/>
<rect x="-3.17437" y="1.6568" width="17.3971" height="110.855" rx="8.69855" transform="matrix(0.311933 -0.950104 0.957816 0.287383 2.72721 104.805)" fill="#7C5939" stroke="#392512" stroke-width="5"/>
<rect x="-3.17437" y="1.6568" width="17.3971" height="110.855" rx="8.69855" transform="matrix(0.311933 -0.950104 0.957816 0.287383 2.72721 89.7928)" fill="#7C5939" stroke="#392512" stroke-width="5"/>
<rect x="-3.17437" y="1.6568" width="17.3971" height="110.855" rx="8.69855" transform="matrix(0.311933 -0.950104 0.957816 0.287383 2.72721 74.6523)" fill="#7C5939" stroke="#392512" stroke-width="5"/>
<rect width="12.7699" height="80.7587" rx="6.38494" transform="matrix(0.812437 0.583049 -0.714114 0.70003 57.6709 8.28275)" fill="#392512"/>
<rect width="16.5474" height="99.801" rx="8.27368" transform="matrix(0.911296 -0.411753 0.541628 0.840619 52.0579 16.2505)" fill="#392512"/>
<rect width="14.476" height="105.476" rx="7.238" transform="matrix(-0.358151 -0.933664 0.943693 -0.330822 107.219 100.611)" fill="#392512"/>
<path d="M36.823 101.205L75.8121 112.853V158.926L36.823 147.278V101.205Z" fill="#261504"/>
<ellipse rx="35.0939" ry="30.7499" transform="matrix(-0.996185 -0.0872643 -0.0954163 0.995438 133.894 38.4121)" fill="#1B365D"/>
<rect x="31" y="181" width="143" height="30" fill="#1B365D"/>
<path d="M54.793 189.203L58.0801 198.484L61.3496 189.203H64.8125V202H62.167V198.502L62.4307 192.464L58.9766 202H57.166L53.7207 192.473L53.9844 198.502V202H51.3477V189.203H54.793ZM72.459 202C72.3418 201.771 72.2568 201.487 72.2041 201.147C71.5889 201.833 70.7891 202.176 69.8047 202.176C68.873 202.176 68.0996 201.906 67.4844 201.367C66.875 200.828 66.5703 200.148 66.5703 199.328C66.5703 198.32 66.9424 197.547 67.6865 197.008C68.4365 196.469 69.5176 196.196 70.9297 196.19H72.0986V195.646C72.0986 195.206 71.9844 194.854 71.7559 194.591C71.5332 194.327 71.1787 194.195 70.6924 194.195C70.2646 194.195 69.9277 194.298 69.6816 194.503C69.4414 194.708 69.3213 194.989 69.3213 195.347H66.7812C66.7812 194.796 66.9512 194.286 67.291 193.817C67.6309 193.349 68.1113 192.982 68.7324 192.719C69.3535 192.449 70.0508 192.314 70.8242 192.314C71.9961 192.314 72.9248 192.61 73.6104 193.202C74.3018 193.788 74.6475 194.614 74.6475 195.681V199.803C74.6533 200.705 74.7793 201.388 75.0254 201.851V202H72.459ZM70.3584 200.233C70.7334 200.233 71.0791 200.151 71.3955 199.987C71.7119 199.817 71.9463 199.592 72.0986 199.311V197.676H71.1494C69.8779 197.676 69.2012 198.115 69.1191 198.994L69.1104 199.144C69.1104 199.46 69.2217 199.721 69.4443 199.926C69.667 200.131 69.9717 200.233 70.3584 200.233ZM76.2295 197.175C76.2295 195.716 76.5752 194.541 77.2666 193.65C77.9639 192.76 78.9014 192.314 80.0791 192.314C81.1221 192.314 81.9336 192.672 82.5137 193.387L82.6191 192.49H84.9219V201.684C84.9219 202.516 84.7314 203.239 84.3506 203.854C83.9756 204.47 83.4453 204.938 82.7598 205.261C82.0742 205.583 81.2715 205.744 80.3516 205.744C79.6543 205.744 78.9746 205.604 78.3125 205.322C77.6504 205.047 77.1494 204.689 76.8096 204.25L77.9346 202.703C78.5674 203.412 79.335 203.767 80.2373 203.767C80.9111 203.767 81.4355 203.585 81.8105 203.222C82.1855 202.864 82.373 202.354 82.373 201.692V201.183C81.7871 201.845 81.0166 202.176 80.0615 202.176C78.9189 202.176 77.9932 201.73 77.2842 200.84C76.5811 199.943 76.2295 198.757 76.2295 197.28V197.175ZM78.7695 197.359C78.7695 198.221 78.9424 198.897 79.2881 199.39C79.6338 199.876 80.1084 200.119 80.7119 200.119C81.4854 200.119 82.0391 199.829 82.373 199.249V195.25C82.0332 194.67 81.4854 194.38 80.7295 194.38C80.1201 194.38 79.6396 194.629 79.2881 195.127C78.9424 195.625 78.7695 196.369 78.7695 197.359ZM89.5625 202H87.0137V192.49H89.5625V202ZM86.8643 190.029C86.8643 189.648 86.9902 189.335 87.2422 189.089C87.5 188.843 87.8486 188.72 88.2881 188.72C88.7217 188.72 89.0674 188.843 89.3252 189.089C89.583 189.335 89.7119 189.648 89.7119 190.029C89.7119 190.416 89.5801 190.732 89.3164 190.979C89.0586 191.225 88.7158 191.348 88.2881 191.348C87.8604 191.348 87.5146 191.225 87.251 190.979C86.9932 190.732 86.8643 190.416 86.8643 190.029ZM95.6182 200.128C96.0869 200.128 96.4678 199.999 96.7607 199.741C97.0537 199.483 97.2061 199.141 97.2178 198.713H99.5996C99.5938 199.357 99.418 199.949 99.0723 200.488C98.7266 201.021 98.252 201.438 97.6484 201.736C97.0508 202.029 96.3887 202.176 95.6621 202.176C94.3027 202.176 93.2305 201.745 92.4453 200.884C91.6602 200.017 91.2676 198.821 91.2676 197.298V197.131C91.2676 195.666 91.6572 194.497 92.4365 193.624C93.2158 192.751 94.2852 192.314 95.6445 192.314C96.834 192.314 97.7861 192.654 98.501 193.334C99.2217 194.008 99.5879 194.907 99.5996 196.032H97.2178C97.2061 195.54 97.0537 195.142 96.7607 194.837C96.4678 194.526 96.0811 194.371 95.6006 194.371C95.0088 194.371 94.5605 194.588 94.2559 195.021C93.957 195.449 93.8076 196.146 93.8076 197.113V197.377C93.8076 198.355 93.957 199.059 94.2559 199.486C94.5547 199.914 95.0088 200.128 95.6182 200.128ZM105.699 202V189.203H110.182C111.734 189.203 112.912 189.502 113.715 190.1C114.518 190.691 114.919 191.562 114.919 192.71C114.919 193.337 114.758 193.891 114.436 194.371C114.113 194.846 113.665 195.194 113.091 195.417C113.747 195.581 114.263 195.912 114.638 196.41C115.019 196.908 115.209 197.518 115.209 198.238C115.209 199.469 114.816 200.4 114.031 201.033C113.246 201.666 112.127 201.988 110.674 202H105.699ZM108.336 196.428V199.882H110.595C111.216 199.882 111.699 199.735 112.045 199.442C112.396 199.144 112.572 198.733 112.572 198.212C112.572 197.04 111.966 196.445 110.753 196.428H108.336ZM108.336 194.564H110.287C111.617 194.541 112.282 194.011 112.282 192.974C112.282 192.394 112.112 191.978 111.772 191.726C111.438 191.468 110.908 191.339 110.182 191.339H108.336V194.564ZM121.405 202.176C120.011 202.176 118.874 201.748 117.995 200.893C117.122 200.037 116.686 198.897 116.686 197.474V197.228C116.686 196.272 116.87 195.42 117.239 194.67C117.608 193.914 118.13 193.334 118.804 192.93C119.483 192.52 120.257 192.314 121.124 192.314C122.425 192.314 123.447 192.725 124.191 193.545C124.941 194.365 125.316 195.528 125.316 197.034V198.071H119.261C119.343 198.692 119.589 199.19 119.999 199.565C120.415 199.94 120.939 200.128 121.572 200.128C122.551 200.128 123.315 199.773 123.866 199.064L125.114 200.462C124.733 201.001 124.218 201.423 123.567 201.728C122.917 202.026 122.196 202.176 121.405 202.176ZM121.115 194.371C120.611 194.371 120.201 194.541 119.885 194.881C119.574 195.221 119.375 195.707 119.287 196.34H122.82V196.138C122.809 195.575 122.656 195.142 122.363 194.837C122.07 194.526 121.654 194.371 121.115 194.371ZM132.277 202C132.16 201.771 132.075 201.487 132.022 201.147C131.407 201.833 130.607 202.176 129.623 202.176C128.691 202.176 127.918 201.906 127.303 201.367C126.693 200.828 126.389 200.148 126.389 199.328C126.389 198.32 126.761 197.547 127.505 197.008C128.255 196.469 129.336 196.196 130.748 196.19H131.917V195.646C131.917 195.206 131.803 194.854 131.574 194.591C131.352 194.327 130.997 194.195 130.511 194.195C130.083 194.195 129.746 194.298 129.5 194.503C129.26 194.708 129.14 194.989 129.14 195.347H126.6C126.6 194.796 126.77 194.286 127.109 193.817C127.449 193.349 127.93 192.982 128.551 192.719C129.172 192.449 129.869 192.314 130.643 192.314C131.814 192.314 132.743 192.61 133.429 193.202C134.12 193.788 134.466 194.614 134.466 195.681V199.803C134.472 200.705 134.598 201.388 134.844 201.851V202H132.277ZM130.177 200.233C130.552 200.233 130.897 200.151 131.214 199.987C131.53 199.817 131.765 199.592 131.917 199.311V197.676H130.968C129.696 197.676 129.02 198.115 128.938 198.994L128.929 199.144C128.929 199.46 129.04 199.721 129.263 199.926C129.485 200.131 129.79 200.233 130.177 200.233ZM138.755 192.49L138.834 193.589C139.514 192.739 140.425 192.314 141.567 192.314C142.575 192.314 143.325 192.61 143.817 193.202C144.31 193.794 144.562 194.679 144.573 195.856V202H142.033V195.918C142.033 195.379 141.916 194.989 141.682 194.749C141.447 194.503 141.058 194.38 140.513 194.38C139.798 194.38 139.262 194.685 138.904 195.294V202H136.364V192.49H138.755ZM151.657 199.372C151.657 199.062 151.502 198.818 151.191 198.643C150.887 198.461 150.395 198.3 149.715 198.159C147.453 197.685 146.322 196.724 146.322 195.276C146.322 194.433 146.671 193.729 147.368 193.167C148.071 192.599 148.988 192.314 150.119 192.314C151.326 192.314 152.29 192.599 153.011 193.167C153.737 193.735 154.101 194.474 154.101 195.382H151.561C151.561 195.019 151.443 194.72 151.209 194.485C150.975 194.245 150.608 194.125 150.11 194.125C149.683 194.125 149.352 194.222 149.117 194.415C148.883 194.608 148.766 194.854 148.766 195.153C148.766 195.435 148.897 195.663 149.161 195.839C149.431 196.009 149.882 196.158 150.515 196.287C151.147 196.41 151.681 196.551 152.114 196.709C153.456 197.201 154.127 198.054 154.127 199.267C154.127 200.134 153.755 200.837 153.011 201.376C152.267 201.909 151.306 202.176 150.128 202.176C149.331 202.176 148.622 202.035 148.001 201.754C147.386 201.467 146.902 201.077 146.551 200.585C146.199 200.087 146.023 199.551 146.023 198.977H148.432C148.455 199.428 148.622 199.773 148.933 200.014C149.243 200.254 149.659 200.374 150.181 200.374C150.667 200.374 151.033 200.283 151.279 200.102C151.531 199.914 151.657 199.671 151.657 199.372Z" fill="white"/>
</svg>
