<svg width="207" height="210" viewBox="0 0 207 210" fill="none" xmlns="http://www.w3.org/2000/svg">
<path d="M155.144 0L58.2129 15.5302L107.22 93.1811L198.736 56.6852L155.144 0Z" fill="#7C5939"/>
<rect x="1.50717" y="-3.15659" width="17.3515" height="100.547" rx="8.67577" transform="matrix(0.343379 0.939197 -0.946249 0.323439 191.354 118.102)" fill="#7C5939" stroke="#392512" stroke-width="5"/>
<rect x="1.50717" y="-3.15659" width="17.3515" height="112.619" rx="8.67577" transform="matrix(0.343379 0.939197 -0.946249 0.323439 191.895 103.607)" fill="#7C5939" stroke="#392512" stroke-width="5"/>
<rect x="1.50717" y="-3.15659" width="17.3515" height="112.619" rx="8.67577" transform="matrix(0.343379 0.939197 -0.946249 0.323439 192.437 89.1122)" fill="#7C5939" stroke="#392512" stroke-width="5"/>
<rect x="1.50717" y="-3.15659" width="17.3515" height="112.619" rx="8.67577" transform="matrix(0.343379 0.939197 -0.946249 0.323439 192.437 75.6528)" fill="#7C5939" stroke="#392512" stroke-width="5"/>
<rect x="1.50717" y="-3.15659" width="17.3515" height="112.619" rx="8.67577" transform="matrix(0.343379 0.939197 -0.946249 0.323439 192.437 61.1579)" fill="#7C5939" stroke="#392512" stroke-width="5"/>
<path d="M106.679 91.1104L10.2888 68.6709L57.4007 17.0832L106.679 91.1104Z" fill="#7C5939"/>
<rect x="-3.17437" y="1.6568" width="17.3971" height="110.855" rx="8.69855" transform="matrix(0.311933 -0.950104 0.957816 0.287383 2.72721 134.83)" fill="#7C5939" stroke="#392512" stroke-width="5"/>
<rect x="-3.17437" y="1.6568" width="17.3971" height="110.855" rx="8.69855" transform="matrix(0.311933 -0.950104 0.957816 0.287383 2.72721 119.818)" fill="#7C5939" stroke="#392512" stroke-width="5"/>
<rect x="-3.17437" y="1.6568" width="17.3971" height="110.855" rx="8.69855" transform="matrix(0.311933 -0.950104 0.957816 0.287383 2.72721 104.805)" fill="#7C5939" stroke="#392512" stroke-width="5"/>
<rect x="-3.17437" y="1.6568" width="17.3971" height="110.855" rx="8.69855" transform="matrix(0.311933 -0.950104 0.957816 0.287383 2.72721 89.7928)" fill="#7C5939" stroke="#392512" stroke-width="5"/>
<rect x="-3.17437" y="1.6568" width="17.3971" height="110.855" rx="8.69855" transform="matrix(0.311933 -0.950104 0.957816 0.287383 2.72721 74.6523)" fill="#7C5939" stroke="#392512" stroke-width="5"/>
<rect width="12.7699" height="80.7587" rx="6.38494" transform="matrix(0.812437 0.583049 -0.714114 0.70003 57.6709 8.28275)" fill="#392512"/>
<rect width="16.5474" height="99.801" rx="8.27368" transform="matrix(0.911296 -0.411753 0.541628 0.840619 52.0579 16.2505)" fill="#392512"/>
<rect width="14.476" height="105.476" rx="7.238" transform="matrix(-0.358151 -0.933664 0.943693 -0.330822 107.219 100.611)" fill="#392512"/>
<path d="M36.823 101.205L75.8121 112.853V158.926L36.823 147.278V101.205Z" fill="#261504"/>
<ellipse rx="35.0939" ry="30.7499" transform="matrix(-0.99618 0.0873296 0.0791718 0.996861 133.394 37.4582)" fill="#CCAD0D"/>
<rect x="31" y="180" width="143" height="30" fill="#CCAD0D"/>
<path d="M60.7432 196.737C60.6436 198.114 60.1338 199.198 59.2139 199.989C58.2998 200.78 57.0928 201.176 55.5928 201.176C53.9521 201.176 52.6602 200.625 51.7168 199.523C50.7793 198.416 50.3105 196.898 50.3105 194.971V194.188C50.3105 192.958 50.5273 191.874 50.9609 190.937C51.3945 189.999 52.0127 189.281 52.8154 188.783C53.624 188.279 54.5615 188.027 55.6279 188.027C57.1045 188.027 58.2939 188.423 59.1963 189.214C60.0986 190.005 60.6201 191.115 60.7607 192.545H58.124C58.0596 191.719 57.8281 191.121 57.4297 190.752C57.0371 190.377 56.4365 190.189 55.6279 190.189C54.749 190.189 54.0898 190.506 53.6504 191.139C53.2168 191.766 52.9941 192.741 52.9824 194.065V195.032C52.9824 196.415 53.1904 197.426 53.6064 198.064C54.0283 198.703 54.6904 199.022 55.5928 199.022C56.4072 199.022 57.0137 198.838 57.4121 198.469C57.8164 198.094 58.0479 197.517 58.1064 196.737H60.7432ZM61.9121 196.157C61.9121 195.214 62.0938 194.373 62.457 193.635C62.8203 192.896 63.3418 192.325 64.0215 191.921C64.707 191.517 65.501 191.314 66.4033 191.314C67.6865 191.314 68.7324 191.707 69.541 192.492C70.3555 193.277 70.8096 194.344 70.9033 195.691L70.9209 196.342C70.9209 197.801 70.5137 198.973 69.6992 199.857C68.8848 200.736 67.792 201.176 66.4209 201.176C65.0498 201.176 63.9541 200.736 63.1338 199.857C62.3193 198.979 61.9121 197.783 61.9121 196.271V196.157ZM64.4521 196.342C64.4521 197.244 64.6221 197.936 64.9619 198.416C65.3018 198.891 65.7881 199.128 66.4209 199.128C67.0361 199.128 67.5166 198.894 67.8623 198.425C68.208 197.95 68.3809 197.194 68.3809 196.157C68.3809 195.272 68.208 194.587 67.8623 194.101C67.5166 193.614 67.0303 193.371 66.4033 193.371C65.7822 193.371 65.3018 193.614 64.9619 194.101C64.6221 194.581 64.4521 195.328 64.4521 196.342ZM76.4404 199.128C76.9092 199.128 77.29 198.999 77.583 198.741C77.876 198.483 78.0283 198.141 78.04 197.713H80.4219C80.416 198.357 80.2402 198.949 79.8945 199.488C79.5488 200.021 79.0742 200.438 78.4707 200.736C77.873 201.029 77.2109 201.176 76.4844 201.176C75.125 201.176 74.0527 200.745 73.2676 199.884C72.4824 199.017 72.0898 197.821 72.0898 196.298V196.131C72.0898 194.666 72.4795 193.497 73.2588 192.624C74.0381 191.751 75.1074 191.314 76.4668 191.314C77.6562 191.314 78.6084 191.654 79.3232 192.334C80.0439 193.008 80.4102 193.907 80.4219 195.032H78.04C78.0283 194.54 77.876 194.142 77.583 193.837C77.29 193.526 76.9033 193.371 76.4229 193.371C75.8311 193.371 75.3828 193.588 75.0781 194.021C74.7793 194.449 74.6299 195.146 74.6299 196.113V196.377C74.6299 197.355 74.7793 198.059 75.0781 198.486C75.377 198.914 75.8311 199.128 76.4404 199.128ZM81.4766 196.157C81.4766 195.214 81.6582 194.373 82.0215 193.635C82.3848 192.896 82.9062 192.325 83.5859 191.921C84.2715 191.517 85.0654 191.314 85.9678 191.314C87.251 191.314 88.2969 191.707 89.1055 192.492C89.9199 193.277 90.374 194.344 90.4678 195.691L90.4854 196.342C90.4854 197.801 90.0781 198.973 89.2637 199.857C88.4492 200.736 87.3564 201.176 85.9854 201.176C84.6143 201.176 83.5186 200.736 82.6982 199.857C81.8838 198.979 81.4766 197.783 81.4766 196.271V196.157ZM84.0166 196.342C84.0166 197.244 84.1865 197.936 84.5264 198.416C84.8662 198.891 85.3525 199.128 85.9854 199.128C86.6006 199.128 87.0811 198.894 87.4268 198.425C87.7725 197.95 87.9453 197.194 87.9453 196.157C87.9453 195.272 87.7725 194.587 87.4268 194.101C87.0811 193.614 86.5947 193.371 85.9678 193.371C85.3467 193.371 84.8662 193.614 84.5264 194.101C84.1865 194.581 84.0166 195.328 84.0166 196.342ZM97.5605 201C97.4434 200.771 97.3584 200.487 97.3057 200.147C96.6904 200.833 95.8906 201.176 94.9062 201.176C93.9746 201.176 93.2012 200.906 92.5859 200.367C91.9766 199.828 91.6719 199.148 91.6719 198.328C91.6719 197.32 92.0439 196.547 92.7881 196.008C93.5381 195.469 94.6191 195.196 96.0312 195.19H97.2002V194.646C97.2002 194.206 97.0859 193.854 96.8574 193.591C96.6348 193.327 96.2803 193.195 95.7939 193.195C95.3662 193.195 95.0293 193.298 94.7832 193.503C94.543 193.708 94.4229 193.989 94.4229 194.347H91.8828C91.8828 193.796 92.0527 193.286 92.3926 192.817C92.7324 192.349 93.2129 191.982 93.834 191.719C94.4551 191.449 95.1523 191.314 95.9258 191.314C97.0977 191.314 98.0264 191.61 98.7119 192.202C99.4033 192.788 99.749 193.614 99.749 194.681V198.803C99.7549 199.705 99.8809 200.388 100.127 200.851V201H97.5605ZM95.46 199.233C95.835 199.233 96.1807 199.151 96.4971 198.987C96.8135 198.817 97.0479 198.592 97.2002 198.311V196.676H96.251C94.9795 196.676 94.3027 197.115 94.2207 197.994L94.2119 198.144C94.2119 198.46 94.3232 198.721 94.5459 198.926C94.7686 199.131 95.0732 199.233 95.46 199.233ZM106.35 201V188.203H110.832C112.385 188.203 113.562 188.502 114.365 189.1C115.168 189.691 115.569 190.562 115.569 191.71C115.569 192.337 115.408 192.891 115.086 193.371C114.764 193.846 114.315 194.194 113.741 194.417C114.397 194.581 114.913 194.912 115.288 195.41C115.669 195.908 115.859 196.518 115.859 197.238C115.859 198.469 115.467 199.4 114.682 200.033C113.896 200.666 112.777 200.988 111.324 201H106.35ZM108.986 195.428V198.882H111.245C111.866 198.882 112.35 198.735 112.695 198.442C113.047 198.144 113.223 197.733 113.223 197.212C113.223 196.04 112.616 195.445 111.403 195.428H108.986ZM108.986 193.564H110.938C112.268 193.541 112.933 193.011 112.933 191.974C112.933 191.394 112.763 190.978 112.423 190.726C112.089 190.468 111.559 190.339 110.832 190.339H108.986V193.564ZM122.056 201.176C120.661 201.176 119.524 200.748 118.646 199.893C117.772 199.037 117.336 197.897 117.336 196.474V196.228C117.336 195.272 117.521 194.42 117.89 193.67C118.259 192.914 118.78 192.334 119.454 191.93C120.134 191.52 120.907 191.314 121.774 191.314C123.075 191.314 124.098 191.725 124.842 192.545C125.592 193.365 125.967 194.528 125.967 196.034V197.071H119.911C119.993 197.692 120.239 198.19 120.649 198.565C121.065 198.94 121.59 199.128 122.223 199.128C123.201 199.128 123.966 198.773 124.517 198.064L125.765 199.462C125.384 200.001 124.868 200.423 124.218 200.728C123.567 201.026 122.847 201.176 122.056 201.176ZM121.766 193.371C121.262 193.371 120.852 193.541 120.535 193.881C120.225 194.221 120.025 194.707 119.938 195.34H123.471V195.138C123.459 194.575 123.307 194.142 123.014 193.837C122.721 193.526 122.305 193.371 121.766 193.371ZM132.928 201C132.811 200.771 132.726 200.487 132.673 200.147C132.058 200.833 131.258 201.176 130.273 201.176C129.342 201.176 128.568 200.906 127.953 200.367C127.344 199.828 127.039 199.148 127.039 198.328C127.039 197.32 127.411 196.547 128.155 196.008C128.905 195.469 129.986 195.196 131.398 195.19H132.567V194.646C132.567 194.206 132.453 193.854 132.225 193.591C132.002 193.327 131.647 193.195 131.161 193.195C130.733 193.195 130.396 193.298 130.15 193.503C129.91 193.708 129.79 193.989 129.79 194.347H127.25C127.25 193.796 127.42 193.286 127.76 192.817C128.1 192.349 128.58 191.982 129.201 191.719C129.822 191.449 130.52 191.314 131.293 191.314C132.465 191.314 133.394 191.61 134.079 192.202C134.771 192.788 135.116 193.614 135.116 194.681V198.803C135.122 199.705 135.248 200.388 135.494 200.851V201H132.928ZM130.827 199.233C131.202 199.233 131.548 199.151 131.864 198.987C132.181 198.817 132.415 198.592 132.567 198.311V196.676H131.618C130.347 196.676 129.67 197.115 129.588 197.994L129.579 198.144C129.579 198.46 129.69 198.721 129.913 198.926C130.136 199.131 130.44 199.233 130.827 199.233ZM139.405 191.49L139.484 192.589C140.164 191.739 141.075 191.314 142.218 191.314C143.226 191.314 143.976 191.61 144.468 192.202C144.96 192.794 145.212 193.679 145.224 194.856V201H142.684V194.918C142.684 194.379 142.566 193.989 142.332 193.749C142.098 193.503 141.708 193.38 141.163 193.38C140.448 193.38 139.912 193.685 139.555 194.294V201H137.015V191.49H139.405ZM152.308 198.372C152.308 198.062 152.152 197.818 151.842 197.643C151.537 197.461 151.045 197.3 150.365 197.159C148.104 196.685 146.973 195.724 146.973 194.276C146.973 193.433 147.321 192.729 148.019 192.167C148.722 191.599 149.639 191.314 150.77 191.314C151.977 191.314 152.94 191.599 153.661 192.167C154.388 192.735 154.751 193.474 154.751 194.382H152.211C152.211 194.019 152.094 193.72 151.859 193.485C151.625 193.245 151.259 193.125 150.761 193.125C150.333 193.125 150.002 193.222 149.768 193.415C149.533 193.608 149.416 193.854 149.416 194.153C149.416 194.435 149.548 194.663 149.812 194.839C150.081 195.009 150.532 195.158 151.165 195.287C151.798 195.41 152.331 195.551 152.765 195.709C154.106 196.201 154.777 197.054 154.777 198.267C154.777 199.134 154.405 199.837 153.661 200.376C152.917 200.909 151.956 201.176 150.778 201.176C149.981 201.176 149.272 201.035 148.651 200.754C148.036 200.467 147.553 200.077 147.201 199.585C146.85 199.087 146.674 198.551 146.674 197.977H149.082C149.105 198.428 149.272 198.773 149.583 199.014C149.894 199.254 150.31 199.374 150.831 199.374C151.317 199.374 151.684 199.283 151.93 199.102C152.182 198.914 152.308 198.671 152.308 198.372Z" fill="white"/>
</svg>
