<svg width="156" height="157" viewBox="0 0 156 157" fill="none" xmlns="http://www.w3.org/2000/svg">
<g filter="url(#filter0_d)">
<g clip-path="url(#clip0)">
<rect x="4" width="148" height="149" rx="74" fill="#953621"/>
<path d="M100.594 150.788C95.9757 150.93 91.5917 150.642 87.2112 150.197C83.3335 149.803 79.4473 149.5 75.5408 149.438C70.4326 149.355 65.3279 149.565 60.221 149.584C54.9649 149.604 49.7153 149.454 44.4973 148.849C40.6261 148.4 36.8089 147.671 33.0852 146.54C28.4702 145.138 24.5977 142.712 21.5303 139.114C19.2322 136.418 17.0101 133.662 15.6565 130.411C12.8829 123.754 12.8733 117.096 16.1286 110.535C18.5816 105.589 22.1022 101.488 26.9251 98.4553C30.2839 96.3423 33.9693 95.134 37.9658 94.8405C39.8801 94.6994 41.7628 95.0157 43.6412 95.3499C47.9258 96.1122 51.9876 97.5342 56.0114 99.0703C58.1861 99.9004 60.3842 100.662 62.6061 101.365C63.6097 101.682 64.6391 101.895 65.6881 102.018C67.1494 102.189 68.5372 101.999 69.8537 101.302C70.7278 100.839 71.7047 100.597 72.6533 100.302C74.2751 99.8005 75.865 99.2337 77.4 98.5186C80.7221 96.9727 84.2416 96.0145 87.8439 95.2973C91.6971 94.5307 95.5714 93.894 99.4894 93.5141C106.272 92.8584 112.905 93.3505 119.294 95.7401C122.613 96.9811 125.686 98.6488 128.519 100.704C131.962 103.201 135.121 105.976 137.601 109.392C139.39 111.856 140.686 114.523 141.185 117.508C141.625 120.133 141.51 122.751 140.974 125.36C140.296 128.653 139.253 131.82 137.427 134.717C135.37 137.976 132.501 140.484 129.279 142.662C124.459 145.919 119.119 147.993 113.376 149.201C109.089 150.105 104.774 150.713 100.594 150.788Z" fill="#362615"/>
<g style="mix-blend-mode:soft-light">
<g style="mix-blend-mode:overlay">
<path d="M50.1988 40.4873L49.0422 38.1291H49.2963C49.372 38.1285 49.4462 38.1068 49.5108 38.0666C49.5755 38.0263 49.6281 37.9689 49.6632 37.9004C49.7042 37.824 49.7252 37.738 49.7242 37.6509C49.7232 37.5637 49.7002 37.4783 49.6575 37.4028L48.6134 35.2606H48.7927C48.8685 35.2599 48.9426 35.2382 49.0073 35.1979C49.0719 35.1576 49.1246 35.1002 49.1596 35.0317C49.2017 34.9529 49.2226 34.8642 49.2201 34.7745C49.2175 34.6848 49.1917 34.5974 49.1452 34.5212L47.795 32.3916H47.8263C47.9021 32.3909 47.9762 32.3693 48.0409 32.329C48.1055 32.2887 48.1582 32.2313 48.1933 32.1629C48.2352 32.0852 48.2563 31.9976 48.2545 31.9089C48.2527 31.8202 48.228 31.7336 48.1829 31.6578L46.9145 29.5229C46.9836 29.5215 47.0509 29.5006 47.1089 29.4624C47.1669 29.4241 47.2132 29.3702 47.2427 29.3065C47.2765 29.2373 47.2912 29.16 47.2852 29.083C47.2793 29.0059 47.2529 28.932 47.209 28.869L45.9277 26.8749C45.8909 26.8152 45.8399 26.7661 45.7794 26.732C45.7189 26.6979 45.6509 26.68 45.5818 26.68C45.5127 26.68 45.4447 26.6979 45.3842 26.732C45.3237 26.7661 45.2726 26.8152 45.2359 26.8749L43.9546 28.869C43.9103 28.9319 43.8837 29.0058 43.8775 29.0829C43.8713 29.16 43.8858 29.2374 43.9194 29.3068C43.9489 29.3705 43.9952 29.4244 44.0532 29.4627C44.1112 29.5009 44.1785 29.5218 44.2476 29.5232L43.646 30.5366L42.6133 29.1853C42.5743 29.1342 42.553 29.0714 42.5529 29.0066V28.7506C42.5526 28.5567 42.4768 28.3709 42.3423 28.2338C42.2077 28.0968 42.0253 28.0197 41.835 28.0195H40.4864C40.2962 28.0197 40.1138 28.0968 39.9792 28.2339C39.8447 28.3709 39.769 28.5567 39.7686 28.7506V29.0063C39.7686 29.071 39.7474 29.1338 39.7084 29.1849L38.6189 30.6107L37.9725 29.5232C38.0415 29.5218 38.1088 29.5009 38.1668 29.4627C38.2247 29.4245 38.2711 29.3706 38.3006 29.307C38.3342 29.2376 38.3487 29.1601 38.3425 29.083C38.3363 29.0059 38.3096 28.9319 38.2654 28.869L36.9841 26.8749C36.9474 26.8151 36.8963 26.7658 36.8357 26.7316C36.7752 26.6974 36.7071 26.6794 36.6378 26.6794C36.5686 26.6794 36.5005 26.6974 36.4399 26.7316C36.3793 26.7658 36.3283 26.8151 36.2915 26.8749L35.0102 28.869C34.966 28.9319 34.9394 29.0059 34.9332 29.083C34.927 29.1601 34.9415 29.2376 34.9751 29.307C35.0047 29.3707 35.0511 29.4247 35.1093 29.4629C35.1674 29.5011 35.2348 29.522 35.304 29.5232L35.0518 29.9479C34.8861 29.9619 34.7316 30.0387 34.6188 30.1632C34.506 30.2877 34.4431 30.4507 34.4427 30.6201V30.9735L34.0391 31.6543C33.9931 31.7304 33.9678 31.8176 33.9655 31.907C33.9633 31.9964 33.9843 32.0847 34.0264 32.1632C34.0615 32.2316 34.1142 32.289 34.1788 32.3293C34.2435 32.3696 34.3176 32.3912 34.3934 32.3919H34.4247L33.072 34.5227C33.026 34.5988 33.0006 34.6859 32.9983 34.7753C32.9961 34.8647 33.0172 34.953 33.0593 35.0314C33.0943 35.1 33.147 35.1575 33.2116 35.1978C33.2763 35.2381 33.3505 35.2597 33.4263 35.2603H33.6054L32.5615 37.4028C32.5186 37.4783 32.4955 37.5638 32.4945 37.651C32.4935 37.7382 32.5145 37.8242 32.5556 37.9007C32.5907 37.9692 32.6434 38.0266 32.708 38.0669C32.7726 38.1071 32.8468 38.1288 32.9225 38.1294H33.2202L32.0635 40.4873C32.0174 40.5679 31.9924 40.6594 31.9911 40.7528C31.9897 40.8461 32.0121 40.9383 32.0559 41.0203C32.0932 41.0934 32.1493 41.1549 32.2183 41.1979C32.2873 41.241 32.3665 41.2641 32.4474 41.2648H35.2628V42.692C35.263 42.8488 35.3242 42.9992 35.433 43.1101C35.5418 43.221 35.6894 43.2834 35.8433 43.2836H46.4693C46.6232 43.2834 46.7708 43.221 46.8796 43.1101C46.9885 42.9992 47.0497 42.8488 47.0499 42.692V41.2648H49.8151C49.896 41.2642 49.9752 41.241 50.0441 41.1979C50.1131 41.1549 50.1692 41.0934 50.2064 41.0203C50.2504 40.9383 50.2727 40.8461 50.2714 40.7528C50.2701 40.6594 50.245 40.5679 50.1988 40.4873V40.4873ZM36.6379 27.1404L37.8858 29.0825H37.6831C37.6361 29.0827 37.5899 29.0957 37.5494 29.12C37.5089 29.1443 37.4755 29.1792 37.4525 29.221C37.4284 29.2647 37.416 29.3141 37.4168 29.3642C37.4175 29.4143 37.4313 29.4634 37.4567 29.5063L38.3339 30.9831L37.1504 32.5304V32.2253C37.2816 32.18 37.3955 32.0941 37.4764 31.9795C37.5573 31.865 37.601 31.7275 37.6014 31.5864V30.6201C37.6012 30.4404 37.531 30.268 37.4063 30.1409C37.2815 30.0137 37.1124 29.9422 36.9359 29.942H35.5598L35.8192 29.5063C35.8446 29.4632 35.8584 29.4141 35.859 29.3639C35.8596 29.3137 35.8472 29.2643 35.8228 29.2206C35.7999 29.1788 35.7665 29.1439 35.7259 29.1195C35.6854 29.0952 35.6393 29.0823 35.5922 29.0821H35.3905L36.6379 27.1404ZM34.8743 30.6201C34.8744 30.5572 34.899 30.4968 34.9427 30.4523C34.9864 30.4078 35.0456 30.3827 35.1074 30.3826H36.9359C36.9977 30.3827 37.057 30.4078 37.1007 30.4523C37.1443 30.4968 37.1689 30.5572 37.169 30.6201V31.5864C37.169 31.6494 37.1444 31.7098 37.1007 31.7543C37.057 31.7989 36.9978 31.824 36.9359 31.824H35.1074C35.0456 31.824 34.9863 31.7989 34.9426 31.7543C34.8989 31.7098 34.8744 31.6494 34.8743 31.5864V30.6201ZM36.718 32.2651V33.0962L35.3252 34.9175V32.2647L36.718 32.2651ZM34.4039 31.9512C34.3989 31.9411 34.3964 31.9299 34.3967 31.9185C34.3969 31.9072 34.3999 31.8961 34.4053 31.8862L34.4713 31.7748C34.4886 31.837 34.5145 31.8964 34.5482 31.9511L34.4039 31.9512ZM35.2628 40.8242H32.4478C32.4371 40.8145 32.4297 40.8015 32.4269 40.7872C32.4232 40.7749 32.422 40.7619 32.4234 40.7491C32.4248 40.7363 32.4288 40.7239 32.4351 40.7127C32.439 40.7063 32.4427 40.6997 32.4461 40.6928L33.7634 38.0071C33.7799 37.9735 33.7877 37.9361 33.786 37.8986C33.7844 37.8611 33.7733 37.8246 33.7539 37.7927C33.7345 37.7607 33.7075 37.7343 33.6753 37.7161C33.6431 37.6978 33.6068 37.6882 33.57 37.6882H32.9345C32.9296 37.6788 32.927 37.6684 32.9268 37.6578C32.9266 37.6472 32.9289 37.6366 32.9335 37.6271C32.9375 37.6207 32.9412 37.614 32.9445 37.6071L34.1063 35.2234C34.1271 35.1802 34.1368 35.1324 34.1346 35.0843C34.1323 35.0362 34.1181 34.9895 34.0933 34.9486C34.0698 34.9093 34.0369 34.8769 33.9975 34.8543C33.9582 34.8318 33.9139 34.82 33.8687 34.8199H33.4382C33.4333 34.8109 33.4306 34.8007 33.4302 34.7904C33.4299 34.78 33.4319 34.7697 33.4361 34.7603L34.8928 32.4631V35.4829L34.0578 36.5749C33.9925 36.6626 33.9525 36.7672 33.9423 36.8769C33.9321 36.9865 33.9522 37.0969 34.0003 37.1955C34.0483 37.2942 34.1225 37.3772 34.2143 37.4352C34.3062 37.4933 34.4121 37.524 34.5202 37.524H35.2628V40.8242ZM46.6181 42.692C46.618 42.732 46.6024 42.7704 46.5746 42.7987C46.5469 42.827 46.5092 42.8429 46.4699 42.843H35.8433C35.804 42.8429 35.7664 42.827 35.7386 42.7987C35.7108 42.7704 35.6952 42.732 35.6951 42.692V42.4398H46.6181V42.692ZM35.6957 41.9992V40.1847H36.4714V41.9992H35.6957ZM36.9038 41.9992V40.1847H37.6377V41.9992H36.9038ZM38.0701 41.9992V40.1847H38.8598V41.9992H38.0701ZM39.2922 41.9992V39.4282C39.29 39.1767 39.3367 38.9273 39.4297 38.6944C39.5226 38.4614 39.6599 38.2495 39.8336 38.0709C40.0073 37.8923 40.2141 37.7506 40.4418 37.6538C40.6696 37.5571 40.9139 37.5073 41.1607 37.5073C41.4075 37.5073 41.6518 37.5571 41.8796 37.6538C42.1074 37.7506 42.3141 37.8923 42.4878 38.0709C42.6616 38.2495 42.7988 38.4614 42.8918 38.6944C42.9847 38.9273 43.0314 39.1767 43.0293 39.4282V41.9984L39.2922 41.9992ZM43.4617 41.9992V40.1847H44.2436V41.9992H43.4617ZM44.6759 41.9992V40.1847H45.41V41.9992H44.6759ZM46.6181 41.9992H45.8418V40.1847H46.6181V41.9992ZM46.6181 39.7441H43.4617V39.4282C43.4641 39.1187 43.4063 38.8118 43.2918 38.5252C43.1772 38.2386 43.0081 37.9779 42.7942 37.7582C42.5803 37.5385 42.3258 37.3641 42.0455 37.2451C41.7651 37.1261 41.4644 37.0648 41.1607 37.0648C40.857 37.0648 40.5563 37.1261 40.276 37.2451C39.9956 37.3641 39.7411 37.5385 39.5272 37.7582C39.3133 37.9779 39.1442 38.2386 39.0297 38.5252C38.9151 38.8118 38.8574 39.1187 38.8598 39.4282V39.7441H35.6951V37.3773L36.112 36.8117H46.2001L46.6169 37.3773L46.6181 39.7441ZM45.6534 36.0691L45.876 36.3711H36.4367L36.6588 36.0691H45.6534ZM36.9839 35.6285L40.9161 30.2928C40.9451 30.2564 40.9817 30.2271 41.0233 30.2069C41.0649 30.1868 41.1103 30.1763 41.1563 30.1763C41.2023 30.1763 41.2478 30.1868 41.2893 30.2069C41.3309 30.2271 41.3675 30.2564 41.3966 30.2928L45.3287 35.6285H36.9839ZM46.9418 37.0834L41.7422 30.0284C41.6739 29.9358 41.5855 29.8606 41.4838 29.8089C41.3821 29.7571 41.27 29.7301 41.1563 29.7301C41.0427 29.7301 40.9305 29.7571 40.8289 29.8089C40.7272 29.8606 40.6387 29.9358 40.5704 30.0284L35.371 37.0834H34.5206C34.4933 37.0834 34.4665 37.0756 34.4432 37.0611C34.4199 37.0465 34.401 37.0256 34.3886 37.0008C34.3762 36.9759 34.3708 36.9481 34.373 36.9203C34.3752 36.8925 34.3849 36.8659 34.401 36.8434L40.0494 29.4556C40.1472 29.327 40.2005 29.169 40.2009 29.0063V28.7508C40.201 28.6737 40.2311 28.5998 40.2846 28.5452C40.3381 28.4907 40.4106 28.4601 40.4863 28.4599H41.8337C41.9094 28.4601 41.9819 28.4907 42.0354 28.5452C42.089 28.5997 42.1191 28.6736 42.1192 28.7508V29.0062C42.1196 29.1689 42.1729 29.327 42.2709 29.4556L47.9181 36.8412C47.9348 36.8636 47.945 36.8903 47.9475 36.9183C47.9501 36.9462 47.945 36.9744 47.9327 36.9996C47.9205 37.0247 47.9015 37.0459 47.8781 37.0607C47.8547 37.0755 47.8276 37.0834 47.8001 37.0834H46.9418ZM49.8356 40.7875C49.8327 40.8016 49.8256 40.8145 49.8151 40.8242H47.0505V37.524H47.7999C47.9083 37.5241 48.0144 37.4932 48.1065 37.435C48.1985 37.3767 48.2727 37.2934 48.3207 37.1944C48.3687 37.0955 48.3885 36.9848 48.378 36.8749C48.3675 36.765 48.327 36.6604 48.2611 36.5727L43.9294 30.908L44.7618 29.5063C44.7873 29.4633 44.8012 29.4142 44.8019 29.364C44.8026 29.3138 44.7902 29.2643 44.766 29.2206C44.7431 29.1788 44.7096 29.1439 44.6691 29.1195C44.6286 29.0952 44.5824 29.0823 44.5354 29.0821H44.3331L45.5811 27.14L46.8289 29.0821H46.6263C46.5793 29.0823 46.5331 29.0952 46.4926 29.1195C46.4521 29.1439 46.4186 29.1788 46.3957 29.2206C46.3715 29.2643 46.3592 29.3137 46.3599 29.3638C46.3607 29.4139 46.3744 29.4629 46.3999 29.5058L47.8156 31.8895C47.8202 31.8991 47.8225 31.9097 47.8223 31.9203C47.8222 31.9309 47.8195 31.9414 47.8146 31.9508H47.4961C47.4484 31.951 47.4016 31.9643 47.3607 31.9893C47.3198 32.0144 47.2862 32.0502 47.2636 32.093C47.2398 32.1376 47.2282 32.1879 47.23 32.2387C47.2319 32.2895 47.2472 32.3388 47.2743 32.3814L48.7814 34.7583C48.786 34.7678 48.7883 34.7784 48.7881 34.789C48.7879 34.7997 48.7852 34.8101 48.7803 34.8195H48.3493C48.3042 34.8195 48.2598 34.8313 48.2205 34.8539C48.1811 34.8764 48.1481 34.9089 48.1246 34.9482C48.1 34.9892 48.086 35.0358 48.0838 35.0839C48.0816 35.1319 48.0914 35.1797 48.1123 35.2228L49.2744 37.607C49.2776 37.6138 49.2813 37.6205 49.2853 37.627C49.29 37.6365 49.2923 37.647 49.2921 37.6576C49.2919 37.6683 49.2893 37.6787 49.2843 37.6881H48.6924C48.6555 37.6881 48.6193 37.6977 48.5871 37.716C48.5549 37.7343 48.5279 37.7606 48.5085 37.7926C48.4892 37.8245 48.4781 37.861 48.4765 37.8985C48.4748 37.936 48.4826 37.9733 48.4991 38.0069L49.8163 40.6926C49.8196 40.6995 49.8233 40.7061 49.8274 40.7126C49.8337 40.7238 49.8376 40.7363 49.839 40.7492C49.8405 40.7621 49.8393 40.7751 49.8356 40.7875V40.7875Z" fill="#F9FAFA"/>
<path d="M39.6544 33.3538C39.6544 33.6564 39.7424 33.9523 39.9074 34.204C40.0724 34.4557 40.3069 34.6518 40.5813 34.7677C40.8557 34.8835 41.1577 34.9138 41.449 34.8548C41.7403 34.7958 42.0079 34.65 42.2179 34.436C42.428 34.222 42.571 33.9494 42.629 33.6525C42.6869 33.3557 42.6572 33.048 42.5435 32.7683C42.4299 32.4887 42.2374 32.2497 41.9904 32.0815C41.7435 31.9134 41.4531 31.8236 41.1561 31.8236C40.758 31.8241 40.3763 31.9854 40.0948 32.2723C39.8133 32.5591 39.6549 32.9481 39.6544 33.3538V33.3538ZM42.2253 33.3538C42.2253 33.5693 42.1626 33.78 42.0451 33.9592C41.9276 34.1384 41.7606 34.2781 41.5652 34.3606C41.3699 34.443 41.1548 34.4646 40.9474 34.4226C40.74 34.3806 40.5494 34.2768 40.3999 34.1244C40.2503 33.972 40.1485 33.7778 40.1072 33.5664C40.066 33.3551 40.0872 33.136 40.1681 32.9369C40.2491 32.7377 40.3862 32.5676 40.562 32.4479C40.7379 32.3281 40.9446 32.2642 41.1561 32.2643C41.4396 32.2646 41.7113 32.3795 41.9118 32.5837C42.1122 32.788 42.2249 33.0649 42.2253 33.3538V33.3538Z" fill="#F9FAFA"/>
<path d="M37.8981 37.3165H36.8712C36.7374 37.3165 36.6091 37.3706 36.5145 37.467C36.4199 37.5635 36.3667 37.6942 36.3667 37.8306V38.8775C36.3667 39.0138 36.4199 39.1446 36.5145 39.241C36.6091 39.3374 36.7374 39.3916 36.8712 39.3916H37.8981C38.0319 39.3916 38.1603 39.3374 38.2549 39.241C38.3495 39.1446 38.4026 39.0138 38.4026 38.8775V37.8306C38.4026 37.6942 38.3495 37.5635 38.2549 37.467C38.1603 37.3706 38.0319 37.3165 37.8981 37.3165ZM37.9702 38.8775C37.9702 38.8969 37.9626 38.9156 37.9491 38.9294C37.9356 38.9432 37.9172 38.9509 37.8981 38.9509H36.8712C36.8521 38.9509 36.8338 38.9432 36.8203 38.9294C36.8068 38.9156 36.7992 38.8969 36.7992 38.8775V37.8306C36.7992 37.8111 36.8068 37.7924 36.8203 37.7786C36.8338 37.7649 36.8521 37.7571 36.8712 37.7571H37.8981C37.9172 37.7571 37.9356 37.7649 37.9491 37.7786C37.9626 37.7924 37.9702 37.8111 37.9702 37.8306V38.8775Z" fill="#F9FAFA"/>
<path d="M45.4977 37.3165H44.4702C44.3364 37.3165 44.2081 37.3706 44.1135 37.467C44.0189 37.5635 43.9657 37.6942 43.9657 37.8306V38.8775C43.9657 39.0138 44.0189 39.1446 44.1135 39.241C44.2081 39.3374 44.3364 39.3916 44.4702 39.3916H45.4975C45.6313 39.3916 45.7597 39.3374 45.8543 39.241C45.9489 39.1446 46.002 39.0138 46.002 38.8775V37.8306C46.002 37.6943 45.9489 37.5635 45.8543 37.4671C45.7597 37.3707 45.6315 37.3165 45.4977 37.3165ZM45.5697 38.8775C45.5697 38.8969 45.5622 38.9156 45.5486 38.9294C45.5351 38.9432 45.5168 38.9509 45.4977 38.9509H44.4702C44.4511 38.9509 44.4328 38.9432 44.4192 38.9294C44.4057 38.9156 44.3981 38.8969 44.3981 38.8775V37.8306C44.3981 37.8111 44.4057 37.7924 44.4192 37.7786C44.4328 37.7649 44.4511 37.7571 44.4702 37.7571H45.4975C45.5166 37.7571 45.535 37.7649 45.5485 37.7786C45.562 37.7924 45.5696 37.8111 45.5696 37.8306L45.5697 38.8775Z" fill="#F9FAFA"/>
</g>
<g style="mix-blend-mode:overlay">
<path d="M52.2833 34.9772C52.2833 41.3495 47.2177 46.4911 40.9986 46.4911C34.7795 46.4911 29.7139 41.3495 29.7139 34.9772C29.7139 28.605 34.7795 23.4634 40.9986 23.4634C47.2177 23.4634 52.2833 28.605 52.2833 34.9772Z" stroke="#F9FAFA" stroke-width="1.5"/>
</g>
</g>
<g filter="url(#filter1_d)">
<path d="M51.5545 43.4541C50.1865 43.4541 49.0165 43.1841 48.0445 42.6441C47.0725 42.1041 46.3225 41.3481 45.7945 40.3761C45.2785 39.3921 45.0205 38.2341 45.0205 36.9021C45.0205 35.5821 45.2785 34.4361 45.7945 33.4641C46.3225 32.4801 47.0725 31.7181 48.0445 31.1781C49.0165 30.6381 50.1865 30.3681 51.5545 30.3681C52.3945 30.3681 53.1985 30.5001 53.9665 30.7641C54.7345 31.0281 55.3645 31.3881 55.8565 31.8441L54.9925 34.0581C54.4525 33.6381 53.9065 33.3321 53.3545 33.1401C52.8145 32.9361 52.2445 32.8341 51.6445 32.8341C50.4325 32.8341 49.5145 33.1881 48.8905 33.8961C48.2785 34.5921 47.9725 35.5941 47.9725 36.9021C47.9725 38.2101 48.2785 39.2181 48.8905 39.9261C49.5145 40.6341 50.4325 40.9881 51.6445 40.9881C52.2445 40.9881 52.8145 40.8921 53.3545 40.7001C53.9065 40.4961 54.4525 40.1841 54.9925 39.7641L55.8565 41.9781C55.3645 42.4221 54.7345 42.7821 53.9665 43.0581C53.1985 43.3221 52.3945 43.4541 51.5545 43.4541ZM61.0668 43.4541C60.1188 43.4541 59.2908 43.2681 58.5828 42.8961C57.8868 42.5121 57.3468 41.9781 56.9628 41.2941C56.5788 40.5981 56.3868 39.7761 56.3868 38.8281C56.3868 37.8921 56.5788 37.0821 56.9628 36.3981C57.3468 35.7021 57.8868 35.1681 58.5828 34.7961C59.2908 34.4241 60.1188 34.2381 61.0668 34.2381C62.0148 34.2381 62.8368 34.4241 63.5328 34.7961C64.2408 35.1681 64.7868 35.7021 65.1708 36.3981C65.5668 37.0821 65.7648 37.8921 65.7648 38.8281C65.7648 39.7761 65.5668 40.5981 65.1708 41.2941C64.7868 41.9781 64.2408 42.5121 63.5328 42.8961C62.8368 43.2681 62.0148 43.4541 61.0668 43.4541ZM61.0668 41.4201C61.6428 41.4201 62.1108 41.2101 62.4708 40.7901C62.8428 40.3701 63.0288 39.7161 63.0288 38.8281C63.0288 37.9521 62.8428 37.3101 62.4708 36.9021C62.1108 36.4821 61.6428 36.2721 61.0668 36.2721C60.4908 36.2721 60.0228 36.4821 59.6628 36.9021C59.3028 37.3101 59.1228 37.9521 59.1228 38.8281C59.1228 39.7161 59.3028 40.3701 59.6628 40.7901C60.0228 41.2101 60.4908 41.4201 61.0668 41.4201ZM71.7204 43.4541C70.7604 43.4541 69.9204 43.2681 69.2004 42.8961C68.4924 42.5121 67.9464 41.9721 67.5624 41.2761C67.1784 40.5801 66.9864 39.7581 66.9864 38.8101C66.9864 37.8621 67.1784 37.0461 67.5624 36.3621C67.9464 35.6781 68.4924 35.1561 69.2004 34.7961C69.9204 34.4241 70.7604 34.2381 71.7204 34.2381C72.2844 34.2381 72.8544 34.3221 73.4304 34.4901C74.0064 34.6581 74.4744 34.8981 74.8344 35.2101L74.0784 37.0821C73.7784 36.8421 73.4424 36.6561 73.0704 36.5241C72.6984 36.3801 72.3384 36.3081 71.9904 36.3081C71.2824 36.3081 70.7304 36.5301 70.3344 36.9741C69.9504 37.4061 69.7584 38.0241 69.7584 38.8281C69.7584 39.6201 69.9504 40.2441 70.3344 40.7001C70.7304 41.1441 71.2824 41.3661 71.9904 41.3661C72.3264 41.3661 72.6804 41.3001 73.0524 41.1681C73.4364 41.0361 73.7784 40.8441 74.0784 40.5921L74.8344 42.4641C74.4744 42.7761 74.0064 43.0221 73.4304 43.2021C72.8544 43.3701 72.2844 43.4541 71.7204 43.4541ZM80.0863 43.4541C79.1383 43.4541 78.3103 43.2681 77.6023 42.8961C76.9063 42.5121 76.3663 41.9781 75.9823 41.2941C75.5983 40.5981 75.4063 39.7761 75.4063 38.8281C75.4063 37.8921 75.5983 37.0821 75.9823 36.3981C76.3663 35.7021 76.9063 35.1681 77.6023 34.7961C78.3103 34.4241 79.1383 34.2381 80.0863 34.2381C81.0343 34.2381 81.8563 34.4241 82.5523 34.7961C83.2603 35.1681 83.8063 35.7021 84.1903 36.3981C84.5863 37.0821 84.7843 37.8921 84.7843 38.8281C84.7843 39.7761 84.5863 40.5981 84.1903 41.2941C83.8063 41.9781 83.2603 42.5121 82.5523 42.8961C81.8563 43.2681 81.0343 43.4541 80.0863 43.4541ZM80.0863 41.4201C80.6623 41.4201 81.1303 41.2101 81.4903 40.7901C81.8623 40.3701 82.0483 39.7161 82.0483 38.8281C82.0483 37.9521 81.8623 37.3101 81.4903 36.9021C81.1303 36.4821 80.6623 36.2721 80.0863 36.2721C79.5103 36.2721 79.0423 36.4821 78.6823 36.9021C78.3223 37.3101 78.1423 37.9521 78.1423 38.8281C78.1423 39.7161 78.3223 40.3701 78.6823 40.7901C79.0423 41.2101 79.5103 41.4201 80.0863 41.4201ZM89.4259 43.4541C88.7659 43.4541 88.1839 43.3281 87.6799 43.0761C87.1759 42.8241 86.7739 42.4821 86.4739 42.0501C86.1859 41.6181 86.0419 41.1321 86.0419 40.5921C86.0419 39.9561 86.2099 39.4461 86.5459 39.0621C86.8819 38.6781 87.4279 38.4081 88.1839 38.2521C88.9399 38.0841 89.9419 38.0001 91.1899 38.0001H91.8379V37.6941C91.8379 37.1661 91.7179 36.7941 91.4779 36.5781C91.2379 36.3501 90.8299 36.2361 90.2539 36.2361C89.7739 36.2361 89.2639 36.3141 88.7239 36.4701C88.1959 36.6141 87.6679 36.8361 87.1399 37.1361L86.4019 35.3181C86.7139 35.1141 87.0919 34.9281 87.5359 34.7601C87.9919 34.5921 88.4659 34.4661 88.9579 34.3821C89.4499 34.2861 89.9179 34.2381 90.3619 34.2381C91.7299 34.2381 92.7499 34.5501 93.4219 35.1741C94.0939 35.7861 94.4299 36.7401 94.4299 38.0361V43.2561H91.8919V41.9241C91.7119 42.3921 91.4059 42.7641 90.9739 43.0401C90.5539 43.3161 90.0379 43.4541 89.4259 43.4541ZM90.0379 41.6361C90.5419 41.6361 90.9679 41.4621 91.3159 41.1141C91.6639 40.7661 91.8379 40.3161 91.8379 39.7641V39.4041H91.2079C90.2839 39.4041 89.6299 39.4881 89.2459 39.6561C88.8619 39.8121 88.6699 40.0881 88.6699 40.4841C88.6699 40.8201 88.7839 41.0961 89.0119 41.3121C89.2519 41.5281 89.5939 41.6361 90.0379 41.6361ZM45.3985 63.2561V50.5661H51.2125C52.5685 50.5661 53.6125 50.8601 54.3445 51.4481C55.0885 52.0361 55.4605 52.8401 55.4605 53.8601C55.4605 54.5321 55.2925 55.1141 54.9565 55.6061C54.6205 56.0861 54.1525 56.4461 53.5525 56.6861C54.2725 56.8901 54.8245 57.2501 55.2085 57.7661C55.6045 58.2821 55.8025 58.9181 55.8025 59.6741C55.8025 60.8021 55.4065 61.6841 54.6145 62.3201C53.8345 62.9441 52.7665 63.2561 51.4105 63.2561H45.3985ZM48.0625 55.7861H50.7265C52.0945 55.7861 52.7785 55.2581 52.7785 54.2021C52.7785 53.1581 52.0945 52.6361 50.7265 52.6361H48.0625V55.7861ZM48.0625 61.1861H51.0325C51.7525 61.1861 52.2805 61.0481 52.6165 60.7721C52.9525 60.4961 53.1205 60.0761 53.1205 59.5121C53.1205 58.9601 52.9525 58.5461 52.6165 58.2701C52.2805 57.9941 51.7525 57.8561 51.0325 57.8561H48.0625V61.1861ZM62.2701 63.4541C61.2261 63.4541 60.3261 63.2681 59.5701 62.8961C58.8261 62.5121 58.2501 61.9781 57.8421 61.2941C57.4461 60.5981 57.2481 59.7821 57.2481 58.8461C57.2481 57.9341 57.4401 57.1361 57.8241 56.4521C58.2201 55.7561 58.7541 55.2161 59.4261 54.8321C60.1101 54.4361 60.8961 54.2381 61.7841 54.2381C63.0681 54.2381 64.0881 54.6461 64.8441 55.4621C65.6001 56.2661 65.9781 57.3581 65.9781 58.7381V59.4221H59.8401C59.9361 60.1181 60.1881 60.6281 60.5961 60.9521C61.0161 61.2641 61.5921 61.4201 62.3241 61.4201C62.8041 61.4201 63.2901 61.3481 63.7821 61.2041C64.2741 61.0601 64.7181 60.8381 65.1141 60.5381L65.8341 62.3561C65.3901 62.6921 64.8441 62.9621 64.1961 63.1661C63.5601 63.3581 62.9181 63.4541 62.2701 63.4541ZM61.8921 56.0381C61.3161 56.0381 60.8481 56.2121 60.4881 56.5601C60.1401 56.9081 59.9241 57.3941 59.8401 58.0181H63.7281C63.6561 56.6981 63.0441 56.0381 61.8921 56.0381ZM70.547 63.4541C69.887 63.4541 69.305 63.3281 68.801 63.0761C68.297 62.8241 67.895 62.4821 67.595 62.0501C67.307 61.6181 67.163 61.1321 67.163 60.5921C67.163 59.9561 67.331 59.4461 67.667 59.0621C68.003 58.6781 68.549 58.4081 69.305 58.2521C70.061 58.0841 71.063 58.0001 72.311 58.0001H72.959V57.6941C72.959 57.1661 72.839 56.7941 72.599 56.5781C72.359 56.3501 71.951 56.2361 71.375 56.2361C70.895 56.2361 70.385 56.3141 69.845 56.4701C69.317 56.6141 68.789 56.8361 68.261 57.1361L67.523 55.3181C67.835 55.1141 68.213 54.9281 68.657 54.7601C69.113 54.5921 69.587 54.4661 70.079 54.3821C70.571 54.2861 71.039 54.2381 71.483 54.2381C72.851 54.2381 73.871 54.5501 74.543 55.1741C75.215 55.7861 75.551 56.7401 75.551 58.0361V63.2561H73.013V61.9241C72.833 62.3921 72.527 62.7641 72.095 63.0401C71.675 63.3161 71.159 63.4541 70.547 63.4541ZM71.159 61.6361C71.663 61.6361 72.089 61.4621 72.437 61.1141C72.785 60.7661 72.959 60.3161 72.959 59.7641V59.4041H72.329C71.405 59.4041 70.751 59.4881 70.367 59.6561C69.983 59.8121 69.791 60.0881 69.791 60.4841C69.791 60.8201 69.905 61.0961 70.133 61.3121C70.373 61.5281 70.715 61.6361 71.159 61.6361ZM77.5785 63.2561V54.4181H80.2425V55.7141C80.5425 55.2341 80.9445 54.8681 81.4485 54.6161C81.9525 54.3641 82.5165 54.2381 83.1405 54.2381C84.1845 54.2381 84.9645 54.5441 85.4805 55.1561C85.9965 55.7561 86.2545 56.6861 86.2545 57.9461V63.2561H83.5365V58.0721C83.5365 57.4601 83.4225 57.0221 83.1945 56.7581C82.9665 56.4821 82.6305 56.3441 82.1865 56.3441C81.6105 56.3441 81.1485 56.5241 80.8005 56.8841C80.4645 57.2441 80.2965 57.7241 80.2965 58.3241V63.2561H77.5785Z" fill="#FFF1E5"/>
</g>
<path d="M237.869 17.8718C236.121 15.5528 233.883 13.9077 231.234 12.7315C225.748 10.2979 220.061 9.41312 214.114 9.99823C208.317 10.569 203.155 12.518 199.133 16.9812C198.26 17.9498 197.234 18.4233 196 18.6668C193.835 19.0936 191.65 19.4678 189.585 20.3009C186.21 21.6612 183.275 23.7699 180.405 25.9809C176.067 29.3241 173.702 33.8263 172.812 39.227C172.476 41.26 172.712 43.2739 172.788 45.2926C172.812 45.9511 172.646 46.3201 172.088 46.6516C169.355 48.278 166.828 50.2171 164.234 52.0578C161.67 53.8759 159.336 55.9903 156.836 57.8892C155.953 58.5591 155.948 58.5769 155.083 58.0026C153.269 56.8013 151.24 56.1949 149.138 55.8425C148.302 55.7022 147.352 55.5673 146.639 56.2104C144.649 58.0016 142.721 59.8519 142.156 62.6749C142.081 63.0471 142.036 63.4518 141.465 63.4414C140.896 63.4328 141.035 63.0075 140.945 62.7091C140.573 61.4549 139.777 61.0576 138.57 61.5148C137.87 61.7798 137.426 62.3027 137.16 62.9817C136.969 63.4715 136.879 63.9937 136.818 64.5228C136.743 65.1764 136.715 65.8916 136.318 66.419C135.284 67.7881 134.954 69.3446 134.981 71.0106C134.989 71.5121 134.834 71.7037 134.336 71.7481C131.566 72.0001 128.888 72.763 126.169 73.2969C125.33 73.4617 124.509 73.7893 123.615 73.6684C120.82 73.2895 118.011 73.159 115.191 73.1331C109.361 73.081 103.611 73.7508 97.9009 74.9191C92.5733 76.0092 87.483 77.8379 82.4484 79.8617C81.683 80.1699 80.9133 80.4645 80.1623 80.8038C70.4072 85.216 61.6924 91.2009 54.0099 98.7429C53.7405 99.0068 53.5462 99.3924 53.1139 99.4329C51.2519 96.0173 48.3639 95.9108 45.1152 96.8875C45.1159 96.915 45.1128 96.9427 45.1022 96.9764C45.0736 97.0619 45.0251 97.1263 44.9625 97.1715C44.8999 97.2167 44.8231 97.2406 44.7344 97.2491C44.6409 97.2264 44.5511 97.1995 44.5507 97.1169C44.5503 97.1031 44.5518 97.0873 44.5571 97.0695C44.5624 97.0516 44.5697 97.0337 44.5807 97.0117C44.656 96.8678 44.7267 96.6984 44.9307 96.7277C44.9579 96.7308 44.9833 96.7379 45.0048 96.7471C45.0331 96.2347 45.3554 95.9259 45.5662 95.5772C47.473 92.413 49.2014 89.1676 50.1101 85.5354C50.5332 83.8461 50.7012 82.1685 50.1832 80.4542C49.8294 79.2841 49.115 78.5774 47.9782 78.267C47.1593 78.0435 46.3487 78.1209 45.5378 78.3242C43.9621 78.7176 42.5595 79.4896 41.1822 80.3376C40.4289 80.8029 39.8157 81.3663 39.3042 82.1038C38.4019 83.4039 37.6571 84.7958 36.8651 86.1615C33.8869 91.2901 31.9321 96.825 30.5759 102.59C30.1122 104.558 30.993 106.029 32.8936 106.667C34.2335 107.115 35.5905 107.204 36.9829 106.828C39.1876 106.233 40.9648 104.946 42.5973 103.396C43.3891 102.644 44.1526 101.854 44.9905 101.159C46.1915 100.165 47.7469 100.223 48.9338 101.221C49.9463 102.072 50.0176 102.961 49.1458 103.965C44.3277 109.519 40.3716 115.659 37.1608 122.298C36.9522 122.727 36.7236 123.133 36.7129 123.653C36.687 124.736 36.7861 124.891 37.8233 124.96C38.2692 124.99 38.715 125.018 39.4303 125.063C38.6793 125.609 38.1453 125.96 37.6515 126.362C35.3433 128.246 32.7582 128.663 29.9381 127.941C29.6106 127.856 29.274 127.719 28.9209 127.824C28.6944 127.891 28.5495 128.035 28.543 128.291C28.5349 128.555 28.6642 128.681 28.917 128.725C29.471 128.817 30.02 128.934 30.5739 129.022C33.1084 129.426 35.4912 129.109 37.6035 127.485C38.1908 127.035 38.7981 126.609 39.4116 126.196C40.4923 125.467 41.6574 125.131 42.9796 125.288C44.2687 125.44 45.5718 125.47 46.8668 125.557C50.019 125.77 53.1694 126.054 56.327 126.182C59.2677 126.301 62.2138 126.478 65.1588 126.197C67.1852 126.005 69.2138 125.82 71.2399 125.62C74.3024 125.318 77.3452 124.869 80.3396 124.14C81.4044 123.88 82.382 123.965 83.3749 124.389C84.7398 124.972 86.0254 125.692 87.2021 126.601C89.7612 128.581 92.7013 129.235 95.8501 129.326C98.8363 129.412 101.704 128.842 104.548 128.009C106.917 127.316 109.265 126.457 111.799 126.984C111.84 126.992 111.886 126.983 111.929 126.984C112.281 126.997 112.346 126.698 112.413 126.461C112.501 126.154 112.208 126.123 112.023 126.082C111.729 126.016 111.425 125.995 111.122 125.969C109.097 125.791 107.166 126.256 105.245 126.833C102.416 127.683 99.576 128.39 96.5829 128.401C93.1892 128.412 90.0554 127.752 87.3154 125.6C86.3895 124.872 85.3467 124.323 84.2712 123.849C84.0243 123.74 83.7116 123.697 83.5535 123.371C83.7057 123.278 83.8039 123.19 83.9188 123.149C89.5926 121.218 95.0933 118.909 100.311 115.89C103.737 113.908 107.181 111.965 110.43 109.692C115.139 106.399 119.191 102.49 121.706 97.1544C121.836 96.8789 121.974 96.6209 122.267 96.4567C123.359 95.8455 124.106 94.861 124.866 93.8976C126.552 91.7594 128.003 89.4589 129.338 87.0852C131.423 83.3725 133.333 79.5707 134.696 75.5097C134.796 75.2095 134.677 74.7723 135.105 74.6178C136.983 75.8644 138.547 76.2289 140.123 75.7509C140.965 75.4954 141.729 74.9256 142.699 75.2095C142.9 75.2684 143.188 75.0669 143.423 74.9595C145.305 74.1063 146.863 72.7984 148.308 71.3344C148.613 71.0262 148.921 70.7572 149.328 70.5522C150.747 69.8348 151.974 68.8772 152.651 67.3418C152.728 67.1683 152.771 66.8561 153.05 66.9264C154.102 67.1862 154.616 66.4408 155.192 65.7939C155.332 65.6362 155.449 65.4497 155.713 65.4753C156.217 65.5232 156.513 65.1739 156.768 64.816C157.038 64.438 157.369 64.3002 157.817 64.1746C159.099 63.8195 159.495 62.6643 158.82 61.4901C158.696 61.2734 158.539 61.0773 158.297 60.7244C164.394 57.2461 168.565 51.6647 173.697 46.8278C174.416 50.7499 176.166 53.7575 178.934 56.1503C181.179 58.0904 183.765 59.3768 186.572 60.2453C192.214 61.9913 197.954 61.9241 203.683 60.946C211.787 59.5625 219.204 56.3772 225.917 51.5502C231.445 47.5753 236.095 42.7765 239.111 36.5153C239.321 36.08 239.593 35.8436 240.028 35.6909C241 35.3489 241.573 34.5919 241.92 33.6429C242.195 32.8948 242.338 32.1171 242.377 31.321C242.624 26.2307 240.855 21.8343 237.869 17.8718ZM132.803 72.9963C132.332 73.8664 130.693 74.9662 128.538 75.9023C128.151 75.3334 128.752 74.1938 127.437 74.3177C129.127 73.36 130.994 73.4833 132.803 72.9963ZM126.684 75.4854C126.197 76.661 125.576 77.5789 124.886 78.4437C123.14 80.6349 121.237 82.6832 119.24 84.6419C119.024 84.855 118.834 85.1243 118.482 85.0738C118.004 85.0074 117.84 85.2327 117.913 85.6792C117.971 86.0435 117.737 86.2492 117.532 86.4699C115.87 88.265 114.275 90.125 112.509 91.819C112.168 92.146 111.869 92.5229 111.282 92.2768C109.598 91.5695 107.971 91.9881 106.365 92.6166C106.083 92.7274 105.804 92.8498 105.525 92.9664C105.498 93.0223 105.456 93.0629 105.401 93.0882C105.016 93.4382 104.621 93.7688 104.11 93.9139C103.98 94.1146 103.88 94.3596 103.564 94.3238C103.637 94.0284 103.874 93.9721 104.104 93.9082C104.355 93.4638 104.697 93.1092 105.119 92.831C105.162 92.7726 105.219 92.7335 105.288 92.7137C105.727 92.008 106.23 91.3356 106.589 90.5909C107.542 88.6182 107.796 86.6349 106.347 84.7616C105.827 84.0884 106.399 83.9375 106.782 83.7116C109.704 81.987 112.725 80.4641 115.821 79.0885C119.08 77.6432 122.411 76.4279 125.881 75.6216C126.083 75.5743 126.295 75.5502 126.684 75.4854ZM107.1 99.9012C108.074 98.8881 108.256 97.7158 107.667 96.657C107.113 95.6601 106.069 95.2623 104.736 95.5423C104.401 95.6133 104.093 95.8212 103.548 95.7057C105.17 94.1105 106.881 93.0912 108.996 92.8941C109.643 92.8335 110.282 92.8636 110.907 93.1204C111.891 93.5278 112.395 94.2566 112.495 95.3222C112.584 96.2818 112.328 97.1651 111.886 97.9812C110.403 100.723 108.158 102.443 105.117 103.018C104.118 103.208 103.15 103.077 102.089 102.277C102.538 102.2 102.794 102.163 103.048 102.11C104.614 101.786 105.981 101.064 107.1 99.9012ZM105.524 98.9545C105.64 98.5496 105.739 98.1413 105.846 97.7347C105.912 97.4769 106.205 97.3796 106.482 97.4422C106.766 97.5084 106.898 97.7229 106.937 98.0838C106.685 98.4849 106.441 98.9743 106.101 99.3761C105.913 99.5982 105.434 99.2662 105.524 98.9545ZM99.9941 95.3691C99.9698 95.4014 99.9497 95.4433 99.9175 95.4659C99.7469 95.593 99.4971 95.7284 99.3818 95.5468C99.3009 95.4214 99.5231 95.2022 99.7201 95.1176C99.9475 94.5992 100.322 94.1649 100.508 93.6142C101.204 91.5587 99.8007 89.8237 97.6971 90.1621C95.085 90.5825 93.2316 92.6058 92.9554 95.3316C92.9496 95.3987 92.8777 95.4598 92.7832 95.6083C91.6547 94.7604 91.2404 93.6433 91.4231 92.284C91.5895 91.0373 92.1158 89.9275 92.8642 88.9389C94.9376 86.1987 97.6888 84.5894 101.022 84.0175C102.145 83.8246 103.267 83.9662 104.329 84.4185C105.835 85.0603 106.606 86.4836 106.383 88.1275C106.28 88.8783 106.06 89.5894 105.701 90.2436C105.537 90.5417 105.365 90.8302 105.183 91.1072C105.042 91.322 104.893 91.5291 104.74 91.7324C104.598 91.9217 104.452 92.107 104.301 92.2848C104.091 92.5311 103.873 92.7659 103.643 92.9892C103.466 93.1637 103.281 93.3306 103.092 93.4917C102.95 93.614 102.805 93.7325 102.657 93.8471C102.558 93.9229 102.456 93.9988 102.355 94.0706C102.031 94.3027 101.693 94.5214 101.338 94.7209C101.327 94.7272 101.315 94.7334 101.304 94.7396C101.123 94.8415 100.936 94.9376 100.747 95.0298C100.499 95.1494 100.25 95.2631 99.9941 95.3691ZM98.7257 94.433C98.7187 94.4588 98.4922 94.4557 98.3866 94.4156C98.2184 94.3498 98.0516 94.1304 98.1492 94.0212C98.5132 93.6109 98.2763 93.0276 98.5863 92.6268C98.7768 92.381 99.0198 92.2104 99.3594 92.3852C99.6244 92.521 99.7119 92.7427 99.6952 93.117C99.5129 93.5889 98.8873 93.8437 98.7257 94.433ZM32.4948 104.79C31.6593 104.663 31.4656 104.45 31.4475 103.591C31.4296 102.743 31.6762 101.941 31.888 101.138C33.3899 95.461 35.583 90.0764 38.5399 85.0193C38.671 84.793 38.7977 84.5511 38.9804 84.3725C39.845 83.5261 40.7577 82.8101 42.0779 83.3137C43.4039 83.8192 44.2661 84.6907 44.3547 86.2013C44.3685 86.4213 44.3669 86.6418 44.373 86.86C44.4422 88.4401 43.9627 89.9086 43.3615 91.3178C41.8032 94.9714 39.6503 98.2611 37.1899 101.345C36.5374 102.164 35.883 102.986 35.171 103.751C34.4608 104.512 33.5791 104.952 32.4948 104.79ZM44.4885 100.435C43.8409 100.946 43.23 101.519 42.6664 102.124C41.7065 103.16 40.5756 103.964 39.4208 104.74C37.5138 106.023 35.9538 106.357 33.6291 105.982C33.6166 105.604 33.9365 105.624 34.1547 105.539C34.7729 105.296 35.31 104.918 35.7551 104.434C39.3589 100.509 42.3905 96.1877 44.4246 91.2054C45.006 89.783 45.3475 88.289 45.3733 86.7179C45.4168 84.1821 43.6409 82.535 41.6402 82.1914C41.3894 82.1477 41.1386 82.106 40.8878 82.0643C40.862 81.9706 40.8342 81.877 40.8084 81.7833C42.6174 80.5269 44.4507 79.3091 46.7514 79.1695C48.3104 79.0757 49.0609 79.6908 49.4595 81.2177C49.7715 82.4147 49.5662 83.5838 49.3237 84.7442C48.7246 87.6155 47.5248 90.2488 46.1135 92.7882C44.7482 95.2475 43.2034 97.5842 41.4694 99.7927C41.1928 100.143 40.6072 100.588 41.0485 101.008C41.617 101.548 41.9282 100.773 42.2499 100.444C43.296 99.3761 44.3909 98.3929 45.7709 97.7829C47.3345 97.0907 48.8787 97.1627 50.4315 97.8227C51.2892 98.1867 51.7849 98.8901 52.1958 99.6788C52.3941 100.06 52.3737 100.437 52.0521 100.769C51.6345 101.201 51.227 101.646 50.8607 102.039C50.4228 101.949 50.4368 101.62 50.3015 101.416C48.9885 99.4361 46.3497 98.968 44.4885 100.435ZM38.2686 122.886C38.1381 123.063 37.9806 123.247 37.7907 123.446C37.897 122.677 38.1531 122.215 38.4855 121.784C42.5265 113.483 47.9249 106.19 54.4125 99.7188C60.3277 93.8195 66.9488 88.8732 74.2305 84.8597C81.8953 80.6359 89.9894 77.5819 98.539 75.8033C103.218 74.831 107.944 74.249 112.714 74.1143C116.266 74.016 119.815 74.1736 123.347 74.5993C123.807 74.6544 124.261 74.7511 125.001 74.8765C122.425 75.5517 120.146 76.2319 117.944 77.1458C116.58 77.71 115.239 78.3287 113.879 78.9026C113.77 78.9491 113.665 79.0034 113.56 79.0577C113.244 79.2246 112.931 79.3993 112.549 79.3713L112.566 79.3511C112.558 79.3494 112.551 79.3496 112.545 79.3478C112.547 79.3557 112.549 79.3635 112.549 79.3694C112.193 79.8385 111.623 79.9402 111.142 80.1946C109.338 81.1498 107.536 82.1049 105.792 83.1705C105.39 83.4147 105.027 83.6577 104.475 83.4755C101.746 82.5751 99.1789 83.2088 96.7142 84.473C95.3292 85.1834 94.1258 86.0931 93.1018 87.1903C92.3032 88.0426 91.6142 89.0077 91.0269 90.082C90.9773 90.3846 90.8985 90.6821 90.8197 90.9777C90.7652 91.1741 90.7107 91.3725 90.664 91.5707C90.593 91.87 90.5376 92.1727 90.5271 92.4898C90.4961 93.39 89.7012 93.4728 89.0688 93.6964C85.4559 95.4219 81.6876 96.7094 77.8716 97.8821C72.8565 99.4252 67.9155 101.196 63.0833 103.257C56.7441 105.962 51.2821 110.075 46.0041 114.467C44.9942 115.308 44.0202 116.183 43.0839 117.097C41.5262 118.621 40.076 120.254 38.7571 122.016C38.6339 122.317 38.4867 122.591 38.2686 122.886ZM41.0449 123.842C40.4368 124.311 39.8107 124.131 39.1848 124.03C38.8272 123.974 38.8457 123.666 39.0072 123.421C39.3412 122.907 39.6849 122.397 40.0584 121.914C42.1034 119.265 44.4989 116.974 47.0597 114.851C51.5723 111.113 56.2465 107.616 61.5194 105.048C65.3547 103.18 69.3944 101.839 73.3903 100.385C76.8574 99.1226 80.4414 98.2323 83.8875 96.9112C86.1084 96.0597 88.275 95.0681 90.5247 94.0701C91.2391 96.0264 92.6532 97.0526 94.604 97.3426C96.1799 97.5769 97.7177 97.3499 99.204 96.8037C99.4166 96.7245 99.629 96.6414 99.8375 96.5526C100.467 96.2897 101.085 95.9918 101.711 95.7193C101.824 95.6313 101.938 95.5432 102.053 95.4552C102.055 95.4532 102.057 95.4531 102.059 95.4511C102.07 95.4291 102.081 95.4071 102.094 95.389C102.185 95.2604 102.335 95.2283 102.481 95.1925C102.61 95.0037 102.697 94.6685 102.992 94.8919C103.009 94.9051 103.008 94.9327 102.994 94.9686C102.948 95.0742 102.777 95.2486 102.638 95.3236C102.553 95.4619 102.46 95.5926 102.345 95.7023C102.281 95.7632 102.211 95.8185 102.127 95.8623C102.114 95.8804 102.099 95.8927 102.083 95.9069C102.053 95.9373 102.019 95.9639 101.979 95.9808C101.654 96.5533 101.304 97.1109 101.009 97.6982C100.441 98.829 100.156 100.05 100.494 101.277C100.692 101.992 100.489 102.273 99.9472 102.638C95.4816 105.636 90.7064 108.009 85.766 110.077C75.9979 114.165 65.8739 117.008 55.5557 119.201C52.5914 119.831 49.6144 120.42 46.6903 121.241C44.6765 121.815 42.7288 122.542 41.0449 123.842ZM121.036 96.4207C118.756 101.345 115.198 105.159 110.865 108.221C102.389 114.21 93.3515 119.107 83.4873 122.316C80.2178 123.38 76.8512 124.016 73.4515 124.436C69.1089 124.973 64.753 125.452 60.3679 125.37C57.9885 125.325 55.6089 125.204 53.2307 125.06C50.0771 124.867 46.9258 124.621 43.773 124.389C43.4415 124.365 43.0826 124.403 42.7271 124.075C42.9337 123.644 43.3638 123.523 43.7229 123.355C45.7016 122.426 47.8081 121.912 49.9255 121.446C56.697 119.952 63.497 118.576 70.1526 116.604C78.8117 114.037 87.3007 110.989 95.2727 106.611C96.1456 106.13 97.0185 105.651 97.8933 105.173L97.896 105.202C97.9227 105.048 98.0215 104.984 98.1485 104.958C98.1677 104.954 98.1851 104.951 98.2044 104.949C98.2044 104.949 98.285 104.925 98.2869 104.925C98.3655 104.761 98.4987 104.678 98.6701 104.65C98.9266 104.274 99.3561 104.131 99.6972 103.871C100.544 103.226 101.277 102.722 102.425 103.593C103.461 104.378 104.851 104.174 106.08 103.83C109.071 102.989 111.344 101.166 112.767 98.3602C113.571 96.7757 113.866 95.0962 112.791 93.4655C112.601 93.178 112.677 92.977 112.89 92.7836C114.804 91.0479 116.453 89.0524 118.216 87.1697C118.558 86.8052 118.832 86.7242 119.148 87.1733C119.273 87.3506 119.421 87.5174 119.584 87.6581C119.719 87.7741 119.902 87.8119 120.061 87.6911C120.258 87.5415 120.31 87.3452 120.186 87.1167C120.166 87.0779 120.139 87.0413 120.121 87.0025C119.946 86.6142 119.362 86.3542 119.539 85.9002C119.703 85.4781 120.115 85.1431 120.448 84.8006C122.883 82.2975 125.269 79.7527 127.232 76.5907C127.468 77.3019 127.321 77.8318 127.219 78.3602C126.486 82.18 125.15 85.8132 123.831 89.4498C122.975 91.8033 122.087 94.146 121.036 96.4207ZM123.231 94.2928L123.211 94.2186L123.271 94.2287L123.231 94.2928ZM132.309 78.519C132.419 78.9919 132.174 79.379 131.994 79.7721C129.879 84.4203 127.441 88.8814 124.407 92.9865C124.159 93.3205 124.01 93.7855 123.482 93.7875C123.444 93.6961 123.364 93.5981 123.388 93.5404C124.066 91.7884 124.443 89.9038 125.508 88.3213C127.585 85.2327 129.692 82.1609 131.783 79.0798C131.93 78.8629 132.045 78.6213 132.299 78.5075C132.306 78.4876 132.313 78.4657 132.32 78.4458C132.328 78.4259 132.337 78.406 132.35 78.3918C132.365 78.3737 132.433 78.3716 132.435 78.3794C132.443 78.4028 132.448 78.4223 132.446 78.4401C132.442 78.4894 132.394 78.5164 132.309 78.519ZM126.502 85.1194C126.479 84.2976 126.803 83.7074 126.98 83.0823C127.453 81.3935 127.928 79.7066 128.17 77.9638C128.223 77.5765 128.247 77.1783 128.647 76.942C130.385 75.9219 132.115 74.8902 133.849 73.8643C133.909 73.9216 133.97 73.9807 134.03 74.038C131.545 77.6957 129.06 81.3553 126.502 85.1194ZM141.088 64.7691C141.129 64.5317 141.325 64.3921 141.549 64.3913C141.859 64.3899 141.814 64.6569 141.83 64.863C141.933 66.1272 141.893 66.1756 139.994 66.9074C140.563 66.1426 140.96 65.5266 141.088 64.7691ZM136.845 67.2376C137.351 66.6184 137.525 65.9323 137.657 65.1963C137.76 64.6344 137.835 64.0635 137.982 63.514C138.096 63.0855 138.337 62.7064 138.755 62.4952C139.436 62.1521 139.918 62.3797 140.119 63.1333C140.566 64.7985 139.982 65.9966 138.364 66.7337C138.245 66.7865 138.125 66.8334 138.014 66.8996C137.853 66.997 137.766 67.1491 137.814 67.3386C137.864 67.5299 138.031 67.641 138.201 67.63C138.497 67.6114 138.789 67.5338 139.374 67.4277C138.659 68.0729 138.135 68.5274 137.632 69.0048C137.098 69.5108 136.587 70.0357 135.948 70.6688C135.842 69.3515 136.071 68.1896 136.845 67.2376ZM140.501 74.671C139.987 74.9068 139.445 75.0548 138.816 75.1051C137.922 75.0295 136.99 74.8508 136.174 74.3045C135.535 73.8769 135.409 73.5166 135.756 72.8686C136.444 71.5828 137.407 70.511 138.439 69.5022C138.648 69.2992 138.865 69.2258 139.073 69.5403C139.675 70.4511 140.302 71.3435 140.894 72.2605C141.056 72.5115 141.163 72.8153 141.237 73.1082C141.459 73.9792 141.307 74.2986 140.501 74.671ZM142.743 74.2321C142.495 74.2769 142.309 74.2038 142.299 73.9187C142.232 72.1595 141.056 70.9785 140.173 69.6393C139.551 68.6976 139.695 68.2485 140.675 67.7942C140.902 67.689 141.116 67.6551 141.229 67.8878C141.726 68.9258 142.665 69.6435 143.155 70.6875C143.492 71.4075 143.713 72.1585 143.819 72.85C143.821 73.5505 143.344 74.1217 142.743 74.2321ZM144.878 73.1352C144.471 72.0965 144.364 71.0194 143.852 70.0842C143.357 69.1781 142.444 68.5619 142.086 67.3958C145.503 68.0218 146.763 70.6525 144.878 73.1352ZM146.699 71.5458C146.956 69.2574 145.713 68.049 144.135 67.0355C143.849 66.8512 143.235 66.8145 143.476 66.2562C143.729 65.6721 143.934 64.9733 144.624 64.7382C144.973 64.6195 145.16 64.9544 145.311 65.2195C146.042 66.5161 146.788 67.8043 147.48 69.1217C148.149 70.3907 148.101 70.4807 146.699 71.5458ZM157.924 63.0438C157.639 63.2728 157.455 63.052 157.281 62.8525C156.587 62.0684 155.96 61.2174 155.097 60.6017C154.919 60.4751 154.76 60.3225 154.577 60.2059C154.295 60.0254 153.965 59.7028 153.687 60.1322C153.44 60.5134 153.751 60.7757 154.047 60.9892C154.829 61.5523 155.502 62.2307 156.134 62.9616C156.51 63.397 156.573 63.771 156.142 64.2129C155.625 64.7439 155.277 64.3352 154.948 64.0046C154.297 63.353 153.8 62.5748 153.311 61.7944C153.196 61.6089 153.077 61.4256 152.955 61.2423C152.802 61.0127 152.601 60.8022 152.316 60.9406C151.946 61.1209 152.025 61.4668 152.189 61.7315C152.815 62.7341 153.441 63.7446 154.27 64.5916C154.624 64.9548 154.611 65.2465 154.273 65.5951C153.774 66.1098 153.467 66.1386 153.01 65.5443C152.102 64.3631 151.2 63.1819 150.04 62.2385C149.702 61.9633 149.367 61.684 149.021 61.4209C148.724 61.1956 148.391 61.0324 148.125 61.4339C147.884 61.7972 148.197 61.9886 148.44 62.1683C149.601 63.025 150.635 64.0075 151.568 65.1269C152.143 65.8162 152.152 66.418 151.783 67.163C151.164 68.4154 150.089 69.1185 148.876 69.8258C148.099 68.4125 147.336 67.0559 146.603 65.6807C145.306 63.2478 144.878 63.1445 142.824 64.9337C142.721 63.3763 143.114 62.0185 143.842 60.7689C144.689 59.3129 145.89 58.1613 147.13 57.0498C147.566 56.6589 148.046 56.5954 148.581 56.6739C152.043 57.1706 155.034 58.6043 157.412 61.2586C157.704 61.5844 157.992 61.9162 158.143 62.3387C158.246 62.623 158.144 62.868 157.924 63.0438ZM169.484 49.8465C168.441 50.897 167.38 51.9283 166.36 52.9998C164.034 55.4386 161.514 57.6313 158.675 59.4341C157.614 60.1073 157.628 60.1305 156.732 59.1222C160.795 55.7145 165.035 52.5534 169.364 49.5135C169.488 49.3701 169.62 49.2422 169.785 49.133C169.89 49.0649 170.008 49.0063 170.144 48.957C170.224 48.927 170.311 48.9008 170.405 48.8783C170.132 49.3588 169.879 49.6694 169.484 49.8465ZM199.867 18.4784C200.894 18.1663 201.913 17.8249 203.072 17.6584C203.357 21.6288 203.838 25.493 206.062 28.9057C205.775 29.2311 205.497 29.1941 205.253 29.2565C204.63 29.4129 203.958 29.9249 203.413 29.6893C202.759 29.4078 202.558 28.5303 202.188 27.8939C200.618 25.1977 199.852 22.2452 199.489 19.1587C199.442 18.7784 199.504 18.5876 199.867 18.4784ZM221.919 29.8013C218.16 28.2253 214.201 27.9638 210.184 28.3791C209.453 28.4541 208.699 28.4805 208 28.6883C207.24 28.9138 206.919 28.575 206.557 27.9975C205.37 26.1025 204.796 23.9925 204.386 21.8244C204.166 20.6601 204.001 19.4824 203.978 18.2886C203.965 17.7183 204.07 17.4259 204.703 17.3106C211.497 16.0724 218.229 16.0916 224.84 18.3301C229.145 19.7875 232.96 22.0486 235.873 25.6768C237.082 27.1815 238.078 28.8185 238.76 30.9332C237.686 30.5776 236.836 30.2843 235.979 30.0167C232.609 28.9603 229.232 29.14 225.851 29.9632C224.495 30.9247 223.278 30.3707 221.919 29.8013ZM223.256 32.717C222.345 35.2434 220.758 37.235 218.606 38.7614C212.825 42.862 206.534 45.7716 199.622 47.2966C196.751 47.9295 193.956 47.8359 191.15 47.0716C191.025 47.038 190.906 46.9845 190.783 46.9409C189.298 46.4225 188.944 45.8841 189.151 44.2938C189.414 42.2827 190.245 40.5045 191.439 38.8946C193.242 36.4577 195.553 34.6234 198.148 33.1428C202.574 30.6196 207.345 29.3475 212.536 29.1136C215.937 29.071 219.394 29.4832 222.633 31.0669C223.679 31.5768 223.667 31.5772 223.256 32.717ZM197.5 19.3599C198.6 18.9689 198.666 18.9807 198.787 20.1439C199.136 23.4887 200.247 26.5508 201.958 29.4081C202.396 30.1389 202.386 30.1746 201.572 30.5C199.022 31.5247 196.627 32.8262 194.46 34.5479C191.887 36.5926 189.809 39.0181 188.682 42.1924C188.641 42.3117 188.545 42.409 188.423 42.5957C183.943 40.4508 179.45 40.2447 174.758 42.0379C174.827 41.0421 175.126 40.2716 175.389 39.5002C176.911 35.0193 179.612 31.3355 182.993 28.1548C187.209 24.1876 192.078 21.291 197.5 19.3599ZM173.539 42.4148C173.409 42.0586 173.377 41.7368 173.502 41.4123C173.901 36.0282 175.722 31.312 179.81 27.6812C182.431 25.3537 185.338 23.4485 188.41 21.8041C189.443 21.2517 190.54 20.8371 191.689 20.5923C191.791 20.4338 191.907 20.3594 192.032 20.3478C192.158 20.3362 192.292 20.3853 192.438 20.4754C192.26 20.6834 192.059 20.8193 191.792 20.8391C185.579 24.0375 180.362 28.383 176.687 34.4809C175.392 36.6271 174.439 38.9285 173.896 41.3927C173.9 41.487 173.895 41.5796 173.884 41.6705C173.854 41.8938 173.772 42.1008 173.633 42.2979C173.603 42.3361 173.573 42.3764 173.539 42.4148ZM174.374 43.8283C174.425 43.4864 174.458 43.1607 174.867 42.9871C175.749 42.6144 176.642 42.2906 177.575 42.0994C181.02 41.3863 184.366 41.6642 187.569 43.2037C187.863 43.3444 188.296 43.3945 188.282 43.8495C188.266 44.3301 188.214 44.8177 188.097 45.2817C188.029 45.5474 187.733 45.4263 187.533 45.393C184.817 44.9448 182.099 45.1756 179.379 45.3297C178.168 45.3974 176.993 45.6746 175.745 45.9401C175.779 45.0733 175.748 44.2576 174.66 44.1681C174.459 44.1544 174.343 44.0359 174.374 43.8283ZM174.568 45.3063C174.578 45.2371 174.661 45.1795 174.714 45.113C174.972 45.3611 174.989 45.7679 174.738 45.8423C174.473 45.9211 174.539 45.5216 174.568 45.3063ZM237.472 37.7587C235.168 41.8715 232.112 45.3376 228.555 48.3583C225.243 51.1689 221.634 53.5142 217.737 55.3978C217.525 55.5006 217.311 55.5994 217.095 55.6925L217.097 55.7023C217.097 55.7023 212.662 57.9207 209.494 58.6609C209.456 58.6738 209.419 58.6887 209.377 58.6998C207.036 59.3522 204.685 59.9597 202.275 60.2659C200.644 60.4741 199.012 60.7452 198.009 60.7024C192.446 60.8037 187.669 60.1869 183.216 57.9291C179.386 55.9872 176.512 53.1293 175.135 48.9003C175.067 48.6917 175.005 48.4811 174.935 48.2726C174.751 47.7133 174.925 47.3598 175.476 47.1367C176.207 46.8433 176.957 46.5985 177.727 46.5047C180.696 46.1385 183.669 45.8154 186.667 46.1824C187.624 46.2994 188.542 46.4707 189.286 47.1785C189.636 47.5124 190.088 47.7075 190.548 47.8374C193.414 48.655 196.289 49.0649 199.262 48.3503C201.54 47.8021 203.821 47.2833 206.015 46.4463C206.2 46.3758 206.364 46.3375 206.509 46.3331L213.011 43.3838C215.049 42.2209 217.067 41.0232 218.998 39.6785C220.45 38.6689 221.71 37.4506 222.644 35.9527C223.262 34.9601 224.148 34.4378 225.16 34.256C229.284 33.5168 233.275 33.9426 237.001 36.0135C238.033 36.5809 238.056 36.718 237.472 37.7587ZM238.694 35.1699C238.244 34.2191 238.244 34.2191 239.124 33.7225C239.201 34.2515 238.928 34.6237 238.694 35.1699ZM237.554 35.141C233.159 32.9031 228.706 32.4636 223.963 33.5873C224.166 32.9437 224.358 32.3436 224.543 31.7399C224.729 31.1302 225.279 31.0272 225.755 30.8674C227.417 30.3119 229.153 30.203 230.88 30.1612C233.473 30.0975 235.928 30.7778 238.298 31.7951C238.68 31.9588 239.142 32.073 239.3 32.7589C237.975 32.9815 237.304 33.6943 237.554 35.141ZM241.343 32.5188C241.171 33.313 240.997 34.1309 239.967 34.6753C240.675 33.0661 240.062 31.7542 239.604 30.4593C237.961 25.821 234.816 22.4674 230.718 19.9786C226.36 17.3323 221.577 16.0801 216.557 15.6516C211.368 15.2084 206.27 15.7662 201.248 17.1324C201.039 17.1899 200.825 17.2336 200.611 17.2656C200.532 17.2778 200.444 17.2391 200.218 17.1947C201.328 15.973 202.477 14.9409 203.845 14.17C207.381 12.1732 211.126 11.0164 215.206 10.8531C218.996 10.7004 222.734 10.8032 226.384 11.9417C227.376 12.2505 228.346 12.623 229.33 12.9536C235.407 14.9957 238.879 19.5241 240.775 25.489C241.5 27.7618 241.862 30.1202 241.343 32.5188Z" fill="#140D0B"/>
<path d="M97.0783 136.589C93.6239 134.505 89.8212 133.808 85.8727 133.851C81.6881 133.896 77.6354 134.852 73.6306 135.999C73.0258 136.172 72.3144 136.127 71.8277 136.648C71.2189 137.299 70.5086 137.158 69.7846 136.943C68.766 136.642 67.9299 136.014 67.1088 135.368C66.4223 134.831 65.7374 134.283 64.94 133.931C63.5254 133.307 62.0641 132.952 60.5298 133.448C60.0829 133.593 59.6095 133.756 59.4128 134.267C59.3298 134.482 59.3416 134.698 59.5549 134.853C59.7209 134.975 59.8749 134.945 60.0203 134.817C61.1176 133.849 62.3557 134.109 63.5889 134.404C64.6663 134.663 65.5489 135.293 66.4169 135.955C67.629 136.88 68.8435 137.822 70.441 137.926C70.8675 137.955 70.9168 138.195 70.9185 138.535C70.9247 139.309 71.1424 140.04 71.644 140.606C73.2406 142.412 74.9233 144.182 77.213 145.03C81.2998 146.541 85.5456 147.307 89.9001 147.385C91.1251 147.388 92.3212 147.183 93.5127 146.957C94.5734 146.756 95.6414 146.538 96.6457 146.121C97.6826 145.691 98.7637 145.46 99.6323 144.546C101.195 142.905 101.47 141.411 100.226 139.483C99.4234 138.241 98.3184 137.336 97.0783 136.589ZM96.999 144.98C95.3903 145.653 93.7083 146.059 91.9815 146.246C91.2522 146.325 90.5103 146.3 89.7736 146.322C85.7446 146.461 81.8725 145.569 78.0653 144.365C75.8903 143.678 74.2938 142.082 72.7379 140.485C72.186 139.92 72.2377 139.691 72.8889 139.239C73.6805 138.69 74.5289 138.231 75.4673 138.02C78.0444 137.442 80.6285 136.909 83.2904 136.945C84.3377 136.959 85.3634 137.1 86.3606 137.398C89.5709 138.364 92.6322 139.674 95.4311 141.569C96.2319 142.112 96.9614 142.731 97.4647 143.571C97.9173 144.324 97.8138 144.637 96.999 144.98ZM98.9125 143.787C95.7343 139.465 91.0456 137.673 86.2253 136.433C81.2822 135.162 76.485 136.344 71.7645 138.683C72.0093 137.677 72.5377 137.266 73.2893 137.016C75.1472 136.396 77.0537 135.989 78.9692 135.632C81.2255 135.21 83.4852 134.774 85.796 134.779C89.2602 134.786 92.6153 135.323 95.7408 136.924C97.3468 137.748 98.7887 138.794 99.6974 140.43C100.47 141.822 100.218 142.802 98.9125 143.787Z" fill="#140D0B"/>
<path d="M43.0554 117.093C43.9896 116.177 44.9656 115.302 45.9755 114.463C51.2537 110.073 56.7157 105.961 63.0549 103.255C67.8872 101.194 72.8282 99.4206 77.8433 97.8796C81.6593 96.705 85.4258 95.4197 89.0407 93.6942C88.4787 93.1778 87.6754 93.0995 87.1335 92.4742C86.3917 91.6168 85.6709 90.749 85.0449 89.8094C84.6611 89.2325 84.4315 88.5625 84.3862 87.8398C84.2979 86.4768 84.6101 85.8083 85.5902 85.356C86.4174 84.9751 87.685 85.3288 88.3676 86.2135C89.1104 87.1752 89.8894 88.118 90.4084 89.2418C90.5506 89.5524 90.6648 89.9012 91.0007 90.08C91.588 89.0078 92.279 88.0427 93.0756 87.1885C94.1016 86.0914 95.303 85.1818 96.688 84.4714C99.1528 83.2073 101.72 82.5737 104.449 83.474C105.001 83.6563 105.364 83.4132 105.766 83.169C107.51 82.1036 109.312 81.1485 111.116 80.1934C111.595 79.939 112.167 79.8373 112.523 79.3682C112.521 79.3604 112.519 79.3526 112.519 79.3467C112.275 79.2969 111.969 79.4969 111.801 79.2816C111.217 78.5297 110.686 77.7388 110.045 77.0279C109.829 76.7884 110.055 76.5416 110.367 76.5028C110.708 76.4611 110.93 76.6926 111.131 76.9187C111.759 77.628 112.337 78.3722 112.521 79.3466C112.528 79.3484 112.536 79.3481 112.542 79.3499L112.525 79.3701C112.907 79.3981 113.221 79.2214 113.536 79.0566C113.641 79.0003 113.746 78.946 113.855 78.9014C115.215 78.3275 116.556 77.7109 117.92 77.1448C120.122 76.2329 122.401 75.5508 124.977 74.8757C124.237 74.7502 123.781 74.6537 123.323 74.5985C119.791 74.1728 116.242 74.0152 112.69 74.1135C107.92 74.2462 103.194 74.8282 98.5148 75.8023C89.9651 77.5789 81.8729 80.6345 74.2061 84.858C66.9242 88.8693 60.3032 93.8152 54.3879 99.716C47.9003 106.187 42.5018 113.479 38.4608 121.779C38.5501 121.859 38.6413 121.937 38.7306 122.017C40.0474 120.25 41.4957 118.617 43.0554 117.093Z" fill="#D36B45"/>
<path d="M127.188 78.3637C127.289 77.8352 127.437 77.3054 127.2 76.5941C125.239 79.7562 122.851 82.2993 120.417 84.8044C120.084 85.1469 119.673 85.48 119.507 85.9041C119.33 86.3581 119.914 86.6181 120.089 87.0064C120.108 87.0452 120.134 87.0818 120.155 87.1206C120.279 87.3491 120.226 87.5455 120.029 87.695C119.87 87.8159 119.687 87.7781 119.552 87.6621C119.39 87.5213 119.244 87.3525 119.117 87.1772C118.799 86.7282 118.526 86.8091 118.184 87.1736C116.422 89.0584 114.773 91.052 112.859 92.7878C112.646 92.9812 112.57 93.1842 112.76 93.4697C113.835 95.1005 113.539 96.7801 112.736 98.3647C111.315 101.172 109.04 102.993 106.048 103.835C104.819 104.18 103.43 104.385 102.394 103.598C101.248 102.727 100.513 103.231 99.6659 103.876C99.3229 104.136 98.8954 104.281 98.6388 104.654C98.4674 104.683 98.3342 104.766 98.2556 104.93C98.429 104.903 98.5661 104.822 98.6446 104.656C100.154 104.446 101.161 105.187 101.977 106.393C102.421 107.05 102.788 107.73 103.041 108.48C103.294 109.228 103.345 109.935 102.686 110.524C102.006 111.131 101.208 111.095 100.515 110.722C99.0669 109.945 98.1841 108.679 97.9403 107.015C97.8519 106.412 97.8829 105.789 97.86 105.176C96.9871 105.654 96.1124 106.135 95.2395 106.614C87.2694 110.992 78.7805 114.041 70.1194 116.608C63.4639 118.582 56.6621 119.958 49.8925 121.45C47.7751 121.916 45.6687 122.43 43.6899 123.359C43.3308 123.527 42.8988 123.648 42.6941 124.079C43.0496 124.407 43.4104 124.367 43.74 124.392C46.8928 124.625 50.0441 124.871 53.1977 125.064C55.574 125.21 57.9536 125.331 60.3348 125.374C64.7199 125.456 69.0738 124.975 73.4184 124.44C76.8161 124.02 80.1827 123.384 83.4541 122.32C93.3182 119.11 102.355 114.214 110.832 108.224C115.164 105.162 118.723 101.348 121.002 96.4232C122.055 94.1483 122.942 91.8055 123.797 89.4499C125.118 85.817 126.455 82.1856 127.188 78.3637Z" fill="#D36B45"/>
<path d="M55.5219 119.206C65.8406 117.014 75.9651 114.173 85.7337 110.087C90.6744 108.02 95.4499 105.651 99.9157 102.652C100.457 102.287 100.66 102.006 100.462 101.292C100.124 100.065 100.407 98.843 100.978 97.7147C101.273 97.1277 101.623 96.5685 101.948 95.9982C101.988 95.9793 102.022 95.9547 102.052 95.9243C102.067 95.9101 102.082 95.8959 102.093 95.8798C102.07 95.7428 102.047 95.6058 102.026 95.4688C102.024 95.4708 102.022 95.4709 102.02 95.4729C101.906 95.5609 101.793 95.6488 101.677 95.7369C101.05 96.0093 100.433 96.307 99.8041 96.5697C99.5936 96.6566 99.3832 96.7416 99.1706 96.8207C97.6842 97.3666 96.1463 97.5935 94.5704 97.3593C92.6195 97.0695 91.2053 96.0437 90.4909 94.0884C88.2411 95.0859 86.0763 96.0769 83.8534 96.9281C80.4051 98.2485 76.8229 99.1383 73.3556 100.4C69.3595 101.853 65.3196 103.193 61.4841 105.06C56.2109 107.627 51.5365 111.122 47.0235 114.858C44.4626 116.978 42.067 119.27 40.0219 121.917C39.6484 122.401 39.3046 122.91 38.9706 123.424C38.8111 123.671 38.7925 123.976 39.1482 124.032C39.774 124.132 40.4003 124.313 41.0084 123.845C42.6924 122.544 44.6401 121.817 46.6562 121.251C49.5803 120.426 52.5556 119.838 55.5219 119.206ZM76.7906 101.242C78.1211 101.279 79.409 102.497 79.3864 103.699C79.3576 105.164 78.1778 106.503 76.948 106.469C75.7008 106.433 74.4691 105.217 74.4992 104.009C74.5316 102.739 75.6354 101.105 76.7906 101.242Z" fill="#D46B45"/>
<path d="M106.769 83.7197C106.386 83.9458 105.814 84.0969 106.334 84.7706C107.783 86.6455 107.529 88.6305 106.576 90.6048C106.215 91.3502 105.712 92.0231 105.275 92.7294C105.206 92.7492 105.149 92.7883 105.106 92.8467C105.201 92.9325 105.294 93.0183 105.39 93.1041C105.445 93.0788 105.487 93.0382 105.514 92.9822C105.793 92.8655 106.072 92.7429 106.354 92.6321C107.959 92.0031 109.586 91.5841 111.27 92.292C111.857 92.5383 112.156 92.163 112.497 91.8338C114.263 90.1384 115.858 88.2768 117.52 86.4801C117.725 86.2593 117.961 86.0514 117.9 85.6889C117.828 85.242 117.992 85.0145 118.47 85.083C118.821 85.1315 119.011 84.8619 119.228 84.6506C121.224 82.6903 123.127 80.6423 124.872 78.4473C125.56 77.5818 126.183 76.6631 126.67 75.4865C126.281 75.5513 126.071 75.5754 125.866 75.6229C122.398 76.4298 119.065 77.6462 115.807 79.0928C112.711 80.4695 109.691 81.9937 106.769 83.7197Z" fill="#D26A45"/>
<path d="M37.1545 101.267C39.6155 98.1765 41.7652 94.8807 43.3227 91.2203C43.9235 89.8084 44.4028 88.3371 44.3336 86.7541C44.3274 86.5335 44.3271 86.3127 44.3152 86.0942C44.2267 84.5827 43.365 83.7076 42.0396 83.2012C40.7202 82.6966 39.808 83.414 38.9439 84.262C38.7613 84.441 38.6346 84.6853 38.5036 84.91C35.5483 89.9766 33.3564 95.3693 31.8554 101.059C31.6419 101.866 31.3974 102.667 31.4152 103.517C31.4334 104.378 31.6249 104.591 32.462 104.717C33.5457 104.88 34.425 104.442 35.1386 103.675C35.8484 102.913 36.5023 102.087 37.1545 101.267Z" fill="#883B27"/>
<path d="M50.2603 101.342C50.3956 101.547 50.3816 101.879 50.8192 101.966C51.1873 101.573 51.5927 101.129 52.01 100.695C52.3315 100.362 52.352 99.9866 52.1537 99.6022C51.7449 98.8122 51.2475 98.1076 50.3902 97.743C48.84 97.0817 47.2945 97.0098 45.7317 97.7032C44.3542 98.3142 43.2579 99.2991 42.2123 100.369C41.8907 100.698 41.5797 101.474 41.0115 100.934C40.5704 100.515 41.1557 100.07 41.4321 99.7165C43.1654 97.5061 44.7094 95.1633 46.074 92.6998C47.4828 90.1561 48.682 87.5181 49.2827 84.6418C49.525 83.4794 49.7303 82.3062 49.4184 81.1092C49.0199 79.5777 48.2697 78.9615 46.7115 79.0574C44.4119 79.1973 42.5794 80.4172 40.7712 81.6758C40.797 81.7697 40.8248 81.8635 40.8506 81.9573C41.1013 81.9991 41.3519 82.0409 41.6027 82.0846C43.6025 82.4288 45.3776 84.0807 45.3341 86.619C45.3084 88.1948 44.967 89.6894 44.3858 91.1142C42.3528 96.1052 39.3226 100.434 35.7205 104.366C35.2775 104.851 34.7388 105.23 34.1208 105.473C33.9046 105.558 33.583 105.538 33.5955 105.916C35.921 106.29 37.4784 105.958 39.3845 104.672C40.5388 103.895 41.6672 103.088 42.6286 102.052C43.1919 101.444 43.8026 100.87 44.4498 100.359C46.3122 98.8922 48.9499 99.3612 50.2603 101.342Z" fill="#CE6843"/>
<path d="M100.723 95.0303C100.912 94.938 101.099 94.8418 101.28 94.7399C101.292 94.7337 101.303 94.7274 101.314 94.7212C101.669 94.5215 102.005 94.3027 102.331 94.0704C102.434 93.9964 102.534 93.9225 102.633 93.8467C102.781 93.732 102.926 93.6134 103.068 93.491C103.257 93.3298 103.442 93.1628 103.619 92.9881C103.847 92.7627 104.066 92.5277 104.276 92.2831C104.428 92.1052 104.574 91.9197 104.716 91.7303C104.869 91.5269 105.016 91.3196 105.159 91.1046C105.341 90.8274 105.512 90.5387 105.676 90.2403C106.035 89.5836 106.257 88.8739 106.358 88.1225C106.581 86.4774 105.81 85.051 104.305 84.4107C103.243 83.958 102.123 83.8163 100.998 84.0094C97.6672 84.5818 94.9144 86.1924 92.8413 88.9347C92.093 89.9241 91.5687 91.0347 91.4003 92.2824C91.2177 93.6428 91.6319 94.7608 92.7604 95.6093C92.8568 95.4607 92.9267 95.3995 92.9326 95.3324C93.2087 92.6045 95.0619 90.5816 97.6737 90.1588C99.777 89.8201 101.18 91.5565 100.484 93.6136C100.299 94.1647 99.9257 94.5993 99.6964 95.1182C99.7877 95.2021 99.8791 95.286 99.9704 95.3699C100.231 95.2637 100.479 95.1499 100.723 95.0303Z" fill="#F9FAFA"/>
<path d="M157.422 61.2633C155.044 58.6063 152.054 57.1711 148.592 56.674C148.056 56.5974 147.578 56.661 147.142 57.0503C145.902 58.1629 144.702 59.3158 143.854 60.7732C143.127 62.0242 142.733 63.3833 142.837 64.9423C144.89 63.1533 145.318 63.2547 146.615 65.69C147.348 67.0667 148.111 68.4247 148.888 69.8394C150.1 69.1334 151.176 68.4275 151.795 67.1739C152.163 66.4281 152.154 65.8256 151.579 65.1356C150.646 64.0151 149.613 63.0316 148.452 62.174C148.207 61.9942 147.896 61.8026 148.137 61.4389C148.402 61.0369 148.738 61.2002 149.032 61.4258C149.378 61.6893 149.713 61.9708 150.052 62.2443C151.212 63.1886 152.113 64.3731 153.021 65.5534C153.478 66.1484 153.785 66.1195 154.283 65.6043C154.622 65.2533 154.635 64.9634 154.281 64.5997C153.452 63.7499 152.826 62.7404 152.2 61.7368C152.036 61.4718 151.957 61.1255 152.327 60.945C152.612 60.8065 152.811 61.0153 152.966 61.247C153.088 61.4285 153.207 61.6141 153.322 61.7997C153.81 62.5809 154.31 63.3578 154.959 64.0121C155.287 64.3431 155.635 64.7502 156.153 64.2206C156.583 63.7783 156.521 63.4039 156.145 62.968C155.513 62.2364 154.84 61.5553 154.058 60.9937C153.762 60.78 153.451 60.5174 153.698 60.1358C153.974 59.706 154.304 60.029 154.588 60.2096C154.771 60.3262 154.93 60.4791 155.108 60.6057C155.968 61.2221 156.598 62.074 157.291 62.8589C157.467 63.0565 157.651 63.2795 157.935 63.0504C158.152 62.8745 158.256 62.6271 158.155 62.3465C158.002 61.9216 157.714 61.5894 157.422 61.2633Z" fill="#CE6843"/>
<path d="M102.066 102.315C103.128 103.117 104.095 103.247 105.093 103.058C108.134 102.482 110.379 100.76 111.861 98.0143C112.303 97.1972 112.559 96.3148 112.47 95.3521C112.373 94.2852 111.869 93.5555 110.882 93.1477C110.258 92.8906 109.619 92.8605 108.972 92.9212C106.857 93.1185 105.147 94.1391 103.526 95.7362C104.07 95.8499 104.378 95.6417 104.713 95.5726C106.047 95.2922 107.092 95.6905 107.644 96.6886C108.232 97.7486 108.048 98.9225 107.076 99.9367C105.958 101.103 104.591 101.824 103.025 102.148C102.771 102.201 102.515 102.237 102.066 102.315Z" fill="#F5F7F7"/>
<path d="M90.4111 89.2247C89.8924 88.099 89.1137 87.1565 88.3711 86.1913C87.6888 85.303 86.4217 84.9507 85.5948 85.3323C84.6132 85.7855 84.303 86.4531 84.3914 87.8203C84.4386 88.5443 84.6682 89.2174 85.0498 89.7934C85.6756 90.7345 86.3962 91.6058 87.1377 92.4627C87.6793 93.091 88.4822 93.1675 89.044 93.6848C89.6761 93.4609 90.4726 93.3779 90.5017 92.4762C90.5122 92.1606 90.5676 91.8554 90.6385 91.5556C90.6852 91.3551 90.7396 91.1583 90.7941 90.9616C90.8748 90.6655 90.9536 90.3694 91.0012 90.0645C90.6694 89.8852 90.5552 89.5358 90.4111 89.2247Z" fill="#DF5224"/>
<path d="M97.8683 105.248L97.8655 105.219C97.8884 105.833 97.8574 106.457 97.9458 107.061C98.1896 108.729 99.0721 109.995 100.519 110.774C101.213 111.147 102.01 111.183 102.69 110.575C103.35 109.984 103.298 109.278 103.045 108.528C102.792 107.777 102.427 107.096 101.981 106.437C101.166 105.23 100.157 104.488 98.6499 104.698C98.5713 104.864 98.4343 104.945 98.261 104.972L98.1785 104.996C98.0744 105.078 97.9723 105.162 97.8683 105.248Z" fill="#DF5224"/>
<path d="M140.893 72.2714C140.301 71.3532 139.674 70.4597 139.072 69.5477C138.864 69.2328 138.646 69.3043 138.439 69.5096C137.407 70.5197 136.444 71.5928 135.757 72.8804C135.409 73.5312 135.535 73.8919 136.174 74.3181C136.99 74.8631 137.92 75.0421 138.815 75.1197C139.445 75.0674 139.986 74.9211 140.5 74.685C141.306 74.3141 141.458 73.9943 141.236 73.1222C141.162 72.8269 141.055 72.5247 140.893 72.2714Z" fill="#CE6843"/>
<path d="M137.637 69.0058C138.14 68.5273 138.663 68.072 139.378 67.4255C138.793 67.5318 138.501 67.6095 138.206 67.6282C138.036 67.6392 137.868 67.5279 137.819 67.3362C137.769 67.1464 137.857 66.9939 138.019 66.8964C138.129 66.83 138.252 66.7829 138.368 66.7302C139.986 65.9896 140.569 64.7891 140.122 63.1225C139.92 62.3675 139.44 62.1394 138.759 62.4831C138.341 62.6928 138.102 63.0746 137.987 63.504C137.839 64.0546 137.765 64.6266 137.662 65.1897C137.528 65.9272 137.356 66.6146 136.851 67.2351C136.077 68.1869 135.848 69.3532 135.957 70.675C136.59 70.0388 137.104 69.5108 137.637 69.0058Z" fill="#CB6743"/>
<path d="M141.229 67.8968C141.118 67.6635 140.902 67.6976 140.675 67.803C139.695 68.2582 139.551 68.7081 140.173 69.6516C141.056 70.9934 142.232 72.1766 142.298 73.9392C142.308 74.2228 142.494 74.2981 142.742 74.2532C143.342 74.1426 143.819 73.5703 143.815 72.8705C143.709 72.1777 143.489 71.4272 143.152 70.7039C142.664 69.6558 141.726 68.9367 141.229 67.8968Z" fill="#CB6743"/>
<path d="M145.315 65.225C145.164 64.9575 144.977 64.622 144.628 64.7429C143.939 64.9784 143.736 65.6785 143.481 66.2637C143.239 66.823 143.854 66.8598 144.139 67.0444C145.717 68.0598 146.959 69.2685 146.702 71.5631C148.103 70.4979 148.149 70.4079 147.481 69.1346C146.791 67.8147 146.045 66.524 145.315 65.225Z" fill="#CB6743"/>
<path d="M142.087 67.4048C142.446 68.573 143.359 69.1903 143.852 70.0982C144.364 71.0371 144.471 72.1143 144.877 73.1549C146.763 70.6675 145.504 68.0318 142.087 67.4048Z" fill="#CB6743"/>
<path d="M128.534 75.9059C130.689 74.9699 132.328 73.8702 132.8 73.0002C130.99 73.4871 129.123 73.3658 127.434 74.3214C128.748 74.1975 128.147 75.337 128.534 75.9059Z" fill="#883B27"/>
<path d="M141.835 64.86C141.818 64.6536 141.864 64.3841 141.555 64.3875C141.331 64.3883 141.133 64.5282 141.093 64.7659C140.964 65.5228 140.569 66.1417 140 66.9077C141.899 66.1748 141.94 66.1243 141.835 64.86Z" fill="#CB6743"/>
<path d="M99.6751 93.1231C99.6917 92.7481 99.6043 92.526 99.3394 92.3901C98.9999 92.215 98.7571 92.3858 98.5666 92.632C98.2567 93.0316 98.4935 93.6178 98.1297 94.0288C98.0322 94.1401 98.1988 94.3579 98.367 94.4238C98.4726 94.464 98.699 94.4671 98.706 94.4412C98.8656 93.851 99.491 93.5958 99.6751 93.1231Z" fill="#EDEFEF"/>
<path d="M106.078 99.4105C106.421 99.0079 106.663 98.5177 106.914 98.116C106.875 97.7564 106.744 97.5396 106.459 97.4732C106.183 97.4085 105.89 97.508 105.824 97.7662C105.717 98.1735 105.618 98.5826 105.502 98.9882C105.412 99.3003 105.891 99.6329 106.078 99.4105Z" fill="#EDEFEF"/>
<path d="M38.4329 121.773C38.1006 122.205 37.8466 122.668 37.7385 123.438C37.9302 123.239 38.0856 123.055 38.2161 122.878C38.4341 122.581 38.5812 122.307 38.7025 122.012C38.6133 121.931 38.5221 121.853 38.4329 121.773Z" fill="#883B27"/>
<path d="M105.096 92.8447C104.675 93.1232 104.332 93.4781 104.082 93.9228C103.851 93.9868 103.615 94.0451 103.542 94.3388C103.86 94.3765 103.958 94.1294 104.088 93.9285C104.598 93.7833 104.995 93.4523 105.378 93.1021C105.285 93.0163 105.192 92.9304 105.096 92.8447Z" fill="#883B27"/>
<path d="M99.6978 95.1308C99.5008 95.2155 99.2803 95.433 99.3594 95.5607C99.4748 95.7425 99.7266 95.6089 99.8953 95.4796C99.9275 95.455 99.9458 95.4151 99.972 95.3827C99.8806 95.2988 99.7892 95.2148 99.6978 95.1308Z" fill="#EDEFEF"/>
<path d="M44.5375 96.9413C44.5265 96.9633 44.5193 96.9813 44.514 96.9992C44.5087 97.0171 44.5072 97.0329 44.5076 97.0467C44.5099 97.1294 44.5997 97.1563 44.6913 97.1792C44.7801 97.1706 44.8568 97.1466 44.9195 97.1014C44.9821 97.0562 45.0307 96.9936 45.0592 96.906C45.0699 96.8722 45.0729 96.8425 45.0722 96.8169C45.0683 96.748 45.0245 96.702 44.9618 96.6763C44.9383 96.6672 44.913 96.66 44.8877 96.6569C44.6836 96.6275 44.6128 96.7952 44.5375 96.9413Z" fill="black"/>
<path d="M102.107 95.8873C102.191 95.8454 102.261 95.7881 102.325 95.727C102.44 95.6171 102.533 95.4861 102.619 95.3475C102.567 95.3017 102.515 95.2579 102.462 95.2161C102.314 95.2502 102.166 95.2842 102.074 95.4131C102.061 95.4312 102.048 95.4513 102.039 95.4753C102.063 95.6106 102.084 95.748 102.107 95.8873Z" fill="#883B27"/>
<path d="M102.619 95.3477C102.758 95.2725 102.929 95.0979 102.975 94.992C102.989 94.9561 102.99 94.9285 102.973 94.9152C102.678 94.6934 102.59 95.0272 102.462 95.2164C102.516 95.2581 102.567 95.3019 102.619 95.3477Z" fill="#883B27"/>
<path d="M98.1785 104.985C98.1592 104.987 98.1399 104.99 98.1226 104.995C97.9936 105.02 97.8967 105.084 97.87 105.239C97.9722 105.155 98.0744 105.071 98.1785 104.985Z" fill="#D36B45"/>
<path d="M123.215 94.341L123.255 94.277L123.195 94.267L123.215 94.341Z" fill="#883B27"/>
<path d="M132.335 78.4085C132.322 78.4246 132.313 78.4427 132.306 78.4626C132.299 78.4825 132.293 78.5044 132.284 78.5244C132.284 78.5244 132.286 78.5263 132.29 78.5301L132.284 78.5244C132.03 78.6404 131.915 78.8804 131.768 79.0978C129.679 82.1847 127.575 85.2602 125.497 88.3566C124.433 89.942 124.056 91.8302 123.378 93.5854C123.356 93.6433 123.434 93.7395 123.472 93.833C124 93.831 124.151 93.3651 124.397 93.0305C127.429 88.9177 129.864 84.4503 131.979 79.7913C132.158 79.3956 132.402 79.0098 132.294 78.5359C132.379 78.5353 132.425 78.5083 132.429 78.455C132.431 78.4372 132.426 78.4176 132.418 78.3942C132.418 78.3883 132.35 78.3923 132.335 78.4085Z" fill="#883B27"/>
<path d="M95.4291 141.583C92.6302 139.689 89.5709 138.379 86.3586 137.411C85.3614 137.111 84.3357 136.972 83.2884 136.958C80.6265 136.922 78.0425 137.455 75.4655 138.033C74.5251 138.244 73.6787 138.704 72.887 139.252C72.2358 139.702 72.1842 139.932 72.736 140.499C74.292 142.096 75.8885 143.692 78.0635 144.38C81.8706 145.583 85.7427 146.476 89.7717 146.336C90.5083 146.314 91.2483 146.339 91.9795 146.261C93.7063 146.073 95.3882 145.667 96.9969 144.994C97.8118 144.654 97.9152 144.338 97.4627 143.585C96.9593 142.745 96.2299 142.126 95.4291 141.583Z" fill="#883B27"/>
<path d="M95.7403 136.929C92.6147 135.327 89.2615 134.792 85.7953 134.785C83.4845 134.779 81.2248 135.216 78.9684 135.637C77.0529 135.995 75.1464 136.401 73.2885 137.021C72.5368 137.271 72.0065 137.684 71.7636 138.687C76.4841 136.35 81.2814 135.167 86.2246 136.439C91.045 137.678 95.7338 139.472 98.912 143.79C100.218 142.808 100.469 141.828 99.695 140.434C98.7882 138.799 97.3482 137.753 95.7403 136.929Z" fill="#CB6743"/>
<path d="M110.379 76.4887C110.067 76.5276 109.842 76.7728 110.057 77.0147C110.698 77.7267 111.229 78.5188 111.813 79.2719C111.981 79.4895 112.287 79.2872 112.53 79.3371C112.346 78.3631 111.771 77.6177 111.141 76.9054C110.944 76.6787 110.72 76.4469 110.379 76.4887Z" fill="#140D0B"/>
<path d="M76.9541 106.467C78.1835 106.503 79.3629 105.161 79.3916 103.692C79.4162 102.49 78.1267 101.267 76.7966 101.23C75.6418 101.093 74.5384 102.73 74.506 104C74.4741 105.213 75.7074 106.431 76.9541 106.467ZM76.9247 102.353C77.7478 102.319 78.3396 102.869 78.3645 103.694C78.3935 104.597 77.7383 105.519 77.0465 105.548C76.3046 105.578 75.51 104.831 75.4833 104.081C75.4554 103.219 76.1499 102.386 76.9247 102.353Z" fill="#140D0B"/>
<path d="M77.0464 105.548C77.7362 105.52 78.3914 104.597 78.3643 103.694C78.3394 102.869 77.7476 102.319 76.9245 102.353C76.1497 102.386 75.4552 103.219 75.485 104.079C75.5098 104.831 76.3063 105.578 77.0464 105.548Z" fill="#883B27"/>
</g>
</g>
<defs>
<filter id="filter0_d" x="0" y="0" width="156" height="157" filterUnits="userSpaceOnUse" color-interpolation-filters="sRGB">
<feFlood flood-opacity="0" result="BackgroundImageFix"/>
<feColorMatrix in="SourceAlpha" type="matrix" values="0 0 0 0 0 0 0 0 0 0 0 0 0 0 0 0 0 0 127 0"/>
<feOffset dy="4"/>
<feGaussianBlur stdDeviation="2"/>
<feColorMatrix type="matrix" values="0 0 0 0 0 0 0 0 0 0 0 0 0 0 0 0 0 0 0.25 0"/>
<feBlend mode="normal" in2="BackgroundImageFix" result="effect1_dropShadow"/>
<feBlend mode="normal" in="SourceGraphic" in2="effect1_dropShadow" result="shape"/>
</filter>
<filter id="filter1_d" x="44.0205" y="30.3681" width="51.4094" height="37.086" filterUnits="userSpaceOnUse" color-interpolation-filters="sRGB">
<feFlood flood-opacity="0" result="BackgroundImageFix"/>
<feColorMatrix in="SourceAlpha" type="matrix" values="0 0 0 0 0 0 0 0 0 0 0 0 0 0 0 0 0 0 127 0"/>
<feOffset dy="3"/>
<feGaussianBlur stdDeviation="0.5"/>
<feColorMatrix type="matrix" values="0 0 0 0 0 0 0 0 0 0 0 0 0 0 0 0 0 0 0.5 0"/>
<feBlend mode="normal" in2="BackgroundImageFix" result="effect1_dropShadow"/>
<feBlend mode="normal" in="SourceGraphic" in2="effect1_dropShadow" result="shape"/>
</filter>
<clipPath id="clip0">
<rect x="4" width="148" height="149" rx="74" fill="white"/>
</clipPath>
</defs>
</svg>
