<svg width="156" height="157" viewBox="0 0 156 157" fill="none" xmlns="http://www.w3.org/2000/svg">
<g filter="url(#filter0_d)">
<g clip-path="url(#clip0)">
<rect x="4" width="148" height="149" rx="74" fill="#386A3F"/>
<g style="mix-blend-mode:soft-light">
<g style="mix-blend-mode:overlay">
<path d="M50.1988 40.4873L49.0422 38.1291H49.2963C49.372 38.1285 49.4462 38.1068 49.5108 38.0666C49.5755 38.0263 49.6281 37.9689 49.6632 37.9004C49.7042 37.8239 49.7252 37.738 49.7242 37.6509C49.7232 37.5637 49.7002 37.4783 49.6574 37.4028L48.6134 35.2606H48.7927C48.8684 35.2599 48.9426 35.2382 49.0073 35.1979C49.0719 35.1576 49.1246 35.1002 49.1596 35.0317C49.2017 34.9529 49.2226 34.8642 49.22 34.7745C49.2175 34.6848 49.1917 34.5974 49.1452 34.5212L47.795 32.3916H47.8263C47.9021 32.3909 47.9762 32.3693 48.0408 32.329C48.1055 32.2887 48.1582 32.2313 48.1932 32.1629C48.2352 32.0852 48.2563 31.9976 48.2545 31.9089C48.2527 31.8202 48.228 31.7336 48.1829 31.6578L46.9145 29.5229C46.9836 29.5215 47.0509 29.5006 47.1089 29.4624C47.1669 29.4241 47.2132 29.3702 47.2427 29.3065C47.2765 29.2373 47.2912 29.16 47.2852 29.083C47.2793 29.0059 47.2529 28.932 47.209 28.869L45.9277 26.8749C45.8909 26.8152 45.8399 26.7661 45.7794 26.732C45.7189 26.6979 45.6509 26.68 45.5818 26.68C45.5126 26.68 45.4447 26.6979 45.3842 26.732C45.3237 26.7661 45.2726 26.8152 45.2359 26.8749L43.9546 28.869C43.9103 28.9319 43.8837 29.0058 43.8775 29.0829C43.8713 29.16 43.8858 29.2374 43.9194 29.3068C43.9489 29.3705 43.9952 29.4244 44.0532 29.4627C44.1112 29.5009 44.1785 29.5218 44.2476 29.5231L43.646 30.5366L42.6133 29.1853C42.5743 29.1342 42.553 29.0714 42.5529 29.0066V28.7506C42.5526 28.5567 42.4768 28.3709 42.3422 28.2338C42.2077 28.0968 42.0253 28.0197 41.835 28.0195H40.4864C40.2962 28.0197 40.1138 28.0968 39.9792 28.2339C39.8447 28.3709 39.7689 28.5567 39.7686 28.7506V29.0063C39.7686 29.071 39.7474 29.1338 39.7084 29.1849L38.6189 30.6107L37.9725 29.5231C38.0415 29.5218 38.1088 29.5009 38.1668 29.4627C38.2247 29.4245 38.2711 29.3706 38.3005 29.307C38.3342 29.2376 38.3486 29.1601 38.3425 29.083C38.3363 29.0059 38.3096 28.9319 38.2654 28.869L36.9841 26.8749C36.9474 26.8151 36.8963 26.7658 36.8357 26.7316C36.7752 26.6974 36.7071 26.6794 36.6378 26.6794C36.5686 26.6794 36.5005 26.6974 36.4399 26.7316C36.3793 26.7658 36.3283 26.8151 36.2915 26.8749L35.0102 28.869C34.966 28.9319 34.9394 29.0059 34.9332 29.083C34.927 29.1601 34.9415 29.2376 34.9751 29.307C35.0047 29.3707 35.0511 29.4247 35.1093 29.4629C35.1674 29.5011 35.2348 29.522 35.304 29.5231L35.0517 29.9479C34.8861 29.9619 34.7315 30.0387 34.6188 30.1632C34.506 30.2876 34.4431 30.4507 34.4427 30.6201V30.9735L34.0391 31.6543C33.9931 31.7304 33.9678 31.8176 33.9655 31.907C33.9633 31.9963 33.9843 32.0847 34.0264 32.1632C34.0615 32.2316 34.1142 32.289 34.1788 32.3293C34.2434 32.3696 34.3176 32.3912 34.3934 32.3918H34.4246L33.072 34.5227C33.026 34.5988 33.0006 34.6859 32.9983 34.7753C32.9961 34.8647 33.0172 34.953 33.0593 35.0314C33.0943 35.0999 33.147 35.1575 33.2116 35.1978C33.2763 35.2381 33.3505 35.2597 33.4263 35.2603H33.6054L32.5615 37.4028C32.5186 37.4783 32.4955 37.5638 32.4945 37.651C32.4935 37.7382 32.5145 37.8242 32.5556 37.9007C32.5907 37.9691 32.6433 38.0266 32.708 38.0669C32.7726 38.1071 32.8468 38.1287 32.9225 38.1294H33.2202L32.0635 40.4873C32.0174 40.5679 31.9924 40.6594 31.991 40.7528C31.9897 40.8461 32.012 40.9383 32.0559 41.0203C32.0932 41.0934 32.1493 41.1549 32.2183 41.1979C32.2873 41.241 32.3665 41.2641 32.4473 41.2648H35.2628V42.692C35.2629 42.8488 35.3242 42.9992 35.433 43.1101C35.5418 43.221 35.6894 43.2834 35.8433 43.2836H46.4693C46.6232 43.2834 46.7708 43.221 46.8796 43.1101C46.9885 42.9992 47.0497 42.8488 47.0499 42.692V41.2648H49.8151C49.896 41.2641 49.9752 41.241 50.0441 41.1979C50.1131 41.1549 50.1692 41.0934 50.2064 41.0203C50.2503 40.9383 50.2727 40.8461 50.2714 40.7528C50.27 40.6594 50.245 40.5679 50.1988 40.4873V40.4873ZM36.6379 27.1404L37.8857 29.0825H37.6831C37.6361 29.0827 37.5899 29.0957 37.5494 29.12C37.5089 29.1443 37.4755 29.1792 37.4525 29.221C37.4283 29.2647 37.416 29.3141 37.4167 29.3642C37.4175 29.4143 37.4313 29.4634 37.4567 29.5063L38.3338 30.9831L37.1504 32.5304V32.2253C37.2816 32.18 37.3955 32.0941 37.4764 31.9795C37.5573 31.865 37.601 31.7275 37.6014 31.5864V30.6201C37.6012 30.4403 37.531 30.268 37.4063 30.1409C37.2815 30.0137 37.1124 29.9422 36.9359 29.942H35.5598L35.8192 29.5063C35.8446 29.4632 35.8584 29.4141 35.859 29.3639C35.8596 29.3137 35.8472 29.2643 35.8228 29.2206C35.7999 29.1788 35.7664 29.1439 35.7259 29.1195C35.6854 29.0952 35.6393 29.0823 35.5922 29.0821H35.3904L36.6379 27.1404ZM34.8743 30.6201C34.8744 30.5572 34.899 30.4968 34.9427 30.4523C34.9864 30.4078 35.0456 30.3827 35.1074 30.3826H36.9359C36.9977 30.3827 37.057 30.4078 37.1007 30.4523C37.1443 30.4968 37.1689 30.5572 37.169 30.6201V31.5864C37.169 31.6494 37.1444 31.7098 37.1007 31.7543C37.057 31.7989 36.9978 31.824 36.9359 31.824H35.1074C35.0456 31.824 34.9863 31.7989 34.9426 31.7543C34.8989 31.7098 34.8744 31.6494 34.8743 31.5864V30.6201ZM36.718 32.2651V33.0962L35.3252 34.9175V32.2647L36.718 32.2651ZM34.4039 31.9512C34.3989 31.9411 34.3964 31.9299 34.3967 31.9185C34.3969 31.9072 34.3999 31.8961 34.4053 31.8862L34.4713 31.7748C34.4886 31.837 34.5144 31.8964 34.5482 31.9511L34.4039 31.9512ZM35.2628 40.8242H32.4478C32.4371 40.8145 32.4297 40.8015 32.4269 40.7872C32.4232 40.7749 32.422 40.7619 32.4234 40.7491C32.4248 40.7363 32.4288 40.7239 32.4351 40.7127C32.439 40.7063 32.4427 40.6997 32.446 40.6928L33.7634 38.0071C33.7799 37.9735 33.7877 37.9361 33.786 37.8986C33.7843 37.8611 33.7733 37.8246 33.7539 37.7927C33.7345 37.7607 33.7075 37.7343 33.6753 37.7161C33.6431 37.6978 33.6068 37.6882 33.57 37.6882H32.9345C32.9296 37.6788 32.927 37.6684 32.9268 37.6578C32.9266 37.6471 32.9289 37.6366 32.9335 37.6271C32.9375 37.6207 32.9412 37.614 32.9444 37.6071L34.1063 35.2234C34.1271 35.1802 34.1368 35.1323 34.1345 35.0843C34.1323 35.0362 34.1181 34.9895 34.0933 34.9486C34.0698 34.9093 34.0369 34.8769 33.9975 34.8543C33.9582 34.8318 33.9139 34.82 33.8687 34.8199H33.4382C33.4333 34.8109 33.4306 34.8007 33.4302 34.7904C33.4298 34.78 33.4318 34.7697 33.4361 34.7603L34.8928 32.4631V35.4829L34.0578 36.5749C33.9925 36.6626 33.9525 36.7672 33.9423 36.8769C33.9321 36.9865 33.9522 37.0969 34.0002 37.1955C34.0483 37.2942 34.1224 37.3772 34.2143 37.4352C34.3062 37.4933 34.4121 37.524 34.5202 37.524H35.2628V40.8242ZM46.6181 42.692C46.618 42.732 46.6024 42.7704 46.5746 42.7987C46.5468 42.827 46.5092 42.8429 46.4699 42.843H35.8433C35.804 42.8429 35.7664 42.827 35.7386 42.7987C35.7108 42.7704 35.6952 42.732 35.6951 42.692V42.4398H46.6181V42.692ZM35.6957 41.9992V40.1847H36.4714V41.9992H35.6957ZM36.9038 41.9992V40.1847H37.6377V41.9992H36.9038ZM38.0701 41.9992V40.1847H38.8598V41.9992H38.0701ZM39.2922 41.9992V39.4282C39.29 39.1767 39.3367 38.9273 39.4296 38.6944C39.5226 38.4614 39.6599 38.2495 39.8336 38.0709C40.0073 37.8923 40.214 37.7506 40.4418 37.6538C40.6696 37.5571 40.9139 37.5073 41.1607 37.5073C41.4075 37.5073 41.6518 37.5571 41.8796 37.6538C42.1074 37.7506 42.3141 37.8923 42.4878 38.0709C42.6615 38.2495 42.7988 38.4614 42.8918 38.6944C42.9847 38.9273 43.0314 39.1767 43.0293 39.4282V41.9984L39.2922 41.9992ZM43.4616 41.9992V40.1847H44.2435V41.9992H43.4616ZM44.6759 41.9992V40.1847H45.41V41.9992H44.6759ZM46.6181 41.9992H45.8418V40.1847H46.6181V41.9992ZM46.6181 39.7441H43.4616V39.4282C43.4641 39.1187 43.4063 38.8118 43.2918 38.5252C43.1772 38.2386 43.0081 37.9779 42.7942 37.7582C42.5803 37.5385 42.3258 37.3641 42.0455 37.2451C41.7651 37.1261 41.4644 37.0648 41.1607 37.0648C40.857 37.0648 40.5563 37.1261 40.2759 37.2451C39.9956 37.3641 39.7411 37.5385 39.5272 37.7582C39.3133 37.9779 39.1442 38.2386 39.0297 38.5252C38.9151 38.8118 38.8574 39.1187 38.8598 39.4282V39.7441H35.6951V37.3773L36.112 36.8117H46.2001L46.6169 37.3773L46.6181 39.7441ZM45.6534 36.0691L45.8759 36.371H36.4367L36.6588 36.0691H45.6534ZM36.9839 35.6285L40.916 30.2928C40.9451 30.2564 40.9817 30.2271 41.0233 30.2069C41.0648 30.1868 41.1103 30.1763 41.1563 30.1763C41.2023 30.1763 41.2478 30.1868 41.2893 30.2069C41.3309 30.2271 41.3675 30.2564 41.3966 30.2928L45.3287 35.6285H36.9839ZM46.9418 37.0834L41.7422 30.0284C41.6739 29.9358 41.5855 29.8606 41.4838 29.8089C41.3821 29.7571 41.27 29.7301 41.1563 29.7301C41.0426 29.7301 40.9305 29.7571 40.8289 29.8089C40.7272 29.8606 40.6387 29.9358 40.5704 30.0284L35.371 37.0834H34.5206C34.4933 37.0834 34.4665 37.0756 34.4432 37.0611C34.4199 37.0465 34.401 37.0256 34.3886 37.0008C34.3762 36.9759 34.3708 36.9481 34.373 36.9203C34.3752 36.8925 34.3849 36.8659 34.401 36.8434L40.0494 29.4556C40.1472 29.327 40.2005 29.169 40.2009 29.0063V28.7508C40.201 28.6737 40.2311 28.5998 40.2846 28.5452C40.3381 28.4907 40.4106 28.4601 40.4863 28.4599H41.8337C41.9094 28.4601 41.9819 28.4907 42.0354 28.5452C42.0889 28.5997 42.1191 28.6736 42.1192 28.7508V29.0062C42.1196 29.1689 42.1729 29.327 42.2709 29.4556L47.9181 36.8412C47.9348 36.8636 47.945 36.8903 47.9475 36.9182C47.9501 36.9462 47.945 36.9744 47.9327 36.9996C47.9205 37.0247 47.9015 37.0459 47.8781 37.0607C47.8547 37.0755 47.8276 37.0834 47.8001 37.0834H46.9418ZM49.8356 40.7875C49.8327 40.8016 49.8255 40.8144 49.8151 40.8242H47.0504V37.524H47.7999C47.9083 37.524 48.0144 37.4932 48.1065 37.435C48.1985 37.3767 48.2727 37.2934 48.3207 37.1944C48.3687 37.0955 48.3885 36.9848 48.378 36.8749C48.3675 36.765 48.327 36.6604 48.2611 36.5727L43.9293 30.908L44.7618 29.5063C44.7873 29.4633 44.8012 29.4142 44.8019 29.364C44.8026 29.3138 44.7902 29.2643 44.766 29.2206C44.7431 29.1788 44.7096 29.1439 44.6691 29.1195C44.6286 29.0952 44.5824 29.0823 44.5354 29.0821H44.333L45.5811 27.14L46.8289 29.0821H46.6263C46.5792 29.0823 46.5331 29.0952 46.4926 29.1195C46.4521 29.1439 46.4186 29.1788 46.3957 29.2206C46.3715 29.2643 46.3592 29.3137 46.3599 29.3638C46.3607 29.4139 46.3744 29.4629 46.3999 29.5058L47.8156 31.8895C47.8202 31.8991 47.8225 31.9097 47.8223 31.9203C47.8221 31.9309 47.8195 31.9414 47.8146 31.9508H47.4961C47.4484 31.951 47.4016 31.9643 47.3607 31.9893C47.3198 32.0144 47.2862 32.0502 47.2636 32.093C47.2398 32.1376 47.2282 32.1879 47.23 32.2387C47.2319 32.2895 47.2472 32.3388 47.2743 32.3814L48.7814 34.7582C48.786 34.7678 48.7883 34.7784 48.7881 34.789C48.7879 34.7997 48.7852 34.8101 48.7803 34.8195H48.3493C48.3042 34.8195 48.2598 34.8313 48.2205 34.8539C48.1811 34.8764 48.1481 34.9089 48.1246 34.9482C48.1 34.9892 48.086 35.0358 48.0838 35.0839C48.0816 35.1319 48.0914 35.1797 48.1122 35.2228L49.2744 37.607C49.2776 37.6138 49.2813 37.6205 49.2853 37.6269C49.29 37.6365 49.2923 37.647 49.2921 37.6576C49.2919 37.6683 49.2893 37.6787 49.2843 37.688H48.6924C48.6555 37.6881 48.6193 37.6977 48.5871 37.716C48.5549 37.7343 48.5279 37.7606 48.5085 37.7926C48.4891 37.8245 48.4781 37.861 48.4765 37.8985C48.4748 37.936 48.4826 37.9733 48.4991 38.0069L49.8163 40.6926C49.8196 40.6995 49.8233 40.7061 49.8274 40.7126C49.8337 40.7238 49.8376 40.7363 49.839 40.7492C49.8405 40.762 49.8393 40.7751 49.8356 40.7875V40.7875Z" fill="#F9FAFA"/>
<path d="M39.6544 33.3538C39.6544 33.6564 39.7424 33.9523 39.9074 34.204C40.0724 34.4557 40.307 34.6518 40.5814 34.7677C40.8558 34.8835 41.1577 34.9138 41.449 34.8548C41.7403 34.7958 42.0079 34.65 42.2179 34.436C42.428 34.222 42.571 33.9494 42.629 33.6525C42.6869 33.3556 42.6572 33.048 42.5435 32.7683C42.4299 32.4887 42.2374 32.2497 41.9905 32.0815C41.7435 31.9134 41.4531 31.8236 41.1561 31.8236C40.758 31.8241 40.3763 31.9854 40.0948 32.2723C39.8133 32.5591 39.6549 32.9481 39.6544 33.3538V33.3538ZM42.2253 33.3538C42.2253 33.5693 42.1626 33.78 42.0451 33.9592C41.9276 34.1384 41.7606 34.2781 41.5652 34.3606C41.3699 34.443 41.1548 34.4646 40.9474 34.4226C40.74 34.3806 40.5494 34.2768 40.3999 34.1244C40.2503 33.972 40.1485 33.7778 40.1073 33.5664C40.066 33.3551 40.0872 33.136 40.1681 32.9369C40.2491 32.7377 40.3862 32.5676 40.562 32.4478C40.7379 32.3281 40.9446 32.2642 41.1561 32.2643C41.4396 32.2646 41.7113 32.3795 41.9118 32.5837C42.1122 32.788 42.225 33.0649 42.2253 33.3538V33.3538Z" fill="#F9FAFA"/>
<path d="M37.8981 37.3165H36.8712C36.7374 37.3165 36.6091 37.3706 36.5145 37.467C36.4199 37.5635 36.3667 37.6942 36.3667 37.8306V38.8775C36.3667 39.0138 36.4199 39.1446 36.5145 39.241C36.6091 39.3374 36.7374 39.3916 36.8712 39.3916H37.8981C38.0319 39.3916 38.1602 39.3374 38.2549 39.241C38.3495 39.1446 38.4026 39.0138 38.4026 38.8775V37.8306C38.4026 37.6942 38.3495 37.5635 38.2549 37.467C38.1602 37.3706 38.0319 37.3165 37.8981 37.3165ZM37.9702 38.8775C37.9702 38.8969 37.9626 38.9156 37.9491 38.9294C37.9356 38.9432 37.9172 38.9509 37.8981 38.9509H36.8712C36.8521 38.9509 36.8338 38.9432 36.8203 38.9294C36.8068 38.9156 36.7992 38.8969 36.7992 38.8775V37.8306C36.7992 37.8111 36.8068 37.7924 36.8203 37.7786C36.8338 37.7649 36.8521 37.7571 36.8712 37.7571H37.8981C37.9172 37.7571 37.9356 37.7649 37.9491 37.7786C37.9626 37.7924 37.9702 37.8111 37.9702 37.8306V38.8775Z" fill="#F9FAFA"/>
<path d="M45.4977 37.3165H44.4702C44.3364 37.3165 44.2081 37.3706 44.1135 37.467C44.0189 37.5635 43.9657 37.6942 43.9657 37.8306V38.8775C43.9657 39.0138 44.0189 39.1446 44.1135 39.241C44.2081 39.3374 44.3364 39.3916 44.4702 39.3916H45.4975C45.6313 39.3916 45.7597 39.3374 45.8543 39.241C45.9489 39.1446 46.002 39.0138 46.002 38.8775V37.8306C46.002 37.6943 45.9489 37.5635 45.8543 37.4671C45.7597 37.3707 45.6315 37.3165 45.4977 37.3165ZM45.5697 38.8775C45.5697 38.8969 45.5622 38.9156 45.5486 38.9294C45.5351 38.9432 45.5168 38.9509 45.4977 38.9509H44.4702C44.4511 38.9509 44.4328 38.9432 44.4192 38.9294C44.4057 38.9156 44.3981 38.8969 44.3981 38.8775V37.8306C44.3981 37.8111 44.4057 37.7924 44.4192 37.7786C44.4328 37.7649 44.4511 37.7571 44.4702 37.7571H45.4975C45.5166 37.7571 45.535 37.7649 45.5485 37.7786C45.562 37.7924 45.5696 37.8111 45.5696 37.8306L45.5697 38.8775Z" fill="#F9FAFA"/>
</g>
<g style="mix-blend-mode:overlay">
<path d="M52.2833 34.9772C52.2833 41.3495 47.2177 46.491 40.9986 46.491C34.7795 46.491 29.7139 41.3495 29.7139 34.9772C29.7139 28.605 34.7795 23.4634 40.9986 23.4634C47.2177 23.4634 52.2833 28.605 52.2833 34.9772Z" stroke="#F9FAFA" stroke-width="1.5"/>
</g>
</g>
<g filter="url(#filter1_d)">
<path d="M51.6805 43.4541C50.2525 43.4541 49.0405 43.1841 48.0445 42.6441C47.0605 42.1041 46.3105 41.3481 45.7945 40.3761C45.2785 39.4041 45.0205 38.2641 45.0205 36.9561C45.0205 35.6121 45.2845 34.4481 45.8125 33.4641C46.3525 32.4801 47.1265 31.7181 48.1345 31.1781C49.1425 30.6381 50.3545 30.3681 51.7705 30.3681C52.6585 30.3681 53.4985 30.4941 54.2905 30.7461C55.0945 30.9981 55.7485 31.3341 56.2525 31.7541L55.3525 33.9321C54.8005 33.5241 54.2365 33.2361 53.6605 33.0681C53.0845 32.8881 52.4605 32.7981 51.7885 32.7981C50.5045 32.7981 49.5385 33.1581 48.8905 33.8781C48.2545 34.5861 47.9365 35.6121 47.9365 36.9561C47.9365 38.3121 48.2605 39.3381 48.9085 40.0341C49.5685 40.7301 50.5405 41.0781 51.8245 41.0781C52.5085 41.0781 53.2285 40.9701 53.9845 40.7541V38.2701H51.2485V36.2541H56.2885V42.4821C55.6645 42.7941 54.9445 43.0341 54.1285 43.2021C53.3125 43.3701 52.4965 43.4541 51.6805 43.4541ZM61.5119 43.4541C60.8519 43.4541 60.2699 43.3281 59.7659 43.0761C59.2619 42.8241 58.8599 42.4821 58.5599 42.0501C58.2719 41.6181 58.1279 41.1321 58.1279 40.5921C58.1279 39.9561 58.2959 39.4461 58.6319 39.0621C58.9679 38.6781 59.5139 38.4081 60.2699 38.2521C61.0259 38.0841 62.0279 38.0001 63.2759 38.0001H63.9239V37.6941C63.9239 37.1661 63.8039 36.7941 63.5639 36.5781C63.3239 36.3501 62.9159 36.2361 62.3399 36.2361C61.8599 36.2361 61.3499 36.3141 60.8099 36.4701C60.2819 36.6141 59.7539 36.8361 59.2259 37.1361L58.4879 35.3181C58.7999 35.1141 59.1779 34.9281 59.6219 34.7601C60.0779 34.5921 60.5519 34.4661 61.0439 34.3821C61.5359 34.2861 62.0039 34.2381 62.4479 34.2381C63.8159 34.2381 64.8359 34.5501 65.5079 35.1741C66.1799 35.7861 66.5159 36.7401 66.5159 38.0361V43.2561H63.9779V41.9241C63.7979 42.3921 63.4919 42.7641 63.0599 43.0401C62.6399 43.3161 62.1239 43.4541 61.5119 43.4541ZM62.1239 41.6361C62.6279 41.6361 63.0539 41.4621 63.4019 41.1141C63.7499 40.7661 63.9239 40.3161 63.9239 39.7641V39.4041H63.2939C62.3699 39.4041 61.7159 39.4881 61.3319 39.6561C60.9479 39.8121 60.7559 40.0881 60.7559 40.4841C60.7559 40.8201 60.8699 41.0961 61.0979 41.3121C61.3379 41.5281 61.6799 41.6361 62.1239 41.6361ZM68.5434 43.2561V34.4181H71.2074V35.9481C71.6274 34.9161 72.5274 34.3461 73.9074 34.2381L74.6994 34.1841L74.8614 36.4701L73.3314 36.6321C71.9874 36.7641 71.3154 37.4481 71.3154 38.6841V43.2561H68.5434ZM79.2412 43.4541C78.4732 43.4541 77.7952 43.2681 77.2072 42.8961C76.6312 42.5121 76.1812 41.9781 75.8572 41.2941C75.5332 40.5981 75.3712 39.7761 75.3712 38.8281C75.3712 37.8801 75.5332 37.0641 75.8572 36.3801C76.1812 35.6961 76.6312 35.1681 77.2072 34.7961C77.7952 34.4241 78.4732 34.2381 79.2412 34.2381C79.8292 34.2381 80.3692 34.3641 80.8612 34.6161C81.3532 34.8681 81.7252 35.2041 81.9772 35.6241V30.5661H84.6952V43.2561H82.0312V41.9241C81.7912 42.3921 81.4192 42.7641 80.9152 43.0401C80.4232 43.3161 79.8652 43.4541 79.2412 43.4541ZM80.0512 41.4201C80.6272 41.4201 81.0952 41.2101 81.4552 40.7901C81.8272 40.3701 82.0132 39.7161 82.0132 38.8281C82.0132 37.9521 81.8272 37.3101 81.4552 36.9021C81.0952 36.4821 80.6272 36.2721 80.0512 36.2721C79.4752 36.2721 79.0072 36.4821 78.6472 36.9021C78.2872 37.3101 78.1072 37.9521 78.1072 38.8281C78.1072 39.7161 78.2872 40.3701 78.6472 40.7901C79.0072 41.2101 79.4752 41.4201 80.0512 41.4201ZM91.3795 43.4541C90.3355 43.4541 89.4355 43.2681 88.6795 42.8961C87.9355 42.5121 87.3595 41.9781 86.9515 41.2941C86.5555 40.5981 86.3575 39.7821 86.3575 38.8461C86.3575 37.9341 86.5495 37.1361 86.9335 36.4521C87.3295 35.7561 87.8635 35.2161 88.5355 34.8321C89.2195 34.4361 90.0055 34.2381 90.8935 34.2381C92.1775 34.2381 93.1975 34.6461 93.9535 35.4621C94.7095 36.2661 95.0875 37.3581 95.0875 38.7381V39.4221H88.9495C89.0455 40.1181 89.2975 40.6281 89.7055 40.9521C90.1255 41.2641 90.7015 41.4201 91.4335 41.4201C91.9135 41.4201 92.3995 41.3481 92.8915 41.2041C93.3835 41.0601 93.8275 40.8381 94.2235 40.5381L94.9435 42.3561C94.4995 42.6921 93.9535 42.9621 93.3055 43.1661C92.6695 43.3581 92.0275 43.4541 91.3795 43.4541ZM91.0015 36.0381C90.4255 36.0381 89.9575 36.2121 89.5975 36.5601C89.2495 36.9081 89.0335 37.3941 88.9495 38.0181H92.8375C92.7655 36.6981 92.1535 36.0381 91.0015 36.0381ZM96.6684 43.2561V34.4181H99.3324V35.7141C99.6324 35.2341 100.034 34.8681 100.538 34.6161C101.042 34.3641 101.606 34.2381 102.23 34.2381C103.274 34.2381 104.054 34.5441 104.57 35.1561C105.086 35.7561 105.344 36.6861 105.344 37.9461V43.2561H102.626V38.0721C102.626 37.4601 102.512 37.0221 102.284 36.7581C102.056 36.4821 101.72 36.3441 101.276 36.3441C100.7 36.3441 100.238 36.5241 99.8904 36.8841C99.5544 37.2441 99.3864 37.7241 99.3864 38.3241V43.2561H96.6684ZM45.3985 63.2561V50.5661H51.2125C52.5685 50.5661 53.6125 50.8601 54.3445 51.4481C55.0885 52.0361 55.4605 52.8401 55.4605 53.8601C55.4605 54.5321 55.2925 55.1141 54.9565 55.6061C54.6205 56.0861 54.1525 56.4461 53.5525 56.6861C54.2725 56.8901 54.8245 57.2501 55.2085 57.7661C55.6045 58.2821 55.8025 58.9181 55.8025 59.6741C55.8025 60.8021 55.4065 61.6841 54.6145 62.3201C53.8345 62.9441 52.7665 63.2561 51.4105 63.2561H45.3985ZM48.0625 55.7861H50.7265C52.0945 55.7861 52.7785 55.2581 52.7785 54.2021C52.7785 53.1581 52.0945 52.6361 50.7265 52.6361H48.0625V55.7861ZM48.0625 61.1861H51.0325C51.7525 61.1861 52.2805 61.0481 52.6165 60.7721C52.9525 60.4961 53.1205 60.0761 53.1205 59.5121C53.1205 58.9601 52.9525 58.5461 52.6165 58.2701C52.2805 57.9941 51.7525 57.8561 51.0325 57.8561H48.0625V61.1861ZM62.2701 63.4541C61.2261 63.4541 60.3261 63.2681 59.5701 62.8961C58.8261 62.5121 58.2501 61.9781 57.8421 61.2941C57.4461 60.5981 57.2481 59.7821 57.2481 58.8461C57.2481 57.9341 57.4401 57.1361 57.8241 56.4521C58.2201 55.7561 58.7541 55.2161 59.4261 54.8321C60.1101 54.4361 60.8961 54.2381 61.7841 54.2381C63.0681 54.2381 64.0881 54.6461 64.8441 55.4621C65.6001 56.2661 65.9781 57.3581 65.9781 58.7381V59.4221H59.8401C59.9361 60.1181 60.1881 60.6281 60.5961 60.9521C61.0161 61.2641 61.5921 61.4201 62.3241 61.4201C62.8041 61.4201 63.2901 61.3481 63.7821 61.2041C64.2741 61.0601 64.7181 60.8381 65.1141 60.5381L65.8341 62.3561C65.3901 62.6921 64.8441 62.9621 64.1961 63.1661C63.5601 63.3581 62.9181 63.4541 62.2701 63.4541ZM61.8921 56.0381C61.3161 56.0381 60.8481 56.2121 60.4881 56.5601C60.1401 56.9081 59.9241 57.3941 59.8401 58.0181H63.7281C63.6561 56.6981 63.0441 56.0381 61.8921 56.0381ZM70.547 63.4541C69.887 63.4541 69.305 63.3281 68.801 63.0761C68.297 62.8241 67.895 62.4821 67.595 62.0501C67.307 61.6181 67.163 61.1321 67.163 60.5921C67.163 59.9561 67.331 59.4461 67.667 59.0621C68.003 58.6781 68.549 58.4081 69.305 58.2521C70.061 58.0841 71.063 58.0001 72.311 58.0001H72.959V57.6941C72.959 57.1661 72.839 56.7941 72.599 56.5781C72.359 56.3501 71.951 56.2361 71.375 56.2361C70.895 56.2361 70.385 56.3141 69.845 56.4701C69.317 56.6141 68.789 56.8361 68.261 57.1361L67.523 55.3181C67.835 55.1141 68.213 54.9281 68.657 54.7601C69.113 54.5921 69.587 54.4661 70.079 54.3821C70.571 54.2861 71.039 54.2381 71.483 54.2381C72.851 54.2381 73.871 54.5501 74.543 55.1741C75.215 55.7861 75.551 56.7401 75.551 58.0361V63.2561H73.013V61.9241C72.833 62.3921 72.527 62.7641 72.095 63.0401C71.675 63.3161 71.159 63.4541 70.547 63.4541ZM71.159 61.6361C71.663 61.6361 72.089 61.4621 72.437 61.1141C72.785 60.7661 72.959 60.3161 72.959 59.7641V59.4041H72.329C71.405 59.4041 70.751 59.4881 70.367 59.6561C69.983 59.8121 69.791 60.0881 69.791 60.4841C69.791 60.8201 69.905 61.0961 70.133 61.3121C70.373 61.5281 70.715 61.6361 71.159 61.6361ZM77.5785 63.2561V54.4181H80.2425V55.7141C80.5425 55.2341 80.9445 54.8681 81.4485 54.6161C81.9526 54.3641 82.5166 54.2381 83.1405 54.2381C84.1846 54.2381 84.9646 54.5441 85.4805 55.1561C85.9966 55.7561 86.2546 56.6861 86.2546 57.9461V63.2561H83.5366V58.0721C83.5366 57.4601 83.4226 57.0221 83.1945 56.7581C82.9665 56.4821 82.6305 56.3441 82.1865 56.3441C81.6105 56.3441 81.1485 56.5241 80.8006 56.8841C80.4645 57.2441 80.2965 57.7241 80.2965 58.3241V63.2561H77.5785Z" fill="#FFF1E5"/>
</g>
<path d="M124.371 96.3616C126.216 95.3716 128.007 94.4471 129.766 93.4603C134.094 91.0327 138.428 88.6186 142.718 86.1225C145.793 84.3335 148.944 82.6794 151.994 80.8529C154.731 79.2168 157.501 77.6609 160.396 76.3433C165.306 74.1113 170.46 72.6907 175.743 71.7519C181.861 70.6628 188.013 69.816 194.243 69.6701C195.655 69.6364 196.98 69.1232 198.331 68.7711C200.761 68.1388 203.179 67.4619 205.712 67.3705C206.88 67.3284 207.124 67.604 206.812 68.7646C206.43 70.1795 205.618 71.3509 204.718 72.4562C204.423 72.8192 203.969 72.9471 203.515 73.0417C202.362 73.2851 201.212 73.5483 199.912 73.8372C200.688 74.7458 201.41 75.5442 202.082 76.3833C204.739 79.6937 206.724 83.4123 208.402 87.3199C211.374 94.249 213.873 101.362 216.43 108.453C218.793 115.007 221.734 121.289 225.431 127.177C228.828 132.587 233.16 137.122 237.992 141.182C241.292 143.957 244.718 146.549 248.358 148.832C248.499 148.92 248.646 148.999 248.788 149.084C249.014 149.22 249.199 149.414 249.182 149.683C249.158 150.004 248.863 149.996 248.629 150.067C246.026 150.847 243.343 151.276 240.718 151.959C233.672 153.785 226.829 156.134 220.557 159.977C216.761 162.305 213.424 165.215 210.358 168.473C207.709 171.29 205.124 174.169 202.27 176.778C200.998 177.942 199.56 178.819 198.064 179.619C197.46 179.94 197.403 179.906 197.325 179.219C197.101 177.271 196.672 175.402 195.765 173.63C194.004 170.186 191.503 167.487 188.287 165.48C187.05 164.707 185.762 164.027 184.493 163.31C181.577 161.665 178.863 159.729 176.649 157.146C173.432 153.391 171.582 148.989 171.109 144.038C170.558 138.263 170.766 132.531 172.223 126.896C173.079 123.585 173.936 120.273 174.574 116.903C175.4 112.534 175.619 108.172 174.485 103.809C173.553 100.219 172.283 96.775 170.056 93.7783C169.831 93.4756 169.599 93.1696 169.335 92.9047C165.621 89.1755 161.546 86.0536 156.422 84.6705C155.741 84.4873 155.177 84.5306 154.544 84.8722C145.408 89.7974 136.259 94.6982 127.115 99.6034C126.969 99.6818 126.83 99.7734 126.678 99.8355C126.139 100.055 126.179 100.375 126.461 100.82C127.276 102.102 128.018 103.434 128.867 104.693C130.752 107.487 131.982 110.571 133.071 113.756C133.988 116.431 134.263 119.198 134.691 121.954C134.834 122.877 134.572 123.501 133.746 123.92C132.893 124.354 132.024 124.668 131.073 124.83C129.951 125.021 129.162 124.636 128.546 123.682C126.741 120.877 124.69 118.264 122.51 115.758C122.041 115.221 121.626 114.501 121.034 114.246C120.353 113.953 119.775 114.713 119.222 115.096C117.299 116.425 115.483 116.307 113.631 114.899C112.333 113.912 111.093 112.867 109.885 111.639C109.306 111.988 108.988 112.627 108.64 113.218C107.862 114.532 107.447 115.996 107.105 117.483C106.223 121.318 104.619 124.81 102.496 128.067C101.368 129.798 99.9839 131.284 98.5227 132.705C97.5981 133.603 96.7142 134.539 95.8956 135.543C95.4726 136.061 95.0941 136.608 94.7614 137.193C94.1959 138.196 93.9973 139.238 94.4394 140.353C94.5835 140.715 94.6959 141.071 94.5406 141.458C93.7382 143.473 93.4896 145.624 93.1252 147.748C92.8522 149.335 92.4959 150.9 92.0707 152.448C91.8477 153.265 91.5199 154.038 91.1384 154.791C90.1121 156.81 88.4921 157.759 86.2918 157.482C85.3778 157.366 84.7758 157.627 84.129 158.267C82.4117 159.97 80.3698 161.257 78.4802 162.743C78.3904 162.812 78.31 162.896 78.1716 163.021C78.8624 163.201 79.4465 162.929 80.0218 162.784C85.0176 161.513 90.0466 161.536 95.0997 162.454C96.8176 162.766 98.4797 163.265 100.004 164.174C102.357 165.578 103.152 167.468 102.534 170.178C101.504 174.699 98.6245 177.448 94.174 178.162C92.2875 178.465 90.3975 178.384 88.5102 178.136C82.7538 177.381 77.1481 175.963 71.6912 173.905C70.6024 173.493 69.5434 173.023 68.6245 172.262C66.773 170.728 66.1733 167.981 67.2153 165.816C67.4602 165.304 67.8408 164.948 68.3074 164.65C71.794 162.426 75.2227 160.115 78.3403 157.358C78.6093 157.12 78.8524 156.85 79.175 156.531C77.3854 155.562 75.7577 154.431 74.0255 153.615C72.2807 152.793 70.9047 151.631 69.5944 150.294C68.6952 149.377 68.3238 148.227 68.3347 146.942C68.336 146.645 68.3262 146.345 68.3678 146.054C69.0823 140.865 69.272 135.578 70.9585 130.568C71.0114 130.412 71.0323 130.245 71.0893 129.983C69.2628 129.777 67.481 129.576 65.6723 129.373C65.2832 129.885 65.3034 130.509 65.358 131.155C65.4521 132.259 65.7844 133.315 65.9932 134.393C66.2348 135.644 66.4404 136.897 66.4018 138.174C66.3288 140.562 65.3543 142.401 63.2697 143.538C62.0005 144.231 60.7301 144.927 59.4492 145.597C57.3721 146.685 55.4151 147.898 54.5079 150.285C54.3429 150.717 54.0071 150.58 53.674 150.557C50.9702 150.369 48.9991 148.82 47.2325 146.884C45.1595 144.615 43.4529 142.048 41.5814 139.613C40.0837 137.662 39.0362 135.434 37.8534 133.293C37.3494 132.383 37.3791 131.929 38.0032 131.354C39.4952 129.974 40.9497 128.54 42.7993 127.634C44.9412 126.586 46.7675 126.879 48.409 128.68C50.0873 130.521 51.4959 132.548 52.4132 134.925C53.0378 136.54 53.8572 138.078 54.5501 139.668C54.7708 140.175 55.0913 140.174 55.4333 139.964C56.7727 139.145 58.1561 138.384 59.2678 137.234C59.9339 136.545 60.2329 135.694 60.261 134.715C60.3076 133.104 60.2176 131.5 60.1037 129.895C59.995 128.364 60.0715 126.843 60.5189 125.37C61.208 123.093 62.3428 122.184 64.6518 122.124C66.5581 122.072 68.4346 122.371 70.2838 122.849C71.2061 123.085 72.1221 123.342 73.047 123.57C73.5733 123.701 73.9467 123.59 74.244 123.017C75.9097 119.807 77.9337 116.838 80.0611 113.939C81.6376 111.79 82.7936 109.402 83.3714 106.776C84.3124 102.495 85.7314 98.4151 87.7168 94.541C87.8115 94.3579 87.8677 94.1546 87.9673 93.8991C86.4508 93.4669 84.9484 93.2843 83.4389 93.1875C80.5719 93.0036 77.8201 92.2693 75.114 91.316C74.2533 91.013 73.4187 90.6433 72.6967 90.0445C71.8752 89.3643 71.5696 88.5157 71.7916 87.4514C72.3199 84.9291 72.9742 84.4433 75.4787 84.7689C76.01 84.8376 76.5422 84.9174 77.07 85.0118C80.5445 85.6206 83.8673 85.0501 87.1278 83.8229C89.3501 82.9865 91.4323 81.9177 93.1611 80.2376C93.8047 79.6132 94.4952 79.0264 94.7724 78.0647C97.2521 69.4472 101.887 62.163 107.775 55.6492C111.739 51.2648 115.674 46.8523 120.093 42.9379C122.43 40.8687 124.94 39.0411 127.635 37.4846C127.993 37.2785 128.338 37.0477 128.682 36.8152C128.766 36.7577 128.827 36.6579 128.917 36.5568C128.564 36.3493 128.249 36.4799 127.939 36.5333C125.296 36.9913 122.697 37.6065 120.228 38.6976C119.892 38.8464 119.57 39.0531 119.178 39.0342C118.76 39.0133 118.568 38.7151 118.779 38.3514C118.924 38.103 119.133 37.8877 119.336 37.6822C121.709 35.2789 124.531 33.7145 127.805 33.0622C131.48 32.3294 135.11 31.4308 138.684 30.2927C139.71 29.9658 140.565 29.4132 141.198 28.5659C142.658 26.6192 143.99 24.5964 144.39 22.0827C144.522 21.2642 144.763 20.4515 145.64 20.2095C146.753 19.9011 147.935 19.6084 148.947 20.489C149.964 21.3724 150.827 22.4173 151.337 23.7022C151.805 24.877 151.554 25.4588 150.407 25.8173C148.865 26.2978 147.583 27.1564 146.547 28.4123C144.186 31.2783 141.821 34.151 140.334 37.635C139.485 39.6244 139.418 41.635 140.545 43.5893C140.904 44.2121 141.256 44.8387 141.622 45.4556C141.987 46.0721 141.896 46.5756 141.315 46.9858C141.182 47.0792 141.09 47.2537 140.948 47.3177C139.804 47.8472 139.447 48.9306 139.147 50.0419C138.685 51.7588 138.408 53.4782 138.822 55.2812C139.475 58.1243 139.13 60.9307 138.367 63.6851C137.746 65.9258 136.889 68.076 135.959 70.2009C132.699 77.6567 128.794 84.7346 124.326 91.4797C123.795 92.2791 123.623 93.0448 123.834 93.9636C124.016 94.7457 124.062 95.556 124.371 96.3616ZM94.0623 82.6641C94.4189 82.4654 94.6121 82.1383 94.7324 81.7564C96.2263 80.3754 97.7949 79.0866 99.4163 77.8681C100.381 77.1438 101.472 76.6332 102.657 76.3722C103.185 76.2555 103.649 76.3573 103.997 76.8006C104.352 77.2504 104.287 77.7416 104.095 78.2371C103.958 78.5843 103.617 78.8083 103.551 79.2552C104.721 79.765 105.896 80.2724 107.067 80.7936C107.369 80.9276 107.659 81.0894 107.94 81.2655C108.087 81.3575 108.151 81.537 108.065 81.7084C107.988 81.8626 107.849 81.9904 107.673 81.9572C107.477 81.9201 107.287 81.8302 107.101 81.7493C105.997 81.2716 104.897 80.7766 103.788 80.3111C103.093 80.02 102.458 79.974 101.906 80.681C101.578 81.0999 101.098 81.3886 100.688 81.7381C99.7396 82.548 98.7908 83.3575 97.8046 84.199C98.194 84.404 98.4818 84.3024 98.7628 84.3058C101.318 84.3489 103.872 84.4266 106.421 84.6515C107.204 84.7218 107.985 84.8682 108.635 85.3809C109.139 85.7785 109.145 86.2586 108.637 86.6231C108.199 86.9368 107.706 87.1462 107.18 87.2915C106.066 87.5981 104.929 87.787 103.787 87.9475C103.52 87.985 103.243 88.0084 103.08 88.4302C104.332 88.7014 105.491 88.9576 106.652 89.2027C107.47 89.3752 108.257 89.6429 108.938 90.1455C109.847 90.8175 109.784 91.5533 108.803 92.0772C108.052 92.4779 107.231 92.5524 106.407 92.5788C105.253 92.6131 104.098 92.6123 102.946 92.6554C102.184 92.6845 101.487 92.8781 101.014 93.5814C100.65 94.1231 100.094 94.2288 99.4863 94.1966C98.1086 94.1252 96.7818 94.416 95.487 94.8509C94.7202 95.108 93.987 95.1312 93.1899 94.9165C92.075 94.613 90.9277 94.437 89.7946 94.203C89.2536 94.0917 88.8691 94.2139 88.591 94.779C86.9265 98.1854 85.4259 101.657 84.6424 105.411C83.96 108.68 82.7707 111.706 80.826 114.399C79.4803 116.263 78.1308 118.125 76.9375 120.1C74.6149 123.948 72.5866 127.929 71.3699 132.326C70.0776 136.998 69.849 141.837 69.2391 146.613C69.0695 147.942 69.6335 149.105 70.5876 150.033C71.0376 150.47 71.5272 150.866 71.9791 151.302C72.9284 152.217 74.1891 152.587 75.2394 153.322C76.3376 154.091 77.5458 154.658 78.718 155.282C79.81 155.863 79.9418 155.811 80.7006 154.89C80.7796 154.794 80.852 154.691 80.9255 154.589C81.9942 153.133 82.625 151.409 83.6073 149.899C83.7349 149.702 83.731 149.414 83.779 149.167C84.4853 145.558 85.2053 141.954 86.2463 138.43C86.7218 136.821 87.592 135.45 88.6797 134.217C89.7018 133.06 90.8067 131.984 91.9912 131.012C95.9314 127.775 98.5795 123.699 99.9581 118.674C100.715 115.913 101.782 113.242 102.737 110.541C103.948 107.12 105.706 104.042 108.277 101.516C109.787 100.032 110.847 98.2632 111.761 96.3515C112.773 94.2331 113.738 92.0851 115.209 90.2281C117.4 87.4629 119.805 84.9412 122.793 83.091C124.849 81.8172 125.86 80.0124 125.863 77.5555C125.862 76.9642 125.929 76.3699 126.011 75.7853C126.29 73.8026 126.712 71.8256 127.759 70.1412C129.956 66.6026 131.652 62.8094 133.391 59.0291C133.663 58.4356 133.794 57.8747 133.685 57.2072C133.567 56.4963 133.647 55.7772 133.795 55.0631C134.327 52.4996 134.839 49.931 135.347 47.3613C135.636 45.9102 135.919 44.4552 135.894 42.9604C135.888 42.5261 135.99 42.0408 135.609 41.6563C134.556 42.0356 133.861 42.8273 133.145 43.5645C131.581 45.1757 130.673 47.226 129.667 49.2084C129.27 49.9941 128.864 50.7771 128.439 51.546C128.277 51.8375 128.055 52.1491 127.671 52.0781C127.234 51.9977 127.113 51.5841 127.056 51.2106C126.941 50.4472 127.049 49.6823 127.169 48.9352C127.368 47.6812 127.175 46.4931 126.709 45.3333C126.553 44.9412 126.364 44.5611 126.178 44.1803C125.774 43.3559 125.894 42.6373 126.512 41.9765C127.422 41.002 128.383 40.0878 129.374 39.2023C130.022 38.6238 130.646 38.0122 131.253 37.3888C131.441 37.1965 131.68 36.9144 131.408 36.6202C131.188 36.3822 130.953 36.5967 130.743 36.7094C129.071 37.6092 127.414 38.5318 125.845 39.626C123.534 41.2384 121.319 42.9678 119.253 44.8989C116.246 47.7092 113.48 50.7658 110.655 53.7628C110.09 54.3621 109.458 54.9127 109.042 55.7223C109.271 55.9177 109.484 56.1064 109.702 56.2871C110.415 56.8689 111.129 57.448 111.844 58.0288C112.087 58.2258 112.306 58.4664 112.065 58.7716C111.818 59.0843 111.546 58.8625 111.31 58.6886C111.107 58.5394 110.913 58.3821 110.718 58.2245C110.133 57.7489 109.541 57.2848 108.972 56.7919C108.574 56.4475 108.244 56.4726 107.913 56.8696C107.459 57.4136 106.974 57.931 106.536 58.4879C106.115 59.0242 105.532 59.4574 105.354 60.2168C106.013 60.5247 106.62 60.7877 107.209 61.0905C108.706 61.8623 109.636 63.0975 110.019 64.7729C110.138 65.2959 110.083 65.7605 109.777 66.2159C108.844 67.6107 107.787 68.8971 106.685 70.1475C105.782 71.1702 104.726 71.417 103.443 70.9581C102.032 70.4546 100.724 69.752 99.4455 68.9492C99.0684 69.5072 98.7623 70.049 98.6245 70.6787L98.626 70.6729C98.4162 70.8312 98.3483 71.0792 98.2445 71.3034C96.7111 74.6485 95.7278 78.2114 94.4082 81.6417C94.1719 81.9342 94.0418 82.2662 94.0686 82.6534C93.7916 82.985 93.5559 83.3373 93.5462 83.7997C92.7121 85.6442 91.8788 87.4863 90.9901 89.4517C92.1723 89.5821 93.144 89.6335 94.1265 89.602C94.7221 89.583 94.9462 89.316 94.8744 88.7411C94.8279 88.3645 94.7749 87.9889 94.6969 87.6194C94.4389 86.3821 94.1701 85.1461 93.9037 83.9109C94.0304 83.5136 94.2782 83.1205 94.0623 82.6641ZM128.162 49.6816C128.149 49.7296 128.137 49.7793 128.127 49.8259C128.142 49.7789 128.158 49.7322 128.173 49.6855C128.405 49.5612 128.51 49.3388 128.629 49.1135C129.438 47.6046 130.176 46.0448 131.102 44.6147C132.122 43.0363 133.396 41.655 135.089 40.7928C135.956 40.3514 136.506 40.6556 136.713 41.6216C136.866 42.3284 136.904 43.0414 136.825 43.7621C136.413 47.4899 135.611 51.1403 134.796 54.7858C134.666 55.3678 134.505 55.93 134.741 56.5203C134.728 56.5682 134.715 56.616 134.703 56.6636C134.718 56.6169 134.734 56.5699 134.752 56.5241C135.237 55.9585 135.751 55.4132 136.202 54.8178C137.112 53.6201 137.838 52.3814 138.085 50.7798C138.335 49.1572 138.696 47.4293 140.383 46.5339C140.847 46.287 140.688 45.8142 140.482 45.4128C140.075 44.6233 139.635 43.849 139.269 43.0401C138.533 41.4074 138.585 39.631 139.193 38.0981C140.543 34.6871 142.616 31.6896 144.93 28.8779C145.832 27.7809 146.794 26.7574 147.893 25.874C148.131 25.6842 148.427 25.4533 148.138 25.1707C147.17 24.2249 147.209 22.9611 147.001 21.7688C146.947 21.4541 147.087 21.0278 146.658 20.9092C146.314 20.8147 146.03 21.0702 145.765 21.2559C145.391 21.5165 145.361 21.975 145.244 22.3722C144.788 23.9059 144.359 25.4393 143.537 26.8352C142.337 28.8741 140.921 30.6698 138.605 31.3426C135.34 32.2931 132.077 33.2932 128.704 33.8064C126.42 34.1542 124.417 35.1925 122.453 36.3422C122.315 36.4231 122.168 36.5215 122.238 36.7124C122.38 36.9081 122.535 36.8151 122.688 36.7765C124.001 36.4548 125.314 36.1325 126.629 35.8145C128.201 35.4352 129.785 35.3454 131.406 35.4958C132.566 35.6018 132.934 36.54 132.352 37.4606C132.032 37.9638 131.682 38.4063 131.257 38.8029C130.022 39.9611 128.689 41.0078 127.551 42.2823C127.011 42.8867 126.853 43.3997 127.199 44.1861C127.397 44.6352 127.508 45.143 127.743 45.5916C128.148 46.3657 128.249 47.189 128.194 48.0532C128.161 48.5952 127.95 49.1339 128.162 49.6816ZM198.148 178.251C199.154 177.865 200.066 177.46 200.809 176.802C202.326 175.459 203.797 174.061 205.202 172.589C207.295 170.393 209.32 168.133 211.466 165.991C214.026 163.437 216.79 161.127 219.851 159.276C222.278 157.808 224.804 156.494 227.429 155.362C230.418 154.073 233.504 153.113 236.569 152.089C239.603 151.075 242.759 150.474 245.901 149.868C246.181 149.814 246.473 149.771 246.732 149.659C247.006 149.54 247.06 149.282 246.865 149.039C246.736 148.879 246.562 148.749 246.389 148.637C244.431 147.372 242.53 146.027 240.699 144.569C237.758 142.228 234.928 139.767 232.226 137.139C227.986 133.016 224.863 128.047 221.852 122.988C220.274 120.336 219.342 117.355 217.851 114.656C217.811 114.581 217.782 114.501 217.751 114.423C217.009 112.455 216.262 110.489 215.524 108.521C214.978 107.063 214.39 105.618 213.92 104.134C213.167 101.765 212.222 99.47 211.358 97.1433C210.729 95.4463 210.079 93.7578 209.381 92.0857C208.637 90.2991 208.02 88.4582 207.132 86.7317C206.146 84.812 205.142 82.9021 204.184 80.9707C203.691 79.9792 202.983 79.1495 202.376 78.2436C201.017 76.2215 199.201 74.6124 197.57 72.8397C196.978 72.1954 196.27 71.6638 195.602 71.0936C195.029 70.6054 194.359 70.4619 193.628 70.5267C190.846 70.7761 188.059 70.9388 185.285 71.299C180.478 71.9269 175.685 72.6005 170.966 73.7348C167.493 74.5708 164.079 75.6398 160.845 77.144C157.667 78.623 154.633 80.4284 151.538 82.0912C151.434 82.1469 151.318 82.1971 151.314 82.3626C151.384 82.602 151.615 82.6269 151.8 82.6648C153.173 82.9405 154.533 83.291 155.9 83.5726C157.743 83.9501 159.453 84.6295 161.122 85.4729C163.777 86.812 166.094 88.667 168.349 90.6028C170.139 92.1392 171.567 93.9965 172.632 96.1335C173.949 98.782 174.913 101.548 175.566 104.454C176.274 107.597 176.38 110.748 175.983 113.903C175.385 118.642 174.137 123.236 172.96 127.843C172.71 128.821 172.5 129.812 172.338 130.808C171.974 133.06 171.839 135.332 171.8 137.621C171.726 141.913 172.003 146.117 173.539 150.214C174.236 152.077 175.198 153.73 176.328 155.269C178.785 158.617 182.053 161 185.647 162.896C188.38 164.338 191.01 165.909 193.121 168.249C194.953 170.28 196.512 172.481 197.38 175.166C197.697 176.129 197.767 177.14 198.148 178.251ZM86.1054 156.497C87.4668 156.827 88.9261 156.359 89.7343 155.303C90.3217 154.534 90.7277 153.664 91.0342 152.732C91.8797 150.157 92.2869 147.481 92.7278 144.816C93.0431 142.908 94.0186 141.067 93.305 139.037C93.2804 138.966 93.3242 138.87 93.3281 138.787C93.3587 137.717 93.897 136.87 94.4392 136.016C95.688 134.05 97.4201 132.544 99.017 130.915C101.778 128.099 103.619 124.699 105.1 121.048C105.83 119.245 106.143 117.316 106.745 115.476C107.127 114.306 107.595 113.182 108.282 112.176C108.795 111.425 109.518 110.818 109.552 109.787C109.557 109.607 109.719 109.359 109.875 109.27C110.899 108.692 111.487 107.747 112.096 106.77C112.408 106.271 113.026 105.969 113.555 105.634C114.302 105.162 114.22 104.323 113.428 103.877C113.32 103.815 113.191 103.788 113.091 103.719C112.288 103.161 111.455 102.564 111.593 101.422C111.727 100.314 112.63 100.005 113.542 99.7851C113.9 99.6988 114.259 99.6048 114.621 99.5287C115.949 99.2491 117.271 98.9442 118.607 98.7132C119.202 98.6106 119.566 98.3719 119.766 97.7689C120.346 96.0365 121.324 94.526 122.294 93.0049C124.183 90.0411 126.09 87.0872 127.886 84.0648C131.294 78.3357 134.196 72.3367 136.641 66.0954C137.636 63.5534 138.19 60.9398 138.324 58.2128C138.384 56.9876 138.033 55.1683 137.605 54.4353C136.741 55.5822 135.892 56.7131 135.034 57.8396C134.627 58.3759 134.331 58.965 134.064 59.5916C132.717 62.7647 131.331 65.9252 129.579 68.8804C128.695 70.3724 127.933 71.8776 127.469 73.5647C127.11 74.8734 126.789 76.1711 126.784 77.5465C126.782 78.1758 126.637 78.8045 126.551 79.4324C126.337 81.0333 125.551 82.2653 124.261 83.1571C122.867 84.1194 121.473 85.0878 120.213 86.2255C117.55 88.6306 115.213 91.3033 113.639 94.6396C112.263 97.5563 110.861 100.439 108.463 102.722C106.628 104.468 105.287 106.667 104.31 109.086C103.476 111.154 102.749 113.261 102.002 115.362C101.228 117.546 100.571 119.774 99.7903 121.953C99.0057 124.144 97.9405 126.178 96.4028 127.931C94.6705 129.909 92.7051 131.627 90.7748 133.386C88.7575 135.226 87.2823 137.4 86.6649 140.139C86.2192 142.114 85.7399 144.084 85.3593 146.073C85.1878 146.968 84.7474 147.815 84.7993 148.732C85.0488 148.892 85.2568 148.857 85.4546 148.825C87.4459 148.527 88.1181 149.537 88.2255 151.416C88.3113 152.93 87.8132 154.232 86.9042 155.4C86.6313 155.753 86.2189 156.011 86.1054 156.497ZM73.2869 124.586C72.1047 124.061 70.8393 123.886 69.6119 123.599C67.8844 123.196 66.1214 122.968 64.3424 123.09C62.9411 123.185 62.0164 123.96 61.5506 125.348C61.0449 126.853 60.9677 128.39 61.0564 129.968C61.1445 131.573 61.2124 133.184 61.1619 134.787C61.1223 136.03 60.6935 137.14 59.794 138.077C58.619 139.299 57.0546 139.898 55.7497 140.908C55.0981 141.412 54.3126 141.056 53.9262 140.263C53.2846 138.936 52.6259 137.625 52.068 136.248C51.1006 133.864 49.8619 131.592 48.1206 129.669C46.416 127.786 44.7894 127.384 42.3864 128.88C41.1439 129.653 40.0367 130.689 38.98 131.746C38.6 132.126 38.487 132.477 38.7425 132.975C39.8393 135.112 40.905 137.265 42.4088 139.152C43.139 140.066 43.7912 141.046 44.4958 141.984C45.8291 143.76 47.1028 145.602 48.7688 147.07C49.9775 148.136 51.1397 149.307 52.9028 149.453C53.4906 149.501 53.821 149.442 54.1143 148.943C55.2567 147 56.9866 145.757 58.9053 144.742C60.2582 144.026 61.6016 143.296 62.9517 142.574C64.4969 141.747 65.3397 140.432 65.4518 138.649C65.5467 137.165 65.4034 135.693 65.0545 134.238C64.8284 133.294 64.6165 132.342 64.4688 131.382C64.3391 130.54 64.3757 129.727 64.849 128.939C65.1748 128.399 65.4703 128.272 66.0441 128.433C67.4824 128.835 68.98 128.823 70.4466 129.022C70.9574 129.092 71.4203 128.973 71.6621 128.391C72.1877 127.116 72.7427 125.857 73.2869 124.586ZM97.4047 176.215C97.5802 176.09 97.8174 175.926 98.0509 175.755C99.9083 174.393 100.98 172.5 101.565 170.268C101.838 169.221 101.772 169.021 100.868 168.548C98.7103 167.419 96.4459 166.931 94.0398 167.306C89.3824 168.029 84.7103 168.212 80.0034 167.714C78.1197 167.515 76.2178 167.465 74.325 167.47C72.7256 167.475 71.9223 168.146 71.4908 169.614C71.3135 170.221 71.2858 170.857 71.3536 171.501C71.4555 172.48 71.8515 173.088 72.8561 173.403C75.899 174.356 78.9164 175.38 82.0401 176.032C85.0342 176.658 88.0259 177.261 91.0818 177.413C93.2543 177.523 95.335 177.109 97.4047 176.215ZM101.771 167.98C101.67 166.464 100.727 165.698 99.7146 165.031C98.4066 164.169 96.908 163.718 95.4231 163.437C90.2268 162.453 85.0315 162.465 79.8819 163.727C78.8106 163.989 77.6745 164.017 76.683 164.58C76.1842 164.864 75.7667 164.718 75.5177 164.269C75.2507 163.785 75.6476 163.452 75.9924 163.252C77.7413 162.237 79.2806 160.918 80.9005 159.72C83.034 158.143 84.9926 156.384 86.5683 154.192C87.3113 153.159 87.4724 152.058 87.2687 150.844C87.095 149.807 86.3311 149.39 85.3893 149.828C84.6955 150.149 84.1946 150.675 83.83 151.371C83.2869 152.408 82.7259 153.438 82.1263 154.442C80.7745 156.716 78.7438 158.303 76.7547 159.912C75.4105 160.998 74.0232 162.038 72.5853 162.988C71.4511 163.735 70.4271 164.72 69.2157 165.25C68.2249 165.683 67.9212 166.37 67.7712 167.23C67.5668 168.414 67.6326 169.618 68.4019 170.626C68.9125 171.295 69.415 172.043 70.4095 172.12C70.2879 171.067 70.3172 170.094 70.6599 169.174C71.2208 167.664 72.101 166.598 73.8665 166.509C75.0213 166.45 76.1649 166.505 77.3103 166.564C80.1433 166.708 82.9689 167.001 85.8061 167.04C88.1976 167.073 90.5635 166.761 92.9279 166.464C94.393 166.279 95.8421 166.091 97.3405 166.379C98.8629 166.664 100.247 167.283 101.771 167.98ZM123.14 104.595C122.834 103.999 122.483 103.226 122.052 102.502C121.623 101.78 121.126 101.097 120.634 100.416C120.255 99.8902 119.815 99.8108 119.252 100.188C118.685 100.566 118.252 101.061 117.847 101.591C117.178 102.464 117.186 102.979 117.881 103.857C118.455 104.581 119.064 105.276 119.644 105.994C119.843 106.241 119.936 106.567 119.673 106.794C119.393 107.039 119.116 106.838 118.941 106.584C118.342 105.717 117.538 105.025 117.01 104.093C116.607 103.379 116.142 103.318 115.362 103.775C114.765 104.124 114.7 104.373 115.052 105.149C115.279 105.65 115.559 106.118 115.935 106.529C116.614 107.271 117.263 108.046 117.931 108.799C118.13 109.022 118.324 109.242 118.349 109.558C118.377 109.902 118.07 110.117 117.776 109.948C117.637 109.868 117.516 109.741 117.411 109.617C116.698 108.792 115.99 107.962 115.286 107.128C114.491 106.188 114.493 106.187 113.487 106.791C113.274 106.92 113.047 107.03 112.857 107.187C112.309 107.642 112.268 108.018 112.767 108.575C113.554 109.456 114.441 110.219 115.468 110.799C115.753 110.961 116.024 111.162 116.28 111.373C116.421 111.49 116.419 111.686 116.331 111.836C116.24 111.991 116.073 112.064 115.905 112.01C115.711 111.948 115.527 111.844 115.347 111.746C114.315 111.184 113.402 110.466 112.575 109.616C111.976 108.999 111.26 109.1 110.566 109.826C110.178 110.231 110.178 110.657 110.758 111.262C112.217 112.781 113.799 114.147 115.726 115.016C116.159 115.211 116.584 115.209 117.047 115.086C118.065 114.815 118.929 114.276 119.765 113.647C120.85 112.83 120.853 112.859 121.822 113.789C123.247 115.159 124.435 116.743 125.702 118.254C126.999 119.801 128.158 121.456 129.281 123.136C129.715 123.786 130.186 124.014 130.939 123.925C131.742 123.829 132.435 123.505 133.141 123.158C133.706 122.879 133.91 122.505 133.786 121.842C133.615 120.929 133.532 119.997 133.431 119.07C133.329 118.131 133.317 118.085 132.357 118.287C131.153 118.541 130.066 118.316 129.074 117.571C128.707 117.295 128.355 117 127.992 116.716C126.409 115.477 125.178 113.841 123.593 112.599C123.156 112.256 123.203 111.798 123.678 111.462C124.049 111.2 124.483 111.03 124.847 110.76C125.519 110.26 125.572 109.941 125.23 109.131C124.606 107.647 124.046 106.137 123.14 104.595ZM107.734 85.967C107.014 85.5842 106.432 85.562 105.867 85.5354C102.988 85.3988 100.11 85.0572 97.2265 85.3678C97.103 85.3813 96.9802 85.4278 96.8607 85.4127C96.2714 85.3438 96.0387 84.8 96.412 84.3067C96.6097 84.0439 96.8738 83.8277 97.1277 83.6148C98.9343 82.0949 100.8 80.6416 102.429 78.9116C102.81 78.5055 103.579 78.018 103.241 77.5121C102.836 76.9065 102.136 77.5057 101.601 77.7425C99.3724 78.726 97.6794 80.4809 95.8276 82.0032C94.9519 82.7232 94.708 83.6815 94.9671 84.8485C95.2768 86.25 95.7503 87.6219 95.7805 89.0824C95.7984 89.9653 95.7504 90.0846 94.931 90.3028C94.3699 90.4525 93.7974 90.5119 93.2177 90.4935C87.0057 90.3025 80.9002 89.3931 74.952 87.4396C74.5211 87.2981 74.0796 87.1598 73.6335 87.0936C72.8965 86.9815 72.6373 87.2071 72.5741 87.941C72.5318 88.4254 72.6355 88.8459 73.0237 89.1979C73.5315 89.6568 74.1021 89.9926 74.7256 90.2233C77.3401 91.185 79.9978 91.9718 82.7758 92.1989C86.3626 92.4922 89.8804 93.2266 93.3833 94.0456C94.0577 94.2032 94.6779 94.2362 95.3113 94.0193C96.6463 93.5579 98.001 93.2446 99.4259 93.322C99.8591 93.3448 100.243 93.2664 100.492 92.8443C100.972 92.0286 101.763 91.8158 102.612 91.7766C103.723 91.7241 104.836 91.7234 105.948 91.6995C106.608 91.684 107.267 91.6463 107.897 91.4235C108.084 91.3566 108.317 91.2892 108.31 91.0308C108.303 90.7849 108.083 90.6932 107.893 90.6172C107.623 90.5095 107.351 90.4131 107.074 90.3233C105.213 89.7177 103.296 89.4228 101.359 89.2594C100.661 89.2012 99.9586 89.1933 99.2605 89.1349C98.8568 89.1013 98.5326 88.9096 98.5279 88.4335C98.5236 87.9765 98.6809 87.5793 99.158 87.4701C99.4752 87.3988 99.8114 87.3962 100.139 87.3958C101.629 87.3904 103.1 87.1999 104.557 86.9354C105.592 86.7387 106.673 86.6446 107.734 85.967ZM153.832 84.1192C152.811 83.9093 151.899 83.8143 151.054 83.5197C150.226 83.2323 149.565 83.3637 148.844 83.7912C145.86 85.553 142.782 87.1393 139.778 88.8712C135.525 91.321 131.267 93.7761 126.959 96.1281C125.689 96.8209 124.428 97.5337 123.134 98.1749C122.528 98.4763 122.107 99.0076 121.536 99.3398C121.34 99.4549 121.271 99.6479 121.362 99.8805C121.75 100.863 122.443 101.133 123.354 100.657C123.426 100.618 123.5 100.579 123.573 100.54C133.33 95.3052 143.089 90.0699 152.845 84.8316C153.152 84.6642 153.519 84.5662 153.832 84.1192ZM123.547 103.292C123.686 103.564 123.806 103.743 123.875 103.941C124.647 106.115 125.797 108.112 126.63 110.265C127.358 112.15 128.169 114.002 128.749 115.944C128.824 116.195 128.977 116.387 129.18 116.548C130.067 117.241 130.996 117.678 132.157 117.377C133.091 117.136 133.224 117.019 132.955 116.11C132.669 115.14 132.34 114.182 132.033 113.216C131.093 110.26 129.684 107.538 128.048 104.931C127.287 103.722 126.467 102.553 125.728 101.331C125.41 100.807 125.097 100.734 124.628 101.036C124.49 101.125 124.331 101.183 124.193 101.272C123.782 101.536 123.163 101.601 122.985 102.071C122.793 102.595 123.492 102.882 123.547 103.292ZM73.3205 85.9939C77.432 87.2997 81.3261 88.3591 85.3289 88.9363C85.8991 89.0179 86.4757 88.8888 87.0355 88.7327C88.1946 88.4139 89.2628 87.8916 90.3148 87.3054C90.9623 86.9437 91.3996 86.4757 91.6781 85.7661C92.0924 84.7094 92.6032 83.6946 93.039 82.6479C93.1923 82.2796 93.4387 81.9116 93.3022 81.3693C92.5844 81.8529 91.931 82.3358 91.241 82.7513C87.747 84.8569 84.0054 86.1402 79.9043 86.161C78.5416 86.1682 77.1978 85.9269 75.8483 85.7249C75.1018 85.6134 74.3139 85.353 73.3205 85.9939ZM196.181 70.2707C196.915 70.9692 197.505 71.4893 198.047 72.0594C198.734 72.7854 199.493 73.0852 200.468 72.7838C201.05 72.6035 201.658 72.4628 202.264 72.4093C204.341 72.2285 205.032 70.5684 205.788 68.9794C205.938 68.6635 205.833 68.3903 205.416 68.395C204.964 68.3995 204.507 68.361 204.064 68.4277C201.45 68.8246 198.907 69.5397 196.181 70.2707ZM108.967 65.7895C107.29 64.7864 105.686 63.829 104.084 62.8678C103.646 62.6046 103.293 62.5248 102.939 63.0588C101.83 64.7264 100.719 66.3901 99.7842 68.1709C99.892 68.2356 99.9595 68.2859 100.035 68.3227C101.091 68.8623 100.854 69.0353 101.517 67.9581C102.07 67.0579 102.675 66.2233 103.514 65.5856C104.696 64.6866 106.04 64.7521 107.11 65.7923C107.49 66.1605 107.818 66.5862 108.177 66.9949C108.499 66.6705 108.725 66.3256 108.967 65.7895ZM118.254 99.7109C116.393 100.038 114.749 100.263 113.189 100.898C113.039 100.959 112.897 101.05 112.76 101.142C112.47 101.339 112.449 101.608 112.594 101.912C112.976 102.715 113.714 103.182 114.461 103.174C115.172 103.165 116.136 102.915 116.467 102.245C116.899 101.363 117.464 100.632 118.254 99.7109ZM122.866 94.0236C121.7 95.3316 121.005 96.8616 120.478 98.6111C123.751 97.2498 123.78 97.1982 123.073 94.2777C123.057 94.2069 122.977 94.154 122.866 94.0236ZM109.018 64.7926C108.473 62.3602 106.657 61.7396 104.88 61.0797C104.451 60.9201 104.299 61.2904 104.155 61.5737C103.997 61.8825 104.264 62.0209 104.474 62.1438C105.931 62.9972 107.395 63.8476 109.018 64.7926ZM147.936 20.7768C147.913 21.857 148.004 22.6522 148.201 23.4216C148.454 24.4043 149.185 24.9669 149.959 24.8721C150.654 24.7848 150.866 24.4938 150.559 23.8644C149.987 22.6903 149.195 21.6883 147.936 20.7768ZM127.595 115.193C127.131 113.532 126.71 112.211 125.889 111.012C125.359 111.382 124.899 111.706 124.368 112.08C125.416 113.081 126.291 114.153 127.595 115.193ZM106.585 68.7917C107.18 68.5276 107.421 68.018 107.209 67.4779C106.936 66.7825 106.141 66.4396 105.47 66.7247C104.843 66.9914 104.633 67.544 104.92 68.167C105.231 68.8397 105.909 69.0941 106.585 68.7917Z" fill="#0C0C0A"/>
<path d="M198.1 178.739C197.719 177.629 197.646 176.614 197.331 175.642C196.463 172.952 194.903 170.746 193.07 168.712C190.956 166.367 188.326 164.792 185.589 163.348C181.994 161.45 178.72 159.061 176.261 155.707C175.131 154.165 174.169 152.508 173.469 150.643C171.93 146.538 171.656 142.327 171.73 138.027C171.769 135.735 171.906 133.459 172.269 131.202C172.43 130.202 172.641 129.21 172.892 128.231C174.07 123.617 175.319 119.014 175.919 114.267C176.318 111.106 176.211 107.952 175.502 104.801C174.849 101.891 173.884 99.1187 172.565 96.4654C171.5 94.3244 170.071 92.4653 168.279 90.9244C166.021 88.985 163.703 87.1265 161.046 85.7848C159.376 84.9417 157.663 84.259 155.819 83.8804C154.449 83.5991 153.089 83.2473 151.715 82.971C151.53 82.9327 151.298 82.908 151.228 82.6683C151.232 82.5024 151.348 82.4519 151.452 82.3961C154.551 80.7304 157.587 78.9222 160.768 77.441C164.006 75.9341 167.423 74.8633 170.9 74.0264C175.622 72.8882 180.422 72.2148 185.232 71.5868C188.008 71.2245 190.798 71.0615 193.583 70.8141C194.313 70.7501 194.985 70.8927 195.559 71.3816C196.226 71.9511 196.936 72.4856 197.529 73.1315C199.161 74.9103 200.979 76.5196 202.339 78.5455C202.946 79.4509 203.655 80.2842 204.148 81.2772C205.108 83.2141 206.113 85.1275 207.098 87.0488C207.985 88.7777 208.604 90.6226 209.35 92.4124C210.048 94.0879 210.699 95.7793 211.328 97.4797C212.192 99.8103 213.137 102.107 213.892 104.483C214.363 105.969 214.952 107.417 215.498 108.878C216.234 110.851 216.982 112.822 217.726 114.791C217.756 114.871 217.785 114.952 217.827 115.024C219.317 117.729 220.249 120.715 221.83 123.372C224.845 128.442 227.971 133.42 232.213 137.549C234.918 140.183 237.75 142.647 240.693 144.992C242.527 146.456 244.429 147.801 246.389 149.069C246.562 149.18 246.737 149.311 246.865 149.47C247.059 149.713 247.006 149.973 246.731 150.091C246.472 150.204 246.182 150.247 245.9 150.302C242.753 150.909 239.595 151.513 236.559 152.526C233.491 153.551 230.403 154.513 227.411 155.804C224.783 156.937 222.254 158.254 219.825 159.724C216.761 161.579 213.994 163.89 211.432 166.451C209.283 168.597 207.254 170.861 205.161 173.06C203.755 174.535 202.283 175.935 200.763 177.281C200.019 177.948 199.106 178.353 198.1 178.739Z" fill="#7DC677"/>
<path d="M94.3697 81.429C95.6887 78.0012 96.6724 74.4409 98.205 71.0981C98.3079 70.8723 98.376 70.6241 98.5868 70.4678C98.6504 70.7101 98.6793 70.9925 98.9655 71.0602C99.2469 71.1281 99.1953 71.2229 99.1364 71.4708C98.9811 72.1333 99.173 72.3261 99.757 72.1214C100.137 71.9871 100.508 71.793 100.847 71.5701C101.217 71.3259 101.186 71.0111 100.768 70.8723C100.495 70.7808 100.24 70.836 100.209 70.4007C100.176 69.9234 99.797 69.9462 99.4714 70.0606C99.1654 70.167 98.8792 70.3349 98.5849 70.4737C98.7217 69.8426 99.028 69.301 99.4061 68.7453C100.684 69.5478 101.994 70.2489 103.402 70.7531C104.685 71.2117 105.743 70.9642 106.643 69.9432C107.746 68.6927 108.802 67.4082 109.734 66.0144C110.04 65.5574 110.096 65.0949 109.976 64.5727C109.594 62.8982 108.664 61.6637 107.167 60.8924C106.579 60.5902 105.971 60.327 105.313 60.0193C105.49 59.2584 106.074 58.8275 106.495 58.2916C106.933 57.7351 107.417 57.2183 107.871 56.6742C108.203 56.2778 108.532 56.2527 108.93 56.5967C109.499 57.0895 110.091 57.553 110.675 58.0286C110.87 58.186 111.066 58.3451 111.267 58.4921C111.503 58.6661 111.774 58.886 112.022 58.5753C112.263 58.2703 112.044 58.0326 111.801 57.8333C111.088 57.2545 110.373 56.674 109.66 56.0924C109.44 55.9127 109.227 55.7242 109 55.5283C109.416 54.719 110.048 54.1686 110.613 53.5699C113.436 50.5734 116.203 47.5206 119.209 44.7122C121.274 42.783 123.486 41.0534 125.799 39.4433C127.367 38.3499 129.024 37.428 130.697 36.529C130.907 36.4164 131.141 36.2019 131.361 36.4395C131.632 36.7317 131.395 37.0146 131.206 37.2076C130.597 37.8316 129.975 38.4418 129.327 39.02C128.336 39.9048 127.374 40.8194 126.465 41.7922C125.848 42.4526 125.728 43.1706 126.132 43.9944C126.317 44.3734 126.506 44.7549 126.663 45.1468C127.128 46.3057 127.321 47.4928 127.122 48.7461C127.004 49.4947 126.894 50.2599 127.01 51.0198C127.066 51.3933 127.188 51.8063 127.625 51.8868C128.008 51.9577 128.229 51.6465 128.392 51.3554C128.819 50.5858 129.223 49.8044 129.62 49.0191C130.624 47.0363 131.533 44.9894 133.097 43.3794C133.814 42.6417 134.507 41.8519 135.56 41.4723C135.943 41.8556 135.839 42.3417 135.845 42.7758C135.872 44.2685 135.587 45.7214 135.299 47.1737C134.787 49.7406 134.279 52.3085 133.746 54.8699C133.598 55.5835 133.519 56.3042 133.636 57.0126C133.748 57.6787 133.616 58.2392 133.342 58.8333C131.607 62.6119 129.909 66.4035 127.711 69.9376C126.666 71.6198 126.243 73.5965 125.964 75.5776C125.88 76.163 125.816 76.7578 125.816 77.3466C125.813 79.8039 124.804 81.6045 122.746 82.8782C119.761 84.7262 117.355 87.2469 115.164 90.0106C113.694 91.866 112.728 94.0133 111.717 96.1293C110.803 98.0397 109.744 99.8069 108.233 101.29C105.663 103.812 103.905 106.889 102.695 110.308C101.74 113.008 100.674 115.677 99.9166 118.436C98.5392 123.46 95.8907 127.531 91.9514 130.765C90.7676 131.736 89.6626 132.812 88.6408 133.968C87.5517 135.201 86.6833 136.57 86.2082 138.178C85.1674 141.699 84.4471 145.301 83.741 148.907C83.6933 149.154 83.6978 149.445 83.5696 149.639C82.5872 151.148 81.9565 152.871 80.888 154.325C80.8138 154.425 80.7413 154.529 80.6632 154.626C79.9049 155.547 79.772 155.597 78.6814 155.018C77.5066 154.394 76.3016 153.829 75.2036 153.059C74.1535 152.325 72.8913 151.956 71.9444 151.041C71.4927 150.605 71.0021 150.213 70.5532 149.773C69.5993 148.845 69.0336 147.684 69.2054 146.355C69.815 141.582 70.0437 136.746 71.3358 132.078C72.5524 127.684 74.5786 123.707 76.9024 119.86C78.0946 117.885 79.4445 116.027 80.7899 114.164C82.7332 111.471 83.9231 108.449 84.6059 105.181C85.3891 101.431 86.8892 97.9612 88.5537 94.5571C88.8299 93.9933 89.2139 93.8714 89.757 93.9815C90.8894 94.2155 92.0364 94.3915 93.1514 94.6946C93.9473 94.9121 94.6819 94.8882 95.4475 94.6292C96.742 94.1947 98.0684 93.9041 99.4457 93.9755C100.053 94.0076 100.609 93.9022 100.974 93.3606C101.445 92.6561 102.143 92.4644 102.905 92.4355C104.058 92.3915 105.211 92.3936 106.364 92.3591C107.189 92.3347 108.011 92.2573 108.76 91.858C109.741 91.3344 109.804 90.599 108.896 89.9274C108.214 89.4253 107.429 89.1567 106.61 88.9851C105.45 88.7423 104.29 88.4843 103.039 88.2132C103.2 87.7928 103.478 87.7683 103.746 87.7309C104.886 87.5686 106.021 87.3807 107.138 87.0754C107.662 86.9312 108.158 86.723 108.594 86.4075C109.102 86.0412 109.096 85.5639 108.592 85.1662C107.942 84.6538 107.162 84.5075 106.379 84.4372C103.831 84.2124 101.278 84.1347 98.723 84.0914C98.4408 84.0862 98.1541 84.1896 97.7653 83.9849C98.7527 83.1428 99.6983 82.333 100.648 81.526C101.057 81.1767 101.539 80.8869 101.865 80.4696C102.418 79.7646 103.053 79.8086 103.747 80.0998C104.856 80.5649 105.955 81.0595 107.059 81.537C107.245 81.6179 107.435 81.7081 107.631 81.7446C107.806 81.778 107.946 81.6505 108.022 81.4962C108.108 81.3229 108.045 81.1455 107.898 81.0538C107.618 80.8766 107.326 80.7159 107.025 80.5822C105.855 80.0629 104.679 79.5544 103.51 79.0446C103.576 78.5978 103.919 78.3731 104.053 78.0272C104.246 77.5321 104.309 77.0391 103.956 76.5916C103.608 76.1489 103.144 76.0469 102.617 76.1633C101.431 76.4243 100.341 76.9343 99.3762 77.6582C97.7572 78.8749 96.1871 80.1637 94.6938 81.5436C94.5854 81.4958 94.4775 81.4627 94.3697 81.429ZM110.467 75.4054C110.748 76.1608 111.332 76.6362 111.993 77.0076C113.406 77.8021 114.793 78.6494 116.292 79.2782C117.102 79.62 117.922 79.9232 118.783 80.0098C121.236 80.2541 122.378 79.6007 123.227 77.7227C123.748 76.5708 124.155 75.3773 124.592 74.1932C124.709 73.8782 124.766 73.5543 124.718 73.2006C124.488 71.5838 123.884 70.2085 122.53 69.2259C120.919 68.0562 119.171 67.2126 117.265 66.7449C115.81 66.388 114.397 66.6003 113.405 67.7908C112.208 69.2228 111.043 70.7108 110.305 72.4738C109.891 73.455 109.889 74.4485 110.467 75.4054ZM118.081 64.1656C118.197 64.3322 118.429 64.4167 118.663 64.5006C120.262 65.0679 121.772 65.8496 123.287 66.6161C123.507 66.7265 123.736 66.8246 123.971 66.879C124.146 66.9197 124.291 66.7893 124.335 66.6167C124.361 66.5091 124.35 66.3421 124.285 66.2709C124.148 66.1208 123.978 65.9859 123.797 65.8957C122.283 65.1282 120.771 64.3533 119.172 63.7827C118.902 63.6874 118.618 63.5921 118.337 63.5841C118.014 63.5722 117.93 63.7975 118.081 64.1656ZM118.93 82.9156C119.216 82.6633 119.896 82.6542 119.708 82.1255C119.497 81.5323 119.029 82.0402 118.674 82.1132C118.634 82.1225 118.592 82.1307 118.558 82.1513C118.151 82.3789 117.214 82.213 117.532 82.9948C117.795 83.6391 118.454 83.0816 118.93 82.9156ZM116.959 81.3669C116.784 81.461 116.712 81.4971 116.641 81.5372C116.43 81.6605 116.18 81.7802 116.258 82.0869C116.339 82.4082 116.606 82.3738 116.852 82.3282C117.251 82.2533 117.647 82.1711 117.998 81.9493C118.178 81.8361 118.334 81.6971 118.27 81.4548C118.206 81.2127 118.004 81.1455 117.794 81.1811C117.477 81.2334 117.166 81.3212 116.959 81.3669ZM101.469 72.7002C101.749 72.4567 102.419 72.4051 102.175 71.8751C101.915 71.3104 101.469 71.8521 101.116 71.9449C100.686 72.058 100.085 72.2197 100.383 72.8066C100.635 73.2967 101.102 72.8325 101.469 72.7002ZM115.931 80.4713C115.823 80.5291 115.707 80.5746 115.612 80.6474C115.483 80.7454 115.356 80.8615 115.405 81.0562C115.466 81.3002 115.639 81.3756 115.863 81.3492C115.984 81.335 116.1 81.2989 116.218 81.2713C116.61 81.1817 117.048 81.1605 117.182 80.6637C117.207 80.5681 117.153 80.3808 117.077 80.3326C116.667 80.0695 116.301 80.3119 115.931 80.4713Z" fill="#458955"/>
<path d="M86.0855 156.291C86.1999 155.806 86.6117 155.547 86.8879 155.192C87.7947 154.026 88.2949 152.725 88.2089 151.211C88.1017 149.335 87.4296 148.325 85.4393 148.623C85.2423 148.652 85.0334 148.689 84.7839 148.53C84.7331 147.615 85.1717 146.77 85.3439 145.872C85.7247 143.885 86.2038 141.918 86.6492 139.944C87.2669 137.207 88.7408 135.038 90.7583 133.197C92.686 131.44 94.6498 129.721 96.3845 127.746C97.9217 125.995 98.987 123.963 99.7711 121.774C100.552 119.596 101.208 117.37 101.982 115.189C102.727 113.091 103.454 110.985 104.29 108.918C105.265 106.498 106.607 104.302 108.442 102.559C110.839 100.278 112.239 97.399 113.616 94.4834C115.191 91.1498 117.527 88.4796 120.189 86.077C121.449 84.94 122.843 83.9743 124.235 83.0109C125.525 82.1199 126.311 80.889 126.525 79.2894C126.61 78.662 126.756 78.0339 126.759 77.405C126.763 76.0307 127.084 74.7343 127.443 73.4264C127.907 71.7409 128.668 70.2371 129.552 68.7464C131.304 65.7937 132.689 62.6342 134.036 59.4658C134.301 58.8402 134.599 58.2507 135.006 57.7153C135.862 56.5907 136.71 55.4583 137.577 54.3136C138.004 55.046 138.355 56.8638 138.295 58.088C138.161 60.813 137.607 63.4239 136.612 65.9638C134.168 72.2003 131.269 78.1928 127.86 83.9182C126.062 86.9387 124.156 89.8901 122.269 92.8505C121.301 94.3692 120.32 95.8775 119.742 97.6104C119.539 98.214 119.176 98.4522 118.583 98.5538C117.247 98.7844 115.925 99.0892 114.598 99.3685C114.237 99.4443 113.879 99.5374 113.519 99.6247C112.607 99.8423 111.704 100.151 111.571 101.261C111.433 102.401 112.265 102.998 113.068 103.555C113.17 103.626 113.298 103.653 113.405 103.713C114.197 104.158 114.279 104.997 113.532 105.469C113.005 105.802 112.385 106.105 112.074 106.604C111.465 107.58 110.878 108.526 109.853 109.102C109.697 109.191 109.535 109.438 109.53 109.619C109.496 110.649 108.774 111.254 108.261 112.006C107.575 113.008 107.105 114.134 106.724 115.302C106.122 117.141 105.809 119.07 105.079 120.87C103.598 124.518 101.759 127.914 98.998 130.728C97.4014 132.356 95.6707 133.862 94.4211 135.825C93.8794 136.678 93.341 137.524 93.3103 138.593C93.3078 138.678 93.2626 138.772 93.2877 138.843C94.0005 140.871 93.0262 142.713 92.7103 144.617C92.2694 147.28 91.8604 149.955 91.0165 152.527C90.7101 153.458 90.3046 154.327 89.7171 155.096C88.9057 156.153 87.4467 156.62 86.0855 156.291Z" fill="#42673E"/>
<path d="M73.368 124.16C72.8237 125.429 72.2692 126.688 71.7426 127.96C71.501 128.541 71.0372 128.657 70.5277 128.589C69.0597 128.391 67.5645 128.402 66.1271 128C65.5534 127.839 65.2561 127.967 64.9323 128.506C64.4573 129.294 64.4225 130.105 64.5521 130.946C64.6999 131.905 64.9114 132.856 65.1376 133.799C65.4861 135.253 65.6282 136.722 65.5343 138.206C65.4213 139.985 64.5778 141.302 63.0349 142.126C61.6854 142.847 60.3425 143.577 58.9901 144.292C57.0718 145.306 55.3428 146.547 54.2008 148.488C53.9085 148.984 53.5774 149.046 52.9894 148.998C51.2272 148.852 50.0657 147.682 48.8578 146.617C47.1924 145.151 45.9193 143.31 44.5867 141.536C43.8821 140.599 43.2305 139.62 42.5007 138.707C40.9976 136.822 39.9324 134.671 38.8363 132.536C38.5809 132.039 38.6935 131.688 39.0739 131.309C40.1301 130.252 41.2368 129.217 42.4789 128.446C44.8812 126.952 46.5071 127.353 48.2107 129.234C49.9512 131.155 51.1873 133.426 52.1561 135.806C52.7153 137.181 53.372 138.491 54.0135 139.817C54.3978 140.611 55.1827 140.966 55.8362 140.462C57.1401 139.453 58.7053 138.857 59.8785 137.634C60.7772 136.701 61.2077 135.591 61.2464 134.348C61.2971 132.747 61.2291 131.137 61.141 129.534C61.0547 127.957 61.1299 126.422 61.6352 124.918C62.1029 123.532 63.0255 122.758 64.4265 122.663C66.2075 122.542 67.9668 122.769 69.6935 123.172C70.9241 123.461 72.1863 123.635 73.368 124.16Z" fill="#1E301D"/>
<path d="M134.515 56.3783C134.28 55.7901 134.44 55.226 134.569 54.6441C135.385 50.9992 136.186 47.3495 136.599 43.6223C136.68 42.9007 136.64 42.1888 136.487 41.4821C136.28 40.5161 135.73 40.2121 134.863 40.6535C133.17 41.5156 131.898 42.8955 130.876 44.4747C129.95 45.9046 129.212 47.4644 128.403 48.9728C128.282 49.1991 128.177 49.4212 127.947 49.5446L127.936 49.5408C127.725 48.9931 127.935 48.4546 127.971 47.9161C128.025 47.0525 127.924 46.2293 127.52 45.4553C127.285 45.0068 127.173 44.4991 126.975 44.0497C126.629 43.2615 126.788 42.7507 127.327 42.1466C128.465 40.872 129.798 39.8255 131.033 38.6678C131.457 38.2693 131.809 37.8286 132.128 37.3257C132.71 36.4052 132.343 35.4691 131.182 35.3609C129.564 35.2118 127.977 35.3003 126.405 35.6795C125.09 35.9978 123.777 36.32 122.464 36.6417C122.314 36.6792 122.158 36.7699 122.015 36.5776C121.945 36.3867 122.094 36.2873 122.23 36.2074C124.193 35.0577 126.196 34.0198 128.48 33.6721C131.853 33.159 135.113 32.158 138.381 31.2087C140.694 30.5352 142.112 28.7407 143.313 26.7021C144.135 25.3065 144.563 23.7734 145.019 22.2399C145.136 21.8428 145.166 21.3844 145.54 21.1238C145.807 20.9371 146.091 20.6816 146.433 20.7772C146.862 20.8958 146.722 21.3217 146.777 21.6364C146.983 22.8268 146.945 24.0923 147.913 25.038C148.203 25.3221 147.906 25.5509 147.668 25.7411C146.569 26.6243 145.607 27.6477 144.705 28.7442C142.391 31.5558 140.319 34.5527 138.968 37.9657C138.362 39.4978 138.308 41.2748 139.044 42.9073C139.408 43.7169 139.849 44.4902 140.257 45.279C140.463 45.6808 140.623 46.1523 140.157 46.4005C138.47 47.2954 138.109 49.0231 137.859 50.6454C137.613 52.247 136.887 53.4852 135.977 54.6827C135.525 55.2762 135.013 55.8205 134.527 56.3887L134.515 56.3783Z" fill="#1D301C"/>
<path d="M101.92 167.764C100.396 167.07 99.0112 166.452 97.4927 166.161C95.9951 165.873 94.5459 166.061 93.0812 166.245C90.7155 166.543 88.3521 166.853 85.9612 166.821C83.1249 166.782 80.2985 166.49 77.4676 166.345C76.3225 166.286 75.1805 166.232 74.0249 166.29C72.2597 166.378 71.3806 167.441 70.819 168.953C70.4764 169.873 70.449 170.844 70.5684 171.897C69.5747 171.82 69.0714 171.075 68.5614 170.404C67.7933 169.398 67.7248 168.195 67.931 167.01C68.0792 166.152 68.3849 165.464 69.3752 165.031C70.5864 164.502 71.6102 163.518 72.7439 162.77C74.1819 161.822 75.5685 160.782 76.9123 159.696C78.9031 158.088 80.9331 156.502 82.2828 154.231C82.8793 153.226 83.4413 152.199 83.9864 151.161C84.3508 150.466 84.8524 149.942 85.5451 149.619C86.4867 149.181 87.2503 149.599 87.4239 150.635C87.6258 151.849 87.4666 152.949 86.7238 153.981C85.1494 156.174 83.1891 157.932 81.0571 159.505C79.4352 160.702 77.8987 162.02 76.1502 163.035C75.8054 163.234 75.4068 163.568 75.6756 164.051C75.9235 164.498 76.3391 164.645 76.8407 164.362C77.8302 163.8 78.9658 163.773 80.0387 163.51C85.1871 162.249 90.3811 162.237 95.5758 163.22C97.0607 163.501 98.5586 163.952 99.8666 164.813C100.876 165.483 101.818 166.247 101.92 167.764Z" fill="#1D301C"/>
<path d="M123.132 104.494C124.037 106.038 124.597 107.552 125.221 109.033C125.563 109.845 125.51 110.164 124.837 110.665C124.473 110.936 124.038 111.106 123.667 111.368C123.191 111.703 123.145 112.164 123.582 112.508C125.168 113.75 126.402 115.388 127.985 116.631C128.348 116.916 128.7 117.212 129.068 117.488C130.061 118.234 131.149 118.46 132.354 118.206C133.315 118.003 133.327 118.05 133.429 118.99C133.53 119.919 133.612 120.85 133.784 121.768C133.907 122.431 133.703 122.806 133.138 123.085C132.431 123.433 131.738 123.757 130.934 123.853C130.181 123.945 129.709 123.714 129.275 123.063C128.153 121.379 126.992 119.72 125.693 118.173C124.423 116.66 123.236 115.071 121.81 113.7C120.84 112.768 120.837 112.738 119.751 113.557C118.915 114.189 118.051 114.725 117.03 114.998C116.565 115.123 116.141 115.124 115.708 114.928C113.78 114.055 112.196 112.688 110.736 111.167C110.156 110.563 110.157 110.133 110.544 109.728C111.24 109 111.955 108.901 112.554 109.519C113.38 110.371 114.297 111.091 115.329 111.653C115.509 111.751 115.693 111.855 115.888 111.916C116.056 111.971 116.223 111.898 116.314 111.743C116.403 111.589 116.405 111.393 116.262 111.279C116.005 111.068 115.736 110.865 115.45 110.703C114.422 110.121 113.535 109.358 112.746 108.476C112.248 107.917 112.288 107.542 112.837 107.085C113.027 106.928 113.254 106.816 113.468 106.689C114.473 106.082 114.472 106.085 115.268 107.026C115.972 107.86 116.683 108.69 117.395 109.52C117.503 109.645 117.621 109.771 117.76 109.851C118.053 110.022 118.359 109.806 118.334 109.461C118.309 109.145 118.115 108.926 117.916 108.7C117.247 107.946 116.598 107.172 115.918 106.426C115.541 106.015 115.262 105.548 115.034 105.043C114.682 104.267 114.748 104.017 115.344 103.668C116.125 103.21 116.59 103.271 116.995 103.986C117.522 104.92 118.327 105.613 118.926 106.481C119.101 106.736 119.379 106.937 119.659 106.692C119.922 106.465 119.829 106.138 119.63 105.891C119.049 105.172 118.442 104.474 117.866 103.75C117.171 102.873 117.162 102.355 117.832 101.48C118.237 100.949 118.671 100.453 119.238 100.074C119.803 99.6984 120.245 99.7773 120.621 100.303C121.113 100.985 121.609 101.671 122.04 102.393C122.474 103.121 122.825 103.896 123.132 104.494Z" fill="#448754"/>
<path d="M107.669 85.6398C106.61 86.3178 105.528 86.4099 104.491 86.6007C103.036 86.8663 101.562 87.0558 100.075 87.0601C99.7474 87.0604 99.4113 87.0627 99.094 87.1344C98.6155 87.2442 98.4603 87.6399 98.4645 88.0963C98.4688 88.5719 98.7929 88.7634 99.1965 88.7966C99.8942 88.8549 100.595 88.8612 101.294 88.9215C103.228 89.0858 105.144 89.3776 107.006 89.9844C107.282 90.0738 107.555 90.1704 107.824 90.2781C108.016 90.3558 108.236 90.4443 108.241 90.6911C108.248 90.9491 108.015 91.0164 107.828 91.0829C107.2 91.3045 106.541 91.3453 105.88 91.3583C104.769 91.3826 103.655 91.3837 102.546 91.4355C101.701 91.4751 100.908 91.686 100.427 92.5015C100.18 92.9221 99.7954 93.0029 99.3616 92.9785C97.9394 92.9 96.5834 93.2138 95.2489 93.6741C94.6169 93.893 93.9961 93.8581 93.322 93.7006C89.8218 92.884 86.3049 92.1483 82.7196 91.8553C79.9435 91.6283 77.2872 90.8423 74.6741 89.8817C74.0517 89.6533 73.4796 89.3185 72.9731 88.8575C72.5852 88.5059 72.4821 88.0878 72.5235 87.602C72.5852 86.8703 72.8443 86.645 73.5829 86.756C74.0285 86.8218 74.4697 86.9604 74.9007 87.1016C80.8461 89.0549 86.948 89.9618 93.1564 90.1529C93.7334 90.1706 94.3082 90.112 94.8692 89.9629C95.6873 89.7431 95.7361 89.6255 95.7185 88.7441C95.6884 87.2856 95.2153 85.9154 94.9056 84.5153C94.6478 83.3518 94.8916 82.3948 95.7661 81.6742C97.6162 80.1521 99.3084 78.3997 101.536 77.4193C102.072 77.1832 102.772 76.5845 103.175 77.1895C103.514 77.6949 102.746 78.1836 102.365 78.5873C100.737 80.3167 98.8728 81.7652 97.0652 83.2834C96.8116 83.4964 96.5496 83.7113 96.3495 83.9745C95.9759 84.4654 96.2084 85.0086 96.7983 85.079C96.9168 85.0925 97.0423 85.0466 97.164 85.0345C100.045 84.7227 102.923 85.0656 105.799 85.2029C106.366 85.2329 106.951 85.2561 107.669 85.6398Z" fill="#448654"/>
<path d="M153.718 84.143C153.404 84.5853 153.04 84.6811 152.727 84.8481C142.99 90.0472 133.247 95.2395 123.507 100.433C123.434 100.472 123.361 100.51 123.288 100.549C122.379 101.022 121.689 100.752 121.303 99.7744C121.212 99.5435 121.281 99.3517 121.477 99.237C122.048 98.9064 122.467 98.3796 123.072 98.0808C124.364 97.4448 125.623 96.7374 126.89 96.0498C131.191 93.7162 135.441 91.2804 139.687 88.8495C142.686 87.1329 145.759 85.5589 148.737 83.8087C149.458 83.3861 150.119 83.2539 150.942 83.5414C151.791 83.8391 152.7 83.9328 153.718 84.143Z" fill="#352515"/>
<path d="M123.509 103.212C123.455 102.8 122.754 102.512 122.95 101.987C123.127 101.513 123.747 101.448 124.161 101.185C124.3 101.097 124.459 101.038 124.598 100.949C125.068 100.646 125.381 100.72 125.7 101.246C126.441 102.473 127.264 103.646 128.025 104.859C129.665 107.476 131.078 110.208 132.018 113.176C132.324 114.144 132.656 115.105 132.941 116.081C133.207 116.993 133.077 117.111 132.14 117.352C130.976 117.653 130.044 117.215 129.155 116.518C128.949 116.358 128.798 116.164 128.723 115.913C128.142 113.963 127.33 112.104 126.601 110.212C125.767 108.051 124.614 106.046 123.841 103.864C123.767 103.665 123.649 103.485 123.509 103.212Z" fill="#448654"/>
<path d="M73.2684 85.6066C74.2628 84.966 75.048 85.227 75.7968 85.3394C77.1422 85.5406 78.4873 85.7824 79.8491 85.7754C83.9466 85.7555 87.6849 84.4762 91.1766 82.376C91.8661 81.9617 92.5188 81.4802 93.2364 80.9977C93.3723 81.5389 93.126 81.906 92.9728 82.2735C92.5372 83.3177 92.025 84.3309 91.6124 85.3841C91.3362 86.0909 90.8992 86.5576 90.2499 86.9196C89.2 87.506 88.1314 88.0251 86.9736 88.3427C86.4128 88.4965 85.8381 88.627 85.2681 88.5456C81.2663 87.9678 77.3739 86.911 73.2684 85.6066Z" fill="#438553"/>
<path d="M108.836 65.4848C108.595 66.0222 108.37 66.3639 108.045 66.6868C107.687 66.2786 107.358 65.8547 106.979 65.4855C105.91 64.4465 104.567 64.3813 103.385 65.2792C102.546 65.916 101.942 66.7513 101.388 67.6489C100.726 68.7244 100.964 68.5535 99.9065 68.0127C99.8338 67.9751 99.7642 67.926 99.6566 67.8609C100.591 66.0825 101.701 64.4205 102.81 62.7549C103.164 62.2215 103.517 62.3014 103.955 62.5642C105.557 63.5263 107.16 64.4831 108.836 65.4848Z" fill="#EFF1F1"/>
<path d="M93.8464 83.5976C94.1109 84.8346 94.3817 86.0702 94.6398 87.3081C94.716 87.6789 94.7719 88.0556 94.8174 88.4304C94.8892 89.0057 94.6634 89.2737 94.0693 89.2918C93.0865 89.3234 92.1156 89.269 90.9321 89.1414C91.821 87.175 92.6554 85.3289 93.4888 83.4864C93.6062 83.5244 93.7274 83.5604 93.8464 83.5976Z" fill="#438553"/>
<path d="M118.21 99.5631C117.422 100.482 116.857 101.212 116.425 102.091C116.094 102.76 115.133 103.009 114.421 103.018C113.674 103.026 112.937 102.56 112.555 101.759C112.411 101.454 112.431 101.187 112.722 100.991C112.858 100.898 112.998 100.809 113.15 100.747C114.708 100.112 116.352 99.8887 118.21 99.5631Z" fill="#438553"/>
<path d="M122.807 93.9011C122.919 94.0333 122.999 94.0861 123.016 94.1542C123.724 97.0738 123.694 97.1234 120.422 98.4838C120.948 96.7357 121.644 95.2071 122.807 93.9011Z" fill="#438553"/>
<path d="M108.883 64.5017C107.258 63.5551 105.795 62.7019 104.333 61.8459C104.123 61.7223 103.856 61.5836 104.014 61.2746C104.159 60.9923 104.311 60.6213 104.739 60.7793C106.519 61.4411 108.337 62.0646 108.883 64.5017Z" fill="#42673E"/>
<path d="M147.658 20.6511C148.918 21.5663 149.712 22.5701 150.285 23.7479C150.592 24.3787 150.38 24.6705 149.683 24.7578C148.91 24.8547 148.177 24.2884 147.924 23.303C147.728 22.5304 147.637 21.733 147.658 20.6511Z" fill="#438553"/>
<path d="M106.46 68.5049C105.785 68.8049 105.107 68.5501 104.795 67.88C104.508 67.2571 104.719 66.706 105.345 66.4375C106.016 66.1522 106.81 66.4961 107.085 67.1907C107.296 67.7339 107.055 68.2407 106.46 68.5049Z" fill="#EFF1F1"/>
<path d="M98.5154 70.374C98.8108 70.2324 99.0961 70.067 99.4022 69.9605C99.7278 69.846 100.107 69.8232 100.14 70.3009C100.17 70.7349 100.426 70.6813 100.699 70.7728C101.117 70.9117 101.147 71.2277 100.778 71.4712C100.44 71.6962 100.069 71.8905 99.6879 72.0229C99.1037 72.2279 98.9117 72.0349 99.0671 71.3718C99.126 71.1237 99.1776 71.0288 98.8962 70.9609C98.6098 70.8931 98.58 70.6086 98.5172 70.3681L98.5154 70.374Z" fill="#C75B2C"/>
<path d="M93.8347 83.5975C93.7157 83.5603 93.5935 83.5224 93.4745 83.4852C93.4838 83.0228 93.7196 82.6703 93.9968 82.3388L93.9874 82.334C94.2042 82.793 93.9564 83.1858 93.8347 83.5975Z" fill="black"/>
<path d="M94.3328 81.3276C94.4405 81.3612 94.5484 81.3944 94.6546 81.429C94.5343 81.8106 94.3413 82.1377 93.9847 82.336L93.9941 82.3408C93.9665 81.9515 94.0975 81.6218 94.3328 81.3276Z" fill="black"/>
<path d="M88.8693 88.5853C88.8426 88.751 88.8602 88.9076 88.9813 89.0348C88.7521 89.1194 88.4352 89.1596 88.3824 88.9162C88.3157 88.6226 88.6471 88.6155 88.8693 88.5853Z" fill="#458955"/>
<path d="M101.879 87.9683C101.576 88.1855 101.268 88.2957 100.831 88.0019C101.229 87.7213 101.554 87.8209 101.88 87.958C101.88 87.961 101.879 87.9683 101.879 87.9683Z" fill="black"/>
<path d="M102.546 88.1666C102.294 88.2107 102.059 88.1971 101.879 87.9737L101.881 87.9653C102.049 87.8654 102.222 87.7993 102.415 87.9025C102.458 87.9905 102.502 88.0799 102.546 88.1666Z" fill="black"/>
<path d="M102.545 88.1699C102.502 88.082 102.458 87.995 102.414 87.9046C102.513 87.9071 102.638 87.8763 102.668 88.0126C102.675 88.0542 102.589 88.1177 102.545 88.1699Z" fill="black"/>
<path d="M127.984 49.496C127.968 49.5427 127.953 49.5899 127.937 49.6366C127.95 49.5888 127.962 49.5392 127.973 49.4925L127.984 49.496Z" fill="#1D301C"/>
<path d="M134.575 56.3921C134.559 56.4388 134.544 56.4858 134.525 56.5316C134.538 56.484 134.551 56.4362 134.564 56.3886C134.565 56.3902 134.575 56.3921 134.575 56.3921Z" fill="#1D301C"/>
<path d="M110.394 75.4257C109.817 74.4697 109.818 73.4731 110.229 72.4901C110.97 70.7258 112.136 69.2362 113.33 67.8015C114.324 66.6117 115.735 66.3981 117.192 66.7548C119.099 67.223 120.848 68.0671 122.46 69.238C123.814 70.2217 124.42 71.6002 124.648 73.217C124.699 73.5701 124.64 73.8953 124.523 74.2107C124.085 75.3961 123.679 76.5908 123.157 77.7441C122.306 79.6252 121.164 80.2792 118.711 80.0337C117.851 79.9465 117.03 79.6437 116.219 79.3019C114.719 78.6705 113.332 77.824 111.918 77.0287C111.259 76.6578 110.674 76.18 110.394 75.4257ZM121.493 78.1222C121.34 78.2641 121.214 78.5269 121.378 78.6147C121.674 78.7735 121.862 78.5547 121.908 78.2318C122.696 76.9812 123.145 75.5733 123.671 74.1988C123.929 73.5262 123.722 73.2497 123.133 72.9407C120.182 71.3887 116.985 70.4407 114.039 68.8917C113.796 68.7644 113.61 68.7242 113.422 69.0155C112.72 70.102 111.932 71.1337 111.288 72.2583C110.35 73.8974 110.742 75.2726 112.317 76.2444C112.562 76.3964 112.829 76.5133 113.084 76.6461C113.554 75.8741 114.003 75.1253 114.461 74.3839C115.834 72.1582 118.153 71.5539 120.663 73.2506C121.326 73.6984 121.682 74.3203 121.804 75.1257C121.962 76.1644 121.816 77.1501 121.493 78.1222ZM123.188 71.8279C123.092 71.1553 122.813 70.6577 122.347 70.2754C120.707 68.927 118.849 68.0503 116.814 67.6115C116.049 67.4469 115.2 67.3519 114.461 68.1935C117.341 69.6315 120.32 70.5355 123.188 71.8279ZM120.697 74.815C120.31 74.0967 119.23 73.7667 118.556 74.1597C118.006 74.4811 117.855 75.193 118.205 75.8034C118.596 76.4839 119.571 76.731 120.263 76.3233C120.81 76.001 120.995 75.3628 120.697 74.815Z" fill="#090908"/>
<path d="M117.985 64.1805C117.833 63.8117 117.917 63.586 118.241 63.5951C118.52 63.604 118.807 63.6984 119.077 63.7944C120.677 64.3655 122.189 65.1426 123.706 65.9104C123.885 66.0018 124.057 66.1362 124.194 66.2862C124.26 66.3594 124.271 66.5267 124.244 66.6326C124.199 66.8057 124.055 66.9365 123.88 66.8954C123.644 66.8391 123.412 66.742 123.195 66.632C121.677 65.8653 120.168 65.0813 118.567 64.513C118.335 64.4309 118.102 64.3463 117.985 64.1805Z" fill="#0C0C0A"/>
<path d="M118.883 82.9662C118.407 83.1302 117.749 83.6863 117.487 83.0466C117.168 82.2675 118.107 82.4322 118.513 82.2051C118.548 82.1865 118.591 82.1753 118.629 82.167C118.984 82.0943 119.452 81.5874 119.663 82.1796C119.85 82.7058 119.17 82.7144 118.883 82.9662Z" fill="#C75B2C"/>
<path d="M116.912 81.4083C117.118 81.3607 117.43 81.2751 117.745 81.2237C117.956 81.1903 118.157 81.2553 118.221 81.4973C118.285 81.739 118.128 81.878 117.949 81.9909C117.597 82.2124 117.2 82.2955 116.803 82.3691C116.557 82.4145 116.292 82.4479 116.21 82.1279C116.131 81.8218 116.381 81.7023 116.593 81.5793C116.665 81.5382 116.737 81.5022 116.912 81.4083Z" fill="#C75B2C"/>
<path d="M101.403 72.6131C101.033 72.7442 100.569 73.2084 100.319 72.7211C100.02 72.1347 100.621 71.9737 101.051 71.861C101.404 71.7684 101.848 71.2257 102.109 71.7915C102.353 72.3206 101.683 72.3701 101.403 72.6131Z" fill="#C75B2C"/>
<path d="M115.882 80.5038C116.251 80.3445 116.617 80.1054 117.027 80.3654C117.104 80.4135 117.157 80.5986 117.132 80.6961C116.999 81.1923 116.561 81.2153 116.169 81.3029C116.051 81.3305 115.933 81.3645 115.813 81.3806C115.591 81.4086 115.416 81.3316 115.356 81.0879C115.307 80.8934 115.434 80.7775 115.563 80.6796C115.66 80.6059 115.776 80.5604 115.882 80.5038Z" fill="#C75B2C"/>
<path d="M121.494 78.1212C121.817 77.1491 121.962 76.1619 121.806 75.1268C121.684 74.3214 121.326 73.6976 120.664 73.2515C118.153 71.5562 115.834 72.1575 114.463 74.385C114.006 75.1283 113.556 75.8752 113.085 76.6471C112.829 76.5148 112.564 76.3974 112.318 76.2454C110.744 75.2737 110.352 73.8985 111.29 72.2595C111.933 71.1379 112.723 70.1053 113.424 69.0169C113.612 68.7256 113.798 68.7654 114.04 68.8931C116.989 70.4412 120.184 71.39 123.134 72.9416C123.724 73.2508 123.93 73.5254 123.673 74.1998C123.146 75.5743 122.7 76.9812 121.912 78.2317C121.749 78.2826 121.613 78.2401 121.494 78.1212Z" fill="#F4F6F6"/>
<path d="M123.178 71.8313C120.31 70.5402 117.33 69.6357 114.447 68.1934C115.185 67.352 116.037 67.4462 116.801 67.6113C118.836 68.0499 120.697 68.9289 122.335 70.2761C122.802 70.6586 123.082 71.1584 123.178 71.8313Z" fill="#42673E"/>
<path d="M120.7 74.8307C120.995 75.3794 120.812 76.0166 120.265 76.3389C119.573 76.7465 118.599 76.4994 118.207 75.819C117.857 75.2086 118.009 74.4967 118.558 74.1753C119.232 73.7823 120.312 74.1123 120.7 74.8307Z" fill="#EFF1F1"/>
<path d="M121.502 78.1575C121.62 78.2743 121.757 78.3188 121.917 78.2669C121.871 78.5897 121.683 78.8082 121.387 78.6495C121.226 78.5627 121.352 78.3004 121.502 78.1575Z" fill="#458955"/>
</g>
</g>
<defs>
<filter id="filter0_d" x="0" y="0" width="156" height="157" filterUnits="userSpaceOnUse" color-interpolation-filters="sRGB">
<feFlood flood-opacity="0" result="BackgroundImageFix"/>
<feColorMatrix in="SourceAlpha" type="matrix" values="0 0 0 0 0 0 0 0 0 0 0 0 0 0 0 0 0 0 127 0"/>
<feOffset dy="4"/>
<feGaussianBlur stdDeviation="2"/>
<feColorMatrix type="matrix" values="0 0 0 0 0 0 0 0 0 0 0 0 0 0 0 0 0 0 0.25 0"/>
<feBlend mode="normal" in2="BackgroundImageFix" result="effect1_dropShadow"/>
<feBlend mode="normal" in="SourceGraphic" in2="effect1_dropShadow" result="shape"/>
</filter>
<filter id="filter1_d" x="44.0205" y="30.3681" width="62.3239" height="37.086" filterUnits="userSpaceOnUse" color-interpolation-filters="sRGB">
<feFlood flood-opacity="0" result="BackgroundImageFix"/>
<feColorMatrix in="SourceAlpha" type="matrix" values="0 0 0 0 0 0 0 0 0 0 0 0 0 0 0 0 0 0 127 0"/>
<feOffset dy="3"/>
<feGaussianBlur stdDeviation="0.5"/>
<feColorMatrix type="matrix" values="0 0 0 0 0 0 0 0 0 0 0 0 0 0 0 0 0 0 0.5 0"/>
<feBlend mode="normal" in2="BackgroundImageFix" result="effect1_dropShadow"/>
<feBlend mode="normal" in="SourceGraphic" in2="effect1_dropShadow" result="shape"/>
</filter>
<clipPath id="clip0">
<rect x="4" width="148" height="149" rx="74" fill="white"/>
</clipPath>
</defs>
</svg>
