<svg width="166" height="166" viewBox="0 0 166 166" fill="none" xmlns="http://www.w3.org/2000/svg">
<g filter="url(#filter0_d)">
<g clip-path="url(#clip0)">
<rect x="9" y="5" width="148" height="148" rx="74" fill="#334171"/>
<g opacity="0.9">
<path d="M151.273 62.2452C152.169 61.6846 153.042 61.0784 153.962 60.5731C154.844 60.0904 155.438 60.5225 155.358 61.603C155.308 62.2877 155.139 62.9797 154.915 63.6217C154.329 65.3159 153.792 67.0357 152.905 68.5903C152.502 69.3013 152.702 69.746 153.493 69.9415C154.759 70.2538 155.999 70.6515 157.203 71.1905C157.856 71.4809 158.564 71.7459 158.539 72.709C158.511 73.7473 158.418 74.9105 157.432 75.3056C156.561 75.6524 156.886 76.291 156.796 76.848C156.69 77.5241 157.222 77.6107 157.618 77.797C158.258 78.0972 158.901 78.3999 159.555 78.6636C160.196 78.9202 160.383 79.3748 160.225 80.0569C160.049 80.8167 159.649 81.2076 158.951 81.0539C158.126 80.8736 157.324 80.5523 156.512 80.2893C155.304 79.8983 155.306 79.8958 154.592 81.059C154.909 81.4311 155.367 81.4512 155.767 81.6131C157.171 82.1822 157.581 82.6543 157.488 84.2322C157.435 85.1156 157.756 85.3449 158.397 85.5409C158.955 85.7118 159.654 85.7637 159.831 86.5263C160.033 87.4025 159.676 88.2266 159.406 89.0102C159.246 89.4789 158.752 89.44 158.412 89.0683C158.068 88.6918 157.766 88.2686 157.312 87.703C157.17 88.4573 157.09 89.0578 156.941 89.6375C156.719 90.5004 156.292 90.6856 155.651 90.0943C154.898 89.3989 154.242 88.5824 153.436 87.701C153.101 88.19 152.795 88.6398 152.498 89.0697C152.584 89.4416 152.848 89.6229 153.044 89.8643C153.81 90.8093 153.925 91.3283 153.513 91.9958C152.984 92.8527 151.889 93.2059 151.007 92.7577C150.651 92.5756 150.309 92.3202 150.017 92.0327C149.616 91.6332 149.289 91.5645 148.883 92.0061C148.466 92.458 148.001 92.8573 147.55 93.2711C147.319 93.4842 147.099 93.6898 147.203 94.0758C147.492 95.1343 146.914 95.8055 146.307 96.455C145.886 96.9044 145.486 97.3848 145.021 97.7747C144.059 98.5817 143.48 98.4303 142.851 97.2934C142.471 96.6071 142.295 95.796 141.693 95.0586C140.621 96.7041 139.439 96.2229 138.047 95.4718C135.933 94.3321 136.329 94.293 137.081 92.513C137.715 91.0094 138.347 89.5035 139.013 88.0185C139.156 87.6985 139.192 87.4308 139.081 87.1105C138.647 85.8558 138.372 84.5397 137.807 83.3529C137.477 83.2696 137.341 83.5051 137.192 83.7141C132.083 90.9809 127.205 98.4062 123.667 106.768C123.226 107.809 123.111 108.708 123.469 109.821C124.505 113.043 124.498 116.39 124.364 119.723C124.208 123.536 123.834 127.318 122.91 131.002C121.711 135.781 119.264 139.732 116.015 143.122C114.56 144.639 113.026 146.068 111.506 147.509C111.035 147.954 110.768 148.36 110.851 149.137C111.017 150.695 110.621 152.225 110.463 153.768C110.415 154.244 110.231 154.784 110.659 155.122C111.131 155.496 111.627 155.178 112.062 154.949C112.921 154.496 113.577 153.768 114.183 152.987C115.927 150.74 117.558 148.395 119.147 146.014C119.638 145.282 120.185 144.595 120.718 143.896C121.107 143.384 121.523 143.412 122.009 143.815C123.171 144.774 124.225 145.837 125.163 147.053C128.345 151.176 130.479 155.938 132.514 160.76C134.138 164.612 135.23 168.635 135.963 172.779C136.094 173.521 136.037 174.145 135.739 174.786C135.426 175.457 135.076 176.097 134.627 176.668C131.833 180.234 126.496 181.596 122.525 179.61C119.944 178.319 118.291 176.187 118.223 172.961C118.184 171.187 118.157 169.412 118.175 167.642C118.208 164.778 117.307 162.172 116.313 159.604C115.755 159.508 115.573 159.975 115.301 160.237C113.219 162.237 110.88 163.808 108.331 165.014C107.334 165.487 106.286 165.825 105.168 165.808C104.109 165.792 103.808 165.449 104.006 164.303C104.314 162.505 104.423 160.685 104.417 158.864C104.408 155.557 103.433 152.642 101.141 150.284C100.717 149.846 100.362 149.756 99.8239 149.841C96.9134 150.311 93.9937 150.498 91.0982 149.609C90.4619 149.413 90.3204 149.772 90.1725 150.265C89.2229 153.433 88.582 156.651 88.6214 160.03C88.6521 162.629 88.9101 165.187 89.6438 167.667C89.8746 168.446 89.6547 168.86 89.1873 169.337C88.2268 170.319 87.1316 170.733 85.7938 170.494C82.5289 169.916 79.7257 168.453 77.5573 165.646C76.3339 164.065 75.1803 162.431 74.0973 160.738C73.7408 160.18 73.3468 159.647 72.7874 158.836C72.5243 160.737 72.6684 162.31 72.8139 163.864C73.0162 166.004 73.2658 168.14 73.5889 170.265C73.8434 171.94 73.7456 173.598 73.5778 175.245C73.2682 178.294 71.8244 179.949 69.0441 180.571C67.8211 180.845 66.5721 180.796 65.3277 180.738C64.586 180.704 64.0284 180.313 63.5357 179.704C62.4335 178.336 61.9645 176.694 61.7108 174.982C60.7177 168.278 59.9911 161.549 59.8662 154.765C59.8462 153.633 59.9431 152.518 60.1686 151.413C60.8429 148.124 63.6317 146.85 66.1046 147.086C68.0537 147.27 69.6357 148.21 70.7418 149.982C71.0915 150.543 71.494 150.93 72.0556 151.234C73.1878 151.845 74.1213 152.773 74.9477 153.794C76.6005 155.83 78.2098 157.906 79.8473 159.957C80.3376 160.573 80.8351 161.189 81.5246 161.565C81.7025 161.664 81.8928 161.718 82.1858 161.48C82.0169 160.465 81.6803 159.397 81.6115 158.278C81.4459 155.607 81.908 153.048 82.4777 150.491C82.7784 149.139 83.0381 147.778 83.3112 146.42C83.486 145.558 83.417 144.801 82.9115 143.989C82.0319 142.573 81.6999 140.935 81.6146 139.238C81.4892 136.757 81.7909 134.305 81.8765 131.837C82.0571 126.703 80.9791 121.913 78.5127 117.488C77.5328 115.729 76.5518 113.94 75.3464 112.363C74.2793 110.966 72.9582 109.767 71.6493 108.609C67.3037 104.768 62.8285 101.098 58.5858 97.1166C56.0864 94.7722 53.5696 92.4476 51.0465 90.1352C50.6378 89.76 50.2816 89.2845 49.6533 89.0737C48.565 90.911 47.8445 92.9521 47.019 94.9321C46.7372 95.6093 47.0584 96.3256 47.2894 96.966C47.5946 97.816 48.0085 98.625 48.4106 99.4319C48.7676 100.147 48.6292 100.659 47.9855 101.028C47.7676 101.154 47.5564 101.294 47.3383 101.414C46.1433 102.075 45.9952 102.006 45.4376 100.554C45.4084 100.48 45.2951 100.44 45.1343 100.32C44.5764 101.342 44.488 102.515 44.2153 103.612C43.867 105.017 43.8899 105.024 42.5218 104.976C40.458 104.902 40.2411 104.639 40.604 102.496C40.7817 101.45 41.0271 100.42 41.2645 99.2706C40.6153 99.2421 40.039 99.2509 39.4672 99.1845C37.9293 99.0059 37.2755 98.1289 37.3845 96.4634C37.4313 95.7472 37.6619 95.0904 38.0207 94.5185C38.3623 93.9711 38.1888 93.7345 37.7489 93.3745C36.551 92.3941 35.4309 92.159 34.1302 93.1663C32.9716 94.0618 31.6956 94.7825 30.4595 95.5607C29.4892 96.1737 29.1298 96.011 28.9293 94.8486C28.64 93.1546 28.3732 91.4553 28.1242 89.7532C27.9158 88.3363 28.0652 88.1783 29.4027 88.1861C29.6788 88.188 29.9782 88.3591 30.2348 88.102C30.244 87.7599 29.9502 87.6905 29.7727 87.5388C29.21 87.0551 29.2805 86.5882 29.6641 86.0182C31.0483 83.9715 31.3184 83.9929 32.3971 86.2437C32.6707 86.8155 32.8985 87.4245 33.3729 87.9437C33.9084 87.5648 34.4123 87.1185 34.5339 86.4178C34.6417 85.795 34.6764 85.1154 34.5715 84.4943C34.4255 83.6315 33.5611 84.0412 33.0879 83.694C32.8493 83.5192 32.5208 83.4942 32.2496 83.3612C31.4131 82.9484 31.3014 82.6742 31.4733 81.7301C31.6187 80.9319 32.0509 80.2761 32.3775 79.5277C31.5741 79.0245 30.8004 78.5426 29.997 78.0394C29.5492 78.7076 29.5862 79.4391 29.3976 80.0854C28.9744 81.5291 28.5305 81.6783 27.3699 80.7311C27.2111 80.6008 27.0542 80.4632 26.9082 80.3158C25.4038 78.7909 25.5158 78.1438 27.1555 77.4256C27.6645 77.2023 28.3057 77.0564 27.9491 76.0644C27.7598 75.542 28.1787 74.947 28.4858 74.4537C29.3764 73.0227 30.6032 72.0992 32.1388 71.6353C32.7277 71.4565 33.3039 71.4379 33.8808 71.7395C34.8893 72.2653 34.8934 72.258 35.9125 71.4185C35.5786 70.7292 35.2048 70.0381 34.9057 69.3142C34.5798 68.5204 34.9034 68.0389 35.6967 68.1543C36.5378 68.2785 37.3194 68.6609 38.1849 69.0781C38.4471 68.5759 38.3034 67.7082 39.1043 67.7071C39.7009 67.7076 40.2636 68.0458 40.9822 67.9324C41.0526 67.0411 40.5559 66.2288 40.5169 65.3495C40.4922 64.7777 40.2188 64.0799 40.9012 63.8047C41.5257 63.5525 42.1968 63.634 42.683 64.2452C43.0402 64.6916 43.3474 65.1876 43.6953 65.6875C44.2256 65.4953 44.231 64.4647 45.0027 64.68C45.5281 64.8274 45.9025 65.3826 46.6022 65.3835C46.8199 64.6033 46.7302 63.7565 46.7893 62.9309C46.8654 61.8601 47.2981 61.5607 48.1588 62.104C49.6261 63.0307 51.0343 64.0726 52.4804 65.0433C53.0077 65.3967 53.4897 65.945 54.2316 65.5741C54.4083 65.4858 54.7202 65.6349 54.9481 65.7371C55.4874 65.9763 56.2431 66.0343 56.3278 66.7988C56.3998 67.4472 55.7746 67.7504 55.3597 68.1125C54.7504 68.6433 54.0573 69.069 53.5148 69.7876C54.1832 70.3516 54.8078 70.8753 55.5476 71.4985C55.9704 70.6077 56.3434 69.776 56.7573 68.9679C57.0151 68.4633 57.2816 67.801 57.9492 67.9917C58.6648 68.1983 59.3636 68.5872 59.7656 69.3165C60.0061 69.7507 59.7334 70.144 59.4406 70.4527C58.7607 71.1667 57.9417 71.658 57.0824 72.0772C56.4238 72.398 56.4286 72.4052 55.9872 73.2721C57.0278 73.8992 58.0752 74.5286 59.0182 75.3273C59.8067 75.9956 59.8235 76.2475 59.1373 76.9714C58.7142 77.4184 58.2513 77.8202 57.8164 78.2555C57.2619 78.8119 56.5187 79.224 56.8457 80.3403C56.9741 80.7766 56.5322 81.2096 56.3189 81.6259C55.6742 82.8848 55.039 84.1507 54.365 85.3908C54.0323 86.0034 54.1274 86.3895 54.6345 86.8864C57.3874 89.5871 60.31 92.0469 63.3486 94.3541C63.9143 94.7843 64.4862 95.2048 65.2491 95.7767C65.1446 94.6803 65.0769 93.8161 64.9801 92.9548C64.3643 87.3876 66.1379 82.8188 69.8972 79.1739C73.0818 76.0858 76.6033 73.5754 80.8815 72.51C82.0724 72.2127 83.2468 72.185 84.4133 72.6035C90.8648 74.9169 97.1895 77.5624 103.064 81.3588C104.443 82.2484 105.753 83.2534 106.969 84.3838C112.055 89.1169 116.554 94.395 119.853 100.763C119.999 101.042 120.161 101.313 120.312 101.581C120.688 101.465 120.729 101.127 120.851 100.862C124.522 92.7578 129.017 85.2702 134.819 78.7607C135.285 78.24 135.467 77.7539 135.288 77.0519C134.526 74.0335 133.582 71.0841 132.448 68.1965C132.162 67.4675 131.676 67.283 131.061 67.1786C129.437 66.9072 127.809 66.6553 126.192 66.3304C124.82 66.0541 124.695 65.5983 125.6 64.4628C126.851 62.8939 126.842 62.8965 125.862 61.0608C125.628 60.624 125.049 60.1989 125.456 59.6478C125.841 59.1262 126.36 59.5113 126.817 59.7061C126.99 59.7779 127.181 59.9172 127.431 59.6602C127.268 59.0524 126.756 58.6817 126.383 58.2234C125.897 57.6291 125.968 57.1768 126.545 56.7703C126.587 56.7404 126.624 56.7057 126.663 56.6734C128.886 54.814 130.165 55.0921 131.542 57.7954C132.117 58.9238 132.598 60.1074 133.158 61.3476C133.678 60.7579 133.551 60.0112 133.731 59.3917C134.014 58.4261 134.182 57.4214 134.42 56.4396C134.494 56.1375 134.617 55.6356 134.9 55.7223C135.872 56.0233 136.04 55.2297 136.387 54.6337C136.67 54.1481 136.9 53.5349 137.602 53.6983C138.086 53.8101 138.359 54.2 138.524 54.6768C138.746 55.3223 138.541 55.8525 138.089 56.2541C137.677 56.6234 137.213 56.9283 136.718 57.3016C137.074 58.1215 137.559 58.8467 138.164 59.7466C138.594 58.1622 139.012 56.7768 139.343 55.3664C139.702 53.8271 140.275 53.7819 141.067 53.9143C142.02 54.0728 142.372 54.6163 142.392 55.8913C142.396 56.1579 142.364 56.4277 142.348 56.6923C142.071 57.0032 142.07 57.3354 142.245 57.7563C142.505 57.487 142.694 57.2772 142.717 56.9542C143.607 55.9331 143.722 55.8944 144.654 56.6206C145.501 57.2806 146.333 57.9869 146.952 58.9035C147.611 59.8775 147.561 59.8711 148.502 59.4551C149.13 59.1762 149.764 59.2899 150.303 59.7958C150.809 60.2709 150.956 60.8088 150.694 61.5122C150.576 61.8248 149.969 62.3604 150.861 62.554C150.943 62.5766 150.996 62.6314 151.023 62.7156C150.425 62.0266 150.425 62.0266 149.881 63.1235C150.356 63.2524 150.576 62.6274 151.023 62.7011C151.105 62.5395 151.19 62.3923 151.273 62.2452ZM145.447 88.143C145.341 87.9681 145.256 87.7708 145.124 87.6257C145.012 87.5018 144.835 87.2359 144.685 87.5224C144.586 87.7137 144.789 87.8989 144.93 88.0463C145.299 88.4342 145.334 89.1782 146.035 89.3412C145.959 88.7875 145.618 88.5155 145.447 88.143ZM48.64 81.9988C48.5734 82.3081 48.6095 82.6008 48.8023 83.0916C48.7865 82.5827 48.777 82.2871 48.7678 81.9939C49.0214 79.7267 49.0968 77.4339 49.47 75.1814C49.5771 74.5271 49.28 74.1498 48.821 74.246C48.3394 74.3476 48.4277 74.7896 48.4184 75.134C48.3583 77.4217 48.3679 79.7128 48.64 81.9988ZM47.6276 90.0685C46.6187 91.4993 45.6302 92.9516 44.5934 94.3588C42.5926 97.0698 42.0744 100.336 41.5057 103.625C43.0593 103.881 43.0752 103.886 43.359 102.573C44.3319 98.0784 46.2017 93.9928 48.1238 89.9303C48.1978 89.7882 48.1875 89.6066 48.0413 89.5973C47.7785 89.5854 47.6989 89.8392 47.6276 90.0685ZM136.08 78.5469C135.825 78.9423 135.682 79.2312 135.483 79.4679C126.345 90.3608 119.836 102.82 116.576 117.218C116.446 117.788 116.327 118.363 116.168 118.923C116.075 119.248 115.867 119.494 115.501 119.339C115.235 119.228 115.144 118.97 115.18 118.683C115.205 118.472 115.27 118.267 115.317 118.06C116.336 113.479 117.499 108.944 119.274 104.642C119.728 103.544 119.675 102.719 119.139 101.657C116.462 96.3729 112.861 91.8969 108.886 87.7264C106.24 84.9508 103.302 82.6344 100.044 80.7752C95.0313 77.9149 89.777 75.7043 84.4518 73.6818C83.2915 73.2413 82.1364 73.1789 80.9414 73.5514C75.827 75.1351 71.6372 78.2162 68.3936 82.6972C64.1568 88.5506 65.9727 97.2366 69.0383 101.173C72.7495 105.938 76.002 111.092 79.1089 116.337C79.7583 117.432 80.3395 118.565 80.8212 119.756C82.5177 123.949 83.1582 128.315 82.893 132.84C82.7791 134.768 82.6517 136.696 82.6298 138.628C82.6096 140.547 83.0196 142.377 84.1725 143.923C84.498 144.36 84.4519 144.749 84.4098 145.254C84.18 147.991 83.4077 150.601 82.9543 153.284C82.533 155.782 82.3382 158.279 83.1238 160.771C83.2935 161.313 83.7524 161.99 83.3013 162.418C82.7833 162.911 81.9892 162.779 81.317 162.585C80.7825 162.431 80.3435 162.027 79.9616 161.591C79.3075 160.845 78.6687 160.079 78.041 159.308C76.715 157.683 75.4416 156.005 74.0703 154.427C73.1532 153.371 72.227 152.254 70.796 151.984C70.4281 151.916 70.3602 151.602 70.2318 151.309C69.4408 149.491 68.0583 148.555 66.2837 148.207C64.0061 147.762 61.8663 149.19 61.2209 151.557C60.9636 152.498 60.9399 153.457 60.9528 154.426C61.0373 160.995 61.6518 167.518 62.6313 174.011C62.8552 175.496 63.0931 176.98 63.8729 178.303C64.4062 179.209 65.1005 179.661 66.0845 179.7C67.3964 179.755 68.659 179.536 69.8957 179.121C70.8968 178.784 71.5916 178.055 72.0124 177.029C72.4396 175.99 72.6447 174.89 72.6578 173.75C72.6754 172.031 72.6724 170.3 72.3739 168.604C71.8048 165.356 71.5868 162.082 71.6514 158.807C71.6795 157.286 71.0962 156.51 69.9245 155.992C69.6945 155.89 69.45 155.819 69.2289 155.7C68.9528 155.553 68.6815 155.347 68.8331 154.961C68.9699 154.616 69.256 154.572 69.5818 154.667C70.8361 155.026 71.8368 155.812 72.6774 156.852C73.768 158.201 74.7073 159.671 75.6492 161.142C76.6777 162.746 77.7854 164.286 79.0374 165.697C80.9913 167.9 83.4234 169.103 86.1811 169.413C88.1265 169.632 88.7821 168.72 88.326 166.711C86.934 160.582 87.5722 154.656 89.6012 148.872C89.9425 147.898 90.0007 147.882 90.8412 148.356C91.3823 148.661 91.9568 148.799 92.5477 148.902C94.736 149.281 96.923 149.27 99.0781 148.813C100.364 148.541 101.244 148.628 102.238 149.909C103.95 152.115 105.041 154.477 105.345 157.294C105.573 159.399 105.345 161.476 105.209 163.564C105.187 163.909 104.981 164.304 105.377 164.614C106.372 164.594 107.295 164.244 108.205 163.804C111.692 162.114 114.662 159.704 117.102 156.538C117.608 155.884 118.108 155.222 118.626 154.579C118.857 154.29 119.144 154.013 119.495 154.39C119.757 154.671 119.633 155.002 119.444 155.261C118.954 155.93 118.496 156.64 117.927 157.223C117.114 158.056 116.946 158.784 117.487 160.003C118.777 162.912 119.365 166.016 119.209 169.253C119.146 170.538 119.205 171.831 119.237 173.12C119.273 174.528 119.828 175.71 120.678 176.768C122.051 178.475 123.851 179.262 125.84 179.371C129.29 179.56 132.106 178.102 134.27 175.244C134.854 174.474 135.051 173.607 134.829 172.547C134.488 170.92 134.214 169.276 133.769 167.675C132.151 161.848 129.651 156.439 126.754 151.239C125.696 149.341 124.474 147.53 122.95 146.02C121.294 144.379 121.587 144.352 120.262 146.303C118.569 148.799 116.875 151.291 115.039 153.664C114.338 154.57 113.571 155.4 112.573 155.921C111.747 156.352 110.865 156.619 110.022 155.993C109.167 155.357 109.379 154.386 109.474 153.482C109.479 153.428 109.493 153.377 109.5 153.324C109.734 151.632 110.098 149.946 109.798 148.209C109.688 147.561 110.081 147.28 110.471 146.916C112.077 145.417 113.69 143.926 115.221 142.34C118.68 138.759 121.141 134.528 122.19 129.389C123.134 124.762 123.432 120.062 123.359 115.323C123.332 113.633 122.986 111.991 122.507 110.34C121.974 110.617 121.955 111.1 121.826 111.473C121.084 113.624 120.383 115.793 119.654 117.951C119.484 118.453 119.532 119.376 118.776 119.107C118.004 118.834 118.528 118.077 118.674 117.585C121.257 108.883 124.841 100.707 129.569 93.1515C131.782 89.6171 134.123 86.1768 136.6 82.8576C137.263 81.9693 137.387 81.2177 136.923 80.2375C136.704 79.769 136.637 79.2174 136.08 78.5469ZM144.959 63.7117C144.302 64.1319 144.026 64.7095 143.711 65.2369C141.644 68.6888 139.842 72.3076 138.059 75.9358C137.842 76.3789 137.787 77.1849 137.116 76.7713C136.485 76.3811 137.046 75.8076 137.25 75.3866C138.347 73.1175 139.462 70.8554 140.612 68.6192C140.904 68.0534 140.994 67.5788 140.706 66.971C140.388 66.3008 140.212 65.5525 139.884 64.8897C139.706 64.5295 139.64 63.8494 138.966 64.1075C138.412 64.3195 138.235 64.7595 138.295 65.3669C138.362 66.0614 138.402 66.759 138.46 67.4537C138.515 68.1509 138.587 68.8454 138.633 69.5428C138.659 69.9302 138.625 70.3576 138.18 70.3955C137.811 70.4269 137.722 70.0431 137.67 69.7192C137.577 69.1367 137.46 68.5546 137.428 67.966C137.358 66.6775 137.348 65.3878 137.279 64.0992C137.257 63.7092 137.355 63.2369 136.923 62.9325C136.261 63.2656 136.385 63.9299 136.424 64.4602C136.576 66.4842 136.059 68.5189 136.616 70.5326C136.675 70.7424 136.61 70.9741 136.425 71.0892C136.238 71.2044 136.041 71.1355 135.875 70.9908C135.595 70.7417 135.439 70.4029 135.298 70.054C134.898 69.0653 134.492 68.0767 134.106 67.0804C133.12 64.5416 132.151 61.9952 131.157 59.4614C130.865 58.7155 130.51 57.995 130.028 57.3643C129.389 56.5306 129.068 56.4544 128.238 56.9458C127.941 57.1213 127.614 57.2853 127.489 57.6781C127.545 58.0189 127.785 58.2324 127.985 58.4686C129.551 60.3171 130.824 62.3848 131.927 64.5794C133.704 68.1163 134.916 71.88 135.924 75.7277C136.059 76.2415 136.084 76.9636 136.408 77.2167C137.328 77.931 137.534 78.9987 137.817 79.9946C138.315 81.7476 138.945 83.4471 139.482 85.1848C140.542 88.6171 141.753 91.9876 143.107 95.2977C143.36 95.9159 143.524 96.628 144.1 97.0434C144.733 96.7158 145.124 96.1533 145.561 95.6522C146.41 94.6781 146.442 94.6386 145.719 93.4525C144.947 92.1899 144.106 90.9743 143.262 89.7639C141.753 87.5992 140.264 85.4242 139.144 82.9898C138.869 82.3938 138.617 81.7926 139.071 81.1897C139.506 80.6114 140.059 80.9279 140.587 81.0122C141.61 81.1741 142.566 81.7495 143.679 81.6938C143.497 80.97 142.927 80.7968 142.486 80.4902C141.332 79.6859 140.02 79.326 138.731 78.8953C138.396 78.783 138.007 78.6233 138.116 78.1435C138.222 77.6711 138.588 77.6809 138.96 77.8143C139.243 77.9155 139.533 77.997 139.823 78.086C141.604 78.6259 143.213 79.5619 144.682 80.7602C145.53 79.4876 145.716 79.3312 146.917 80.0619C148.468 81.0039 149.99 81.1827 151.637 80.622C152.198 80.4316 152.8 80.3666 153.381 80.2388C153.662 80.1776 153.985 80.1713 154.029 79.7098C153.932 79.617 153.837 79.4638 153.71 79.4202C151.856 78.7774 150.017 78.0737 148.075 77.8207C147.584 77.7576 146.974 77.8277 146.701 77.3359C146.332 76.6763 145.913 76.8372 145.428 76.9752C144.377 77.277 143.325 77.5763 142.273 77.8709C142.024 77.9412 141.76 77.9512 141.638 77.6456C141.521 77.3545 141.656 77.0997 141.897 76.9859C142.258 76.8164 142.64 76.7023 143.015 76.5762C144.167 76.19 145.402 76.064 146.581 75.3306C145.317 74.7952 144.108 74.8794 142.936 74.7083C141.915 74.5585 140.942 74.5169 140.442 75.7898C140.333 76.0635 140.048 76.3164 139.71 76.0781C139.398 75.8563 139.43 75.5284 139.605 75.2315C140.186 74.2406 140.758 73.2427 141.371 72.2778C142.658 70.2499 143.855 68.168 144.616 65.8279C144.827 65.1909 145.172 64.5683 144.959 63.7117ZM71.3892 106.624C70.5328 104.941 69.4852 103.446 68.3668 102.003C67.6255 101.045 66.9035 100.063 66.4765 98.8998C66.1645 98.0527 65.6614 97.4658 64.977 96.9579C60.9246 93.9576 57.0245 90.7484 53.4346 87.1086C52.2733 85.9311 52.5518 85.6613 51.1725 87.2352C50.3672 88.1553 50.3787 88.1648 51.335 89.036C54.9732 92.3498 58.6095 95.6686 62.2517 98.975C65.2016 101.653 68.2154 104.237 71.3892 106.624ZM51.8708 70.164C50.6566 73.2597 50.219 76.5319 49.9857 79.8558C49.8618 81.6186 49.7426 83.3812 49.6142 85.1416C49.583 85.5665 49.4961 86.2204 49.0055 85.9585C48.0971 85.4718 47.2501 85.8642 46.3889 85.8689C43.3762 85.884 40.5404 86.9432 37.6242 87.5238C37.0623 87.6366 36.7514 87.9457 36.7744 88.6C36.7895 89.0119 36.4998 89.4224 36.7822 89.8364C37.2205 90.0751 37.5506 89.7317 37.8985 89.5964C39.6629 88.9146 41.392 88.1146 43.1811 87.5172C44.9371 86.9301 46.8063 86.5154 48.5853 87.2929C49.4429 87.669 49.8117 87.4824 50.2489 86.8289C50.3922 86.6152 50.5653 86.413 50.7578 86.2516C51.7696 85.4051 52.0145 84.2727 52.1575 82.9122C52.4767 79.88 53.0798 76.8858 54.2249 74.0824C54.9642 72.2737 55.0275 72.2943 53.4425 71.1226C52.9557 70.7659 52.5145 70.2993 51.8708 70.164ZM144.894 89.8727C144.05 88.369 143.208 86.8628 142.362 85.3614C142.179 85.0376 141.928 84.7031 142.156 84.3301C142.41 83.9153 142.879 83.9692 143.242 84.0446C143.558 84.1087 143.854 84.3818 144.135 84.597C145.404 85.5738 146.49 86.7769 147.597 87.9532C148.489 88.9032 149.37 89.8629 150.278 90.7935C150.603 91.124 150.986 91.3907 151.354 91.6696C151.827 92.0314 152.23 91.7955 152.53 91.4189C152.873 90.9875 152.398 90.7737 152.208 90.5058C152.088 90.3361 151.924 90.2011 151.78 90.0514C149.936 88.1404 148.06 86.2711 145.987 84.6457C145.656 84.3855 144.997 84.1268 145.326 83.599C145.738 82.9412 146.21 83.6182 146.569 83.8924C147.427 84.5448 148.254 85.249 149.067 85.9702C149.942 86.7457 150.782 87.5637 151.658 88.3804C151.872 88.122 152.013 87.9737 152.129 87.8064C152.908 86.6902 152.906 86.6883 152.032 85.6699C150.795 84.2294 149.243 83.3117 147.815 82.486C148.438 83.1891 149.161 83.98 149.857 84.7981C150.165 85.158 150.859 85.5401 150.351 86.0686C149.86 86.5803 149.498 85.8406 149.155 85.5077C147.822 84.2171 146.507 82.9068 145.061 81.4826C144.688 82.9398 143.779 82.8533 142.851 82.6605C141.907 82.4631 141.008 81.9835 139.978 81.9891C140.813 84.2714 142.545 87.1035 144.894 89.8727ZM38.4541 81.4217C38.4506 80.8835 38.0117 80.6253 37.7776 80.2395C37.3395 79.5182 36.8037 78.8231 36.7424 77.9441C36.6217 76.2589 35.7104 75.1104 34.6654 73.9839C33.1371 72.3383 32.6249 72.2392 30.8509 73.4741C30.2627 73.8831 29.7836 74.4089 29.3926 75.0276C28.8584 75.8697 28.8788 75.9444 29.6836 76.4961C32.2931 78.288 35.0298 79.83 37.7767 81.3525C37.9893 81.4744 38.201 81.6473 38.4541 81.4217ZM46.818 84.6118C46.6381 82.9714 45.9114 81.9793 44.5558 81.4699C43.6317 81.1218 42.9172 80.4472 42.5677 79.4017C42.3693 78.8066 41.877 78.4914 41.4592 78.1115C39.8584 76.654 38.1381 75.3249 37.1149 73.2621C37.0215 73.0748 36.8749 72.9176 36.7553 72.7454C36.4521 72.3124 36.1619 72.5 35.8739 72.7504C35.5704 73.0134 35.3908 73.2981 35.7615 73.6643C36.7201 74.6082 37.3887 75.8269 38.4441 76.7059C40.7046 78.5894 42.4662 81.0815 44.781 82.9131C44.9905 83.0787 45.1385 83.2989 45.0114 83.5996C44.8862 83.8954 44.6327 83.8979 44.3853 83.8761C43.6448 83.8081 42.8967 83.7767 42.1639 83.6503C39.3011 83.1606 39.5853 82.9223 38.0847 86.1133C38.0698 86.1427 38.0985 86.1955 38.1277 86.3501C41.0001 85.5836 43.8753 84.8462 46.818 84.6118ZM47.8632 88.2211C45.5643 87.9654 43.6512 88.3324 41.8243 89.2288C40.6909 89.7844 39.9288 90.7352 39.4153 91.9357C39.1518 92.5543 39.1965 93.0408 39.8689 93.3744C40.5938 93.7361 41.2979 94.1564 41.981 94.6037C42.5628 94.9875 42.9566 94.8926 43.3694 94.3172C44.79 92.3473 46.2472 90.4034 47.8632 88.2211ZM141.946 73.3479C143.497 73.8026 144.984 73.5142 146.346 73.992C147.705 74.4697 148.622 74.2433 149.661 73.0568C151.41 71.0563 152.971 71.1034 155.075 72.7281C155.563 73.1041 156.027 73.517 156.51 73.8978C156.945 74.241 157.187 74.1078 157.386 73.568C157.644 72.8622 157.47 72.4655 156.82 72.2067C155.371 71.6312 153.918 71.1164 152.381 70.8676C149.934 70.4716 147.528 70.8023 145.128 71.1134C143.851 71.2837 142.74 71.9843 141.946 73.3479ZM154.299 61.6019C151.338 63.5751 148.563 65.1592 146.009 67.2701C147.785 68.2756 149.527 68.3167 151.308 68.0371C151.715 67.9734 152.143 67.8972 152.311 67.4719C153.015 65.6785 153.884 63.9474 154.299 61.6019ZM149.809 82.2047C149.976 82.7178 150.438 82.8664 150.793 83.0995C151.781 83.7446 152.463 84.9631 153.841 84.9097C154.26 84.8941 154.484 85.4571 154.279 85.9119C154.002 86.5261 154.264 86.9307 154.627 87.3359C155.038 87.7959 155.322 88.3939 156.037 88.8093C156.204 87.0481 156.565 85.4044 156.465 83.6896C156.441 83.2803 156.271 82.9539 155.908 82.8106C153.927 82.037 151.966 80.9478 149.809 82.2047ZM141.675 66.472C142.3 65.473 142.873 64.5525 143.454 63.6393C144.04 62.721 144.62 61.8004 145.229 60.9011C146.25 59.39 146.256 59.3971 144.838 58.1858C144.721 58.0862 144.597 57.9917 144.49 57.8798C143.996 57.373 143.65 57.5107 143.323 58.099C142.513 59.5599 141.841 61.0909 141.206 62.6526C140.646 64.031 140.932 65.199 141.675 66.472ZM45.6987 80.7227C45.5946 80.264 45.5882 79.9223 45.4478 79.6631C43.8466 76.7071 42.865 73.4821 41.8371 70.2822C41.5959 69.5255 41.2166 69.0989 40.4985 69.0281C40.1295 68.9916 39.6761 68.6974 39.4369 69.2161C39.2352 69.6516 39.1973 70.1567 39.476 70.5949C39.6436 70.8584 39.8767 71.0745 40.0971 71.2932C40.8124 71.997 41.3263 72.8526 41.7349 73.7854C42.3543 75.2014 42.8937 76.6579 43.2622 78.1636C43.5869 79.486 44.2206 80.3708 45.6987 80.7227ZM35.2143 91.4091C33.4371 89.5525 31.3508 89.4865 29.1242 89.3821C29.3984 91.1661 29.6469 92.7785 29.9204 94.5578C31.7037 93.4706 33.3394 92.3476 35.2143 91.4091ZM135.269 57.2426C134.757 58.9814 134.62 60.5383 134.176 61.9799C133.56 63.9851 134.716 65.3591 135.392 66.9535C135.535 65.9323 135.466 64.9347 135.481 63.9403C135.513 62.1066 136.144 61.5026 138.045 61.6377C137.079 60.1896 136.417 58.709 135.269 57.2426ZM149.504 75.0214C151.784 75.3649 153.802 76.0117 155.773 76.9746C155.963 74.8421 155.32 73.7878 153.446 72.9393C152.17 72.358 150.842 73.0119 149.504 75.0214ZM51.0335 69.2977C51.099 69.1728 51.146 68.9512 51.2373 68.9276C52.0718 68.7174 52.0926 67.958 52.3286 67.2624C52.7248 66.0981 51.8799 65.9085 51.3012 65.4906C50.8053 65.1293 50.2944 64.7901 49.7768 64.4632C49.1567 64.0752 48.6199 63.4917 47.7976 63.3186C47.7692 63.9714 47.7297 64.4983 47.724 65.0246C47.7072 66.4118 47.9115 66.6988 49.2424 66.7819C49.9681 66.826 50.3499 67.1216 50.4703 67.8782C50.5483 68.3494 50.5508 68.8537 51.0335 69.2977ZM53.5893 80.5105C54.3083 79.9873 54.459 78.9271 55.1768 78.7871C56.6952 78.4932 57.2946 77.0825 58.4828 76.2106C57.3781 75.3981 56.4729 74.6544 55.2742 74.2802C54.4233 76.2389 53.9812 78.2915 53.5893 80.5105ZM47.5885 83.2219C47.5116 80.2241 47.3519 77.2377 47.455 74.2484C47.4827 73.4308 47.1913 73.2207 46.3281 73.2351C45.7046 73.2448 45.4505 73.5165 45.5382 74.2252C45.9224 77.2922 46.5179 80.3041 47.5885 83.2219ZM45.9913 72.0948C46.4225 71.8269 46.4155 71.5991 46.4765 71.4016C46.8085 70.3476 46.6285 69.0442 47.8862 68.4499C48.2397 68.2829 48.0924 67.6724 47.6603 67.4092C47.0973 67.0663 46.5345 66.7184 45.9508 66.417C44.9745 65.9099 44.1925 66.364 44.4149 67.4459C44.741 69.0277 45.2437 70.5915 45.9913 72.0948ZM139.663 89.0364C138.913 90.7993 138.261 92.3273 137.58 93.9239C138.254 94.2962 138.864 94.6433 139.483 94.9758C140.069 95.2917 140.397 94.8146 140.775 94.4875C141.133 94.1748 141.428 93.8659 141.205 93.2739C140.699 91.9528 140.233 90.6162 139.663 89.0364ZM147.264 76.292C147.598 76.637 147.933 76.713 148.252 76.7358C149.752 76.8472 151.166 77.3652 152.587 77.8369C154.437 78.4507 156.276 79.1058 158.122 79.7341C158.452 79.8465 158.808 80.0311 159.385 79.6828C157.131 78.7133 155.136 77.7581 153.084 76.998C151.233 76.3115 149.329 75.7426 147.264 76.292ZM44.2535 74.3206C44.9258 72.603 44.5767 70.99 43.9005 69.4005C43.2411 67.8519 42.9958 66.06 41.6221 64.7581C41.4375 65.5182 41.6978 66.0174 41.8259 66.5168C42.4969 69.1442 43.2543 71.7408 44.2535 74.3206ZM138.708 62.7644C139.854 62.6741 139.859 62.6765 140.031 61.9506C140.411 60.3477 140.793 58.7472 141.157 57.1399C141.264 56.6746 141.345 56.1978 141.381 55.7195C141.407 55.3844 141.281 55.0765 140.913 55.0133C140.606 54.9611 140.461 55.1919 140.382 55.4504C139.832 57.219 139.237 59.0007 139.117 60.8652C139.074 61.4867 139.023 62.0624 138.708 62.7644ZM38.5171 83.1225C37.0947 82.0519 35.7128 81.4291 34.3821 80.7058C33.4119 80.1792 32.6995 80.6295 32.5103 81.8116C32.4598 82.1303 32.5484 82.3758 32.798 82.4704C34.5856 83.1653 36.4029 83.5881 38.5171 83.1225ZM41.9937 95.7915C41.4056 95.4321 40.7933 95.0876 40.2135 94.6915C39.7272 94.3592 39.3683 94.4995 39.0792 94.9416C38.8845 95.2388 38.6996 95.56 38.5827 95.8993C38.2552 96.8344 38.399 97.622 38.9042 97.9177C39.5123 98.2695 40.5446 98.0626 41.0092 97.4353C41.3686 96.9506 41.847 96.5388 41.9937 95.7915ZM42.6439 82.4456C41.8707 81.6169 41.1079 80.7759 40.3216 79.962C39.5194 79.1314 38.7836 78.2122 37.6795 77.4215C37.8046 78.4762 38.2144 79.1617 38.7017 79.7414C39.3383 80.4976 39.8349 81.2323 39.3737 82.3348C40.5125 82.446 41.5519 82.3868 42.6439 82.4456ZM145.766 66.0915C147.722 64.9501 148.462 62.9523 149.623 61.3561C149.817 61.0904 149.833 60.7555 149.529 60.5165C149.246 60.2917 148.965 60.336 148.747 60.6142C148.18 61.343 147.671 62.1264 147.058 62.8051C146.27 63.674 145.888 64.6998 145.766 66.0915ZM41.7972 76.8829C41.1149 74.9589 40.6786 73.1611 39.2117 71.8876C38.1674 74.1266 38.4603 73.8129 39.6743 75.0961C40.2617 75.7175 40.8733 76.3311 41.7972 76.8829ZM151.704 69.4017C151.684 69.3633 151.662 69.2813 151.646 69.2816C149.511 69.4373 147.412 69.2503 145.389 68.3732C145.064 68.2317 144.816 68.2535 144.633 68.5941C144.473 68.8954 144.466 69.1963 144.633 69.5057C144.936 70.0697 145.426 70.1595 145.932 70.0478C147.742 69.6415 149.583 69.6565 151.423 69.674C151.566 69.6736 151.71 69.615 151.704 69.4017ZM126.479 65.3065C128.044 65.5572 129.593 65.8058 131.139 66.052C130.256 65.0752 129.136 64.6314 128.122 63.9941C127.767 63.7707 127.455 63.8423 127.203 64.1746C126.965 64.4992 126.59 64.7126 126.479 65.3065ZM146.586 92.7201C147.4 92.0742 148.061 91.4888 148.695 90.7468C148.166 90.1725 147.717 89.687 147.15 89.0721C146.991 90.4306 146.281 90.8035 145.082 90.4827C145.642 91.313 146.073 91.9568 146.586 92.7201ZM49.628 73.4422C50.667 71.1185 50.5855 70.092 49.092 67.7766C49.0006 69.4974 48.8951 71.0561 48.8458 72.6186C48.8302 73.1208 49.281 73.2575 49.628 73.4422ZM55.5656 80.0791C54.117 81.4482 52.8287 84.3417 53.2361 85.3134C54.8212 82.7244 55.5858 81.005 55.5656 80.0791ZM37.6386 84.5048C35.3086 84.0362 35.5141 84.0104 35.5194 86.3719C35.5195 86.5149 35.5848 86.6592 35.698 87.125C36.1457 85.8893 37.5311 85.9253 37.6386 84.5048ZM37.755 72.4398C39.0522 70.5353 38.1226 70.0152 36.2087 69.5846C36.551 70.686 37.0839 71.5776 37.755 72.4398ZM27.0187 78.7085C27.2277 79.4318 27.6868 79.7575 28.3188 80.087C28.5074 79.3196 28.8715 78.7015 28.5804 77.8585C28.0179 78.1628 27.5436 78.4218 27.0187 78.7085ZM38.9791 90.3585C38.3119 90.6043 37.9057 90.748 37.5024 90.9038C37.2321 91.0084 36.9229 91.092 36.9515 91.5062C36.9724 91.8137 37.225 91.9202 37.4268 92.0618C37.8583 92.3686 38.2208 92.4755 38.4184 91.783C38.532 91.3904 38.7155 91.0207 38.9791 90.3585ZM35.5966 90.2329C35.3695 89.362 35.2966 88.6894 34.8466 88.1575C33.9098 89.1747 33.9174 89.1988 35.5966 90.2329ZM46.6136 98.08C46.5288 98.0962 46.442 98.1125 46.3569 98.1263C46.3757 98.7151 46.392 99.3015 46.4128 99.8903C46.4261 100.242 46.4931 100.582 46.9205 100.411C47.2263 100.289 47.6233 100.146 47.3713 99.6194C47.1238 99.103 46.8676 98.5915 46.6136 98.08ZM57.1608 70.7251C57.7717 70.5289 58.2233 70.2049 58.5989 69.7272C57.7044 68.9785 57.7044 68.9785 57.1608 70.7251ZM130.297 64.039C130.247 63.4507 129.957 63.1364 129.757 62.7766C129.633 62.5535 129.452 62.2636 129.198 62.5475C129.01 62.7596 128.795 63.0742 129.119 63.3855C129.42 63.6755 129.77 63.8844 130.297 64.039ZM47.4945 72.3855C48.0442 71.3977 48.0941 71.0475 47.8078 69.802C47.6111 70.7563 47.2184 71.4525 47.4945 72.3855ZM127.77 62.6383C128.121 62.4084 128.416 62.0705 128.158 61.6731C127.951 61.3546 127.586 60.9592 126.993 61.2788C127.354 61.7106 127.253 62.3333 127.77 62.6383ZM31.842 87.3481C31.6736 86.9901 31.5717 86.752 31.4546 86.5264C31.3661 86.3584 31.3321 86.0633 31.0773 86.1579C30.9133 86.2169 30.7548 86.3824 30.6611 86.5467C30.5295 86.7796 30.7274 86.9406 30.8877 87.0369C31.1298 87.1826 31.3567 87.4085 31.842 87.3481ZM158.871 87.1657C158.88 86.843 158.692 86.7108 158.437 86.6578C158.295 86.6288 158.101 86.6862 158.122 86.8338C158.163 87.1384 158.289 87.4391 158.633 87.4733C158.809 87.487 158.848 87.3191 158.871 87.1657ZM54.8492 67.0071C54.8878 66.7445 54.7077 66.7286 54.5796 66.719C54.2873 66.6956 54.1339 66.8829 54.0827 67.1821C54.0586 67.3329 54.0523 67.5707 54.202 67.5483C54.492 67.4991 54.7397 67.3099 54.8492 67.0071ZM137.55 55.1662C137.51 55.0943 137.469 55.0223 137.427 54.948C137.341 55.0588 137.25 55.1673 137.168 55.2828C137.097 55.3836 137.126 55.5309 137.207 55.5148C137.372 55.4849 137.523 55.3825 137.55 55.1662ZM146.334 62.121C146.32 61.6945 146.139 61.7005 146.039 61.6078C145.942 61.7794 145.805 61.9398 145.757 62.1274C145.707 62.3199 145.972 62.3972 146.023 62.3743C146.198 62.2909 146.334 62.1331 146.334 62.121ZM146.982 60.4886C146.943 60.4506 146.906 60.4174 146.871 60.3841C146.839 60.4551 146.799 60.5261 146.786 60.6016C146.782 60.6283 146.846 60.6707 146.879 60.7064C146.913 60.6354 146.946 60.5645 146.982 60.4886Z" fill="#131010"/>
<path d="M155.7 101.797C155.649 101.89 155.601 102.047 155.5 102.146C155.337 102.31 155.113 102.292 154.968 102.13C154.206 101.285 153.606 100.306 153.09 99.2735C152.994 99.0834 153.092 98.8385 153.27 98.7233C153.379 98.6508 153.553 98.6181 153.673 98.6596C154.054 98.7859 155.703 101.331 155.7 101.797Z" fill="#1D1818"/>
<path d="M123.431 61.2063C123.333 61.4603 123.177 61.7592 122.916 61.6479C121.858 61.1982 120.921 60.5133 120.042 59.7375C119.88 59.5952 119.899 59.3402 120.019 59.1536C120.132 58.9792 120.317 58.8035 120.509 58.9137C121.507 59.4835 122.523 60.0285 123.338 60.9049C123.401 60.9741 123.403 61.1074 123.431 61.2063Z" fill="#1D1818"/>
<path d="M45.8686 56.9822C45.8805 56.5055 45.8769 56.0265 45.9067 55.5519C45.9297 55.2013 46.0873 54.9405 46.4511 54.9675C46.7339 54.9888 46.9043 55.197 46.9023 55.4961C46.8963 56.4493 46.8859 57.405 46.8417 58.3565C46.8297 58.6242 46.6446 58.8636 46.3669 58.8665C46.0152 58.8709 45.8382 58.5923 45.8166 58.2548C45.7876 57.8323 45.8235 57.4061 45.8307 56.9829C45.8418 56.9803 45.8552 56.98 45.8686 56.9822Z" fill="#1D1818"/>
<path d="M135.178 50.6555C135.218 51.0999 135.168 51.4195 134.821 51.5235C134.466 51.63 134.217 51.3867 134.168 51.0494C134.029 50.101 133.939 49.1419 133.849 48.1876C133.828 47.9643 133.963 47.7671 134.163 47.7072C134.443 47.6241 134.684 47.8067 134.737 48.0684C134.919 48.9577 135.048 49.8577 135.178 50.6555Z" fill="#1D1818"/>
<path d="M99.8695 75.4158C99.0832 75.1768 98.1786 74.882 97.3332 74.4068C97.1321 74.2945 97.0624 74.0755 97.0983 73.8617C97.1496 73.5628 97.3834 73.3646 97.6371 73.4396C98.5909 73.7238 99.5431 74.0297 100.392 74.6066C100.561 74.7219 100.638 74.9432 100.508 75.1685C100.391 75.3766 100.209 75.4334 99.8695 75.4158Z" fill="#1D1818"/>
<path d="M31.9485 60.6352C31.9354 61.005 31.918 61.2995 31.6387 61.3949C31.2904 61.516 31.0415 61.2897 30.955 60.9558C30.7662 60.23 30.6132 59.4914 30.4738 58.75C30.42 58.4592 30.5445 58.221 30.8408 58.1617C31.1257 58.1028 31.3409 58.2518 31.4172 58.5348C31.6187 59.258 31.7873 59.9939 31.9485 60.6352Z" fill="#1D1818"/>
<path d="M23.703 84.81C23.5596 84.8152 23.2332 84.7151 23.2005 84.2426C23.1748 83.8641 23.4383 83.678 23.7425 83.6287C24.3678 83.5275 24.996 83.4407 25.6279 83.3949C25.9346 83.3721 26.2179 83.5236 26.2328 83.9217C26.2418 84.2185 26.0642 84.4198 25.8076 84.4705C25.185 84.591 24.5565 84.6755 23.703 84.81Z" fill="#1D1818"/>
<path d="M62.6759 63.6257C62.3124 63.548 62.1804 63.209 62.3601 62.9244C62.8066 62.2204 63.429 61.6802 64.1376 61.3054C64.4353 61.1469 64.7381 61.347 64.7424 61.766C64.7495 62.2819 63.2094 63.6686 62.6759 63.6257Z" fill="#1D1818"/>
<path d="M36.4956 104.92C36.4445 105.35 35.2432 106.602 34.8438 106.608C34.7161 106.61 34.5494 106.517 34.4606 106.409C34.3252 106.245 34.2776 106.008 34.4107 105.821C34.802 105.278 35.2347 104.768 35.7961 104.432C36.1614 104.214 36.5457 104.512 36.4956 104.92Z" fill="#1D1818"/>
<path d="M142.859 56.9179C142.835 57.239 142.644 57.4516 142.386 57.7213C142.212 57.2997 142.215 56.9669 142.49 56.6555C142.613 56.7454 142.735 56.8329 142.859 56.9179Z" fill="#E9A38D"/>
<path d="M151.164 62.7448C151.136 62.6582 151.083 62.6036 151.002 62.581C151.14 62.4838 151.278 62.3844 151.416 62.2872C151.333 62.434 151.248 62.581 151.165 62.7278L151.164 62.7448Z" fill="#E9A38D"/>
<path d="M136.057 78.533C136.614 79.2041 136.681 79.7562 136.904 80.2227C137.368 81.2039 137.244 81.9562 136.582 82.8453C134.105 86.1703 131.763 89.6114 129.553 93.1495C124.827 100.712 121.244 108.896 118.662 117.607C118.516 118.1 117.992 118.857 118.763 119.131C119.519 119.4 119.472 118.476 119.642 117.973C120.368 115.814 121.068 113.645 121.812 111.489C121.942 111.115 121.96 110.632 122.494 110.355C122.974 112.008 123.32 113.652 123.345 115.343C123.418 120.086 123.121 124.791 122.177 129.423C121.128 134.567 118.665 138.802 115.21 142.387C113.679 143.972 112.067 145.467 110.461 146.967C110.073 147.329 109.679 147.613 109.789 148.261C110.086 150.001 109.722 151.685 109.491 153.381C109.484 153.434 109.469 153.486 109.465 153.539C109.37 154.446 109.158 155.419 110.013 156.053C110.853 156.68 111.737 156.412 112.563 155.981C113.56 155.459 114.328 154.626 115.028 153.722C116.863 151.344 118.556 148.85 120.249 146.353C121.573 144.398 121.28 144.428 122.936 146.07C124.462 147.581 125.683 149.395 126.739 151.294C129.637 156.5 132.134 161.914 133.751 167.746C134.196 169.349 134.47 170.994 134.811 172.623C135.033 173.684 134.836 174.553 134.252 175.323C132.089 178.184 129.273 179.644 125.825 179.454C123.837 179.345 122.038 178.557 120.665 176.849C119.816 175.79 119.26 174.607 119.224 173.197C119.193 171.907 119.134 170.612 119.196 169.327C119.352 166.086 118.765 162.978 117.475 160.067C116.934 158.849 117.102 158.118 117.915 157.284C118.484 156.701 118.941 155.99 119.431 155.32C119.62 155.061 119.745 154.729 119.482 154.448C119.132 154.071 118.844 154.349 118.614 154.637C118.096 155.281 117.596 155.944 117.09 156.599C114.649 159.768 111.68 162.183 108.196 163.872C107.289 164.312 106.367 164.662 105.369 164.682C104.974 164.372 105.179 163.979 105.202 163.632C105.337 161.544 105.566 159.462 105.337 157.355C105.033 154.536 103.943 152.171 102.231 149.963C101.238 148.681 100.358 148.591 99.0725 148.866C96.9206 149.323 94.732 149.335 92.5444 148.955C91.9537 148.852 91.3799 148.713 90.8386 148.408C89.9963 147.935 89.9406 147.95 89.599 148.925C87.5707 154.715 86.9348 160.647 88.3242 166.782C88.7801 168.792 88.1252 169.708 86.1805 169.486C83.4229 169.173 80.9921 167.971 79.0389 165.767C77.7899 164.354 76.6805 162.813 75.6519 161.207C74.7107 159.737 73.7714 158.263 72.6815 156.913C71.8387 155.871 70.8409 155.085 69.5871 154.726C69.2609 154.633 68.973 154.675 68.8383 155.02C68.6844 155.409 68.9558 155.612 69.2339 155.759C69.4554 155.879 69.6998 155.95 69.9292 156.052C71.1007 156.568 71.6837 157.348 71.6555 158.87C71.5931 162.148 71.8088 165.427 72.3777 168.676C72.6761 170.374 72.6791 172.106 72.6619 173.828C72.6506 174.966 72.4434 176.07 72.0164 177.11C71.5936 178.137 70.9015 178.869 69.9004 179.204C68.6646 179.619 67.402 179.838 66.0905 179.783C65.1069 179.742 64.4132 179.292 63.8797 178.385C63.1003 177.058 62.8629 175.575 62.6386 174.089C61.6594 167.589 61.0449 161.058 60.9607 154.484C60.9482 153.514 60.9715 152.555 61.2288 151.613C61.8739 149.244 64.013 147.814 66.2902 148.259C68.0638 148.606 69.4458 149.542 70.2364 151.364C70.3623 151.655 70.4327 151.969 70.8004 152.04C72.2309 152.31 73.1567 153.431 74.0736 154.486C75.4444 156.065 76.7199 157.744 78.0429 159.371C78.6707 160.145 79.3093 160.91 79.9628 161.657C80.3447 162.091 80.7813 162.497 81.3177 162.652C81.9875 162.845 82.7813 162.977 83.3017 162.485C83.7522 162.056 83.2934 161.378 83.1238 160.835C82.3385 158.341 82.5311 155.842 82.9544 153.341C83.4077 150.655 84.18 148.046 84.4094 145.304C84.452 144.798 84.498 144.409 84.1722 143.971C83.0176 142.423 82.6079 140.589 82.6301 138.671C82.6497 136.739 82.7793 134.807 82.8932 132.877C83.1583 128.348 82.5181 123.977 80.8222 119.78C80.3407 118.588 79.7597 117.451 79.1105 116.357C76.0047 111.107 72.7559 105.951 69.044 101.179C65.9791 97.2384 64.1638 88.5438 68.3991 82.6847C71.6415 78.1992 75.8299 75.1151 80.9425 73.5298C82.1374 73.1594 83.2917 73.2194 84.4521 73.6603C89.7748 75.6873 95.0277 77.9001 100.039 80.7608C103.295 82.6219 106.233 84.9406 108.877 87.7189C112.851 91.8936 116.45 96.374 119.127 101.664C119.665 102.726 119.716 103.553 119.261 104.651C117.485 108.958 116.325 113.497 115.306 118.082C115.258 118.289 115.196 118.495 115.169 118.706C115.135 118.996 115.226 119.251 115.49 119.363C115.856 119.518 116.063 119.271 116.156 118.947C116.316 118.385 116.434 117.81 116.564 117.24C119.823 102.827 126.332 90.3561 135.465 79.4523C135.659 79.2179 135.803 78.9287 136.057 78.533ZM85.2382 102.957C85.7542 103.238 85.9062 103.725 86.1802 104.096C89.7064 108.871 95.5136 109.761 100.008 106.2C104.714 102.472 106.517 94.9514 104.179 88.8131C100.858 80.0919 91.5954 78.5836 86.2329 85.8895C86.0226 86.1776 85.8093 86.4633 85.5662 86.7908C85.1708 86.4782 84.816 86.1842 84.4463 85.9123C82.2947 84.3209 79.9295 83.5686 77.3684 83.99C74.1937 84.5131 71.8704 86.2186 70.9407 89.739C70.2757 92.2568 70.1272 94.7984 70.5408 97.3846C71.049 100.547 72.4148 103.173 74.8723 105.072C77.6996 107.257 80.6936 107.189 83.3667 104.911C84.0591 104.327 84.6958 103.681 85.2382 102.957ZM90.9838 131.566C91.0308 131.561 91.1363 131.566 91.2271 131.528C93.4261 130.635 95.7964 130.63 98.0674 130.108C100.385 129.572 101.95 128.139 102.826 125.777C103.273 124.574 103.556 123.336 103.549 122.03C103.541 120.579 103.48 119.129 103.483 117.677C103.491 114.446 103.528 111.218 105.117 108.338C105.248 108.1 105.359 107.84 105.188 107.594C104.976 107.284 104.624 107.291 104.375 107.439C103.86 107.748 103.379 108.122 102.904 108.502C100.084 110.761 97.1741 112.832 93.814 114.092C91.8191 114.84 89.7983 115.187 87.6768 114.913C86.7806 114.798 85.8959 114.691 85.1261 114.104C84.8528 113.896 84.5518 113.807 84.3539 114.153C84.1563 114.501 84.4087 114.747 84.6508 114.956C84.6897 114.989 84.7249 115.037 84.7702 115.053C86.2629 115.592 86.6265 117.011 87.0559 118.401C88.2876 122.394 89.5152 126.389 89.8213 130.611C89.8772 131.396 90.3058 131.606 90.9838 131.566ZM107.148 106.274C108.548 106.28 110.116 105.235 110.57 104.039C110.963 103.003 110.684 102.26 109.735 101.825C108.335 101.183 106.912 101.543 105.815 102.756C105.215 103.418 104.884 104.099 105.257 105.051C105.638 106.014 106.433 106.118 107.148 106.274ZM82.2527 113.306C82.9184 113.298 83.5823 113.015 83.9854 112.568C84.6962 111.777 84.4978 110.973 83.5256 110.652C82.7392 110.394 82.0671 110.63 81.4786 111.161C81.0466 111.55 80.7278 112.035 80.993 112.692C81.2342 113.292 81.7462 113.311 82.2527 113.306ZM68.4281 86.0917C68.9052 85.7911 69.2454 85.2045 69.5134 84.5875C69.6241 84.333 69.4209 84.0142 69.1513 83.9951C68.4861 83.9474 68.2774 84.5801 67.9757 85.0423C67.8687 85.2046 67.7838 85.4369 67.7991 85.6307C67.8193 85.9094 67.9894 86.1197 68.4281 86.0917Z" fill="#A9B3F5"/>
<path d="M145.07 63.735C145.286 64.5909 144.938 65.2171 144.732 65.8577C143.971 68.2024 142.775 70.2883 141.489 72.3201C140.877 73.2892 140.305 74.2892 139.724 75.2796C139.55 75.577 139.517 75.908 139.829 76.1279C140.164 76.3643 140.452 76.1133 140.56 75.8391C141.058 74.5637 142.032 74.6078 143.052 74.7556C144.226 74.9271 145.431 74.8428 146.694 75.3794C145.518 76.1142 144.282 76.2403 143.131 76.6272C142.754 76.7535 142.372 76.8679 142.014 77.0376C141.774 77.1517 141.638 77.407 141.755 77.6986C141.877 78.0048 142.141 77.9924 142.39 77.9244C143.441 77.6293 144.494 77.3294 145.542 77.0272C146.027 76.8865 146.445 76.7278 146.813 77.3887C147.087 77.879 147.697 77.8088 148.187 77.8746C150.127 78.1283 151.965 78.8335 153.817 79.4777C153.944 79.5213 154.038 79.675 154.136 79.7678C154.092 80.2303 153.769 80.2366 153.489 80.2979C152.908 80.4259 152.307 80.4885 151.746 80.6817C150.1 81.2434 148.579 81.0641 147.029 80.1201C145.83 79.3879 145.644 79.5445 144.796 80.8196C143.328 79.6189 141.721 78.6809 139.942 78.1397C139.654 78.053 139.365 77.9687 139.079 77.8674C138.707 77.7337 138.342 77.7239 138.236 78.1972C138.127 78.678 138.516 78.838 138.851 78.9506C140.138 79.3822 141.449 79.7429 142.602 80.5489C143.042 80.8562 143.613 81.0297 143.795 81.755C142.68 81.8107 141.727 81.2341 140.704 81.0718C140.177 80.9874 139.627 80.67 139.19 81.2495C138.734 81.856 138.988 82.456 139.263 83.0532C140.382 85.4925 141.869 87.6745 143.376 89.8413C144.22 91.054 145.06 92.2717 145.831 93.5373C146.554 94.7258 146.522 94.7654 145.674 95.7413C145.239 96.2431 144.847 96.807 144.213 97.1352C143.638 96.7189 143.474 96.0054 143.221 95.386C141.868 92.0693 140.659 88.6914 139.601 85.2526C139.066 83.5138 138.434 81.8084 137.937 80.0519C137.655 79.054 137.446 77.9843 136.529 77.2684C136.205 77.0172 136.18 76.2937 136.045 75.7764C135.039 71.921 133.828 68.1498 132.053 64.6058C130.951 62.4067 129.68 60.3348 128.115 58.4825C127.915 58.2459 127.677 58.0319 127.619 57.6904C127.744 57.2968 128.07 57.1326 128.368 56.9567C129.197 56.4644 129.52 56.5407 130.156 57.3761C130.638 58.0082 130.992 58.7301 131.285 59.4776C132.277 62.0164 133.245 64.568 134.23 67.1119C134.616 68.1102 135.022 69.0983 135.421 70.0915C135.561 70.4386 135.716 70.7806 135.997 71.0302C136.161 71.1776 136.36 71.2466 136.547 71.1288C136.732 71.0135 136.796 70.7838 136.738 70.5711C136.181 68.5534 136.698 66.5123 136.547 64.4866C136.508 63.9553 136.381 63.2872 137.046 62.956C137.476 63.2611 137.379 63.7343 137.4 64.125C137.47 65.4161 137.477 66.7084 137.549 67.9995C137.581 68.5868 137.698 69.1725 137.791 69.7562C137.841 70.0783 137.929 70.4629 138.3 70.4338C138.748 70.396 138.779 69.9677 138.753 69.5795C138.707 68.8808 138.636 68.1848 138.58 67.4862C138.524 66.7901 138.484 66.0912 138.416 65.3952C138.356 64.7842 138.533 64.3459 139.086 64.1335C139.76 63.8749 139.826 64.5588 140.004 64.9173C140.331 65.5814 140.51 66.3311 140.824 67.0028C141.11 67.6119 141.02 68.085 140.731 68.6542C139.579 70.8972 138.467 73.1613 137.371 75.4348C137.167 75.8566 136.606 76.4312 137.237 76.8222C137.907 77.2368 137.962 76.4266 138.179 75.9851C139.961 72.3499 141.764 68.724 143.827 65.2655C144.138 64.7347 144.414 64.1584 145.07 63.735Z" fill="#C9623E"/>
<path d="M71.3789 106.358C68.2063 103.968 65.1935 101.382 62.2448 98.7015C58.6035 95.3894 54.9688 92.0698 51.3319 88.7526C50.3759 87.8806 50.362 87.8712 51.1695 86.9501C52.5483 85.3747 52.2699 85.6447 53.4308 86.8233C57.0198 90.4691 60.918 93.6816 64.9691 96.6824C65.6533 97.1908 66.1582 97.778 66.468 98.6262C66.8949 99.7904 67.6167 100.774 68.3577 101.732C69.4757 103.177 70.5232 104.675 71.3789 106.358Z" fill="#A4AEEF"/>
<path d="M51.8737 69.7533C52.5196 69.8886 52.9587 70.355 53.4454 70.7139C55.0307 71.8851 54.9674 71.8645 54.228 73.6722C53.0827 76.4718 52.4794 79.4669 52.1601 82.4976C52.017 83.8575 51.7746 84.9891 50.7602 85.8353C50.5681 85.9965 50.3949 86.1986 50.2512 86.4123C49.8143 87.0679 49.4475 87.2519 48.5873 86.8761C46.8081 86.0965 44.9389 86.5134 43.1827 87.1001C41.3929 87.6973 39.6636 88.4967 37.8989 89.1782C37.5488 89.3135 37.2187 89.6567 36.7824 89.4181C36.498 89.0019 36.7902 88.5939 36.7746 88.1823C36.7496 87.5284 37.0627 87.217 37.625 87.1066C40.5437 86.5263 43.38 85.4677 46.3906 85.4527C47.2545 85.448 48.0991 85.0559 49.0076 85.5423C49.4982 85.8041 49.5852 85.1505 49.6168 84.7258C49.7474 82.9663 49.8642 81.2021 49.988 79.4427C50.2215 76.118 50.6592 72.8475 51.8737 69.7533Z" fill="#C9623E"/>
<path d="M144.995 89.9855C142.648 87.2165 140.914 84.3844 140.077 82.0949C141.107 82.0894 142.006 82.5688 142.95 82.7662C143.878 82.9591 144.785 83.0456 145.161 81.5884C146.605 83.0126 147.921 84.3228 149.254 85.6132C149.597 85.9461 149.959 86.6858 150.45 86.1745C150.958 85.6456 150.264 85.2641 149.957 84.9036C149.26 84.0882 148.539 83.2949 147.914 82.5918C149.342 83.415 150.894 84.3327 152.131 85.7755C153.005 86.7938 153.007 86.7962 152.228 87.9119C152.112 88.0792 151.971 88.2274 151.757 88.4864C150.883 87.6693 150.041 86.8516 149.166 86.0758C148.353 85.3545 147.525 84.6506 146.668 83.9982C146.309 83.7263 145.837 83.0469 145.425 83.7047C145.096 84.2301 145.755 84.4912 146.086 84.7514C148.157 86.3792 150.035 88.2458 151.879 90.1568C152.023 90.3065 152.187 90.4419 152.306 90.6117C152.497 90.8819 152.972 91.0933 152.629 91.5242C152.329 91.9009 151.926 92.1368 151.453 91.775C151.087 91.4962 150.702 91.2298 150.377 90.8988C149.468 89.9688 148.588 89.0086 147.696 88.0586C146.591 86.8826 145.505 85.6794 144.234 84.7027C143.953 84.4875 143.66 84.2144 143.341 84.1503C142.978 84.075 142.51 84.0235 142.256 84.4358C142.027 84.8063 142.278 85.1409 142.461 85.4671C143.31 86.9756 144.151 88.4819 144.995 89.9855Z" fill="#9DAAE8"/>
<path d="M38.4461 80.9392C38.193 81.1649 37.9813 80.9919 37.7645 80.8724C35.0181 79.3491 32.282 77.8039 29.6728 76.0135C28.8678 75.4615 28.8499 75.3867 29.3819 74.5441C29.7729 73.9252 30.2518 73.3991 30.8399 72.9897C32.6131 71.7542 33.1257 71.8534 34.6537 73.4999C35.6986 74.627 36.6118 75.7761 36.7304 77.4623C36.7917 78.3417 37.3273 79.0372 37.7654 79.7588C38.0016 80.1424 38.4425 80.4007 38.4461 80.9392Z" fill="#A4AEEF"/>
<path d="M46.8135 84.1787C43.8724 84.4134 40.9987 85.1518 38.1303 85.9192C38.1006 85.7668 38.072 85.714 38.0869 85.6821C39.5848 82.4867 39.3007 82.7254 42.164 83.2157C42.8969 83.3423 43.6446 83.3738 44.3843 83.4419C44.634 83.4637 44.8849 83.4613 45.0101 83.1651C45.1375 82.8639 44.9892 82.6434 44.7798 82.4776C42.4662 80.6459 40.7057 78.1478 38.4468 76.2616C37.392 75.3814 36.7233 74.161 35.7652 73.2158C35.3927 72.8491 35.5721 72.564 35.8776 72.3006C36.1655 72.0498 36.4559 71.862 36.7586 72.2956C36.8785 72.468 37.0246 72.6255 37.118 72.813C38.1406 74.8787 39.8599 76.2097 41.4599 77.6693C41.8779 78.0496 42.3699 78.3653 42.5681 78.9612C42.917 80.0082 43.6291 80.6814 44.5547 81.0324C45.9074 81.545 46.6339 82.536 46.8135 84.1787Z" fill="#E6D98D"/>
<path d="M47.8471 87.8465C46.2328 90.0277 44.7745 91.9661 43.351 93.9353C42.938 94.5074 42.5441 94.6022 41.9619 94.2213C41.2787 93.7722 40.5743 93.3549 39.8491 92.9937C39.179 92.6605 39.1319 92.1724 39.3954 91.5572C39.9097 90.3585 40.6717 89.4093 41.8057 88.8546C43.6313 87.9574 45.5473 87.591 47.8471 87.8465Z" fill="#CE6440"/>
<path d="M142.065 73.4152C142.86 72.0596 143.972 71.3636 145.252 71.1996C147.651 70.8915 150.061 70.5616 152.511 70.959C154.05 71.2072 155.503 71.7199 156.954 72.2929C157.604 72.5508 157.778 72.9453 157.519 73.647C157.32 74.1811 157.077 74.3135 156.642 73.9745C156.159 73.5955 155.695 73.1847 155.207 72.8105C153.104 71.1937 151.539 71.1461 149.787 73.1345C148.746 74.3139 147.83 74.5385 146.468 74.0627C145.106 73.5821 143.617 73.8681 142.065 73.4152Z" fill="#9DAAE8"/>
<path d="M154.44 61.6564C154.025 63.9979 153.155 65.7261 152.448 67.5166C152.28 67.941 151.851 68.0171 151.445 68.0807C149.664 68.3573 147.919 68.3185 146.144 67.3144C148.701 65.2073 151.477 63.6261 154.44 61.6564Z" fill="#A4AEEF"/>
<path d="M149.921 82.3428C152.08 81.0848 154.041 82.1749 156.021 82.9516C156.387 83.0949 156.556 83.4216 156.578 83.8313C156.677 85.5475 156.317 87.1902 156.15 88.9551C155.435 88.5371 155.152 87.9408 154.74 87.4805C154.377 87.075 154.116 86.6723 154.392 86.0555C154.598 85.6002 154.373 85.0367 153.955 85.0524C152.577 85.1058 151.894 83.8864 150.908 83.2407C150.548 83.0051 150.088 82.8563 149.921 82.3428Z" fill="#EEE093"/>
<path d="M141.811 66.4803C141.067 65.2055 140.781 64.0359 141.341 62.6554C141.975 61.0914 142.647 59.5583 143.457 58.0952C143.784 57.5061 144.131 57.3682 144.623 57.8758C144.732 57.9878 144.854 58.0801 144.971 58.1822C146.388 59.3954 146.379 59.3883 145.362 60.9015C144.756 61.8021 144.172 62.724 143.587 63.6435C143.008 64.5557 142.439 65.4774 141.811 66.4803Z" fill="#CE6440"/>
<path d="M48.0972 89.566C46.1761 93.6345 44.3052 97.7263 43.3348 102.228C43.0511 103.542 43.0352 103.538 41.4826 103.281C42.0514 99.9898 42.5669 96.716 44.5687 94.001C45.6071 92.5917 46.5929 91.1398 47.6017 89.7068C47.7661 89.6574 47.9325 89.613 48.0972 89.566Z" fill="#9DAAE8"/>
<path d="M45.6995 80.2892C44.2231 79.9384 43.5903 79.0511 43.2665 77.7202C42.8988 76.2102 42.36 74.7497 41.7421 73.3296C41.3342 72.3942 40.8211 71.5361 40.1064 70.8303C39.8866 70.6133 39.6514 70.3942 39.4861 70.13C39.2083 69.6904 39.2459 69.184 39.4474 68.7473C39.6865 68.2273 40.1397 68.5248 40.5082 68.559C41.2273 68.6278 41.6039 69.0581 41.845 69.8168C42.8709 73.0282 43.8506 76.2623 45.4488 79.2243C45.5893 79.4865 45.5956 79.8292 45.6995 80.2892Z" fill="#C9623E"/>
<path d="M35.1845 90.9727C33.3094 91.9135 31.6714 93.0362 29.8902 94.1206C29.6167 92.3418 29.3682 90.7298 29.094 88.9462C31.3228 89.0506 33.4093 89.1165 35.1845 90.9727Z" fill="#A4AEEF"/>
<path d="M135.399 57.1957C136.545 58.6658 137.203 60.1504 138.17 61.5997C136.272 61.464 135.641 62.0693 135.609 63.9075C135.591 64.9044 135.662 65.9045 135.52 66.9281C134.846 65.3321 133.692 63.952 134.305 61.9421C134.749 60.4994 134.886 58.9387 135.399 57.1957Z" fill="#9DAAE8"/>
<path d="M149.629 75.1188C150.968 73.1113 152.296 72.4581 153.573 73.0388C155.447 73.889 156.09 74.9422 155.9 77.0703C153.93 76.1083 151.91 75.462 149.629 75.1188Z" fill="#EEE093"/>
<path d="M51.0606 68.8566C50.5756 68.4121 50.5757 67.907 50.5001 67.4376C50.3798 66.68 49.9982 66.3864 49.2724 66.3399C47.9422 66.2566 47.7381 65.9669 47.7548 64.5802C47.7606 64.0533 47.8001 63.5257 47.8288 62.872C48.6482 63.0454 49.1869 63.6273 49.807 64.0182C50.324 64.3431 50.8325 64.6852 51.3307 65.047C51.909 65.4678 52.7535 65.6577 52.3576 66.821C52.1217 67.5151 52.1009 68.2754 51.2668 68.4883C51.1732 68.5072 51.1261 68.7315 51.0606 68.8566Z" fill="#EEE093"/>
<path d="M53.6064 80.1373C53.9986 77.9174 54.4406 75.8639 55.2915 73.9044C56.4878 74.2788 57.395 75.0227 58.4995 75.8356C57.3136 76.7078 56.7147 78.119 55.194 78.4132C54.4739 78.5534 54.3257 79.6139 53.6064 80.1373Z" fill="#EEE093"/>
<path d="M47.5903 82.8262C46.5232 79.8946 45.9306 76.8713 45.5492 73.7954C45.4624 73.0865 45.7161 72.8141 46.339 72.8023C47.2014 72.7885 47.4923 72.9996 47.464 73.8201C47.3586 76.8226 47.5159 79.8175 47.5903 82.8262Z" fill="#9DAAE8"/>
<path d="M46.0107 71.6476C45.2637 70.1416 44.7615 68.575 44.4382 66.9904C44.2157 65.9041 44.9971 65.4517 45.9727 65.9597C46.5538 66.2617 47.1163 66.6102 47.6809 66.9538C48.1131 67.2174 48.2598 67.8292 47.9066 67.9963C46.6519 68.5916 46.83 69.8973 46.4977 70.9531C46.4346 71.1511 46.4413 71.3769 46.0107 71.6476Z" fill="#C9623E"/>
<path d="M139.748 89.1275C140.318 90.7095 140.786 92.0485 141.287 93.372C141.512 93.9629 141.217 94.2746 140.857 94.5877C140.482 94.9154 140.154 95.3933 139.565 95.0768C138.949 94.7438 138.338 94.3964 137.665 94.0235C138.345 92.4242 138.996 90.8932 139.748 89.1275Z" fill="#9DAAE8"/>
<path d="M147.383 76.4088C149.449 75.8618 151.355 76.4293 153.204 77.1138C155.257 77.8743 157.254 78.8243 159.509 79.791C158.932 80.138 158.578 79.9562 158.245 79.8419C156.397 79.2152 154.558 78.5643 152.707 77.9498C151.285 77.4793 149.87 76.9604 148.369 76.8514C148.051 76.8285 147.717 76.7552 147.383 76.4088Z" fill="#E6D98D"/>
<path d="M44.264 73.8715C43.2674 71.2796 42.5126 68.6733 41.8445 66.0411C41.7173 65.5398 41.4576 65.0386 41.6425 64.2759C43.0139 65.5834 43.2572 67.3818 43.9148 68.9363C44.5891 70.5319 44.9347 72.1482 44.264 73.8715Z" fill="#E6D98D"/>
<path d="M138.845 62.746C139.159 62.0424 139.213 61.4655 139.254 60.8401C139.374 58.9739 139.968 57.1884 140.518 55.4135C140.599 55.1543 140.742 54.9231 141.049 54.9755C141.418 55.0387 141.542 55.3474 141.517 55.6832C141.481 56.1626 141.399 56.6406 141.293 57.1067C140.929 58.7177 140.546 60.3217 140.166 61.9281C139.995 62.658 139.99 62.6556 138.845 62.746Z" fill="#E6D98D"/>
<path d="M38.5058 82.6622C36.3904 83.1264 34.5742 82.7043 32.7815 82.0108C32.5336 81.914 32.4432 81.6713 32.4934 81.3535C32.6832 80.1741 33.3962 79.7225 34.3668 80.2505C35.6981 80.9723 37.0828 81.5938 38.5058 82.6622Z" fill="#C9623E"/>
<path d="M41.9648 95.4119C41.8177 96.1567 41.3419 96.5684 40.9803 97.0555C40.5157 97.6828 39.4834 97.8897 38.8752 97.5379C38.3679 97.2447 38.2263 96.4547 38.5537 95.5196C38.6727 95.1804 38.8556 94.8591 39.0503 94.562C39.3414 94.1199 39.6983 93.9796 40.1846 94.3119C40.7648 94.7079 41.3767 95.0524 41.9648 95.4119Z" fill="#C9623E"/>
<path d="M42.6387 82.0067C41.5471 81.9478 40.5103 82.007 39.3721 81.8933C39.8331 80.7894 39.3341 80.054 38.7003 79.2968C38.2133 78.7165 37.8037 78.0302 37.6786 76.9742C38.7822 77.7684 39.5177 78.6861 40.3196 79.5177C41.1037 80.3374 41.8658 81.177 42.6387 82.0067Z" fill="#BB5C3A"/>
<path d="M145.905 66.1207C146.029 64.7307 146.409 63.7045 147.198 62.8327C147.812 62.1561 148.321 61.3699 148.887 60.6408C149.105 60.36 149.384 60.3182 149.669 60.5431C149.973 60.7845 149.957 61.1172 149.763 61.3829C148.6 62.9776 147.86 64.9788 145.905 66.1207Z" fill="#E6D98D"/>
<path d="M41.7992 76.4248C40.8737 75.8694 40.2651 75.2567 39.6782 74.634C38.4655 73.3479 38.1728 73.6622 39.2164 71.4186C40.6819 72.6949 41.1176 74.4966 41.7992 76.4248Z" fill="#E6D98D"/>
<path d="M151.837 69.4531C151.844 69.6652 151.7 69.7258 151.556 69.7237C149.714 69.708 147.872 69.6921 146.059 70.093C145.553 70.2064 145.063 70.1143 144.76 69.5532C144.593 69.2453 144.599 68.946 144.761 68.6463C144.943 68.3076 145.192 68.286 145.517 68.4269C147.539 69.3005 149.64 69.4874 151.779 69.3336C151.797 69.3333 151.82 69.4148 151.837 69.4531Z" fill="#9DAAE8"/>
<path d="M126.592 65.2464C126.704 64.6514 127.079 64.4385 127.32 64.1193C127.57 63.7879 127.884 63.7165 128.239 63.9395C129.253 64.5755 130.374 65.0184 131.258 65.9932C129.708 65.745 128.158 65.4967 126.592 65.2464Z" fill="#E6D98D"/>
<path d="M146.682 92.8501C146.168 92.0866 145.737 91.4428 145.179 90.6121C146.376 90.9332 147.089 90.5605 147.248 89.2017C147.815 89.8163 148.263 90.3023 148.793 90.8763C148.159 91.6187 147.496 92.2063 146.682 92.8501Z" fill="#E6D98D"/>
<path d="M49.6467 73.0193C49.3002 72.8338 48.8479 72.6966 48.8658 72.1928C48.9156 70.6256 49.0216 69.0646 49.1136 67.3359C50.6064 69.6591 50.6854 70.6864 49.6467 73.0193Z" fill="#E6D98D"/>
<path d="M48.6463 81.6066C48.3783 79.3151 48.3679 77.0162 48.4266 74.716C48.436 74.3704 48.3485 73.9293 48.8291 73.8253C49.2877 73.7289 49.5863 74.1076 49.4768 74.7641C49.1053 77.0241 49.0261 79.3247 48.7736 81.5993L48.6463 81.6066Z" fill="#E6D98D"/>
<path d="M55.5721 79.7141C55.5923 80.6414 54.826 82.3637 53.2439 84.9567C52.8368 83.9835 54.1243 81.0854 55.5721 79.7141Z" fill="#BB5C3A"/>
<path d="M37.6213 84.0659C37.5118 85.4875 36.1288 85.4514 35.6812 86.6879C35.568 86.2243 35.5028 86.0775 35.5027 85.9343C35.4999 83.5711 35.292 83.597 37.6213 84.0659Z" fill="#BB5C3A"/>
<path d="M37.761 71.9522C37.0904 71.0886 36.56 70.1955 36.2159 69.0923C38.1265 69.5237 39.0575 70.0472 37.761 71.9522Z" fill="#BB5C3A"/>
<path d="M27.0027 78.2019C27.5275 77.9149 28.0016 77.6557 28.564 77.351C28.855 78.1948 28.491 78.8135 28.3024 79.5817C27.6706 79.2519 27.2116 78.9259 27.0027 78.2019Z" fill="#BB5C3A"/>
<path d="M38.9553 89.9503C38.6912 90.6121 38.5081 90.9815 38.3948 91.3762C38.1967 92.0682 37.8342 91.9614 37.4026 91.6549C37.2008 91.511 36.9485 91.4068 36.9275 91.0995C36.8986 90.6857 37.2079 90.6022 37.4782 90.4976C37.8816 90.3395 38.288 90.1959 38.9553 89.9503Z" fill="#BB5C3A"/>
<path d="M35.5719 89.8021C33.8942 88.7658 33.8866 88.7417 34.8227 87.7226C35.2699 88.2531 35.3451 88.9295 35.5719 89.8021Z" fill="#BB5C3A"/>
<path d="M46.5878 97.7418C46.8393 98.2571 47.0973 98.7674 47.3445 99.2852C47.5961 99.8128 47.1995 99.9564 46.894 100.079C46.4692 100.25 46.4002 99.9088 46.387 99.5566C46.3663 98.9663 46.3501 98.3784 46.3315 97.7881C46.4186 97.7718 46.5033 97.7556 46.5878 97.7418Z" fill="#E6D98D"/>
<path d="M57.191 70.3322C57.7325 68.5864 57.7325 68.5864 58.6292 69.3347C58.2561 69.8122 57.8019 70.1361 57.191 70.3322Z" fill="#E6D98D"/>
<path d="M130.416 63.978C129.89 63.8232 129.541 63.6139 129.238 63.3236C128.914 63.0119 129.129 62.6969 129.317 62.4844C129.57 62.2003 129.752 62.4881 129.876 62.7138C130.075 63.0718 130.366 63.389 130.416 63.978Z" fill="#BB5C3A"/>
<path d="M47.5113 71.9509C47.2381 71.0173 47.6289 70.3189 47.8254 69.3593C48.1082 70.609 48.0608 70.9601 47.5113 71.9509Z" fill="#E9A38D"/>
<path d="M127.888 62.5625C127.371 62.2571 127.473 61.6338 127.109 61.2015C127.705 60.8817 128.067 61.2775 128.275 61.5963C128.536 61.9941 128.239 62.3324 127.888 62.5625Z" fill="#9DAAE8"/>
<path d="M31.8175 86.8879C31.3323 86.9484 31.1076 86.7199 30.8609 86.5743C30.7007 86.4779 30.5028 86.3192 30.6345 86.0838C30.7281 85.9193 30.8866 85.7537 31.0506 85.6947C31.3057 85.5999 31.3396 85.8977 31.4278 86.0634C31.5472 86.294 31.6491 86.5322 31.8175 86.8879Z" fill="#BB5C3A"/>
<path d="M54.88 66.5871C54.7681 66.8875 54.5228 67.079 54.235 67.1258C54.0856 67.1505 54.089 66.9105 54.1157 66.7597C54.1647 66.4629 54.3181 66.2732 54.6126 66.2966C54.7388 66.3111 54.9211 66.327 54.88 66.5871Z" fill="#9DAAE8"/>
<path d="M145.544 88.2563C145.716 88.6293 146.058 88.9019 146.132 89.4563C145.432 89.2931 145.395 88.5482 145.028 88.1594C145.202 88.1925 145.373 88.2232 145.544 88.2563Z" fill="#BB5C3A"/>
<path d="M151.165 62.7258C150.718 62.6545 150.496 63.2763 150.023 63.1475C150.567 62.0522 150.567 62.0522 151.165 62.7403C151.163 62.7427 151.165 62.7258 151.165 62.7258Z" fill="#E9A38D"/>
<path d="M145.545 88.2517C145.374 88.221 145.203 88.188 145.031 88.155C144.888 88.0074 144.684 87.8221 144.783 87.6307C144.934 87.3439 145.11 87.61 145.222 87.734C145.354 87.8792 145.439 88.0766 145.545 88.2517Z" fill="#1D1818"/>
<path d="M48.6421 81.607C48.6421 81.607 48.7698 81.5997 48.7702 81.6021C48.779 81.899 48.7881 82.1958 48.8038 82.7067C48.6107 82.2114 48.5728 81.9151 48.6421 81.607Z" fill="#BB5C3A"/>
<path d="M137.689 55.1117C137.662 55.3278 137.508 55.4302 137.346 55.4625C137.266 55.4785 137.236 55.3314 137.307 55.2306C137.389 55.1152 137.479 55.0068 137.566 54.896C137.608 54.9679 137.649 55.0398 137.689 55.1117Z" fill="#9DAAE8"/>
<path d="M48.113 89.5637C47.9481 89.6105 47.7815 89.6572 47.6169 89.7039C47.6883 89.4753 47.7677 89.2198 48.0305 89.2341C48.1791 89.2384 48.1892 89.4219 48.113 89.5637Z" fill="#1D1818"/>
<path d="M146.472 62.136C146.472 62.1481 146.336 62.3085 146.163 62.3895C146.112 62.4148 145.848 62.3375 145.898 62.1423C145.945 61.9546 146.082 61.7941 146.179 61.6223C146.277 61.7126 146.458 61.7091 146.472 62.136Z" fill="white"/>
<path d="M147.123 60.502C147.088 60.5778 147.054 60.6488 147.023 60.7173C146.99 60.6816 146.924 60.6393 146.93 60.6125C146.943 60.537 146.983 60.4683 147.015 60.395C147.047 60.4307 147.082 60.464 147.123 60.502Z" fill="white"/>
<path d="M85.2659 102.795C84.7232 103.518 84.0839 104.163 83.3977 104.747C80.7228 107.021 77.7249 107.089 74.8981 104.908C72.439 103.013 71.0726 100.39 70.5642 97.2358C70.1483 94.6543 70.2991 92.1152 70.9646 89.6048C71.895 86.0912 74.2194 84.3866 77.3964 83.867C79.9592 83.4465 82.3259 84.195 84.4787 85.7859C84.8487 86.0572 85.2035 86.3531 85.5992 86.6627C85.8405 86.3359 86.0534 86.0507 86.2664 85.7632C91.6325 78.4716 100.899 79.9773 104.224 88.6817C106.563 94.8084 104.758 102.314 100.049 106.034C95.552 109.588 89.7412 108.701 86.2131 103.935C85.9364 103.562 85.7818 103.076 85.2659 102.795ZM84.52 95.4554C84.6064 97.9847 85.1078 99.923 86.2009 101.912C89.4529 107.822 96.058 108.83 100.531 104.102C104.472 99.9336 105.349 92.8869 102.579 87.626C99.3061 81.406 92.3712 80.3903 87.8788 85.509C85.4595 88.2715 84.4079 91.6373 84.52 95.4554ZM78.8361 84.8273C75.1186 84.9287 72.7256 86.9592 71.849 90.4645C71.1201 93.3806 71.1801 96.2791 72.1176 99.1604C72.8014 101.267 74.0044 102.978 75.7473 104.162C77.3551 105.255 79.1147 105.913 80.9771 105.056C82.2603 104.467 83.3087 103.485 84.2145 102.338C84.6292 101.817 84.7262 101.335 84.4584 100.606C82.97 96.5511 83.0986 92.5203 84.7156 88.5937C85.0159 87.8659 84.9392 87.4314 84.359 86.9655C82.616 85.558 80.6603 84.8912 78.8361 84.8273Z" fill="#141114"/>
<path d="M90.9875 131.517C90.3068 131.557 89.8806 131.347 89.8222 130.563C89.5184 126.344 88.2884 122.352 87.0561 118.363C86.6262 116.975 86.265 115.556 84.7698 115.017C84.7244 115.001 84.6893 114.953 84.6499 114.92C84.4077 114.711 84.1558 114.467 84.3533 114.118C84.5509 113.77 84.852 113.861 85.1258 114.069C85.8958 114.656 86.7808 114.762 87.6772 114.878C89.799 115.152 91.8205 114.805 93.8159 114.057C97.1774 112.801 100.091 110.732 102.909 108.472C103.382 108.092 103.865 107.719 104.381 107.41C104.629 107.262 104.979 107.255 105.193 107.564C105.362 107.81 105.254 108.067 105.122 108.307C103.533 111.185 103.496 114.412 103.488 117.64C103.485 119.09 103.546 120.539 103.554 121.989C103.562 123.293 103.278 124.53 102.831 125.733C101.957 128.09 100.392 129.524 98.0707 130.06C95.7994 130.584 93.4284 130.589 91.2288 131.478C91.1425 131.516 91.0366 131.511 90.9875 131.517ZM87.4021 115.97C87.928 117.703 88.4279 119.17 88.8028 120.674C88.9902 121.427 89.3377 121.556 89.9674 121.534C91.0654 121.495 92.1406 121.302 93.2134 121.102C96.2174 120.536 99.0432 119.455 101.619 117.695C102.025 117.416 102.514 117.193 102.507 116.534C102.483 114.23 102.757 111.972 103.488 109.467C98.5427 113.269 93.7227 116.567 87.4021 115.97ZM102.486 119.061C100.613 120.649 99.2833 122.298 98.6069 124.518C98.2571 125.667 98.0187 125.71 97.166 124.999C97.0072 124.866 96.8717 124.704 96.7129 124.574C95.5171 123.583 94.5181 123.623 93.355 124.659C91.7709 126.07 91.1316 127.916 91.1357 130.103C91.888 130.343 92.4597 129.895 93.0851 129.81C94.6062 129.601 96.1211 129.336 97.6332 129.054C99.899 128.634 101.333 127.171 102.045 124.848C102.594 123.053 102.668 121.208 102.486 119.061Z" fill="#0D0A0B"/>
<path d="M107.195 106.244C106.476 106.088 105.681 105.985 105.303 105.024C104.929 104.074 105.26 103.396 105.861 102.733C106.96 101.522 108.383 101.16 109.783 101.803C110.733 102.241 111.014 102.979 110.618 104.014C110.164 105.207 108.598 106.25 107.195 106.244Z" fill="#E9A38D"/>
<path d="M82.2503 113.175C81.7434 113.18 81.231 113.161 80.9898 112.562C80.7268 111.909 81.0459 111.423 81.4757 111.034C82.0646 110.505 82.7372 110.269 83.5241 110.527C84.497 110.847 84.6954 111.65 83.9841 112.439C83.5807 112.885 82.9164 113.167 82.2503 113.175Z" fill="#E9A38D"/>
<path d="M68.4461 85.8178C68.0074 85.8457 67.8372 85.6356 67.8171 85.3546C67.8039 85.1609 67.8867 84.9288 67.9937 84.7667C68.2976 84.3072 68.5063 83.675 69.1696 83.7202C69.4393 83.7392 69.6422 84.0579 69.5314 84.3122C69.2637 84.9311 68.926 85.5173 68.4461 85.8178Z" fill="#1D1818"/>
<path d="M84.5323 95.4845C84.4202 91.6594 85.4689 88.2875 87.8909 85.5198C92.378 80.3892 99.309 81.4089 102.583 87.6401C105.351 92.9107 104.475 99.9726 100.537 104.146C96.0662 108.885 89.4629 107.874 86.2147 101.953C85.12 99.9602 84.6189 98.0185 84.5323 95.4845ZM96.8216 93.1109C96.7977 92.9245 96.7769 92.5441 96.6937 92.1816C96.3561 90.7273 95.5972 89.6379 94.2329 89.1914C92.8598 88.7425 91.6929 89.2215 90.7211 90.2647C89.7646 91.2904 89.3527 92.5969 89.36 94.0358C89.3678 96.0572 90.529 97.7429 92.1281 98.1775C93.7528 98.6194 95.3862 97.7232 96.2803 95.9222C96.6849 95.099 96.8477 94.2245 96.8216 93.1109Z" fill="#FBFCFC"/>
<path d="M78.8285 84.7562C80.6492 84.8202 82.6055 85.4885 84.3472 86.899C84.9274 87.3684 85.0037 87.8015 84.7036 88.5309C83.0879 92.4664 82.9595 96.5063 84.4469 100.571C84.7145 101.301 84.6175 101.784 84.2032 102.306C83.2981 103.456 82.2479 104.44 80.9683 105.031C79.1053 105.89 77.3468 105.232 75.7425 104.135C74.0004 102.945 72.8008 101.233 72.1153 99.1217C71.1785 96.234 71.1185 93.329 71.8468 90.4062C72.7228 86.8905 75.116 84.8554 78.8285 84.7562ZM81.3462 96.8196C81.3178 95.5675 80.5825 94.7223 79.5174 94.7188C78.3152 94.7131 77.367 95.8655 77.4032 97.285C77.4355 98.5325 78.1804 99.3944 79.2323 99.4003C80.4278 99.4063 81.3778 98.2463 81.3462 96.8196Z" fill="#FBFCFC"/>
<path d="M87.4035 115.952C93.7275 116.551 98.5508 113.259 103.499 109.464C102.768 111.963 102.493 114.216 102.517 116.514C102.524 117.175 102.037 117.397 101.628 117.674C99.0509 119.429 96.2229 120.507 93.2172 121.071C92.144 121.274 91.0683 121.464 89.9696 121.502C89.3395 121.523 88.9919 121.395 88.8045 120.644C88.4294 119.146 87.9296 117.68 87.4035 115.952ZM97.4424 118.248C97.6717 118.19 97.8353 118.187 97.9566 118.11C98.8937 117.511 99.709 116.743 100.513 115.963C100.674 115.807 100.671 115.57 100.532 115.384C100.355 115.146 100.092 115.081 99.8705 115.252C99.3099 115.683 98.7677 116.144 98.2325 116.609C97.8325 116.958 97.4635 117.285 96.9445 116.772C96.5852 116.416 96.1987 116.54 95.8645 116.832C95.3292 117.302 94.7988 117.776 94.285 118.273C94.0258 118.524 93.7692 118.856 94.0619 119.238C94.4037 119.684 94.654 119.299 94.9159 119.066C95.6718 118.403 96.2709 117.194 97.4424 118.248Z" fill="#F5F7F7"/>
<path d="M102.482 119.09C102.664 121.235 102.59 123.077 102.039 124.87C101.324 127.19 99.8915 128.651 97.6243 129.071C96.1118 129.35 94.5963 129.614 93.0745 129.825C92.4492 129.912 91.8774 130.357 91.1248 130.117C91.1208 127.933 91.7584 126.09 93.3453 124.681C94.5084 123.646 95.5103 123.607 96.704 124.596C96.8633 124.726 97.0009 124.888 97.1576 125.021C98.0102 125.728 98.2491 125.687 98.5986 124.54C99.2781 122.32 100.609 120.674 102.482 119.09Z" fill="#CE6440"/>
<path d="M96.8218 93.1015C96.8458 94.2148 96.685 95.0894 96.278 95.9101C95.3864 97.7111 93.7504 98.607 92.1261 98.1652C90.529 97.7307 89.3677 96.0475 89.3575 94.0238C89.3501 92.5851 89.7621 91.2788 90.7186 90.2531C91.6908 89.2124 92.8574 88.731 94.2309 89.1798C95.5974 89.6263 96.3563 90.7156 96.6915 92.1698C96.7792 92.5346 96.7979 92.9128 96.8218 93.1015ZM93.3176 93.3521C93.7638 93.2826 94.2608 93.2608 94.723 93.1159C95.2625 92.9477 95.3273 92.512 94.9422 92.0318C94.2556 91.174 92.8677 91.189 92.2203 92.0606C91.7964 92.6319 91.9948 93.1595 92.6924 93.3011C92.8843 93.3411 93.0836 93.3348 93.3176 93.3521ZM93.8611 96.3554C94.4583 96.385 95.6666 94.8009 95.5215 94.1873C95.4618 93.9336 95.2845 93.8572 95.0926 93.8172C94.4717 93.6861 93.4838 94.2927 93.2903 94.9105C93.1051 95.506 93.432 96.3347 93.8611 96.3554Z" fill="#0D0A0B"/>
<path d="M81.3454 96.8284C81.3771 98.2545 80.4268 99.4133 79.2311 99.4051C78.1763 99.3991 77.4337 98.5402 77.401 97.2913C77.3631 95.8725 78.3111 94.721 79.5161 94.7266C80.5793 94.7325 81.3148 95.577 81.3454 96.8284ZM78.7908 98.4624C79.1685 98.499 79.3248 98.2676 79.3279 97.9982C79.3315 97.474 79.3638 96.872 78.726 96.6974C78.373 96.6 78.117 96.8791 78.1229 97.2115C78.131 97.75 78.2821 98.2713 78.7908 98.4624ZM80.0796 96.0987C79.7562 96.0878 79.5981 96.2656 79.5376 96.5531C79.4465 96.9963 79.6181 97.3205 80.0239 97.3853C80.3171 97.4331 80.4405 97.1518 80.4355 96.8581C80.4301 96.5379 80.4414 96.1956 80.0796 96.0987Z" fill="#1D1818"/>
<path d="M97.4407 118.263C96.2691 117.211 95.6698 118.418 94.9161 119.086C94.652 119.318 94.4037 119.702 94.062 119.257C93.7671 118.876 94.0238 118.544 94.2851 118.293C94.797 117.797 95.3298 117.321 95.8651 116.853C96.1994 116.559 96.5864 116.438 96.9453 116.794C97.4644 117.306 97.8313 116.98 98.2336 116.631C98.7685 116.164 99.3112 115.707 99.872 115.275C100.094 115.105 100.356 115.167 100.534 115.408C100.675 115.594 100.675 115.83 100.514 115.986C99.7079 116.763 98.8926 117.532 97.9574 118.13C97.8337 118.203 97.6701 118.206 97.4407 118.263Z" fill="#1D1818"/>
<path d="M93.3198 93.3478C93.0836 93.3304 92.8859 93.3346 92.6941 93.2969C91.996 93.1556 91.7997 92.6295 92.2219 92.0599C92.8677 91.1909 94.2567 91.1761 94.9459 92.0314C95.3312 92.5104 95.2663 92.9448 94.7264 93.1125C94.2638 93.257 93.7664 93.2786 93.3198 93.3478Z" fill="#F5F7F7"/>
<path d="M93.8609 96.3654C93.4317 96.3447 93.1047 95.5167 93.2924 94.9239C93.4859 94.3066 94.474 93.7005 95.0951 93.8315C95.2871 93.8714 95.4644 93.9478 95.5242 94.2013C95.667 94.8098 94.4583 96.3949 93.8609 96.3654Z" fill="#F5F7F7"/>
<path d="M78.7891 98.4615C78.2806 98.2702 78.1296 97.7483 78.1194 97.2092C78.1136 96.877 78.369 96.5972 78.722 96.6951C79.3597 96.8718 79.3272 97.4725 79.3236 97.9972C79.3254 98.2689 79.1667 98.4981 78.7891 98.4615Z" fill="#F5F7F7"/>
<path d="M80.0807 96.1C80.4425 96.197 80.4332 96.5419 80.4367 96.8575C80.4412 97.151 80.3178 97.4329 80.0251 97.3851C79.6194 97.3202 79.4453 96.9984 79.539 96.5524C79.5969 96.2647 79.7574 96.0891 80.0807 96.1Z" fill="#F5F7F7"/>
</g>
<g style="mix-blend-mode:soft-light">
<g style="mix-blend-mode:overlay">
<path d="M55.1988 45.2155L54.0422 42.8732H54.2963C54.372 42.8725 54.4462 42.8511 54.5108 42.8111C54.5754 42.7711 54.6281 42.714 54.6632 42.646C54.7042 42.5701 54.7252 42.4847 54.7242 42.3981C54.7232 42.3116 54.7002 42.2267 54.6574 42.1518L53.6134 40.0239H53.7927C53.8684 40.0232 53.9426 40.0017 54.0073 39.9617C54.0719 39.9217 54.1246 39.8646 54.1596 39.7966C54.2017 39.7183 54.2226 39.6302 54.22 39.5411C54.2175 39.452 54.1917 39.3652 54.1452 39.2895L52.795 37.1741H52.8263C52.902 37.1735 52.9762 37.152 53.0408 37.112C53.1055 37.072 53.1582 37.015 53.1932 36.947C53.2352 36.8698 53.2563 36.7828 53.2545 36.6947C53.2527 36.6067 53.228 36.5206 53.1829 36.4453L51.9145 34.3247C51.9836 34.3234 52.0509 34.3026 52.1089 34.2646C52.1669 34.2266 52.2132 34.173 52.2427 34.1098C52.2765 34.0411 52.2912 33.9643 52.2852 33.8878C52.2793 33.8113 52.2529 33.7378 52.209 33.6752L50.9277 31.6945C50.8909 31.6353 50.8399 31.5864 50.7794 31.5526C50.7189 31.5187 50.6509 31.5009 50.5818 31.5009C50.5126 31.5009 50.4446 31.5187 50.3841 31.5526C50.3236 31.5864 50.2726 31.6353 50.2359 31.6945L48.9546 33.6752C48.9103 33.7377 48.8837 33.8111 48.8775 33.8877C48.8713 33.9643 48.8858 34.0412 48.9194 34.1101C48.9489 34.1733 48.9952 34.2269 49.0532 34.2649C49.1112 34.3029 49.1785 34.3237 49.2476 34.325L48.646 35.3316L47.6133 33.9895C47.5743 33.9387 47.553 33.8762 47.5529 33.8119V33.5576C47.5526 33.3651 47.4768 33.1805 47.3422 33.0443C47.2077 32.9082 47.0253 32.8316 46.835 32.8314H45.4864C45.2962 32.8316 45.1138 32.9082 44.9792 33.0443C44.8447 33.1805 44.7689 33.3651 44.7686 33.5576V33.8116C44.7685 33.8759 44.7474 33.9383 44.7084 33.989L43.6189 35.4053L42.9725 34.325C43.0415 34.3237 43.1088 34.3029 43.1668 34.2649C43.2247 34.227 43.2711 34.1734 43.3005 34.1102C43.3342 34.0413 43.3486 33.9644 43.3424 33.8878C43.3363 33.8112 43.3096 33.7377 43.2654 33.6752L41.9841 31.6945C41.9473 31.6351 41.8963 31.5861 41.8357 31.5521C41.7752 31.5182 41.707 31.5004 41.6378 31.5004C41.5686 31.5004 41.5005 31.5182 41.4399 31.5521C41.3793 31.5861 41.3283 31.6351 41.2915 31.6945L40.0102 33.6752C39.966 33.7377 39.9394 33.8112 39.9332 33.8878C39.927 33.9644 39.9414 34.0413 39.9751 34.1102C40.0046 34.1735 40.0511 34.2272 40.1092 34.2651C40.1674 34.3031 40.2348 34.3238 40.304 34.325L40.0517 34.7469C39.8861 34.7608 39.7315 34.8371 39.6188 34.9607C39.506 35.0844 39.4431 35.2463 39.4427 35.4146V35.7656L39.0391 36.4418C38.9931 36.5174 38.9678 36.604 38.9655 36.6928C38.9633 36.7816 38.9843 36.8694 39.0264 36.9473C39.0615 37.0153 39.1142 37.0723 39.1788 37.1123C39.2434 37.1523 39.3176 37.1738 39.3934 37.1744H39.4246L38.072 39.291C38.026 39.3665 38.0006 39.4531 37.9983 39.5419C37.9961 39.6307 38.0171 39.7184 38.0593 39.7963C38.0943 39.8644 38.1469 39.9215 38.2116 39.9615C38.2763 40.0016 38.3505 40.023 38.4263 40.0236H38.6054L37.5615 42.1518C37.5186 42.2268 37.4955 42.3116 37.4945 42.3983C37.4934 42.4849 37.5145 42.5703 37.5556 42.6463C37.5907 42.7143 37.6433 42.7713 37.708 42.8114C37.7726 42.8514 37.8468 42.8728 37.9225 42.8735H38.2202L37.0635 45.2155C37.0173 45.2957 36.9924 45.3865 36.991 45.4792C36.9897 45.572 37.012 45.6635 37.0559 45.745C37.0932 45.8176 37.1493 45.8786 37.2183 45.9214C37.2873 45.9642 37.3664 45.9872 37.4473 45.9879H40.2627V47.4054C40.2629 47.5612 40.3242 47.7106 40.433 47.8207C40.5418 47.9309 40.6894 47.9929 40.8433 47.9931H51.4693C51.6232 47.9929 51.7708 47.9309 51.8796 47.8207C51.9884 47.7106 52.0497 47.5612 52.0499 47.4054V45.9879H54.8151C54.896 45.9872 54.9752 45.9642 55.0441 45.9214C55.1131 45.8786 55.1692 45.8176 55.2064 45.745C55.2503 45.6635 55.2727 45.572 55.2714 45.4792C55.27 45.3865 55.245 45.2956 55.1988 45.2155V45.2155ZM41.6379 31.9583L42.8857 33.8873H42.6831C42.6361 33.8875 42.5899 33.9004 42.5494 33.9245C42.5089 33.9487 42.4754 33.9833 42.4525 34.0249C42.4283 34.0683 42.416 34.1174 42.4167 34.1671C42.4175 34.2169 42.4313 34.2656 42.4567 34.3082L43.3338 35.7751L42.1504 37.312V37.009C42.2815 36.964 42.3955 36.8787 42.4764 36.7649C42.5572 36.6511 42.6009 36.5146 42.6014 36.3744V35.4146C42.6012 35.236 42.531 35.0648 42.4063 34.9385C42.2815 34.8123 42.1124 34.7412 41.9359 34.7411H40.5598L40.8192 34.3082C40.8446 34.2655 40.8584 34.2167 40.859 34.1668C40.8596 34.117 40.8471 34.0678 40.8228 34.0245C40.7999 33.9829 40.7664 33.9483 40.7259 33.9241C40.6854 33.8999 40.6393 33.8871 40.5922 33.8869H40.3904L41.6379 31.9583ZM39.8743 35.4146C39.8744 35.3521 39.899 35.2921 39.9427 35.2479C39.9864 35.2037 40.0456 35.1788 40.1074 35.1787H41.9359C41.9977 35.1788 42.057 35.2037 42.1006 35.2479C42.1443 35.2921 42.1689 35.3521 42.169 35.4146V36.3744C42.1689 36.437 42.1444 36.497 42.1007 36.5412C42.057 36.5855 41.9977 36.6104 41.9359 36.6104H40.1074C40.0456 36.6104 39.9863 36.5855 39.9426 36.5412C39.8989 36.497 39.8744 36.437 39.8743 36.3744V35.4146ZM41.718 37.0485V37.8741L40.3252 39.6831V37.0481L41.718 37.0485ZM39.4039 36.7368C39.3989 36.7267 39.3964 36.7156 39.3966 36.7043C39.3969 36.693 39.3999 36.682 39.4053 36.6722L39.4713 36.5616C39.4886 36.6233 39.5144 36.6823 39.5482 36.7366L39.4039 36.7368ZM40.2627 45.5502H37.4478C37.437 45.5406 37.4297 45.5277 37.4269 45.5134C37.4232 45.5012 37.422 45.4883 37.4234 45.4756C37.4248 45.4629 37.4288 45.4506 37.4351 45.4395C37.439 45.4331 37.4427 45.4265 37.446 45.4196L38.7634 42.752C38.7799 42.7186 38.7876 42.6815 38.786 42.6442C38.7843 42.607 38.7733 42.5707 38.7539 42.539C38.7345 42.5073 38.7075 42.4811 38.6753 42.4629C38.6431 42.4448 38.6068 42.4352 38.57 42.4352H37.9345C37.9296 42.4259 37.927 42.4156 37.9268 42.405C37.9266 42.3945 37.9289 42.384 37.9335 42.3745C37.9375 42.3681 37.9412 42.3615 37.9444 42.3547L39.1063 39.987C39.1271 39.9441 39.1368 39.8965 39.1345 39.8488C39.1323 39.8011 39.1181 39.7547 39.0933 39.714C39.0698 39.675 39.0368 39.6428 38.9975 39.6204C38.9582 39.598 38.9138 39.5862 38.8687 39.5862H38.4382C38.4333 39.5772 38.4306 39.5672 38.4302 39.5569C38.4298 39.5466 38.4318 39.5364 38.4361 39.527L39.8928 37.2452V40.2448L39.0578 41.3294C38.9925 41.4166 38.9525 41.5204 38.9423 41.6293C38.9321 41.7383 38.9522 41.8479 39.0002 41.9459C39.0483 42.0439 39.1224 42.1263 39.2143 42.184C39.3062 42.2416 39.4121 42.2722 39.5202 42.2721H40.2627V45.5502ZM51.6181 47.4054C51.618 47.4452 51.6024 47.4833 51.5746 47.5114C51.5468 47.5396 51.5092 47.5554 51.4699 47.5554H40.8433C40.804 47.5554 40.7663 47.5396 40.7386 47.5114C40.7108 47.4833 40.6952 47.4452 40.6951 47.4054V47.1549H51.6181V47.4054ZM40.6957 46.7173V44.915H41.4714V46.7173H40.6957ZM41.9038 46.7173V44.915H42.6377V46.7173H41.9038ZM43.0701 46.7173V44.915H43.8598V46.7173H43.0701ZM44.2921 46.7173V44.1636C44.29 43.9138 44.3367 43.666 44.4296 43.4347C44.5226 43.2033 44.6599 42.9928 44.8336 42.8154C45.0073 42.638 45.214 42.4972 45.4418 42.4011C45.6696 42.305 45.9139 42.2555 46.1607 42.2555C46.4075 42.2555 46.6518 42.305 46.8796 42.4011C47.1074 42.4972 47.3141 42.638 47.4878 42.8154C47.6615 42.9928 47.7988 43.2033 47.8918 43.4347C47.9847 43.666 48.0314 43.9138 48.0293 44.1636V46.7166L44.2921 46.7173ZM48.4616 46.7173V44.915H49.2435V46.7173H48.4616ZM49.6759 46.7173V44.915H50.41V46.7173H49.6759ZM51.6181 46.7173H50.8418V44.915H51.6181V46.7173ZM51.6181 44.4774H48.4616V44.1636C48.464 43.8562 48.4063 43.5513 48.2917 43.2666C48.1772 42.9819 48.0081 42.723 47.7942 42.5047C47.5803 42.2865 47.3258 42.1133 47.0455 41.9951C46.7651 41.8769 46.4644 41.816 46.1607 41.816C45.857 41.816 45.5563 41.8769 45.2759 41.9951C44.9956 42.1133 44.7411 42.2865 44.5272 42.5047C44.3133 42.723 44.1442 42.9819 44.0297 43.2666C43.9151 43.5513 43.8574 43.8562 43.8598 44.1636V44.4774H40.6951V42.1264L41.1119 41.5646H51.2001L51.6169 42.1264L51.6181 44.4774ZM50.6534 40.827L50.8759 41.1269H41.4367L41.6588 40.827H50.6534ZM41.9839 40.3893L45.916 35.0894C45.9451 35.0533 45.9817 35.0242 46.0233 35.0042C46.0648 34.9842 46.1103 34.9738 46.1563 34.9738C46.2023 34.9738 46.2478 34.9842 46.2893 35.0042C46.3309 35.0242 46.3675 35.0533 46.3966 35.0894L50.3287 40.3893H41.9839ZM51.9418 41.8345L46.7422 34.8268C46.6739 34.7348 46.5854 34.6602 46.4838 34.6088C46.3821 34.5574 46.27 34.5306 46.1563 34.5306C46.0426 34.5306 45.9305 34.5574 45.8288 34.6088C45.7272 34.6602 45.6387 34.7348 45.5704 34.8268L40.371 41.8345H39.5206C39.4933 41.8345 39.4665 41.8268 39.4432 41.8123C39.4199 41.7978 39.401 41.7771 39.3886 41.7524C39.3762 41.7277 39.3708 41.7001 39.373 41.6725C39.3752 41.6449 39.3849 41.6185 39.401 41.5961L45.0494 34.2579C45.1472 34.1301 45.2005 33.9732 45.2009 33.8116V33.5578C45.201 33.4812 45.2311 33.4078 45.2846 33.3536C45.3381 33.2995 45.4106 33.269 45.4863 33.2689H46.8337C46.9094 33.269 46.9819 33.2995 47.0354 33.3536C47.0889 33.4078 47.1191 33.4812 47.1192 33.5578V33.8115C47.1196 33.9732 47.1729 34.1302 47.2709 34.2579L52.9181 41.5939C52.9348 41.6162 52.9449 41.6427 52.9475 41.6705C52.9501 41.6982 52.945 41.7262 52.9327 41.7512C52.9205 41.7762 52.9015 41.7973 52.8781 41.812C52.8547 41.8267 52.8276 41.8345 52.8001 41.8345H51.9418ZM54.8356 45.5137C54.8327 45.5278 54.8255 45.5405 54.8151 45.5502H52.0504V42.2721H52.7999C52.9082 42.2722 53.0144 42.2416 53.1065 42.1837C53.1985 42.1259 53.2727 42.0431 53.3207 41.9448C53.3687 41.8465 53.3885 41.7365 53.378 41.6274C53.3675 41.5183 53.327 41.4143 53.2611 41.3272L48.9293 35.7005L49.7618 34.3082C49.7873 34.2655 49.8011 34.2168 49.8019 34.1669C49.8026 34.117 49.7902 34.0679 49.766 34.0245C49.7431 33.9829 49.7096 33.9483 49.6691 33.9241C49.6286 33.8999 49.5824 33.8871 49.5354 33.8869H49.333L50.5811 31.9578L51.8289 33.8869H51.6263C51.5792 33.8871 51.5331 33.8999 51.4926 33.9241C51.4521 33.9483 51.4186 33.9829 51.3957 34.0245C51.3715 34.0678 51.3592 34.1169 51.3599 34.1667C51.3606 34.2165 51.3744 34.2652 51.3998 34.3078L52.8156 36.6755C52.8202 36.685 52.8225 36.6955 52.8223 36.706C52.8221 36.7166 52.8195 36.727 52.8146 36.7363H52.4961C52.4484 36.7365 52.4016 36.7498 52.3607 36.7746C52.3198 36.7995 52.2862 36.835 52.2636 36.8776C52.2397 36.9219 52.2281 36.9719 52.23 37.0223C52.2319 37.0727 52.2472 37.1217 52.2743 37.1641L53.7814 39.525C53.786 39.5345 53.7883 39.5449 53.7881 39.5555C53.7879 39.5661 53.7852 39.5765 53.7803 39.5858H53.3493C53.3042 39.5858 53.2598 39.5976 53.2205 39.6199C53.1811 39.6423 53.1481 39.6746 53.1246 39.7136C53.1 39.7543 53.086 39.8007 53.0838 39.8484C53.0816 39.8961 53.0914 39.9436 53.1122 39.9864L54.2743 42.3546C54.2776 42.3614 54.2813 42.368 54.2853 42.3744C54.2899 42.3839 54.2923 42.3943 54.2921 42.4049C54.2919 42.4154 54.2892 42.4258 54.2843 42.4351H53.6924C53.6555 42.4351 53.6193 42.4447 53.5871 42.4628C53.5549 42.481 53.5279 42.5072 53.5085 42.5389C53.4891 42.5707 53.4781 42.6069 53.4765 42.6441C53.4748 42.6814 53.4826 42.7185 53.4991 42.7518L54.8163 45.4195C54.8196 45.4263 54.8233 45.4329 54.8274 45.4393C54.8337 45.4505 54.8376 45.4629 54.839 45.4757C54.8404 45.4885 54.8393 45.5014 54.8356 45.5137V45.5137Z" fill="#F9FAFA"/>
<path d="M44.6544 38.1299C44.6544 38.4305 44.7424 38.7244 44.9074 38.9744C45.0724 39.2244 45.3069 39.4192 45.5813 39.5343C45.8557 39.6493 46.1577 39.6795 46.449 39.6208C46.7403 39.5622 47.0079 39.4174 47.2179 39.2049C47.428 38.9923 47.571 38.7215 47.629 38.4266C47.6869 38.1317 47.6572 37.8261 47.5435 37.5484C47.4299 37.2706 47.2374 37.0332 46.9904 36.8662C46.7435 36.6991 46.4531 36.61 46.1561 36.61C45.758 36.6104 45.3763 36.7707 45.0948 37.0556C44.8133 37.3406 44.6549 37.7269 44.6544 38.1299V38.1299ZM47.2253 38.1299C47.2253 38.3439 47.1626 38.5532 47.0451 38.7312C46.9276 38.9092 46.7606 39.048 46.5652 39.1299C46.3699 39.2118 46.1548 39.2333 45.9474 39.1915C45.74 39.1498 45.5494 39.0467 45.3999 38.8953C45.2503 38.7439 45.1485 38.5511 45.1072 38.3411C45.066 38.1312 45.0872 37.9135 45.1681 37.7158C45.2491 37.518 45.3862 37.349 45.562 37.23C45.7379 37.1111 45.9446 37.0477 46.1561 37.0477C46.4396 37.048 46.7113 37.1621 46.9118 37.365C47.1122 37.5679 47.2249 37.8429 47.2253 38.1299V38.1299Z" fill="#F9FAFA"/>
<path d="M42.8981 42.066H41.8712C41.7374 42.066 41.6091 42.1198 41.5145 42.2155C41.4199 42.3113 41.3667 42.4412 41.3667 42.5766V43.6165C41.3667 43.7519 41.4199 43.8818 41.5145 43.9776C41.6091 44.0734 41.7374 44.1272 41.8712 44.1272H42.8981C43.0319 44.1272 43.1602 44.0734 43.2549 43.9776C43.3495 43.8818 43.4026 43.7519 43.4026 43.6165V42.5766C43.4026 42.4412 43.3495 42.3113 43.2549 42.2155C43.1602 42.1198 43.0319 42.066 42.8981 42.066ZM42.9702 43.6165C42.9702 43.6358 42.9626 43.6544 42.9491 43.6681C42.9356 43.6818 42.9172 43.6894 42.8981 43.6894H41.8712C41.8521 43.6894 41.8338 43.6818 41.8203 43.6681C41.8067 43.6544 41.7992 43.6358 41.7992 43.6165V42.5766C41.7992 42.5573 41.8067 42.5387 41.8203 42.5251C41.8338 42.5114 41.8521 42.5037 41.8712 42.5037H42.8981C42.9172 42.5037 42.9356 42.5114 42.9491 42.5251C42.9626 42.5387 42.9702 42.5573 42.9702 42.5766V43.6165Z" fill="#F9FAFA"/>
<path d="M50.4977 42.066H49.4702C49.3364 42.066 49.2081 42.1198 49.1135 42.2155C49.0189 42.3113 48.9657 42.4412 48.9657 42.5766V43.6165C48.9657 43.7519 49.0189 43.8818 49.1135 43.9776C49.2081 44.0734 49.3364 44.1272 49.4702 44.1272H50.4975C50.6313 44.1272 50.7597 44.0734 50.8543 43.9776C50.9489 43.8818 51.002 43.7519 51.002 43.6165V42.5766C51.002 42.4412 50.9489 42.3114 50.8543 42.2156C50.7597 42.1198 50.6315 42.066 50.4977 42.066ZM50.5697 43.6165C50.5697 43.6358 50.5622 43.6544 50.5486 43.6681C50.5351 43.6818 50.5168 43.6894 50.4977 43.6894H49.4702C49.4511 43.6894 49.4328 43.6818 49.4192 43.6681C49.4057 43.6544 49.3981 43.6358 49.3981 43.6165V42.5766C49.3981 42.5573 49.4057 42.5387 49.4192 42.5251C49.4328 42.5114 49.4511 42.5037 49.4702 42.5037H50.4975C50.5166 42.5037 50.535 42.5114 50.5485 42.5251C50.562 42.5387 50.5696 42.5573 50.5696 42.5766L50.5697 43.6165Z" fill="#F9FAFA"/>
</g>
<g style="mix-blend-mode:overlay">
<path d="M57.2833 39.7425C57.2833 46.0645 52.2224 51.174 45.9986 51.174C39.7748 51.174 34.7139 46.0645 34.7139 39.7425C34.7139 33.4204 39.7748 28.311 45.9986 28.311C52.2224 28.311 57.2833 33.4204 57.2833 39.7425Z" stroke="#F9FAFA" stroke-width="1.5"/>
</g>
</g>
<g filter="url(#filter1_d)">
<path d="M45.3361 48.2532L45.1381 45.9852L46.5241 45.9132C47.4841 45.8532 47.9641 45.3492 47.9641 44.4012V35.3832H50.7541V44.3652C50.7541 46.7412 49.4941 48.0132 46.9741 48.1812L45.3361 48.2532ZM57.667 48.2712C56.623 48.2712 55.723 48.0852 54.967 47.7132C54.223 47.3292 53.647 46.7952 53.239 46.1112C52.843 45.4152 52.645 44.5992 52.645 43.6632C52.645 42.7512 52.837 41.9532 53.221 41.2692C53.617 40.5732 54.151 40.0332 54.823 39.6492C55.507 39.2532 56.293 39.0552 57.181 39.0552C58.465 39.0552 59.485 39.4632 60.241 40.2792C60.997 41.0832 61.375 42.1752 61.375 43.5552V44.2392H55.237C55.333 44.9352 55.585 45.4452 55.993 45.7692C56.413 46.0812 56.989 46.2372 57.721 46.2372C58.201 46.2372 58.687 46.1652 59.179 46.0212C59.671 45.8772 60.115 45.6552 60.511 45.3552L61.231 47.1732C60.787 47.5092 60.241 47.7792 59.593 47.9832C58.957 48.1752 58.315 48.2712 57.667 48.2712ZM57.289 40.8552C56.713 40.8552 56.245 41.0292 55.885 41.3772C55.537 41.7252 55.321 42.2112 55.237 42.8352H59.125C59.053 41.5152 58.441 40.8552 57.289 40.8552ZM66.2499 48.2712C65.1099 48.2712 64.2759 47.9772 63.7479 47.3892C63.2199 46.7892 62.9559 45.9012 62.9559 44.7252V35.3832H65.6739V44.6172C65.6739 45.5772 66.0999 46.0572 66.9519 46.0572C67.0839 46.0572 67.2099 46.0512 67.3299 46.0392C67.4619 46.0272 67.5879 46.0032 67.7079 45.9672L67.6719 48.0732C67.2159 48.2052 66.7419 48.2712 66.2499 48.2712ZM72.244 48.2712C71.104 48.2712 70.27 47.9772 69.742 47.3892C69.214 46.7892 68.95 45.9012 68.95 44.7252V35.3832H71.668V44.6172C71.668 45.5772 72.094 46.0572 72.946 46.0572C73.078 46.0572 73.204 46.0512 73.324 46.0392C73.456 46.0272 73.582 46.0032 73.702 45.9672L73.666 48.0732C73.21 48.2052 72.736 48.2712 72.244 48.2712ZM75.3821 51.3132L77.0741 47.5872L73.4381 39.2352H76.3001L78.5141 44.8512L80.8001 39.2352H83.5001L78.1541 51.3132H75.3821ZM89.5395 48.0732V35.3832H95.3535C96.7095 35.3832 97.7535 35.6772 98.4855 36.2652C99.2295 36.8532 99.6015 37.6572 99.6015 38.6772C99.6015 39.3492 99.4335 39.9312 99.0975 40.4232C98.7615 40.9032 98.2935 41.2632 97.6935 41.5032C98.4135 41.7072 98.9655 42.0672 99.3495 42.5832C99.7455 43.0992 99.9435 43.7352 99.9435 44.4912C99.9435 45.6192 99.5475 46.5012 98.7555 47.1372C97.9755 47.7612 96.9075 48.0732 95.5515 48.0732H89.5395ZM92.2035 40.6032H94.8675C96.2355 40.6032 96.9195 40.0752 96.9195 39.0192C96.9195 37.9752 96.2355 37.4532 94.8675 37.4532H92.2035V40.6032ZM92.2035 46.0032H95.1735C95.8935 46.0032 96.4215 45.8652 96.7575 45.5892C97.0935 45.3132 97.2615 44.8932 97.2615 44.3292C97.2615 43.7772 97.0935 43.3632 96.7575 43.0872C96.4215 42.8112 95.8935 42.6732 95.1735 42.6732H92.2035V46.0032ZM106.411 48.2712C105.367 48.2712 104.467 48.0852 103.711 47.7132C102.967 47.3292 102.391 46.7952 101.983 46.1112C101.587 45.4152 101.389 44.5992 101.389 43.6632C101.389 42.7512 101.581 41.9532 101.965 41.2692C102.361 40.5732 102.895 40.0332 103.567 39.6492C104.251 39.2532 105.037 39.0552 105.925 39.0552C107.209 39.0552 108.229 39.4632 108.985 40.2792C109.741 41.0832 110.119 42.1752 110.119 43.5552V44.2392H103.981C104.077 44.9352 104.329 45.4452 104.737 45.7692C105.157 46.0812 105.733 46.2372 106.465 46.2372C106.945 46.2372 107.431 46.1652 107.923 46.0212C108.415 45.8772 108.859 45.6552 109.255 45.3552L109.975 47.1732C109.531 47.5092 108.985 47.7792 108.337 47.9832C107.701 48.1752 107.059 48.2712 106.411 48.2712ZM106.033 40.8552C105.457 40.8552 104.989 41.0292 104.629 41.3772C104.281 41.7252 104.065 42.2112 103.981 42.8352H107.869C107.797 41.5152 107.185 40.8552 106.033 40.8552ZM114.688 48.2712C114.028 48.2712 113.446 48.1452 112.942 47.8932C112.438 47.6412 112.036 47.2992 111.736 46.8672C111.448 46.4352 111.304 45.9492 111.304 45.4092C111.304 44.7732 111.472 44.2632 111.808 43.8792C112.144 43.4952 112.69 43.2252 113.446 43.0692C114.202 42.9012 115.204 42.8172 116.452 42.8172H117.1V42.5112C117.1 41.9832 116.98 41.6112 116.74 41.3952C116.5 41.1672 116.092 41.0532 115.516 41.0532C115.036 41.0532 114.526 41.1312 113.986 41.2872C113.458 41.4312 112.93 41.6532 112.402 41.9532L111.664 40.1352C111.976 39.9312 112.354 39.7452 112.798 39.5772C113.254 39.4092 113.728 39.2832 114.22 39.1992C114.712 39.1032 115.18 39.0552 115.624 39.0552C116.992 39.0552 118.012 39.3672 118.684 39.9912C119.356 40.6032 119.692 41.5572 119.692 42.8532V48.0732H117.154V46.7412C116.974 47.2092 116.668 47.5812 116.236 47.8572C115.816 48.1332 115.3 48.2712 114.688 48.2712ZM115.3 46.4532C115.804 46.4532 116.23 46.2792 116.578 45.9312C116.926 45.5832 117.1 45.1332 117.1 44.5812V44.2212H116.47C115.546 44.2212 114.892 44.3052 114.508 44.4732C114.124 44.6292 113.932 44.9052 113.932 45.3012C113.932 45.6372 114.046 45.9132 114.274 46.1292C114.514 46.3452 114.856 46.4532 115.3 46.4532ZM121.72 48.0732V39.2352H124.384V40.5312C124.684 40.0512 125.086 39.6852 125.59 39.4332C126.094 39.1812 126.658 39.0552 127.282 39.0552C128.326 39.0552 129.106 39.3612 129.622 39.9732C130.138 40.5732 130.396 41.5032 130.396 42.7632V48.0732H127.678V42.8892C127.678 42.2772 127.564 41.8392 127.336 41.5752C127.108 41.2992 126.772 41.1612 126.328 41.1612C125.752 41.1612 125.29 41.3412 124.942 41.7012C124.606 42.0612 124.438 42.5412 124.438 43.1412V48.0732H121.72Z" fill="#FFF1E5"/>
</g>
</g>
<rect x="6.5" y="2.5" width="153" height="153" rx="76.5" stroke="#FFED8E" stroke-width="5"/>
</g>
<defs>
<filter id="filter0_d" x="0" y="0" width="166" height="166" filterUnits="userSpaceOnUse" color-interpolation-filters="sRGB">
<feFlood flood-opacity="0" result="BackgroundImageFix"/>
<feColorMatrix in="SourceAlpha" type="matrix" values="0 0 0 0 0 0 0 0 0 0 0 0 0 0 0 0 0 0 127 0"/>
<feOffset dy="4"/>
<feGaussianBlur stdDeviation="2"/>
<feColorMatrix type="matrix" values="0 0 0 0 0 0 0 0 0 0 0 0 0 0 0 0 0 0 0.25 0"/>
<feBlend mode="normal" in2="BackgroundImageFix" result="effect1_dropShadow"/>
<feBlend mode="normal" in="SourceGraphic" in2="effect1_dropShadow" result="shape"/>
</filter>
<filter id="filter1_d" x="44.1382" y="35.3832" width="87.2574" height="19.93" filterUnits="userSpaceOnUse" color-interpolation-filters="sRGB">
<feFlood flood-opacity="0" result="BackgroundImageFix"/>
<feColorMatrix in="SourceAlpha" type="matrix" values="0 0 0 0 0 0 0 0 0 0 0 0 0 0 0 0 0 0 127 0"/>
<feOffset dy="3"/>
<feGaussianBlur stdDeviation="0.5"/>
<feColorMatrix type="matrix" values="0 0 0 0 0 0 0 0 0 0 0 0 0 0 0 0 0 0 0.5 0"/>
<feBlend mode="normal" in2="BackgroundImageFix" result="effect1_dropShadow"/>
<feBlend mode="normal" in="SourceGraphic" in2="effect1_dropShadow" result="shape"/>
</filter>
<clipPath id="clip0">
<rect x="9" y="5" width="148" height="148" rx="74" fill="white"/>
</clipPath>
</defs>
</svg>
