<svg width="156" height="156" viewBox="0 0 156 156" fill="none" xmlns="http://www.w3.org/2000/svg">
<g filter="url(#filter0_d)">
<g clip-path="url(#clip0)">
<rect x="4" width="148" height="148" rx="74" fill="#334171"/>
<g opacity="0.9">
<path d="M146.273 57.2452C147.169 56.6846 148.042 56.0784 148.962 55.5731C149.844 55.0904 150.438 55.5225 150.358 56.603C150.308 57.2877 150.139 57.9797 149.915 58.6217C149.329 60.3159 148.792 62.0357 147.905 63.5903C147.502 64.3013 147.702 64.746 148.493 64.9415C149.759 65.2538 150.999 65.6515 152.203 66.1905C152.856 66.4809 153.564 66.7459 153.539 67.709C153.511 68.7473 153.418 69.9105 152.432 70.3056C151.561 70.6524 151.886 71.291 151.796 71.848C151.69 72.5241 152.222 72.6107 152.618 72.797C153.258 73.0972 153.901 73.3999 154.555 73.6636C155.196 73.9202 155.383 74.3748 155.225 75.0569C155.049 75.8167 154.649 76.2076 153.951 76.0539C153.126 75.8736 152.324 75.5523 151.512 75.2893C150.304 74.8983 150.306 74.8958 149.592 76.059C149.909 76.4311 150.367 76.4512 150.767 76.6131C152.171 77.1822 152.581 77.6543 152.488 79.2322C152.435 80.1156 152.756 80.3449 153.397 80.5409C153.955 80.7118 154.654 80.7637 154.831 81.5263C155.033 82.4025 154.676 83.2266 154.406 84.0102C154.246 84.4789 153.752 84.44 153.412 84.0683C153.068 83.6918 152.766 83.2686 152.312 82.703C152.17 83.4573 152.09 84.0578 151.941 84.6375C151.719 85.5004 151.292 85.6856 150.651 85.0943C149.898 84.3989 149.242 83.5825 148.436 82.701C148.101 83.19 147.795 83.6398 147.498 84.0697C147.584 84.4416 147.848 84.6229 148.044 84.8643C148.81 85.8093 148.925 86.3283 148.513 86.9958C147.984 87.8527 146.889 88.2059 146.007 87.7577C145.651 87.5756 145.309 87.3202 145.017 87.0327C144.616 86.6332 144.289 86.5645 143.883 87.0061C143.466 87.458 143.001 87.8573 142.55 88.2711C142.319 88.4842 142.099 88.6898 142.203 89.0758C142.492 90.1343 141.914 90.8055 141.307 91.455C140.886 91.9044 140.486 92.3848 140.021 92.7747C139.059 93.5817 138.48 93.4303 137.851 92.2934C137.471 91.6071 137.295 90.796 136.693 90.0586C135.621 91.7041 134.439 91.2229 133.047 90.4718C130.933 89.3321 131.329 89.293 132.081 87.513C132.715 86.0094 133.347 84.5035 134.013 83.0185C134.156 82.6985 134.192 82.4308 134.081 82.1105C133.647 80.8558 133.372 79.5397 132.807 78.3529C132.477 78.2696 132.341 78.5051 132.192 78.7141C127.083 85.9809 122.205 93.4062 118.667 101.768C118.226 102.809 118.111 103.708 118.469 104.821C119.505 108.043 119.498 111.39 119.364 114.723C119.208 118.536 118.834 122.318 117.91 126.002C116.711 130.781 114.264 134.732 111.015 138.122C109.56 139.639 108.026 141.068 106.506 142.509C106.035 142.954 105.768 143.36 105.851 144.137C106.017 145.695 105.621 147.225 105.463 148.768C105.415 149.244 105.231 149.784 105.659 150.122C106.131 150.496 106.627 150.178 107.062 149.949C107.921 149.496 108.577 148.768 109.183 147.987C110.927 145.74 112.558 143.395 114.147 141.014C114.638 140.282 115.185 139.595 115.718 138.896C116.107 138.384 116.523 138.412 117.009 138.815C118.171 139.774 119.225 140.837 120.163 142.053C123.345 146.176 125.479 150.938 127.514 155.76C129.138 159.612 130.23 163.635 130.963 167.779C131.094 168.521 131.037 169.145 130.739 169.787C130.426 170.457 130.076 171.097 129.627 171.668C126.833 175.234 121.496 176.596 117.525 174.61C114.944 173.319 113.291 171.187 113.223 167.961C113.184 166.187 113.157 164.412 113.175 162.642C113.208 159.778 112.307 157.172 111.313 154.604C110.755 154.508 110.573 154.975 110.301 155.237C108.219 157.237 105.88 158.808 103.331 160.014C102.334 160.487 101.286 160.825 100.168 160.808C99.1086 160.792 98.8084 160.449 99.0057 159.303C99.3142 157.505 99.4227 155.685 99.4166 153.864C99.4085 150.557 98.4326 147.642 96.1413 145.284C95.7168 144.846 95.3618 144.756 94.8239 144.841C91.9134 145.311 88.9937 145.498 86.0982 144.609C85.4619 144.413 85.3204 144.772 85.1725 145.265C84.2229 148.433 83.582 151.651 83.6214 155.03C83.6521 157.629 83.9101 160.187 84.6438 162.667C84.8746 163.446 84.6547 163.86 84.1873 164.337C83.2268 165.319 82.1316 165.733 80.7938 165.494C77.5289 164.916 74.7257 163.453 72.5573 160.646C71.3339 159.065 70.1803 157.431 69.0973 155.738C68.7408 155.18 68.3468 154.647 67.7874 153.836C67.5243 155.737 67.6684 157.31 67.8139 158.864C68.0162 161.004 68.2658 163.14 68.5889 165.265C68.8434 166.94 68.7456 168.598 68.5778 170.245C68.2682 173.294 66.8244 174.949 64.0441 175.571C62.8211 175.845 61.5721 175.796 60.3277 175.738C59.586 175.704 59.0284 175.313 58.5357 174.704C57.4335 173.336 56.9645 171.694 56.7108 169.982C55.7177 163.278 54.9911 156.549 54.8662 149.765C54.8462 148.633 54.9431 147.518 55.1686 146.413C55.8429 143.124 58.6317 141.85 61.1046 142.086C63.0537 142.27 64.6357 143.21 65.7418 144.982C66.0915 145.543 66.494 145.93 67.0556 146.234C68.1878 146.845 69.1213 147.773 69.9477 148.794C71.6005 150.83 73.2098 152.906 74.8473 154.957C75.3376 155.573 75.8351 156.189 76.5246 156.565C76.7025 156.664 76.8928 156.718 77.1858 156.48C77.0169 155.465 76.6803 154.397 76.6115 153.278C76.4459 150.607 76.908 148.048 77.4777 145.491C77.7784 144.139 78.0381 142.778 78.3112 141.42C78.486 140.558 78.417 139.801 77.9115 138.989C77.0319 137.573 76.6999 135.935 76.6146 134.238C76.4892 131.757 76.7909 129.305 76.8765 126.837C77.0571 121.703 75.9791 116.913 73.5127 112.488C72.5328 110.729 71.5518 108.94 70.3464 107.363C69.2793 105.966 67.9582 104.767 66.6493 103.609C62.3037 99.7683 57.8285 96.0977 53.5858 92.1166C51.0864 89.7722 48.5696 87.4476 46.0465 85.1352C45.6378 84.76 45.2816 84.2845 44.6533 84.0737C43.565 85.911 42.8445 87.9521 42.019 89.9321C41.7372 90.6093 42.0584 91.3256 42.2894 91.966C42.5946 92.816 43.0085 93.625 43.4106 94.4319C43.7676 95.1475 43.6292 95.6594 42.9855 96.0282C42.7676 96.1536 42.5564 96.2936 42.3383 96.4144C41.1433 97.0754 40.9952 97.0056 40.4376 95.5544C40.4084 95.4798 40.2951 95.4405 40.1343 95.3202C39.5764 96.3424 39.488 97.5149 39.2153 98.6116C38.867 100.017 38.8899 100.024 37.5218 99.9757C35.458 99.9018 35.2411 99.6393 35.604 97.4962C35.7817 96.4501 36.0271 95.4198 36.2645 94.2706C35.6153 94.2421 35.039 94.2509 34.4672 94.1845C32.9293 94.0059 32.2755 93.1289 32.3845 91.4634C32.4313 90.7472 32.6619 90.0904 33.0207 89.5185C33.3623 88.9711 33.1888 88.7345 32.7489 88.3745C31.551 87.3941 30.4309 87.159 29.1302 88.1663C27.9716 89.0618 26.6956 89.7826 25.4595 90.5607C24.4892 91.1737 24.1298 91.011 23.9293 89.8486C23.64 88.1546 23.3732 86.4553 23.1242 84.7532C22.9158 83.3363 23.0652 83.1783 24.4027 83.1861C24.6788 83.188 24.9782 83.3591 25.2348 83.102C25.244 82.7599 24.9502 82.6905 24.7727 82.5388C24.21 82.0551 24.2805 81.5882 24.6641 81.0182C26.0483 78.9715 26.3184 78.9929 27.3971 81.2437C27.6707 81.8155 27.8985 82.4245 28.3729 82.9437C28.9084 82.5648 29.4123 82.1185 29.5339 81.4178C29.6417 80.795 29.6764 80.1154 29.5715 79.4943C29.4255 78.6316 28.5611 79.0412 28.0879 78.694C27.8493 78.5192 27.5208 78.4942 27.2496 78.3612C26.4131 77.9484 26.3014 77.6742 26.4733 76.7301C26.6187 75.9319 27.0509 75.2761 27.3775 74.5277C26.5741 74.0245 25.8004 73.5426 24.997 73.0394C24.5492 73.7076 24.5862 74.4391 24.3976 75.0854C23.9744 76.5291 23.5305 76.6783 22.3699 75.7311C22.2111 75.6008 22.0542 75.4632 21.9082 75.3158C20.4038 73.7909 20.5158 73.1438 22.1555 72.4256C22.6645 72.2023 23.3057 72.0564 22.9491 71.0644C22.7598 70.542 23.1787 69.947 23.4858 69.4537C24.3764 68.0227 25.6032 67.0992 27.1388 66.6353C27.7277 66.4565 28.3039 66.4379 28.8808 66.7395C29.8893 67.2653 29.8934 67.258 30.9125 66.4185C30.5786 65.7292 30.2048 65.0381 29.9057 64.3142C29.5798 63.5204 29.9034 63.0389 30.6967 63.1543C31.5378 63.2785 32.3194 63.6609 33.1849 64.0781C33.4471 63.5759 33.3034 62.7082 34.1043 62.7071C34.7009 62.7076 35.2636 63.0458 35.9822 62.9324C36.0526 62.0411 35.5559 61.2288 35.5169 60.3495C35.4922 59.7777 35.2188 59.0799 35.9012 58.8047C36.5257 58.5525 37.1968 58.634 37.683 59.2452C38.0402 59.6916 38.3474 60.1876 38.6953 60.6875C39.2256 60.4953 39.231 59.4647 40.0027 59.68C40.5281 59.8274 40.9024 60.3826 41.6022 60.3835C41.8199 59.6033 41.7302 58.7565 41.7893 57.9309C41.8654 56.8601 42.2981 56.5607 43.1587 57.104C44.6261 58.0307 46.0343 59.0726 47.4804 60.0433C48.0077 60.3967 48.4897 60.945 49.2316 60.5741C49.4083 60.4858 49.7202 60.6349 49.9481 60.7371C50.4874 60.9763 51.2431 61.0343 51.3278 61.7988C51.3998 62.4473 50.7746 62.7504 50.3597 63.1125C49.7504 63.6433 49.0573 64.069 48.5148 64.7876C49.1832 65.3516 49.8078 65.8753 50.5476 66.4985C50.9704 65.6077 51.3434 64.776 51.7573 63.9679C52.0151 63.4633 52.2816 62.801 52.9492 62.9917C53.6648 63.1983 54.3636 63.5872 54.7656 64.3165C55.0061 64.7507 54.7334 65.144 54.4406 65.4527C53.7607 66.1667 52.9417 66.658 52.0824 67.0772C51.4238 67.398 51.4286 67.4052 50.9872 68.2721C52.0278 68.8992 53.0752 69.5286 54.0182 70.3273C54.8067 70.9956 54.8235 71.2475 54.1373 71.9714C53.7142 72.4184 53.2513 72.8202 52.8164 73.2555C52.2619 73.8119 51.5187 74.224 51.8457 75.3403C51.9741 75.7766 51.5321 76.2096 51.3189 76.6259C50.6742 77.8848 50.039 79.1507 49.365 80.3908C49.0323 81.0034 49.1274 81.3895 49.6345 81.8864C52.3874 84.5871 55.31 87.0469 58.3486 89.3541C58.9143 89.7843 59.4862 90.2048 60.2491 90.7767C60.1446 89.6803 60.0769 88.8161 59.9801 87.9548C59.3643 82.3876 61.1379 77.8188 64.8972 74.1739C68.0818 71.0858 71.6033 68.5754 75.8815 67.51C77.0724 67.2127 78.2468 67.185 79.4133 67.6035C85.8648 69.9169 92.1895 72.5624 98.0642 76.3588C99.443 77.2484 100.753 78.2534 101.969 79.3838C107.055 84.1169 111.554 89.395 114.853 95.7631C114.999 96.0417 115.161 96.3125 115.312 96.5811C115.688 96.4647 115.729 96.1269 115.851 95.8625C119.522 87.7578 124.017 80.2702 129.819 73.7607C130.285 73.24 130.467 72.7539 130.288 72.0519C129.526 69.0335 128.582 66.0841 127.448 63.1965C127.162 62.4675 126.676 62.283 126.061 62.1786C124.437 61.9072 122.809 61.6553 121.192 61.3304C119.82 61.0541 119.695 60.5983 120.6 59.4628C121.851 57.8939 121.842 57.8965 120.862 56.0608C120.628 55.624 120.049 55.1989 120.456 54.6478C120.841 54.1262 121.361 54.5113 121.817 54.7061C121.99 54.7779 122.181 54.9172 122.431 54.6602C122.268 54.0524 121.756 53.6817 121.383 53.2234C120.897 52.6291 120.968 52.1768 121.545 51.7703C121.587 51.7404 121.624 51.7057 121.663 51.6734C123.886 49.814 125.165 50.0921 126.542 52.7954C127.117 53.9238 127.598 55.1074 128.158 56.3476C128.678 55.7579 128.551 55.0112 128.731 54.3917C129.014 53.4261 129.182 52.4214 129.42 51.4396C129.494 51.1375 129.617 50.6356 129.9 50.7223C130.872 51.0233 131.04 50.2297 131.387 49.6337C131.67 49.1481 131.9 48.5349 132.602 48.6983C133.086 48.8101 133.359 49.2 133.524 49.6768C133.746 50.3223 133.541 50.8525 133.089 51.2541C132.677 51.6234 132.213 51.9283 131.718 52.3016C132.074 53.1215 132.559 53.8467 133.164 54.7466C133.594 53.1622 134.012 51.7768 134.343 50.3664C134.702 48.8271 135.275 48.7819 136.067 48.9143C137.02 49.0728 137.372 49.6163 137.392 50.8913C137.396 51.1579 137.364 51.4277 137.348 51.6923C137.071 52.0032 137.07 52.3354 137.245 52.7563C137.505 52.487 137.694 52.2772 137.717 51.9542C138.607 50.9331 138.722 50.8944 139.654 51.6206C140.501 52.2806 141.333 52.9869 141.952 53.9035C142.611 54.8775 142.561 54.8711 143.502 54.4551C144.13 54.1762 144.764 54.2899 145.303 54.7958C145.809 55.2709 145.956 55.8088 145.694 56.5122C145.576 56.8248 144.969 57.3604 145.861 57.554C145.943 57.5766 145.996 57.6314 146.023 57.7156C145.425 57.0266 145.425 57.0266 144.881 58.1235C145.356 58.2524 145.576 57.6274 146.023 57.7011C146.105 57.5395 146.19 57.3923 146.273 57.2452ZM140.447 83.143C140.341 82.9681 140.256 82.7708 140.124 82.6257C140.012 82.5018 139.835 82.2359 139.685 82.5224C139.586 82.7137 139.789 82.8989 139.93 83.0463C140.299 83.4342 140.334 84.1782 141.035 84.3412C140.959 83.7875 140.618 83.5155 140.447 83.143ZM43.64 76.9988C43.5734 77.3081 43.6095 77.6008 43.8023 78.0916C43.7865 77.5827 43.777 77.2871 43.7678 76.9939C44.0214 74.7267 44.0968 72.4339 44.47 70.1814C44.5771 69.5271 44.28 69.1498 43.821 69.246C43.3394 69.3476 43.4277 69.7896 43.4184 70.134C43.3583 72.4217 43.3679 74.7128 43.64 76.9988ZM42.6276 85.0685C41.6187 86.4993 40.6302 87.9516 39.5934 89.3588C37.5926 92.0698 37.0744 95.3363 36.5057 98.6253C38.0593 98.8812 38.0752 98.8857 38.359 97.5733C39.3319 93.0784 41.2017 88.9928 43.1238 84.9303C43.1978 84.7882 43.1875 84.6066 43.0413 84.5973C42.7785 84.5854 42.6989 84.8392 42.6276 85.0685ZM131.08 73.5469C130.825 73.9423 130.682 74.2312 130.483 74.4679C121.345 85.3608 114.836 97.8199 111.576 112.218C111.446 112.788 111.327 113.363 111.168 113.923C111.075 114.248 110.867 114.494 110.501 114.339C110.235 114.228 110.144 113.97 110.18 113.683C110.205 113.472 110.27 113.267 110.317 113.06C111.336 108.479 112.499 103.944 114.274 99.642C114.728 98.5444 114.675 97.7186 114.139 96.6575C111.462 91.3729 107.861 86.8969 103.886 82.7264C101.24 79.9508 98.3019 77.6344 95.044 75.7752C90.0313 72.9149 84.777 70.7043 79.4518 68.6818C78.2915 68.2413 77.1364 68.1789 75.9414 68.5514C70.827 70.1351 66.6372 73.2162 63.3936 77.6972C59.1568 83.5506 60.9727 92.2366 64.0383 96.1729C67.7495 100.938 71.002 106.092 74.1089 111.337C74.7583 112.432 75.3395 113.565 75.8212 114.756C77.5177 118.949 78.1582 123.315 77.893 127.84C77.7791 129.768 77.6517 131.696 77.6298 133.628C77.6096 135.547 78.0196 137.377 79.1725 138.923C79.498 139.36 79.4519 139.749 79.4098 140.254C79.18 142.991 78.4077 145.601 77.9543 148.284C77.533 150.782 77.3382 153.279 78.1238 155.771C78.2935 156.313 78.7524 156.99 78.3013 157.418C77.7833 157.911 76.9892 157.779 76.317 157.585C75.7825 157.431 75.3435 157.027 74.9616 156.591C74.3075 155.845 73.6687 155.079 73.041 154.308C71.715 152.683 70.4416 151.005 69.0703 149.427C68.1532 148.371 67.227 147.254 65.796 146.984C65.4281 146.916 65.3602 146.602 65.2318 146.309C64.4408 144.491 63.0583 143.555 61.2837 143.207C59.0061 142.762 56.8663 144.19 56.2209 146.557C55.9636 147.498 55.9399 148.457 55.9528 149.426C56.0373 155.995 56.6518 162.518 57.6313 169.011C57.8552 170.496 58.0931 171.98 58.8729 173.303C59.4062 174.209 60.1005 174.661 61.0845 174.7C62.3964 174.755 63.659 174.536 64.8957 174.121C65.8968 173.784 66.5916 173.055 67.0124 172.029C67.4396 170.99 67.6447 169.89 67.6578 168.75C67.6754 167.031 67.6724 165.3 67.3739 163.604C66.8048 160.356 66.5868 157.082 66.6514 153.807C66.6795 152.286 66.0962 151.51 64.9245 150.992C64.6945 150.89 64.45 150.819 64.2289 150.7C63.9528 150.553 63.6815 150.347 63.8331 149.961C63.9699 149.616 64.256 149.572 64.5818 149.667C65.8361 150.026 66.8368 150.812 67.6774 151.852C68.768 153.201 69.7073 154.671 70.6492 156.142C71.6777 157.746 72.7854 159.286 74.0374 160.697C75.9913 162.9 78.4234 164.103 81.1811 164.413C83.1265 164.632 83.7821 163.72 83.326 161.711C81.934 155.582 82.5722 149.656 84.6012 143.872C84.9425 142.898 85.0007 142.882 85.8412 143.356C86.3823 143.661 86.9568 143.799 87.5477 143.902C89.736 144.281 91.923 144.27 94.0781 143.813C95.3639 143.541 96.2436 143.628 97.2379 144.909C98.9499 147.115 100.041 149.477 100.345 152.294C100.573 154.399 100.345 156.476 100.209 158.564C100.187 158.909 99.9813 159.304 100.377 159.614C101.372 159.594 102.295 159.244 103.205 158.804C106.692 157.114 109.662 154.704 112.102 151.538C112.608 150.884 113.108 150.222 113.626 149.579C113.857 149.29 114.144 149.013 114.495 149.39C114.757 149.671 114.633 150.002 114.444 150.261C113.954 150.93 113.496 151.64 112.927 152.223C112.114 153.056 111.946 153.784 112.487 155.003C113.777 157.912 114.365 161.016 114.209 164.253C114.146 165.538 114.205 166.831 114.237 168.12C114.273 169.528 114.828 170.71 115.678 171.768C117.051 173.475 118.851 174.262 120.84 174.371C124.29 174.56 127.106 173.102 129.27 170.244C129.854 169.474 130.051 168.607 129.829 167.547C129.488 165.92 129.214 164.276 128.769 162.675C127.151 156.848 124.651 151.439 121.754 146.239C120.696 144.341 119.474 142.53 117.95 141.02C116.294 139.379 116.587 139.352 115.262 141.303C113.569 143.799 111.875 146.291 110.039 148.664C109.338 149.57 108.571 150.4 107.573 150.921C106.747 151.352 105.865 151.619 105.022 150.993C104.167 150.357 104.379 149.386 104.474 148.482C104.479 148.428 104.493 148.377 104.5 148.324C104.734 146.632 105.098 144.946 104.798 143.209C104.688 142.561 105.081 142.28 105.471 141.916C107.077 140.417 108.69 138.926 110.221 137.34C113.68 133.759 116.141 129.528 117.19 124.389C118.134 119.762 118.432 115.062 118.359 110.323C118.332 108.633 117.986 106.991 117.507 105.34C116.974 105.617 116.955 106.1 116.826 106.473C116.084 108.624 115.383 110.793 114.654 112.951C114.484 113.453 114.532 114.376 113.776 114.107C113.004 113.834 113.528 113.077 113.674 112.585C116.257 103.883 119.841 95.707 124.569 88.1515C126.782 84.6171 129.123 81.1768 131.6 77.8576C132.263 76.9693 132.387 76.2177 131.923 75.2375C131.704 74.769 131.637 74.2174 131.08 73.5469ZM139.959 58.7117C139.302 59.1319 139.026 59.7095 138.711 60.2369C136.644 63.6888 134.842 67.3076 133.059 70.9358C132.842 71.3789 132.787 72.1849 132.116 71.7713C131.485 71.3811 132.046 70.8076 132.25 70.3866C133.347 68.1175 134.462 65.8554 135.612 63.6192C135.904 63.0534 135.994 62.5788 135.706 61.971C135.388 61.3008 135.212 60.5525 134.884 59.8897C134.706 59.5295 134.64 58.8494 133.966 59.1075C133.412 59.3195 133.235 59.7595 133.295 60.3669C133.362 61.0614 133.402 61.759 133.46 62.4537C133.515 63.1509 133.587 63.8454 133.633 64.5428C133.659 64.9302 133.625 65.3576 133.18 65.3955C132.811 65.4269 132.722 65.0431 132.67 64.7192C132.577 64.1367 132.46 63.5546 132.428 62.966C132.358 61.6775 132.348 60.3878 132.279 59.0992C132.257 58.7092 132.355 58.2369 131.923 57.9325C131.261 58.2656 131.385 58.9299 131.424 59.4602C131.576 61.4842 131.059 63.5189 131.616 65.5326C131.675 65.7424 131.61 65.9741 131.425 66.0892C131.238 66.2044 131.041 66.1355 130.875 65.9908C130.595 65.7417 130.439 65.4029 130.298 65.054C129.898 64.0653 129.492 63.0767 129.106 62.0804C128.12 59.5416 127.151 56.9952 126.157 54.4614C125.865 53.7155 125.51 52.995 125.028 52.3643C124.389 51.5306 124.068 51.4544 123.238 51.9458C122.941 52.1213 122.614 52.2853 122.489 52.6781C122.545 53.0189 122.785 53.2324 122.985 53.4686C124.551 55.3171 125.824 57.3848 126.927 59.5794C128.704 63.1163 129.916 66.88 130.923 70.7277C131.059 71.2415 131.084 71.9636 131.408 72.2167C132.328 72.931 132.534 73.9987 132.817 74.9946C133.315 76.7476 133.945 78.4471 134.482 80.1848C135.542 83.6171 136.753 86.9876 138.107 90.2977C138.36 90.9159 138.524 91.628 139.1 92.0434C139.733 91.7158 140.124 91.1533 140.561 90.6522C141.41 89.6781 141.442 89.6386 140.719 88.4525C139.947 87.1899 139.106 85.9743 138.262 84.7639C136.753 82.5992 135.264 80.4242 134.144 77.9898C133.869 77.3938 133.617 76.7926 134.071 76.1897C134.506 75.6114 135.059 75.9279 135.587 76.0122C136.61 76.1741 137.566 76.7495 138.679 76.6938C138.497 75.97 137.927 75.7968 137.486 75.4902C136.332 74.6859 135.02 74.326 133.731 73.8953C133.396 73.783 133.007 73.6233 133.116 73.1435C133.222 72.6711 133.588 72.6809 133.96 72.8143C134.243 72.9155 134.533 72.997 134.823 73.086C136.604 73.6259 138.213 74.5619 139.682 75.7602C140.53 74.4876 140.716 74.3312 141.917 75.0619C143.468 76.0039 144.99 76.1827 146.637 75.622C147.198 75.4316 147.8 75.3666 148.381 75.2388C148.662 75.1776 148.985 75.1713 149.029 74.7098C148.932 74.617 148.837 74.4638 148.71 74.4202C146.856 73.7774 145.017 73.0737 143.075 72.8207C142.584 72.7576 141.974 72.8277 141.701 72.3359C141.332 71.6763 140.913 71.8372 140.428 71.9752C139.377 72.277 138.325 72.5763 137.273 72.8709C137.024 72.9412 136.76 72.9512 136.638 72.6456C136.521 72.3545 136.656 72.0997 136.897 71.9859C137.258 71.8164 137.64 71.7023 138.015 71.5762C139.167 71.19 140.402 71.064 141.581 70.3306C140.317 69.7952 139.108 69.8794 137.936 69.7083C136.915 69.5585 135.942 69.5169 135.442 70.7898C135.333 71.0635 135.048 71.3164 134.71 71.0781C134.398 70.8563 134.43 70.5284 134.605 70.2315C135.186 69.2406 135.758 68.2427 136.371 67.2778C137.658 65.2499 138.855 63.168 139.616 60.8279C139.827 60.1909 140.172 59.5683 139.959 58.7117ZM66.3892 101.624C65.5328 99.9407 64.4852 98.4458 63.3668 97.003C62.6255 96.0453 61.9035 95.0629 61.4765 93.8998C61.1645 93.0527 60.6614 92.4658 59.977 91.9579C55.9246 88.9576 52.0245 85.7484 48.4346 82.1086C47.2733 80.9311 47.5518 80.6613 46.1725 82.2352C45.3672 83.1553 45.3787 83.1648 46.335 84.036C49.9732 87.3498 53.6095 90.6686 57.2517 93.975C60.2016 96.6527 63.2153 99.2365 66.3892 101.624ZM46.8708 65.164C45.6566 68.2597 45.219 71.5319 44.9857 74.8558C44.8618 76.6186 44.7426 78.3812 44.6142 80.1416C44.583 80.5665 44.4961 81.2204 44.0055 80.9585C43.0971 80.4718 42.2501 80.8642 41.3889 80.8689C38.3762 80.884 35.5404 81.9432 32.6242 82.5238C32.0623 82.6366 31.7514 82.9457 31.7744 83.6C31.7895 84.0119 31.4998 84.4224 31.7822 84.8364C32.2205 85.0751 32.5506 84.7317 32.8985 84.5964C34.6629 83.9146 36.392 83.1146 38.1811 82.5172C39.9371 81.9301 41.8063 81.5154 43.5853 82.2929C44.4428 82.669 44.8117 82.4824 45.2489 81.8289C45.3922 81.6152 45.5653 81.413 45.7578 81.2516C46.7696 80.4051 47.0145 79.2728 47.1575 77.9122C47.4767 74.8799 48.0798 71.8858 49.2249 69.0824C49.9642 67.2737 50.0275 67.2943 48.4425 66.1226C47.9557 65.7659 47.5145 65.2993 46.8708 65.164ZM139.894 84.8727C139.05 83.369 138.208 81.8628 137.362 80.3614C137.179 80.0376 136.928 79.7031 137.156 79.3301C137.41 78.9153 137.879 78.9692 138.242 79.0446C138.558 79.1087 138.854 79.3818 139.135 79.597C140.404 80.5738 141.49 81.7769 142.597 82.9532C143.489 83.9032 144.37 84.8629 145.278 85.7935C145.603 86.124 145.986 86.3907 146.354 86.6696C146.827 87.0314 147.23 86.7955 147.53 86.4189C147.873 85.9875 147.398 85.7737 147.208 85.5058C147.088 85.3361 146.924 85.2011 146.78 85.0514C144.936 83.1404 143.06 81.2711 140.987 79.6457C140.656 79.3855 139.997 79.1268 140.326 78.599C140.738 77.9412 141.21 78.6182 141.569 78.8924C142.427 79.5448 143.254 80.249 144.067 80.9702C144.942 81.7457 145.782 82.5637 146.658 83.3804C146.872 83.122 147.013 82.9737 147.129 82.8064C147.908 81.6902 147.906 81.6883 147.032 80.6699C145.795 79.2294 144.243 78.3117 142.815 77.486C143.438 78.1891 144.161 78.98 144.857 79.7981C145.165 80.158 145.859 80.5401 145.351 81.0686C144.86 81.5803 144.498 80.8406 144.155 80.5077C142.822 79.2171 141.507 77.9068 140.061 76.4826C139.688 77.9398 138.779 77.8533 137.851 77.6605C136.907 77.4631 136.008 76.9835 134.978 76.9891C135.813 79.2714 137.545 82.1035 139.894 84.8727ZM33.4541 76.4217C33.4506 75.8835 33.0117 75.6253 32.7776 75.2395C32.3395 74.5182 31.8037 73.8231 31.7424 72.9441C31.6217 71.2589 30.7104 70.1104 29.6654 68.9839C28.1371 67.3383 27.6249 67.2392 25.8509 68.4741C25.2627 68.8831 24.7836 69.4089 24.3926 70.0276C23.8584 70.8697 23.8788 70.9444 24.6836 71.4961C27.2931 73.288 30.0298 74.83 32.7767 76.3525C32.9893 76.4744 33.201 76.6473 33.4541 76.4217ZM41.818 79.6118C41.6381 77.9714 40.9114 76.9793 39.5558 76.4699C38.6317 76.1218 37.9172 75.4472 37.5677 74.4017C37.3693 73.8066 36.877 73.4914 36.4592 73.1115C34.8584 71.654 33.1381 70.3249 32.1149 68.2621C32.0215 68.0748 31.8749 67.9176 31.7553 67.7454C31.4521 67.3124 31.1619 67.5 30.8739 67.7504C30.5704 68.0134 30.3908 68.2981 30.7615 68.6643C31.7201 69.6082 32.3887 70.8269 33.4441 71.7059C35.7046 73.5894 37.4662 76.0815 39.781 77.9131C39.9905 78.0787 40.1385 78.2989 40.0114 78.5996C39.8862 78.8954 39.6327 78.8979 39.3853 78.8761C38.6448 78.8081 37.8967 78.7767 37.1639 78.6503C34.3011 78.1606 34.5853 77.9223 33.0847 81.1133C33.0698 81.1427 33.0985 81.1955 33.1277 81.3501C36.0001 80.5836 38.8753 79.8462 41.818 79.6118ZM42.8632 83.2211C40.5643 82.9654 38.6512 83.3324 36.8243 84.2288C35.6909 84.7844 34.9288 85.7352 34.4153 86.9357C34.1518 87.5543 34.1965 88.0408 34.8689 88.3744C35.5938 88.7361 36.2979 89.1564 36.981 89.6037C37.5628 89.9875 37.9566 89.8926 38.3694 89.3172C39.79 87.3473 41.2472 85.4034 42.8632 83.2211ZM136.946 68.3479C138.497 68.8026 139.984 68.5142 141.346 68.992C142.705 69.4697 143.622 69.2433 144.661 68.0568C146.41 66.0563 147.971 66.1034 150.075 67.7281C150.563 68.1041 151.027 68.517 151.51 68.8978C151.945 69.241 152.187 69.1078 152.386 68.568C152.644 67.8622 152.47 67.4655 151.82 67.2067C150.371 66.6312 148.918 66.1164 147.381 65.8676C144.934 65.4716 142.528 65.8023 140.128 66.1134C138.851 66.2837 137.74 66.9843 136.946 68.3479ZM149.299 56.6019C146.338 58.5751 143.563 60.1592 141.009 62.2701C142.785 63.2756 144.527 63.3167 146.308 63.0371C146.715 62.9734 147.143 62.8972 147.311 62.4719C148.015 60.6785 148.884 58.9474 149.299 56.6019ZM144.809 77.2047C144.976 77.7178 145.438 77.8664 145.793 78.0995C146.781 78.7446 147.463 79.9631 148.841 79.9097C149.26 79.8941 149.484 80.4571 149.279 80.9119C149.002 81.5261 149.264 81.9307 149.627 82.3359C150.038 82.7959 150.322 83.3939 151.037 83.8093C151.204 82.0481 151.565 80.4044 151.465 78.6896C151.441 78.2803 151.271 77.9539 150.908 77.8106C148.927 77.037 146.966 75.9478 144.809 77.2047ZM136.675 61.472C137.3 60.473 137.873 59.5525 138.454 58.6393C139.04 57.721 139.62 56.8004 140.229 55.9011C141.25 54.39 141.256 54.3971 139.838 53.1858C139.721 53.0862 139.597 52.9917 139.49 52.8798C138.996 52.373 138.65 52.5107 138.323 53.099C137.513 54.5599 136.841 56.0909 136.206 57.6526C135.646 59.031 135.932 60.199 136.675 61.472ZM40.6987 75.7227C40.5946 75.264 40.5882 74.9223 40.4478 74.6631C38.8466 71.7071 37.865 68.4821 36.8371 65.2822C36.5959 64.5255 36.2166 64.0989 35.4985 64.0281C35.1295 63.9916 34.6761 63.6974 34.4369 64.2161C34.2352 64.6516 34.1973 65.1567 34.476 65.5949C34.6436 65.8584 34.8767 66.0745 35.0971 66.2932C35.8124 66.997 36.3263 67.8526 36.7349 68.7854C37.3543 70.2014 37.8937 71.6579 38.2622 73.1636C38.5869 74.486 39.2206 75.3708 40.6987 75.7227ZM30.2143 86.4091C28.4371 84.5525 26.3508 84.4865 24.1242 84.3821C24.3984 86.1661 24.6469 87.7785 24.9204 89.5578C26.7037 88.4706 28.3394 87.3476 30.2143 86.4091ZM130.269 52.2426C129.757 53.9814 129.62 55.5383 129.176 56.9799C128.56 58.9851 129.716 60.3591 130.392 61.9535C130.535 60.9323 130.466 59.9347 130.481 58.9403C130.513 57.1066 131.144 56.5026 133.045 56.6377C132.079 55.1896 131.417 53.709 130.269 52.2426ZM144.504 70.0214C146.784 70.3649 148.802 71.0117 150.773 71.9746C150.963 69.8421 150.32 68.7878 148.446 67.9393C147.17 67.358 145.842 68.0119 144.504 70.0214ZM46.0335 64.2977C46.099 64.1728 46.146 63.9512 46.2373 63.9276C47.0718 63.7174 47.0926 62.958 47.3286 62.2624C47.7248 61.0981 46.8799 60.9085 46.3012 60.4906C45.8053 60.1293 45.2944 59.7901 44.7768 59.4632C44.1567 59.0752 43.6199 58.4917 42.7976 58.3186C42.7692 58.9714 42.7297 59.4983 42.724 60.0246C42.7072 61.4118 42.9115 61.6988 44.2424 61.7819C44.9681 61.826 45.3499 62.1216 45.4703 62.8782C45.5483 63.3494 45.5508 63.8537 46.0335 64.2977ZM48.5893 75.5105C49.3083 74.9873 49.459 73.9271 50.1768 73.7871C51.6952 73.4932 52.2946 72.0825 53.4828 71.2106C52.3781 70.3981 51.4729 69.6544 50.2742 69.2802C49.4233 71.2389 48.9812 73.2915 48.5893 75.5105ZM42.5885 78.2219C42.5116 75.2241 42.3519 72.2377 42.455 69.2484C42.4827 68.4308 42.1913 68.2207 41.3281 68.2351C40.7046 68.2448 40.4505 68.5165 40.5382 69.2252C40.9224 72.2922 41.5179 75.3041 42.5885 78.2219ZM40.9913 67.0948C41.4225 66.8269 41.4155 66.5991 41.4765 66.4016C41.8085 65.3476 41.6285 64.0442 42.8862 63.4499C43.2397 63.283 43.0924 62.6724 42.6603 62.4092C42.0973 62.0663 41.5345 61.7184 40.9508 61.417C39.9745 60.9099 39.1925 61.364 39.4149 62.4459C39.741 64.0277 40.2437 65.5915 40.9913 67.0948ZM134.663 84.0364C133.913 85.7993 133.261 87.3273 132.58 88.9239C133.254 89.2962 133.864 89.6433 134.483 89.9758C135.069 90.2917 135.397 89.8146 135.775 89.4875C136.133 89.1748 136.428 88.8659 136.205 88.2739C135.699 86.9528 135.233 85.6162 134.663 84.0364ZM142.264 71.292C142.598 71.637 142.933 71.713 143.252 71.7358C144.752 71.8472 146.166 72.3652 147.587 72.8369C149.437 73.4507 151.276 74.1058 153.122 74.7341C153.452 74.8465 153.808 75.0311 154.385 74.6828C152.131 73.7133 150.136 72.7581 148.084 71.998C146.233 71.3115 144.329 70.7426 142.264 71.292ZM39.2535 69.3206C39.9258 67.603 39.5767 65.99 38.9005 64.4005C38.2411 62.8519 37.9958 61.06 36.6221 59.7581C36.4375 60.5182 36.6978 61.0174 36.8259 61.5168C37.4969 64.1442 38.2543 66.7408 39.2535 69.3206ZM133.708 57.7644C134.854 57.6741 134.859 57.6765 135.031 56.9506C135.411 55.3477 135.793 53.7472 136.157 52.1399C136.264 51.6746 136.345 51.1978 136.381 50.7195C136.407 50.3844 136.281 50.0765 135.913 50.0133C135.606 49.9611 135.461 50.1919 135.382 50.4504C134.832 52.219 134.237 54.0007 134.117 55.8652C134.074 56.4867 134.023 57.0624 133.708 57.7644ZM33.5171 78.1225C32.0947 77.0519 30.7128 76.4291 29.3821 75.7058C28.4119 75.1792 27.6995 75.6295 27.5103 76.8116C27.4598 77.1303 27.5484 77.3758 27.798 77.4704C29.5856 78.1653 31.4029 78.5881 33.5171 78.1225ZM36.9937 90.7915C36.4056 90.4321 35.7933 90.0876 35.2135 89.6915C34.7272 89.3592 34.3682 89.4995 34.0792 89.9416C33.8845 90.2388 33.6996 90.56 33.5827 90.8993C33.2552 91.8344 33.399 92.622 33.9042 92.9177C34.5123 93.2694 35.5446 93.0626 36.0092 92.4353C36.3686 91.9506 36.847 91.5388 36.9937 90.7915ZM37.6439 77.4456C36.8707 76.6169 36.1079 75.7759 35.3216 74.962C34.5194 74.1314 33.7836 73.2122 32.6795 72.4215C32.8046 73.4762 33.2144 74.1617 33.7017 74.7414C34.3383 75.4976 34.8349 76.2323 34.3737 77.3348C35.5125 77.446 36.5519 77.3868 37.6439 77.4456ZM140.766 61.0915C142.722 59.9501 143.462 57.9523 144.623 56.3561C144.817 56.0904 144.833 55.7555 144.529 55.5165C144.246 55.2917 143.965 55.336 143.747 55.6142C143.18 56.343 142.671 57.1264 142.058 57.8051C141.27 58.674 140.888 59.6998 140.766 61.0915ZM36.7972 71.8829C36.1149 69.9589 35.6786 68.1611 34.2117 66.8876C33.1674 69.1266 33.4603 68.8129 34.6743 70.0961C35.2617 70.7175 35.8733 71.3311 36.7972 71.8829ZM146.704 64.4017C146.684 64.3633 146.662 64.2813 146.646 64.2816C144.511 64.4373 142.412 64.2503 140.389 63.3732C140.064 63.2317 139.816 63.2535 139.633 63.5941C139.473 63.8954 139.466 64.1963 139.633 64.5057C139.936 65.0697 140.426 65.1595 140.932 65.0478C142.742 64.6415 144.583 64.6565 146.423 64.674C146.566 64.6736 146.71 64.615 146.704 64.4017ZM121.479 60.3065C123.044 60.5572 124.593 60.8058 126.139 61.052C125.256 60.0752 124.136 59.6314 123.122 58.9941C122.767 58.7707 122.455 58.8423 122.203 59.1746C121.965 59.4992 121.59 59.7126 121.479 60.3065ZM141.586 87.7201C142.4 87.0742 143.061 86.4888 143.695 85.7468C143.166 85.1725 142.717 84.687 142.15 84.0721C141.991 85.4306 141.281 85.8035 140.082 85.4827C140.642 86.313 141.073 86.9568 141.586 87.7201ZM44.628 68.4422C45.667 66.1185 45.5855 65.092 44.092 62.7766C44.0006 64.4974 43.8951 66.0561 43.8458 67.6186C43.8302 68.1208 44.281 68.2575 44.628 68.4422ZM50.5656 75.0791C49.117 76.4482 47.8287 79.3417 48.2361 80.3134C49.8212 77.7244 50.5858 76.005 50.5656 75.0791ZM32.6386 79.5048C30.3086 79.0362 30.5141 79.0104 30.5194 81.3719C30.5195 81.5149 30.5848 81.6592 30.698 82.125C31.1457 80.8893 32.5311 80.9253 32.6386 79.5048ZM32.755 67.4398C34.0522 65.5353 33.1226 65.0152 31.2087 64.5846C31.551 65.686 32.0839 66.5776 32.755 67.4398ZM22.0187 73.7085C22.2277 74.4318 22.6868 74.7575 23.3188 75.087C23.5074 74.3196 23.8715 73.7015 23.5804 72.8585C23.0179 73.1628 22.5436 73.4218 22.0187 73.7085ZM33.9791 85.3585C33.3119 85.6043 32.9057 85.748 32.5024 85.9038C32.2321 86.0084 31.9229 86.092 31.9515 86.5062C31.9724 86.8137 32.225 86.9202 32.4268 87.0618C32.8583 87.3686 33.2208 87.4755 33.4184 86.783C33.532 86.3904 33.7155 86.0207 33.9791 85.3585ZM30.5966 85.2329C30.3695 84.362 30.2966 83.6894 29.8466 83.1575C28.9098 84.1747 28.9174 84.1988 30.5966 85.2329ZM41.6136 93.08C41.5288 93.0962 41.442 93.1125 41.3569 93.1263C41.3757 93.7151 41.392 94.3015 41.4128 94.8903C41.4261 95.2417 41.4931 95.5821 41.9205 95.4115C42.2263 95.289 42.6233 95.1457 42.3713 94.6194C42.1238 94.103 41.8676 93.5915 41.6136 93.08ZM52.1608 65.7251C52.7717 65.5289 53.2233 65.2049 53.5989 64.7272C52.7044 63.9785 52.7044 63.9785 52.1608 65.7251ZM125.297 59.039C125.247 58.4507 124.957 58.1364 124.757 57.7766C124.633 57.5535 124.452 57.2636 124.198 57.5475C124.01 57.7596 123.795 58.0742 124.119 58.3855C124.42 58.6755 124.77 58.8844 125.297 59.039ZM42.4944 67.3855C43.0442 66.3977 43.0941 66.0475 42.8078 64.802C42.6111 65.7563 42.2184 66.4525 42.4944 67.3855ZM122.77 57.6383C123.121 57.4084 123.416 57.0705 123.158 56.6731C122.951 56.3546 122.586 55.9592 121.993 56.2788C122.354 56.7106 122.253 57.3333 122.77 57.6383ZM26.842 82.3481C26.6736 81.9901 26.5717 81.752 26.4546 81.5264C26.3661 81.3584 26.3321 81.0633 26.0773 81.1579C25.9133 81.2169 25.7548 81.3824 25.6611 81.5467C25.5295 81.7796 25.7274 81.9406 25.8877 82.0369C26.1298 82.1826 26.3567 82.4085 26.842 82.3481ZM153.871 82.1657C153.88 81.843 153.692 81.7108 153.437 81.6578C153.295 81.6288 153.101 81.6862 153.122 81.8338C153.163 82.1384 153.289 82.4391 153.633 82.4733C153.809 82.487 153.848 82.3191 153.871 82.1657ZM49.8492 62.0071C49.8878 61.7445 49.7077 61.7286 49.5796 61.719C49.2873 61.6956 49.1339 61.8829 49.0827 62.1821C49.0586 62.3329 49.0523 62.5707 49.202 62.5483C49.492 62.4991 49.7397 62.3099 49.8492 62.0071ZM132.55 50.1662C132.51 50.0943 132.469 50.0223 132.427 49.948C132.341 50.0588 132.25 50.1673 132.168 50.2828C132.097 50.3836 132.126 50.5309 132.207 50.5148C132.372 50.4849 132.523 50.3825 132.55 50.1662ZM141.334 57.121C141.32 56.6945 141.139 56.7005 141.039 56.6078C140.942 56.7794 140.805 56.9398 140.757 57.1274C140.707 57.3199 140.972 57.3972 141.023 57.3743C141.198 57.2909 141.334 57.1331 141.334 57.121ZM141.982 55.4886C141.943 55.4506 141.906 55.4174 141.871 55.3841C141.839 55.4551 141.799 55.5261 141.786 55.6016C141.782 55.6283 141.846 55.6707 141.879 55.7064C141.913 55.6354 141.946 55.5645 141.982 55.4886Z" fill="#131010"/>
<path d="M150.7 96.7974C150.649 96.8905 150.601 97.0472 150.5 97.1462C150.337 97.3098 150.113 97.292 149.968 97.1297C149.206 96.285 148.606 95.3055 148.09 94.2735C147.994 94.0834 148.092 93.8385 148.27 93.7233C148.379 93.6508 148.553 93.6181 148.673 93.6596C149.054 93.7859 150.703 96.3307 150.7 96.7974Z" fill="#1D1818"/>
<path d="M118.431 56.2063C118.333 56.4603 118.177 56.7592 117.916 56.6479C116.858 56.1982 115.921 55.5133 115.042 54.7375C114.88 54.5952 114.899 54.3402 115.019 54.1536C115.132 53.9792 115.317 53.8035 115.509 53.9137C116.507 54.4835 117.523 55.0285 118.338 55.9049C118.401 55.9741 118.403 56.1074 118.431 56.2063Z" fill="#1D1818"/>
<path d="M40.8686 51.9822C40.8805 51.5055 40.8769 51.0265 40.9067 50.5519C40.9297 50.2013 41.0873 49.9405 41.4511 49.9675C41.7339 49.9888 41.9043 50.197 41.9023 50.4961C41.8963 51.4493 41.8859 52.405 41.8417 53.3565C41.8297 53.6242 41.6446 53.8636 41.3669 53.8665C41.0152 53.8709 40.8382 53.5923 40.8166 53.2548C40.7876 52.8323 40.8235 52.4061 40.8307 51.9829C40.8418 51.9803 40.8552 51.98 40.8686 51.9822Z" fill="#1D1818"/>
<path d="M130.178 45.6555C130.218 46.0999 130.168 46.4195 129.821 46.5235C129.466 46.63 129.217 46.3867 129.168 46.0494C129.029 45.101 128.939 44.1419 128.849 43.1876C128.828 42.9643 128.963 42.7671 129.163 42.7072C129.443 42.6241 129.684 42.8067 129.737 43.0684C129.919 43.9577 130.048 44.8577 130.178 45.6555Z" fill="#1D1818"/>
<path d="M94.8695 70.4158C94.0832 70.1768 93.1786 69.882 92.3332 69.4068C92.1321 69.2945 92.0624 69.0755 92.0983 68.8617C92.1496 68.5628 92.3834 68.3646 92.6371 68.4396C93.5909 68.7238 94.5431 69.0297 95.3916 69.6066C95.5614 69.7219 95.6382 69.9432 95.508 70.1685C95.3914 70.3766 95.2089 70.4334 94.8695 70.4158Z" fill="#1D1818"/>
<path d="M26.9485 55.6352C26.9354 56.005 26.918 56.2995 26.6387 56.3949C26.2904 56.516 26.0415 56.2897 25.955 55.9558C25.7662 55.23 25.6132 54.4914 25.4738 53.75C25.42 53.4592 25.5445 53.221 25.8408 53.1617C26.1257 53.1028 26.3409 53.2518 26.4172 53.5348C26.6187 54.258 26.7873 54.9939 26.9485 55.6352Z" fill="#1D1818"/>
<path d="M18.703 79.81C18.5596 79.8152 18.2332 79.7151 18.2005 79.2426C18.1748 78.8641 18.4383 78.678 18.7425 78.6287C19.3678 78.5275 19.996 78.4407 20.6279 78.3949C20.9346 78.3721 21.2179 78.5236 21.2328 78.9217C21.2418 79.2185 21.0642 79.4198 20.8076 79.4705C20.185 79.591 19.5565 79.6755 18.703 79.81Z" fill="#1D1818"/>
<path d="M57.6759 58.6257C57.3124 58.548 57.1804 58.209 57.3601 57.9244C57.8066 57.2204 58.429 56.6802 59.1376 56.3054C59.4353 56.1469 59.7381 56.347 59.7424 56.766C59.7495 57.2819 58.2094 58.6686 57.6759 58.6257Z" fill="#1D1818"/>
<path d="M31.4956 99.9203C31.4445 100.35 30.2432 101.602 29.8438 101.608C29.7161 101.61 29.5494 101.517 29.4606 101.409C29.3252 101.245 29.2776 101.008 29.4107 100.821C29.802 100.278 30.2347 99.7679 30.7961 99.432C31.1614 99.2141 31.5457 99.512 31.4956 99.9203Z" fill="#1D1818"/>
<path d="M137.859 51.9179C137.835 52.239 137.644 52.4516 137.386 52.7213C137.212 52.2997 137.215 51.9669 137.49 51.6555C137.613 51.7454 137.735 51.8329 137.859 51.9179Z" fill="#E9A38D"/>
<path d="M146.164 57.7448C146.136 57.6582 146.083 57.6036 146.002 57.581C146.14 57.4838 146.278 57.3844 146.416 57.2872C146.333 57.434 146.248 57.581 146.165 57.7278L146.164 57.7448Z" fill="#E9A38D"/>
<path d="M131.057 73.533C131.614 74.2041 131.681 74.7562 131.904 75.2227C132.368 76.2039 132.244 76.9562 131.582 77.8453C129.105 81.1703 126.763 84.6114 124.553 88.1495C119.827 95.7124 116.244 103.896 113.662 112.607C113.516 113.1 112.992 113.857 113.763 114.131C114.519 114.4 114.472 113.476 114.642 112.973C115.368 110.814 116.068 108.645 116.812 106.489C116.942 106.115 116.96 105.632 117.494 105.355C117.974 107.008 118.32 108.652 118.345 110.343C118.418 115.086 118.121 119.791 117.177 124.423C116.128 129.567 113.665 133.802 110.21 137.387C108.679 138.972 107.067 140.467 105.461 141.967C105.073 142.329 104.679 142.613 104.789 143.261C105.086 145.001 104.722 146.685 104.491 148.381C104.484 148.434 104.469 148.486 104.465 148.539C104.37 149.446 104.158 150.419 105.013 151.053C105.853 151.68 106.737 151.412 107.563 150.981C108.56 150.459 109.328 149.626 110.028 148.722C111.863 146.344 113.556 143.85 115.249 141.353C116.573 139.398 116.28 139.428 117.936 141.07C119.462 142.581 120.683 144.395 121.739 146.294C124.637 151.5 127.134 156.914 128.751 162.746C129.196 164.349 129.47 165.994 129.811 167.623C130.033 168.684 129.836 169.553 129.252 170.323C127.089 173.184 124.273 174.644 120.825 174.454C118.837 174.345 117.038 173.557 115.665 171.849C114.816 170.79 114.26 169.607 114.224 168.197C114.193 166.907 114.134 165.612 114.196 164.327C114.352 161.086 113.765 157.978 112.475 155.067C111.934 153.849 112.102 153.118 112.915 152.284C113.484 151.701 113.941 150.99 114.431 150.32C114.62 150.061 114.745 149.729 114.482 149.448C114.132 149.071 113.844 149.349 113.614 149.637C113.096 150.281 112.596 150.944 112.09 151.599C109.649 154.768 106.68 157.183 103.196 158.872C102.289 159.312 101.367 159.662 100.369 159.682C99.9739 159.372 100.179 158.979 100.202 158.632C100.337 156.544 100.566 154.462 100.337 152.355C100.033 149.536 98.9426 147.171 97.2311 144.963C96.2376 143.681 95.3579 143.591 94.0725 143.866C91.9206 144.323 89.732 144.335 87.5444 143.955C86.9537 143.852 86.3799 143.713 85.8386 143.408C84.9963 142.935 84.9406 142.95 84.599 143.925C82.5707 149.715 81.9348 155.647 83.3242 161.782C83.7801 163.792 83.1252 164.708 81.1805 164.486C78.4229 164.173 75.9921 162.971 74.0389 160.767C72.7899 159.354 71.6805 157.813 70.6519 156.207C69.7107 154.737 68.7714 153.263 67.6815 151.913C66.8387 150.871 65.8409 150.085 64.5871 149.726C64.2609 149.633 63.973 149.675 63.8383 150.02C63.6844 150.409 63.9558 150.612 64.2339 150.759C64.4554 150.879 64.6998 150.95 64.9292 151.052C66.1007 151.568 66.6837 152.348 66.6555 153.87C66.5931 157.148 66.8088 160.427 67.3777 163.676C67.6761 165.374 67.6791 167.106 67.6619 168.828C67.6506 169.966 67.4434 171.07 67.0164 172.11C66.5936 173.137 65.9015 173.869 64.9004 174.204C63.6646 174.619 62.402 174.838 61.0905 174.783C60.1069 174.742 59.4132 174.292 58.8797 173.385C58.1003 172.058 57.8629 170.575 57.6386 169.089C56.6594 162.589 56.0449 156.058 55.9607 149.484C55.9482 148.514 55.9715 147.555 56.2288 146.613C56.8739 144.244 59.013 142.814 61.2902 143.259C63.0638 143.606 64.4458 144.542 65.2364 146.364C65.3623 146.655 65.4327 146.969 65.8004 147.04C67.2309 147.31 68.1567 148.431 69.0736 149.486C70.4444 151.065 71.7199 152.744 73.0429 154.371C73.6707 155.145 74.3093 155.91 74.9628 156.657C75.3447 157.091 75.7813 157.497 76.3177 157.652C76.9875 157.845 77.7813 157.977 78.3017 157.485C78.7522 157.056 78.2934 156.378 78.1238 155.835C77.3385 153.341 77.5311 150.842 77.9544 148.341C78.4077 145.655 79.18 143.046 79.4094 140.304C79.452 139.798 79.498 139.409 79.1722 138.971C78.0176 137.423 77.6079 135.589 77.6301 133.671C77.6497 131.739 77.7793 129.807 77.8932 127.877C78.1583 123.348 77.5181 118.977 75.8222 114.78C75.3407 113.588 74.7597 112.451 74.1105 111.357C71.0047 106.107 67.7559 100.951 64.044 96.1785C60.9791 92.2384 59.1638 83.5438 63.3991 77.6847C66.6415 73.1992 70.8299 70.1151 75.9425 68.5298C77.1374 68.1594 78.2917 68.2194 79.4521 68.6603C84.7748 70.6873 90.0277 72.9001 95.0387 75.7608C98.2954 77.6219 101.233 79.9406 103.877 82.7189C107.851 86.8936 111.45 91.374 114.127 96.6638C114.665 97.7256 114.716 98.5525 114.261 99.6513C112.485 103.958 111.325 108.497 110.306 113.082C110.258 113.289 110.196 113.495 110.169 113.706C110.135 113.996 110.226 114.251 110.49 114.363C110.856 114.518 111.063 114.271 111.156 113.947C111.316 113.385 111.434 112.81 111.564 112.24C114.823 97.8274 121.332 85.3561 130.465 74.4523C130.659 74.2179 130.803 73.9287 131.057 73.533ZM80.2382 97.9566C80.7542 98.238 80.9062 98.7251 81.1802 99.0959C84.7064 103.871 90.5136 104.761 95.0079 101.2C99.7138 97.4719 101.517 89.9514 99.1792 83.8131C95.8584 75.0919 86.5954 73.5836 81.2329 80.8895C81.0226 81.1776 80.8093 81.4633 80.5662 81.7908C80.1708 81.4782 79.816 81.1842 79.4463 80.9123C77.2947 79.3209 74.9295 78.5686 72.3684 78.99C69.1937 79.5131 66.8704 81.2186 65.9407 84.739C65.2757 87.2568 65.1272 89.7984 65.5408 92.3846C66.049 95.5473 67.4148 98.1733 69.8723 100.072C72.6996 102.257 75.6936 102.189 78.3667 99.9108C79.0591 99.3266 79.6958 98.6807 80.2382 97.9566ZM85.9838 126.566C86.0308 126.561 86.1363 126.566 86.2271 126.528C88.4261 125.635 90.7964 125.63 93.0674 125.108C95.385 124.572 96.95 123.139 97.8261 120.777C98.2725 119.574 98.5564 118.336 98.5491 117.03C98.5413 115.579 98.4796 114.129 98.4832 112.677C98.4911 109.446 98.5281 106.218 100.117 103.338C100.248 103.1 100.359 102.84 100.188 102.594C99.9759 102.284 99.6238 102.291 99.3754 102.439C98.8601 102.748 98.3785 103.122 97.9039 103.502C95.0844 105.761 92.1741 107.832 88.814 109.092C86.8191 109.84 84.7983 110.187 82.6768 109.913C81.7806 109.798 80.8959 109.691 80.1261 109.104C79.8528 108.896 79.5518 108.807 79.3539 109.153C79.1563 109.501 79.4087 109.747 79.6508 109.956C79.6897 109.989 79.7249 110.037 79.7702 110.053C81.2629 110.592 81.6265 112.011 82.0559 113.401C83.2876 117.394 84.5152 121.389 84.8213 125.611C84.8772 126.396 85.3058 126.606 85.9838 126.566ZM102.148 101.274C103.548 101.28 105.116 100.235 105.57 99.0395C105.963 98.0027 105.684 97.2605 104.735 96.8251C103.335 96.1826 101.912 96.543 100.815 97.7564C100.215 98.4183 99.8843 99.0995 100.257 100.051C100.638 101.014 101.433 101.118 102.148 101.274ZM77.2527 108.306C77.9184 108.298 78.5823 108.015 78.9854 107.568C79.6962 106.777 79.4978 105.973 78.5256 105.652C77.7392 105.394 77.0671 105.63 76.4786 106.161C76.0466 106.55 75.7278 107.035 75.993 107.692C76.2342 108.292 76.7462 108.311 77.2527 108.306ZM63.4281 81.0917C63.9052 80.7911 64.2454 80.2045 64.5134 79.5875C64.6241 79.333 64.4209 79.0142 64.1513 78.9951C63.4861 78.9474 63.2774 79.5801 62.9757 80.0423C62.8687 80.2046 62.7838 80.4369 62.7991 80.6307C62.8193 80.9094 62.9894 81.1197 63.4281 81.0917Z" fill="#A9B3F5"/>
<path d="M140.07 58.735C140.286 59.5909 139.938 60.2171 139.732 60.8577C138.971 63.2024 137.775 65.2883 136.489 67.3201C135.877 68.2892 135.305 69.2892 134.724 70.2796C134.55 70.577 134.517 70.908 134.829 71.1279C135.164 71.3643 135.452 71.1133 135.56 70.8391C136.058 69.5637 137.032 69.6078 138.052 69.7556C139.226 69.9271 140.431 69.8428 141.694 70.3794C140.518 71.1142 139.282 71.2403 138.131 71.6272C137.754 71.7535 137.372 71.8679 137.014 72.0376C136.774 72.1517 136.638 72.407 136.755 72.6986C136.877 73.0048 137.141 72.9924 137.39 72.9244C138.441 72.6293 139.494 72.3294 140.542 72.0272C141.027 71.8865 141.445 71.7278 141.813 72.3887C142.087 72.879 142.697 72.8088 143.187 72.8746C145.127 73.1283 146.965 73.8335 148.817 74.4777C148.944 74.5213 149.038 74.675 149.136 74.7678C149.092 75.2303 148.769 75.2366 148.489 75.2979C147.908 75.4259 147.307 75.4885 146.746 75.6817C145.1 76.2434 143.579 76.0641 142.029 75.1201C140.83 74.3879 140.644 74.5445 139.796 75.8196C138.328 74.6189 136.721 73.6809 134.942 73.1397C134.654 73.053 134.365 72.9687 134.079 72.8674C133.707 72.7337 133.342 72.7239 133.236 73.1972C133.127 73.678 133.516 73.838 133.851 73.9506C135.138 74.3822 136.449 74.7429 137.602 75.5489C138.042 75.8562 138.613 76.0297 138.795 76.755C137.68 76.8107 136.727 76.2341 135.704 76.0718C135.177 75.9874 134.627 75.67 134.19 76.2495C133.734 76.856 133.988 77.456 134.263 78.0532C135.382 80.4925 136.869 82.6745 138.376 84.8413C139.22 86.054 140.06 87.2717 140.831 88.5373C141.554 89.7258 141.522 89.7654 140.674 90.7413C140.239 91.2431 139.847 91.807 139.213 92.1352C138.638 91.7189 138.474 91.0054 138.221 90.386C136.868 87.0693 135.659 83.6914 134.601 80.2526C134.066 78.5138 133.434 76.8084 132.937 75.0519C132.655 74.054 132.446 72.9843 131.529 72.2684C131.205 72.0172 131.18 71.2937 131.045 70.7764C130.039 66.921 128.828 63.1498 127.053 59.6058C125.951 57.4067 124.68 55.3348 123.115 53.4825C122.915 53.2459 122.677 53.0319 122.619 52.6904C122.744 52.2968 123.07 52.1326 123.368 51.9567C124.197 51.4644 124.52 51.5407 125.156 52.3761C125.638 53.0082 125.992 53.7301 126.285 54.4776C127.277 57.0164 128.245 59.568 129.23 62.1119C129.616 63.1102 130.022 64.0983 130.421 65.0915C130.561 65.4386 130.716 65.7806 130.997 66.0302C131.161 66.1776 131.36 66.2466 131.547 66.1288C131.732 66.0135 131.796 65.7838 131.738 65.5711C131.181 63.5534 131.698 61.5123 131.547 59.4866C131.508 58.9553 131.381 58.2872 132.046 57.956C132.476 58.2611 132.379 58.7343 132.4 59.125C132.47 60.4161 132.477 61.7084 132.549 62.9995C132.581 63.5868 132.698 64.1725 132.791 64.7562C132.841 65.0783 132.929 65.4629 133.3 65.4338C133.748 65.396 133.779 64.9677 133.753 64.5795C133.707 63.8808 133.636 63.1848 133.58 62.4862C133.524 61.7901 133.484 61.0912 133.416 60.3952C133.356 59.7842 133.533 59.3459 134.086 59.1335C134.76 58.8749 134.826 59.5588 135.004 59.9173C135.331 60.5814 135.51 61.3311 135.824 62.0028C136.11 62.6119 136.02 63.085 135.731 63.6542C134.579 65.8972 133.467 68.1613 132.371 70.4348C132.167 70.8566 131.606 71.4312 132.237 71.8222C132.907 72.2368 132.962 71.4266 133.179 70.9851C134.961 67.3499 136.764 63.724 138.827 60.2655C139.138 59.7347 139.414 59.1584 140.07 58.735Z" fill="#C9623E"/>
<path d="M66.3789 101.358C63.2063 98.9682 60.1935 96.3818 57.2448 93.7015C53.6035 90.3894 49.9688 87.0698 46.3319 83.7526C45.3759 82.8806 45.362 82.8712 46.1695 81.9501C47.5483 80.3747 47.2699 80.6447 48.4308 81.8233C52.0198 85.4691 55.918 88.6816 59.9691 91.6824C60.6533 92.1908 61.1582 92.778 61.468 93.6262C61.8949 94.7904 62.6167 95.7738 63.3577 96.7325C64.4757 98.1767 65.5232 99.6753 66.3789 101.358Z" fill="#A4AEEF"/>
<path d="M46.8737 64.7533C47.5196 64.8886 47.9587 65.355 48.4454 65.7139C50.0307 66.8851 49.9674 66.8645 49.228 68.6722C48.0827 71.4718 47.4794 74.4669 47.1601 77.4976C47.017 78.8575 46.7746 79.9891 45.7602 80.8353C45.5681 80.9965 45.3949 81.1986 45.2512 81.4123C44.8143 82.0679 44.4475 82.2519 43.5873 81.8761C41.8081 81.0965 39.9389 81.5134 38.1827 82.1001C36.3929 82.6973 34.6636 83.4967 32.8989 84.1782C32.5488 84.3135 32.2187 84.6567 31.7824 84.4181C31.498 84.0019 31.7902 83.5939 31.7746 83.1823C31.7496 82.5284 32.0627 82.217 32.625 82.1066C35.5437 81.5263 38.38 80.4677 41.3906 80.4527C42.2545 80.448 43.0991 80.0559 44.0076 80.5423C44.4982 80.8041 44.5852 80.1505 44.6168 79.7258C44.7474 77.9663 44.8642 76.2021 44.988 74.4427C45.2215 71.118 45.6592 67.8475 46.8737 64.7533Z" fill="#C9623E"/>
<path d="M139.995 84.9855C137.648 82.2165 135.914 79.3844 135.077 77.0949C136.107 77.0894 137.006 77.5688 137.95 77.7662C138.878 77.9591 139.785 78.0456 140.161 76.5884C141.605 78.0126 142.921 79.3228 144.254 80.6132C144.597 80.9461 144.959 81.6858 145.45 81.1745C145.958 80.6456 145.264 80.2641 144.957 79.9036C144.26 79.0882 143.539 78.2949 142.914 77.5918C144.342 78.415 145.894 79.3327 147.131 80.7755C148.005 81.7938 148.007 81.7962 147.228 82.9119C147.112 83.0792 146.971 83.2274 146.757 83.4864C145.883 82.6693 145.041 81.8516 144.166 81.0758C143.353 80.3545 142.525 79.6506 141.668 78.9982C141.309 78.7263 140.837 78.0469 140.425 78.7047C140.096 79.2301 140.755 79.4912 141.086 79.7514C143.157 81.3792 145.035 83.2458 146.879 85.1568C147.023 85.3065 147.187 85.4419 147.306 85.6117C147.497 85.8819 147.972 86.0933 147.629 86.5242C147.329 86.9009 146.926 87.1368 146.453 86.775C146.087 86.4962 145.702 86.2298 145.377 85.8988C144.468 84.9688 143.588 84.0086 142.696 83.0586C141.591 81.8826 140.505 80.6794 139.234 79.7027C138.953 79.4875 138.66 79.2144 138.341 79.1503C137.978 79.075 137.51 79.0235 137.256 79.4358C137.027 79.8063 137.278 80.1409 137.461 80.4671C138.31 81.9756 139.151 83.4819 139.995 84.9855Z" fill="#9DAAE8"/>
<path d="M33.4461 75.9392C33.193 76.1649 32.9813 75.9919 32.7645 75.8724C30.0181 74.3491 27.282 72.8038 24.6728 71.0135C23.8678 70.4615 23.8499 70.3867 24.3819 69.5441C24.7729 68.9252 25.2518 68.3991 25.8399 67.9897C27.6131 66.7542 28.1257 66.8534 29.6537 68.4999C30.6986 69.627 31.6118 70.7761 31.7304 72.4623C31.7917 73.3417 32.3273 74.0372 32.7654 74.7588C33.0016 75.1424 33.4425 75.4007 33.4461 75.9392Z" fill="#A4AEEF"/>
<path d="M41.8135 79.1787C38.8724 79.4134 35.9987 80.1518 33.1303 80.9192C33.1006 80.7668 33.072 80.714 33.0869 80.6821C34.5848 77.4867 34.3007 77.7254 37.164 78.2157C37.8969 78.3423 38.6446 78.3738 39.3843 78.4419C39.634 78.4637 39.8849 78.4613 40.0101 78.1651C40.1375 77.8639 39.9892 77.6434 39.7798 77.4776C37.4662 75.6459 35.7057 73.1478 33.4468 71.2616C32.392 70.3814 31.7233 69.161 30.7652 68.2158C30.3927 67.8491 30.5721 67.564 30.8776 67.3006C31.1655 67.0498 31.4559 66.862 31.7586 67.2956C31.8785 67.468 32.0246 67.6255 32.118 67.813C33.1406 69.8787 34.8599 71.2097 36.4599 72.6693C36.8779 73.0496 37.3699 73.3653 37.5681 73.9612C37.917 75.0082 38.6291 75.6814 39.5547 76.0324C40.9074 76.545 41.6339 77.536 41.8135 79.1787Z" fill="#E6D98D"/>
<path d="M42.8471 82.8465C41.2328 85.0277 39.7745 86.9661 38.351 88.9353C37.938 89.5074 37.5441 89.6022 36.9619 89.2213C36.2787 88.7722 35.5743 88.3549 34.8491 87.9937C34.179 87.6605 34.1319 87.1724 34.3954 86.5572C34.9097 85.3585 35.6717 84.4093 36.8057 83.8546C38.6313 82.9574 40.5473 82.591 42.8471 82.8465Z" fill="#CE6440"/>
<path d="M137.065 68.4152C137.86 67.0596 138.972 66.3636 140.252 66.1996C142.651 65.8915 145.061 65.5616 147.511 65.959C149.05 66.2072 150.503 66.7199 151.954 67.2929C152.604 67.5508 152.778 67.9453 152.519 68.647C152.32 69.1811 152.077 69.3135 151.642 68.9745C151.159 68.5955 150.695 68.1847 150.207 67.8105C148.104 66.1937 146.539 66.1461 144.787 68.1345C143.746 69.3139 142.83 69.5385 141.468 69.0627C140.106 68.5821 138.617 68.8681 137.065 68.4152Z" fill="#9DAAE8"/>
<path d="M149.44 56.6564C149.025 58.9979 148.155 60.7261 147.448 62.5166C147.28 62.941 146.851 63.0171 146.445 63.0807C144.664 63.3573 142.919 63.3185 141.144 62.3144C143.701 60.2073 146.477 58.6261 149.44 56.6564Z" fill="#A4AEEF"/>
<path d="M144.921 77.3428C147.08 76.0848 149.041 77.1749 151.021 77.9516C151.387 78.0949 151.556 78.4216 151.578 78.8313C151.677 80.5475 151.317 82.1902 151.15 83.9551C150.435 83.5371 150.152 82.9408 149.74 82.4805C149.377 82.075 149.116 81.6723 149.392 81.0555C149.598 80.6002 149.373 80.0367 148.955 80.0524C147.577 80.1058 146.894 78.8864 145.908 78.2407C145.548 78.0051 145.088 77.8563 144.921 77.3428Z" fill="#EEE093"/>
<path d="M136.811 61.4803C136.067 60.2055 135.781 59.0359 136.341 57.6554C136.975 56.0914 137.647 54.5583 138.457 53.0952C138.784 52.5061 139.131 52.3682 139.623 52.8758C139.732 52.9878 139.854 53.0801 139.971 53.1822C141.388 54.3954 141.379 54.3883 140.362 55.9015C139.756 56.8021 139.172 57.724 138.587 58.6435C138.008 59.5557 137.439 60.4774 136.811 61.4803Z" fill="#CE6440"/>
<path d="M43.0972 84.566C41.1761 88.6345 39.3052 92.7263 38.3348 97.2278C38.0511 98.5421 38.0352 98.5376 36.4826 98.2813C37.0514 94.9898 37.5669 91.716 39.5687 89.001C40.6071 87.5917 41.5929 86.1398 42.6017 84.7068C42.7661 84.6574 42.9325 84.613 43.0972 84.566Z" fill="#9DAAE8"/>
<path d="M40.6995 75.2892C39.2231 74.9384 38.5903 74.0511 38.2665 72.7202C37.8988 71.2102 37.36 69.7497 36.7421 68.3296C36.3342 67.3942 35.8211 66.5361 35.1064 65.8303C34.8866 65.6133 34.6514 65.3942 34.4861 65.13C34.2083 64.6904 34.2459 64.184 34.4474 63.7473C34.6865 63.2273 35.1397 63.5248 35.5082 63.559C36.2273 63.6278 36.6039 64.0581 36.845 64.8168C37.8709 68.0282 38.8506 71.2623 40.4488 74.2243C40.5893 74.4865 40.5956 74.8292 40.6995 75.2892Z" fill="#C9623E"/>
<path d="M30.1845 85.9727C28.3094 86.9135 26.6714 88.0362 24.8902 89.1206C24.6167 87.3418 24.3682 85.7298 24.094 83.9462C26.3228 84.0506 28.4093 84.1165 30.1845 85.9727Z" fill="#A4AEEF"/>
<path d="M130.399 52.1957C131.545 53.6658 132.203 55.1504 133.17 56.5997C131.272 56.464 130.641 57.0693 130.609 58.9075C130.591 59.9044 130.662 60.9045 130.52 61.9281C129.846 60.3321 128.692 58.952 129.305 56.9421C129.749 55.4994 129.886 53.9387 130.399 52.1957Z" fill="#9DAAE8"/>
<path d="M144.629 70.1188C145.968 68.1113 147.296 67.4581 148.573 68.0388C150.447 68.889 151.09 69.9422 150.9 72.0703C148.93 71.1083 146.91 70.462 144.629 70.1188Z" fill="#EEE093"/>
<path d="M46.0606 63.8566C45.5756 63.4121 45.5757 62.907 45.5001 62.4376C45.3798 61.68 44.9982 61.3864 44.2724 61.3399C42.9422 61.2566 42.7381 60.9669 42.7548 59.5802C42.7606 59.0533 42.8001 58.5257 42.8288 57.872C43.6482 58.0454 44.1869 58.6273 44.807 59.0182C45.324 59.3431 45.8325 59.6852 46.3307 60.047C46.909 60.4678 47.7535 60.6577 47.3576 61.821C47.1217 62.5151 47.1009 63.2754 46.2668 63.4883C46.1732 63.5072 46.1261 63.7315 46.0606 63.8566Z" fill="#EEE093"/>
<path d="M48.6064 75.1373C48.9986 72.9174 49.4406 70.8639 50.2915 68.9044C51.4878 69.2788 52.395 70.0227 53.4995 70.8356C52.3136 71.7078 51.7147 73.119 50.194 73.4132C49.4739 73.5534 49.3257 74.6139 48.6064 75.1373Z" fill="#EEE093"/>
<path d="M42.5903 77.8262C41.5232 74.8946 40.9306 71.8713 40.5492 68.7954C40.4624 68.0865 40.7161 67.8141 41.339 67.8023C42.2014 67.7885 42.4923 67.9996 42.464 68.8201C42.3586 71.8226 42.5159 74.8175 42.5903 77.8262Z" fill="#9DAAE8"/>
<path d="M41.0107 66.6476C40.2637 65.1416 39.7615 63.575 39.4382 61.9904C39.2157 60.9041 39.9971 60.4517 40.9727 60.9597C41.5538 61.2617 42.1163 61.6102 42.6809 61.9538C43.1131 62.2174 43.2598 62.8292 42.9066 62.9963C41.6519 63.5916 41.83 64.8973 41.4977 65.9531C41.4346 66.1511 41.4413 66.3769 41.0107 66.6476Z" fill="#C9623E"/>
<path d="M134.748 84.1275C135.318 85.7095 135.786 87.0485 136.287 88.372C136.512 88.9629 136.217 89.2746 135.857 89.5877C135.482 89.9154 135.154 90.3933 134.565 90.0768C133.949 89.7438 133.338 89.3964 132.665 89.0235C133.345 87.4242 133.996 85.8932 134.748 84.1275Z" fill="#9DAAE8"/>
<path d="M142.383 71.4088C144.449 70.8618 146.355 71.4293 148.204 72.1138C150.257 72.8743 152.254 73.8243 154.509 74.791C153.932 75.138 153.578 74.9562 153.245 74.8419C151.397 74.2152 149.558 73.5643 147.707 72.9498C146.285 72.4793 144.87 71.9604 143.369 71.8514C143.051 71.8285 142.717 71.7552 142.383 71.4088Z" fill="#E6D98D"/>
<path d="M39.264 68.8715C38.2674 66.2796 37.5126 63.6733 36.8445 61.0411C36.7173 60.5398 36.4576 60.0386 36.6425 59.2759C38.0139 60.5834 38.2572 62.3818 38.9148 63.9363C39.5891 65.5319 39.9347 67.1482 39.264 68.8715Z" fill="#E6D98D"/>
<path d="M133.845 57.746C134.159 57.0424 134.213 56.4655 134.254 55.8401C134.374 53.9739 134.968 52.1884 135.518 50.4135C135.599 50.1543 135.742 49.9231 136.049 49.9755C136.418 50.0387 136.542 50.3474 136.517 50.6832C136.481 51.1626 136.399 51.6406 136.293 52.1067C135.929 53.7177 135.546 55.3217 135.166 56.9281C134.995 57.658 134.99 57.6556 133.845 57.746Z" fill="#E6D98D"/>
<path d="M33.5058 77.6622C31.3904 78.1264 29.5742 77.7043 27.7815 77.0108C27.5336 76.914 27.4432 76.6713 27.4934 76.3535C27.6832 75.1741 28.3962 74.7225 29.3668 75.2505C30.6981 75.9723 32.0828 76.5938 33.5058 77.6622Z" fill="#C9623E"/>
<path d="M36.9648 90.4119C36.8177 91.1567 36.3419 91.5684 35.9803 92.0555C35.5157 92.6828 34.4834 92.8897 33.8752 92.5379C33.3679 92.2447 33.2263 91.4547 33.5537 90.5196C33.6727 90.1804 33.8556 89.8591 34.0503 89.562C34.3414 89.1199 34.6983 88.9796 35.1846 89.3119C35.7648 89.7079 36.3767 90.0524 36.9648 90.4119Z" fill="#C9623E"/>
<path d="M37.6387 77.0067C36.5471 76.9478 35.5103 77.007 34.3721 76.8933C34.8331 75.7894 34.3341 75.054 33.7003 74.2968C33.2133 73.7165 32.8037 73.0302 32.6786 71.9742C33.7822 72.7684 34.5177 73.6861 35.3196 74.5177C36.1037 75.3374 36.8658 76.177 37.6387 77.0067Z" fill="#BB5C3A"/>
<path d="M140.905 61.1207C141.029 59.7307 141.409 58.7045 142.198 57.8327C142.812 57.1561 143.321 56.3699 143.887 55.6408C144.105 55.36 144.384 55.3182 144.669 55.5431C144.973 55.7845 144.957 56.1172 144.763 56.3829C143.6 57.9776 142.86 59.9788 140.905 61.1207Z" fill="#E6D98D"/>
<path d="M36.7992 71.4248C35.8737 70.8694 35.2651 70.2567 34.6782 69.634C33.4655 68.3479 33.1728 68.6622 34.2164 66.4186C35.6819 67.6949 36.1176 69.4966 36.7992 71.4248Z" fill="#E6D98D"/>
<path d="M146.837 64.4531C146.844 64.6652 146.7 64.7258 146.556 64.7237C144.714 64.708 142.872 64.6921 141.059 65.093C140.553 65.2064 140.063 65.1143 139.76 64.5532C139.593 64.2453 139.599 63.946 139.761 63.6463C139.943 63.3076 140.192 63.286 140.517 63.4269C142.539 64.3005 144.64 64.4874 146.779 64.3336C146.797 64.3333 146.82 64.4148 146.837 64.4531Z" fill="#9DAAE8"/>
<path d="M121.592 60.2464C121.704 59.6514 122.079 59.4385 122.32 59.1193C122.57 58.7879 122.884 58.7165 123.239 58.9395C124.253 59.5755 125.374 60.0184 126.258 60.9932C124.708 60.745 123.158 60.4967 121.592 60.2464Z" fill="#E6D98D"/>
<path d="M141.682 87.8501C141.168 87.0866 140.737 86.4428 140.179 85.6121C141.376 85.9332 142.089 85.5605 142.248 84.2017C142.815 84.8163 143.263 85.3023 143.793 85.8763C143.159 86.6187 142.496 87.2063 141.682 87.8501Z" fill="#E6D98D"/>
<path d="M44.6467 68.0193C44.3002 67.8338 43.8479 67.6966 43.8658 67.1928C43.9156 65.6256 44.0216 64.0646 44.1136 62.3359C45.6064 64.6591 45.6854 65.6864 44.6467 68.0193Z" fill="#E6D98D"/>
<path d="M43.6463 76.6066C43.3783 74.3151 43.3679 72.0162 43.4266 69.716C43.436 69.3704 43.3485 68.9293 43.8291 68.8253C44.2877 68.7289 44.5863 69.1076 44.4768 69.7641C44.1053 72.0241 44.0261 74.3247 43.7736 76.5993L43.6463 76.6066Z" fill="#E6D98D"/>
<path d="M50.5721 74.7141C50.5923 75.6414 49.826 77.3637 48.2439 79.9567C47.8368 78.9835 49.1243 76.0854 50.5721 74.7141Z" fill="#BB5C3A"/>
<path d="M32.6213 79.0659C32.5118 80.4875 31.1288 80.4514 30.6812 81.6879C30.568 81.2243 30.5028 81.0775 30.5027 80.9343C30.4999 78.5711 30.292 78.597 32.6213 79.0659Z" fill="#BB5C3A"/>
<path d="M32.761 66.9522C32.0904 66.0886 31.56 65.1955 31.2159 64.0923C33.1265 64.5237 34.0575 65.0472 32.761 66.9522Z" fill="#BB5C3A"/>
<path d="M22.0027 73.2019C22.5275 72.9149 23.0016 72.6557 23.564 72.351C23.855 73.1948 23.491 73.8135 23.3024 74.5817C22.6706 74.2519 22.2116 73.9259 22.0027 73.2019Z" fill="#BB5C3A"/>
<path d="M33.9553 84.9503C33.6912 85.6121 33.5081 85.9815 33.3948 86.3762C33.1967 87.0682 32.8342 86.9614 32.4026 86.6549C32.2008 86.511 31.9485 86.4068 31.9275 86.0995C31.8986 85.6857 32.2079 85.6022 32.4782 85.4976C32.8816 85.3395 33.288 85.1959 33.9553 84.9503Z" fill="#BB5C3A"/>
<path d="M30.5719 84.8021C28.8942 83.7658 28.8866 83.7417 29.8227 82.7226C30.2699 83.2531 30.3451 83.9295 30.5719 84.8021Z" fill="#BB5C3A"/>
<path d="M41.5878 92.7418C41.8393 93.2571 42.0973 93.7674 42.3445 94.2852C42.5961 94.8128 42.1995 94.9564 41.894 95.0792C41.4692 95.2503 41.4002 94.9088 41.387 94.5566C41.3663 93.9663 41.3501 93.3784 41.3315 92.7881C41.4186 92.7718 41.5033 92.7556 41.5878 92.7418Z" fill="#E6D98D"/>
<path d="M52.191 65.3322C52.7325 63.5864 52.7325 63.5864 53.6292 64.3347C53.2561 64.8122 52.8019 65.1361 52.191 65.3322Z" fill="#E6D98D"/>
<path d="M125.416 58.978C124.89 58.8232 124.541 58.6139 124.238 58.3236C123.914 58.0119 124.129 57.6969 124.317 57.4844C124.57 57.2003 124.752 57.4881 124.876 57.7138C125.075 58.0718 125.366 58.389 125.416 58.978Z" fill="#BB5C3A"/>
<path d="M42.5113 66.9509C42.2381 66.0173 42.6289 65.3189 42.8254 64.3593C43.1082 65.609 43.0608 65.9601 42.5113 66.9509Z" fill="#E9A38D"/>
<path d="M122.888 57.5625C122.371 57.2571 122.473 56.6338 122.109 56.2015C122.705 55.8817 123.067 56.2775 123.275 56.5963C123.536 56.9941 123.239 57.3324 122.888 57.5625Z" fill="#9DAAE8"/>
<path d="M26.8175 81.8879C26.3323 81.9484 26.1076 81.7199 25.8609 81.5743C25.7007 81.4779 25.5028 81.3192 25.6345 81.0838C25.7281 80.9193 25.8866 80.7537 26.0506 80.6947C26.3057 80.5999 26.3396 80.8977 26.4278 81.0634C26.5472 81.294 26.6491 81.5322 26.8175 81.8879Z" fill="#BB5C3A"/>
<path d="M49.88 61.5871C49.7681 61.8875 49.5228 62.079 49.235 62.1258C49.0856 62.1505 49.089 61.9105 49.1157 61.7597C49.1647 61.4629 49.3181 61.2732 49.6126 61.2966C49.7388 61.3111 49.9211 61.327 49.88 61.5871Z" fill="#9DAAE8"/>
<path d="M140.544 83.2563C140.716 83.6293 141.058 83.9019 141.132 84.4563C140.432 84.2931 140.395 83.5482 140.028 83.1594C140.202 83.1925 140.373 83.2232 140.544 83.2563Z" fill="#BB5C3A"/>
<path d="M146.165 57.7258C145.718 57.6545 145.496 58.2763 145.023 58.1475C145.567 57.0522 145.567 57.0522 146.165 57.7403C146.163 57.7427 146.165 57.7258 146.165 57.7258Z" fill="#E9A38D"/>
<path d="M140.545 83.2517C140.374 83.221 140.203 83.188 140.031 83.155C139.888 83.0074 139.684 82.8221 139.783 82.6307C139.934 82.3439 140.11 82.61 140.222 82.734C140.354 82.8792 140.439 83.0766 140.545 83.2517Z" fill="#1D1818"/>
<path d="M43.6421 76.607C43.6421 76.607 43.7698 76.5997 43.7702 76.6021C43.779 76.899 43.7881 77.1958 43.8038 77.7067C43.6107 77.2114 43.5728 76.9151 43.6421 76.607Z" fill="#BB5C3A"/>
<path d="M132.689 50.1117C132.662 50.3278 132.508 50.4302 132.346 50.4625C132.266 50.4785 132.236 50.3314 132.307 50.2306C132.389 50.1152 132.479 50.0068 132.566 49.896C132.608 49.9679 132.649 50.0398 132.689 50.1117Z" fill="#9DAAE8"/>
<path d="M43.113 84.5637C42.9481 84.6105 42.7815 84.6572 42.6169 84.7039C42.6883 84.4753 42.7677 84.2198 43.0305 84.2341C43.1791 84.2384 43.1892 84.4219 43.113 84.5637Z" fill="#1D1818"/>
<path d="M141.472 57.136C141.472 57.1481 141.336 57.3085 141.163 57.3895C141.112 57.4148 140.848 57.3375 140.898 57.1423C140.945 56.9546 141.082 56.7941 141.179 56.6223C141.277 56.7126 141.458 56.7091 141.472 57.136Z" fill="white"/>
<path d="M142.123 55.502C142.088 55.5778 142.054 55.6488 142.023 55.7173C141.99 55.6816 141.924 55.6393 141.93 55.6125C141.943 55.537 141.983 55.4683 142.015 55.395C142.047 55.4307 142.082 55.464 142.123 55.502Z" fill="white"/>
<path d="M80.2659 97.795C79.7232 98.5177 79.0839 99.1626 78.3977 99.7474C75.7228 102.021 72.7249 102.089 69.8981 99.9081C67.439 98.0128 66.0726 95.3896 65.5642 92.2358C65.1483 89.6543 65.2991 87.1152 65.9646 84.6048C66.895 81.0912 69.2194 79.3866 72.3964 78.867C74.9592 78.4465 77.3259 79.195 79.4787 80.7859C79.8487 81.0572 80.2035 81.3531 80.5992 81.6627C80.8405 81.3359 81.0534 81.0507 81.2664 80.7632C86.6325 73.4716 95.8991 74.9773 99.2238 83.6817C101.563 89.8084 99.7582 97.314 95.0492 101.034C90.552 104.588 84.7412 103.701 81.2131 98.9346C80.9364 98.5622 80.7818 98.0759 80.2659 97.795ZM79.52 90.4554C79.6064 92.9847 80.1078 94.923 81.2009 96.9121C84.4529 102.822 91.058 103.83 95.5312 99.1017C99.4723 94.9336 100.349 87.8869 97.5795 82.626C94.3061 76.406 87.3712 75.3903 82.8788 80.509C80.4595 83.2715 79.4079 86.6373 79.52 90.4554ZM73.8361 79.8273C70.1186 79.9287 67.7256 81.9592 66.849 85.4645C66.1201 88.3806 66.1801 91.2791 67.1176 94.1604C67.8014 96.2667 69.0044 97.9778 70.7473 99.1623C72.3551 100.255 74.1147 100.913 75.9771 100.056C77.2603 99.4669 78.3087 98.4847 79.2145 97.3381C79.6292 96.8168 79.7262 96.3351 79.4584 95.6063C77.97 91.5511 78.0986 87.5203 79.7156 83.5937C80.0159 82.8659 79.9392 82.4314 79.359 81.9655C77.616 80.558 75.6603 79.8912 73.8361 79.8273Z" fill="#141114"/>
<path d="M85.9875 126.517C85.3068 126.557 84.8806 126.347 84.8222 125.563C84.5184 121.344 83.2884 117.352 82.0561 113.363C81.6262 111.975 81.265 110.556 79.7698 110.017C79.7244 110.001 79.6893 109.953 79.6499 109.92C79.4077 109.711 79.1558 109.467 79.3533 109.118C79.5509 108.77 79.852 108.861 80.1258 109.069C80.8958 109.656 81.7808 109.762 82.6772 109.878C84.799 110.152 86.8205 109.805 88.8159 109.057C92.1774 107.801 95.0911 105.732 97.909 103.472C98.3816 103.092 98.8655 102.719 99.3806 102.41C99.6294 102.262 99.9791 102.255 100.193 102.564C100.362 102.81 100.254 103.067 100.122 103.307C98.5333 106.185 98.4961 109.412 98.4882 112.64C98.485 114.09 98.5463 115.539 98.554 116.989C98.5618 118.293 98.2778 119.53 97.8312 120.733C96.9567 123.09 95.3916 124.524 93.0707 125.06C90.7994 125.584 88.4284 125.589 86.2288 126.478C86.1425 126.516 86.0366 126.511 85.9875 126.517ZM82.4021 110.97C82.928 112.703 83.4279 114.17 83.8028 115.674C83.9902 116.427 84.3377 116.556 84.9674 116.534C86.0654 116.495 87.1406 116.302 88.2134 116.102C91.2174 115.536 94.0432 114.455 96.6191 112.695C97.0254 112.416 97.5142 112.193 97.5065 111.534C97.4834 109.23 97.7572 106.972 98.4878 104.467C93.5427 108.269 88.7227 111.567 82.4021 110.97ZM97.4855 114.061C95.6132 115.649 94.2833 117.298 93.6069 119.518C93.2571 120.667 93.0187 120.71 92.166 119.999C92.0072 119.866 91.8717 119.704 91.7129 119.574C90.5171 118.583 89.5181 118.623 88.355 119.659C86.7709 121.07 86.1316 122.916 86.1357 125.103C86.888 125.343 87.4597 124.895 88.0851 124.81C89.6062 124.601 91.1211 124.336 92.6332 124.054C94.899 123.634 96.3333 122.171 97.045 119.848C97.5939 118.053 97.6681 116.208 97.4855 114.061Z" fill="#0D0A0B"/>
<path d="M102.195 101.244C101.476 101.088 100.681 100.985 100.303 100.024C99.9294 99.0737 100.26 98.396 100.861 97.733C101.96 96.522 103.383 96.1599 104.783 96.8035C105.733 97.2408 106.014 97.9787 105.618 99.0139C105.164 100.207 103.598 101.25 102.195 101.244Z" fill="#E9A38D"/>
<path d="M77.2503 108.175C76.7434 108.18 76.231 108.161 75.9898 107.562C75.7268 106.909 76.0459 106.423 76.4757 106.034C77.0646 105.505 77.7372 105.269 78.5241 105.527C79.497 105.847 79.6954 106.65 78.9841 107.439C78.5807 107.885 77.9164 108.167 77.2503 108.175Z" fill="#E9A38D"/>
<path d="M63.4461 80.8178C63.0074 80.8457 62.8372 80.6356 62.8171 80.3546C62.8039 80.1609 62.8867 79.9288 62.9937 79.7667C63.2976 79.3072 63.5063 78.675 64.1696 78.7202C64.4393 78.7392 64.6422 79.0579 64.5314 79.3122C64.2637 79.9311 63.926 80.5173 63.4461 80.8178Z" fill="#1D1818"/>
<path d="M79.5323 90.4845C79.4202 86.6594 80.4689 83.2875 82.8909 80.5198C87.378 75.3892 94.309 76.4089 97.5832 82.6401C100.351 87.9107 99.4753 94.9726 95.5368 99.1461C91.0662 103.885 84.4629 102.874 81.2147 96.9531C80.12 94.9602 79.6189 93.0185 79.5323 90.4845ZM91.8216 88.1109C91.7977 87.9245 91.7769 87.5441 91.6937 87.1816C91.3561 85.7273 90.5972 84.6379 89.2329 84.1914C87.8598 83.7425 86.6929 84.2215 85.7211 85.2647C84.7646 86.2904 84.3527 87.5969 84.36 89.0358C84.3678 91.0572 85.529 92.7429 87.1281 93.1775C88.7528 93.6194 90.3862 92.7232 91.2803 90.9222C91.6849 90.099 91.8477 89.2245 91.8216 88.1109Z" fill="#FBFCFC"/>
<path d="M73.8285 79.7562C75.6492 79.8202 77.6055 80.4885 79.3472 81.899C79.9274 82.3684 80.0037 82.8015 79.7036 83.5309C78.0879 87.4664 77.9595 91.5063 79.4469 95.5706C79.7145 96.3011 79.6175 96.7838 79.2032 97.3064C78.2981 98.4556 77.2479 99.4399 75.9683 100.031C74.1053 100.89 72.3468 100.232 70.7425 99.1349C69.0004 97.9451 67.8008 96.2329 67.1153 94.1217C66.1785 91.234 66.1185 88.329 66.8468 85.4062C67.7228 81.8905 70.116 79.8554 73.8285 79.7562ZM76.3462 91.8196C76.3178 90.5675 75.5825 89.7223 74.5174 89.7188C73.3152 89.7131 72.367 90.8655 72.4032 92.285C72.4355 93.5325 73.1804 94.3944 74.2323 94.4003C75.4278 94.4063 76.3778 93.2463 76.3462 91.8196Z" fill="#FBFCFC"/>
<path d="M82.4035 110.952C88.7275 111.551 93.5508 108.259 98.4993 104.464C97.7681 106.963 97.4933 109.216 97.5166 111.514C97.5241 112.175 97.0371 112.397 96.6285 112.674C94.0509 114.429 91.2229 115.507 88.2172 116.071C87.144 116.274 86.0683 116.464 84.9696 116.502C84.3395 116.523 83.9919 116.395 83.8045 115.644C83.4294 114.146 82.9296 112.68 82.4035 110.952ZM92.4424 113.248C92.6717 113.19 92.8353 113.187 92.9566 113.11C93.8937 112.511 94.709 111.743 95.5125 110.963C95.6738 110.807 95.6709 110.57 95.5323 110.384C95.3546 110.146 95.0922 110.081 94.8705 110.252C94.3099 110.683 93.7677 111.144 93.2325 111.609C92.8325 111.958 92.4635 112.285 91.9445 111.772C91.5852 111.416 91.1987 111.54 90.8645 111.832C90.3292 112.302 89.7988 112.776 89.285 113.273C89.0258 113.524 88.7692 113.856 89.0619 114.238C89.4037 114.684 89.654 114.299 89.9159 114.066C90.6718 113.403 91.2709 112.194 92.4424 113.248Z" fill="#F5F7F7"/>
<path d="M97.4815 114.09C97.6641 116.235 97.5898 118.077 97.0385 119.87C96.3238 122.19 94.8915 123.651 92.6243 124.071C91.1118 124.35 89.5963 124.614 88.0745 124.825C87.4492 124.912 86.8774 125.357 86.1248 125.117C86.1208 122.933 86.7584 121.09 88.3453 119.681C89.5084 118.646 90.5103 118.607 91.704 119.596C91.8633 119.726 92.0009 119.888 92.1576 120.021C93.0102 120.728 93.2491 120.687 93.5986 119.54C94.2781 117.32 95.6085 115.674 97.4815 114.09Z" fill="#CE6440"/>
<path d="M91.8218 88.1015C91.8458 89.2148 91.685 90.0894 91.278 90.9101C90.3864 92.7111 88.7504 93.607 87.1261 93.1652C85.529 92.7307 84.3677 91.0475 84.3575 89.0238C84.3501 87.5851 84.7621 86.2788 85.7186 85.2531C86.6908 84.2124 87.8574 83.731 89.2309 84.1798C90.5974 84.6263 91.3563 85.7156 91.6915 87.1698C91.7792 87.5346 91.7979 87.9128 91.8218 88.1015ZM88.3176 88.3521C88.7638 88.2826 89.2608 88.2608 89.723 88.1159C90.2625 87.9477 90.3273 87.512 89.9422 87.0318C89.2556 86.174 87.8677 86.189 87.2203 87.0606C86.7964 87.6319 86.9948 88.1595 87.6924 88.3011C87.8843 88.3411 88.0836 88.3348 88.3176 88.3521ZM88.8611 91.3554C89.4583 91.385 90.6666 89.8009 90.5215 89.1873C90.4618 88.9336 90.2845 88.8572 90.0926 88.8172C89.4717 88.6861 88.4838 89.2927 88.2903 89.9105C88.1051 90.506 88.432 91.3347 88.8611 91.3554Z" fill="#0D0A0B"/>
<path d="M76.3454 91.8284C76.3771 93.2545 75.4268 94.4133 74.2311 94.4051C73.1763 94.3991 72.4337 93.5402 72.401 92.2913C72.3631 90.8725 73.3111 89.721 74.5161 89.7266C75.5793 89.7325 76.3148 90.577 76.3454 91.8284ZM73.7908 93.4624C74.1685 93.499 74.3248 93.2676 74.3279 92.9982C74.3315 92.474 74.3638 91.872 73.726 91.6974C73.373 91.6 73.117 91.8791 73.1229 92.2115C73.131 92.75 73.2821 93.2713 73.7908 93.4624ZM75.0796 91.0987C74.7562 91.0878 74.5981 91.2656 74.5376 91.5531C74.4465 91.9963 74.6181 92.3205 75.0239 92.3853C75.3171 92.4331 75.4405 92.1518 75.4355 91.8581C75.4301 91.5379 75.4414 91.1956 75.0796 91.0987Z" fill="#1D1818"/>
<path d="M92.4407 113.263C91.2691 112.211 90.6698 113.418 89.9161 114.086C89.652 114.318 89.4037 114.702 89.062 114.257C88.7671 113.876 89.0238 113.544 89.2851 113.293C89.797 112.797 90.3298 112.321 90.8651 111.853C91.1994 111.559 91.5864 111.438 91.9453 111.794C92.4644 112.306 92.8313 111.98 93.2336 111.631C93.7685 111.164 94.3112 110.707 94.872 110.275C95.0936 110.105 95.3558 110.167 95.5343 110.408C95.6745 110.594 95.6753 110.83 95.514 110.986C94.7079 111.763 93.8926 112.532 92.9574 113.13C92.8337 113.203 92.6701 113.206 92.4407 113.263Z" fill="#1D1818"/>
<path d="M88.3198 88.3478C88.0836 88.3304 87.8859 88.3346 87.6941 88.2969C86.996 88.1556 86.7997 87.6295 87.2219 87.0599C87.8677 86.1909 89.2567 86.1761 89.9459 87.0314C90.3312 87.5104 90.2663 87.9448 89.7264 88.1125C89.2638 88.257 88.7664 88.2786 88.3198 88.3478Z" fill="#F5F7F7"/>
<path d="M88.8609 91.3654C88.4317 91.3447 88.1047 90.5167 88.2924 89.9239C88.4859 89.3066 89.474 88.7005 90.0951 88.8315C90.2871 88.8714 90.4644 88.9478 90.5242 89.2013C90.667 89.8098 89.4583 91.3949 88.8609 91.3654Z" fill="#F5F7F7"/>
<path d="M73.7891 93.4615C73.2806 93.2702 73.1296 92.7483 73.1194 92.2092C73.1136 91.877 73.369 91.5972 73.722 91.6951C74.3597 91.8718 74.3272 92.4725 74.3236 92.9972C74.3254 93.2689 74.1667 93.4981 73.7891 93.4615Z" fill="#F5F7F7"/>
<path d="M75.0807 91.1C75.4425 91.197 75.4332 91.5419 75.4367 91.8575C75.4412 92.151 75.3178 92.4329 75.0251 92.3851C74.6194 92.3202 74.4453 91.9984 74.539 91.5524C74.5969 91.2647 74.7574 91.0891 75.0807 91.1Z" fill="#F5F7F7"/>
</g>
<g style="mix-blend-mode:soft-light">
<g style="mix-blend-mode:overlay">
<path d="M50.1988 40.2155L49.0422 37.8732H49.2963C49.372 37.8725 49.4462 37.8511 49.5108 37.8111C49.5754 37.7711 49.6281 37.714 49.6632 37.646C49.7042 37.5701 49.7252 37.4847 49.7242 37.3981C49.7232 37.3116 49.7002 37.2267 49.6574 37.1518L48.6134 35.0239H48.7927C48.8684 35.0232 48.9426 35.0017 49.0072 34.9617C49.0719 34.9217 49.1246 34.8646 49.1596 34.7966C49.2017 34.7183 49.2226 34.6302 49.22 34.5411C49.2175 34.452 49.1917 34.3652 49.1452 34.2895L47.795 32.1741H47.8263C47.902 32.1735 47.9762 32.152 48.0408 32.112C48.1055 32.072 48.1582 32.015 48.1932 31.947C48.2352 31.8698 48.2563 31.7828 48.2545 31.6947C48.2527 31.6067 48.228 31.5206 48.1829 31.4453L46.9145 29.3247C46.9836 29.3234 47.0509 29.3026 47.1089 29.2646C47.1669 29.2266 47.2132 29.173 47.2427 29.1098C47.2765 29.0411 47.2912 28.9643 47.2852 28.8878C47.2793 28.8113 47.2529 28.7378 47.209 28.6752L45.9277 26.6945C45.8909 26.6353 45.8399 26.5864 45.7794 26.5526C45.7189 26.5187 45.6509 26.5009 45.5818 26.5009C45.5126 26.5009 45.4446 26.5187 45.3841 26.5526C45.3236 26.5864 45.2726 26.6353 45.2359 26.6945L43.9546 28.6752C43.9103 28.7377 43.8837 28.8111 43.8775 28.8877C43.8713 28.9643 43.8858 29.0412 43.9194 29.1101C43.9489 29.1733 43.9952 29.2269 44.0532 29.2649C44.1112 29.3029 44.1785 29.3237 44.2476 29.325L43.646 30.3316L42.6133 28.9895C42.5743 28.9387 42.553 28.8762 42.5529 28.8119V28.5576C42.5526 28.3651 42.4768 28.1805 42.3422 28.0443C42.2077 27.9082 42.0253 27.8316 41.835 27.8314H40.4864C40.2962 27.8316 40.1138 27.9082 39.9792 28.0443C39.8447 28.1805 39.7689 28.3651 39.7686 28.5576V28.8116C39.7685 28.8759 39.7474 28.9383 39.7084 28.989L38.6189 30.4053L37.9725 29.325C38.0415 29.3237 38.1088 29.3029 38.1668 29.2649C38.2247 29.227 38.2711 29.1734 38.3005 29.1102C38.3342 29.0413 38.3486 28.9644 38.3424 28.8878C38.3363 28.8112 38.3096 28.7377 38.2654 28.6752L36.9841 26.6945C36.9473 26.6351 36.8963 26.5861 36.8357 26.5521C36.7752 26.5182 36.707 26.5004 36.6378 26.5004C36.5686 26.5004 36.5005 26.5182 36.4399 26.5521C36.3793 26.5861 36.3283 26.6351 36.2915 26.6945L35.0102 28.6752C34.966 28.7377 34.9394 28.8112 34.9332 28.8878C34.927 28.9644 34.9414 29.0413 34.9751 29.1102C35.0046 29.1735 35.0511 29.2272 35.1092 29.2651C35.1674 29.3031 35.2348 29.3238 35.304 29.325L35.0517 29.7469C34.8861 29.7608 34.7315 29.8371 34.6188 29.9607C34.506 30.0844 34.4431 30.2463 34.4427 30.4146V30.7656L34.0391 31.4418C33.9931 31.5174 33.9678 31.604 33.9655 31.6928C33.9633 31.7816 33.9843 31.8694 34.0264 31.9473C34.0615 32.0153 34.1142 32.0723 34.1788 32.1123C34.2434 32.1523 34.3176 32.1738 34.3934 32.1744H34.4246L33.072 34.291C33.026 34.3665 33.0006 34.4531 32.9983 34.5419C32.9961 34.6307 33.0171 34.7184 33.0593 34.7963C33.0943 34.8644 33.1469 34.9215 33.2116 34.9615C33.2763 35.0016 33.3505 35.023 33.4263 35.0236H33.6054L32.5615 37.1518C32.5186 37.2268 32.4955 37.3116 32.4945 37.3983C32.4934 37.4849 32.5145 37.5703 32.5556 37.6463C32.5907 37.7143 32.6433 37.7713 32.708 37.8114C32.7726 37.8514 32.8468 37.8728 32.9225 37.8735H33.2202L32.0635 40.2155C32.0173 40.2957 31.9924 40.3865 31.991 40.4792C31.9897 40.572 32.012 40.6635 32.0559 40.745C32.0932 40.8176 32.1493 40.8786 32.2183 40.9214C32.2873 40.9642 32.3664 40.9872 32.4473 40.9879H35.2627V42.4054C35.2629 42.5612 35.3242 42.7106 35.433 42.8207C35.5418 42.9309 35.6894 42.9929 35.8433 42.9931H46.4693C46.6232 42.9929 46.7708 42.9309 46.8796 42.8207C46.9884 42.7106 47.0497 42.5612 47.0499 42.4054V40.9879H49.8151C49.896 40.9872 49.9752 40.9642 50.0441 40.9214C50.1131 40.8786 50.1692 40.8176 50.2064 40.745C50.2503 40.6635 50.2727 40.572 50.2714 40.4792C50.27 40.3865 50.245 40.2956 50.1988 40.2155ZM36.6379 26.9583L37.8857 28.8873H37.6831C37.6361 28.8875 37.5899 28.9004 37.5494 28.9245C37.5089 28.9487 37.4754 28.9833 37.4525 29.0249C37.4283 29.0683 37.416 29.1174 37.4167 29.1671C37.4175 29.2169 37.4313 29.2656 37.4567 29.3082L38.3338 30.7751L37.1504 32.312V32.009C37.2815 31.964 37.3955 31.8787 37.4764 31.7649C37.5572 31.6511 37.6009 31.5146 37.6014 31.3744V30.4146C37.6012 30.236 37.531 30.0648 37.4063 29.9385C37.2815 29.8123 37.1124 29.7412 36.9359 29.7411H35.5598L35.8192 29.3082C35.8446 29.2655 35.8584 29.2167 35.859 29.1668C35.8596 29.117 35.8471 29.0678 35.8228 29.0245C35.7999 28.9829 35.7664 28.9483 35.7259 28.9241C35.6854 28.8999 35.6393 28.8871 35.5922 28.8869H35.3904L36.6379 26.9583ZM34.8743 30.4146C34.8744 30.3521 34.899 30.2921 34.9427 30.2479C34.9864 30.2037 35.0456 30.1788 35.1074 30.1787H36.9359C36.9977 30.1788 37.057 30.2037 37.1006 30.2479C37.1443 30.2921 37.1689 30.3521 37.169 30.4146V31.3744C37.169 31.437 37.1444 31.497 37.1007 31.5412C37.057 31.5855 36.9977 31.6104 36.9359 31.6104H35.1074C35.0456 31.6104 34.9863 31.5855 34.9426 31.5412C34.8989 31.497 34.8744 31.437 34.8743 31.3744V30.4146ZM36.718 32.0485V32.8741L35.3252 34.6831V32.0481L36.718 32.0485ZM34.4039 31.7368C34.3989 31.7267 34.3964 31.7156 34.3966 31.7043C34.3969 31.693 34.3999 31.682 34.4053 31.6722L34.4713 31.5616C34.4886 31.6233 34.5144 31.6823 34.5482 31.7366L34.4039 31.7368ZM35.2627 40.5502H32.4478C32.437 40.5406 32.4297 40.5277 32.4269 40.5134C32.4232 40.5012 32.422 40.4883 32.4234 40.4756C32.4248 40.4629 32.4288 40.4506 32.4351 40.4395C32.439 40.4331 32.4427 40.4265 32.446 40.4196L33.7634 37.752C33.7799 37.7186 33.7876 37.6815 33.786 37.6442C33.7843 37.607 33.7733 37.5707 33.7539 37.539C33.7345 37.5073 33.7075 37.4811 33.6753 37.4629C33.6431 37.4448 33.6068 37.4352 33.57 37.4352H32.9345C32.9296 37.4259 32.927 37.4156 32.9268 37.405C32.9266 37.3945 32.9289 37.384 32.9335 37.3745C32.9375 37.3681 32.9412 37.3615 32.9444 37.3547L34.1063 34.987C34.1271 34.9441 34.1368 34.8965 34.1345 34.8488C34.1323 34.8011 34.1181 34.7547 34.0933 34.714C34.0698 34.675 34.0368 34.6428 33.9975 34.6204C33.9582 34.598 33.9138 34.5862 33.8687 34.5862H33.4382C33.4333 34.5772 33.4306 34.5672 33.4302 34.5569C33.4298 34.5466 33.4318 34.5364 33.4361 34.527L34.8928 32.2452V35.2448L34.0578 36.3294C33.9925 36.4166 33.9525 36.5204 33.9423 36.6293C33.9321 36.7383 33.9522 36.8479 34.0002 36.9459C34.0483 37.0439 34.1224 37.1263 34.2143 37.184C34.3062 37.2416 34.4121 37.2722 34.5202 37.2721H35.2627V40.5502ZM46.6181 42.4054C46.618 42.4452 46.6024 42.4833 46.5746 42.5114C46.5468 42.5396 46.5092 42.5554 46.4699 42.5554H35.8433C35.804 42.5554 35.7663 42.5396 35.7386 42.5114C35.7108 42.4833 35.6952 42.4452 35.6951 42.4054V42.1549H46.6181V42.4054ZM35.6957 41.7173V39.915H36.4714V41.7173H35.6957ZM36.9038 41.7173V39.915H37.6377V41.7173H36.9038ZM38.0701 41.7173V39.915H38.8598V41.7173H38.0701ZM39.2921 41.7173V39.1636C39.29 38.9138 39.3367 38.666 39.4296 38.4347C39.5226 38.2033 39.6599 37.9928 39.8336 37.8154C40.0073 37.638 40.214 37.4972 40.4418 37.4011C40.6696 37.305 40.9139 37.2555 41.1607 37.2555C41.4075 37.2555 41.6518 37.305 41.8796 37.4011C42.1074 37.4972 42.3141 37.638 42.4878 37.8154C42.6615 37.9928 42.7988 38.2033 42.8918 38.4347C42.9847 38.666 43.0314 38.9138 43.0293 39.1636V41.7166L39.2921 41.7173ZM43.4616 41.7173V39.915H44.2435V41.7173H43.4616ZM44.6759 41.7173V39.915H45.41V41.7173H44.6759ZM46.6181 41.7173H45.8418V39.915H46.6181V41.7173ZM46.6181 39.4774H43.4616V39.1636C43.464 38.8562 43.4063 38.5513 43.2917 38.2666C43.1772 37.9819 43.0081 37.723 42.7942 37.5047C42.5803 37.2865 42.3258 37.1133 42.0455 36.9951C41.7651 36.8769 41.4644 36.816 41.1607 36.816C40.857 36.816 40.5563 36.8769 40.2759 36.9951C39.9956 37.1133 39.7411 37.2865 39.5272 37.5047C39.3133 37.723 39.1442 37.9819 39.0297 38.2666C38.9151 38.5513 38.8574 38.8562 38.8598 39.1636V39.4774H35.6951V37.1264L36.1119 36.5646H46.2001L46.6169 37.1264L46.6181 39.4774ZM45.6534 35.827L45.8759 36.1269H36.4367L36.6588 35.827H45.6534ZM36.9839 35.3893L40.916 30.0894C40.9451 30.0533 40.9817 30.0242 41.0233 30.0042C41.0648 29.9842 41.1103 29.9738 41.1563 29.9738C41.2023 29.9738 41.2478 29.9842 41.2893 30.0042C41.3309 30.0242 41.3675 30.0533 41.3966 30.0894L45.3287 35.3893H36.9839ZM46.9418 36.8345L41.7422 29.8268C41.6739 29.7348 41.5854 29.6602 41.4838 29.6088C41.3821 29.5574 41.27 29.5306 41.1563 29.5306C41.0426 29.5306 40.9305 29.5574 40.8288 29.6088C40.7272 29.6602 40.6387 29.7348 40.5704 29.8268L35.371 36.8345H34.5206C34.4933 36.8345 34.4665 36.8268 34.4432 36.8123C34.4199 36.7978 34.401 36.7771 34.3886 36.7524C34.3762 36.7277 34.3708 36.7001 34.373 36.6725C34.3752 36.6449 34.3849 36.6185 34.401 36.5961L40.0494 29.2579C40.1472 29.1301 40.2005 28.9732 40.2009 28.8116V28.5578C40.201 28.4812 40.2311 28.4078 40.2846 28.3536C40.3381 28.2995 40.4106 28.269 40.4862 28.2689H41.8337C41.9094 28.269 41.9819 28.2995 42.0354 28.3536C42.0889 28.4078 42.1191 28.4812 42.1192 28.5578V28.8115C42.1196 28.9732 42.1729 29.1302 42.2709 29.2579L47.9181 36.5939C47.9348 36.6162 47.9449 36.6427 47.9475 36.6705C47.9501 36.6982 47.945 36.7262 47.9327 36.7512C47.9205 36.7762 47.9015 36.7973 47.8781 36.812C47.8547 36.8267 47.8276 36.8345 47.8001 36.8345H46.9418ZM49.8356 40.5137C49.8327 40.5278 49.8255 40.5405 49.8151 40.5502H47.0504V37.2721H47.7999C47.9082 37.2722 48.0144 37.2416 48.1065 37.1837C48.1985 37.1259 48.2727 37.0431 48.3207 36.9448C48.3687 36.8465 48.3885 36.7365 48.378 36.6274C48.3675 36.5183 48.327 36.4143 48.2611 36.3272L43.9293 30.7005L44.7618 29.3082C44.7873 29.2655 44.8011 29.2168 44.8019 29.1669C44.8026 29.117 44.7902 29.0679 44.766 29.0245C44.7431 28.9829 44.7096 28.9483 44.6691 28.9241C44.6286 28.8999 44.5824 28.8871 44.5354 28.8869H44.333L45.5811 26.9578L46.8289 28.8869H46.6263C46.5792 28.8871 46.5331 28.8999 46.4926 28.9241C46.4521 28.9483 46.4186 28.9829 46.3957 29.0245C46.3715 29.0678 46.3592 29.1169 46.3599 29.1667C46.3606 29.2165 46.3744 29.2652 46.3998 29.3078L47.8156 31.6755C47.8202 31.685 47.8225 31.6955 47.8223 31.706C47.8221 31.7166 47.8195 31.727 47.8146 31.7363H47.4961C47.4484 31.7365 47.4016 31.7498 47.3607 31.7746C47.3198 31.7995 47.2862 31.835 47.2636 31.8776C47.2397 31.9219 47.2281 31.9719 47.23 32.0223C47.2319 32.0727 47.2472 32.1217 47.2743 32.1641L48.7814 34.525C48.786 34.5345 48.7883 34.5449 48.7881 34.5555C48.7879 34.5661 48.7852 34.5765 48.7803 34.5858H48.3493C48.3042 34.5858 48.2598 34.5976 48.2205 34.6199C48.1811 34.6423 48.1481 34.6746 48.1246 34.7136C48.1 34.7543 48.086 34.8007 48.0838 34.8484C48.0816 34.8961 48.0914 34.9436 48.1122 34.9864L49.2743 37.3546C49.2776 37.3614 49.2813 37.368 49.2853 37.3744C49.2899 37.3839 49.2923 37.3943 49.2921 37.4049C49.2919 37.4154 49.2892 37.4258 49.2843 37.4351H48.6924C48.6555 37.4351 48.6193 37.4447 48.5871 37.4628C48.5549 37.481 48.5279 37.5072 48.5085 37.5389C48.4891 37.5707 48.4781 37.6069 48.4765 37.6441C48.4748 37.6814 48.4826 37.7185 48.4991 37.7518L49.8163 40.4195C49.8196 40.4263 49.8233 40.4329 49.8274 40.4393C49.8337 40.4505 49.8376 40.4629 49.839 40.4757C49.8404 40.4885 49.8393 40.5014 49.8356 40.5137Z" fill="#F9FAFA"/>
<path d="M39.6544 33.1299C39.6544 33.4305 39.7424 33.7244 39.9074 33.9744C40.0724 34.2244 40.3069 34.4192 40.5813 34.5343C40.8557 34.6493 41.1577 34.6795 41.449 34.6208C41.7403 34.5622 42.0079 34.4174 42.2179 34.2049C42.428 33.9923 42.571 33.7215 42.629 33.4266C42.6869 33.1317 42.6572 32.8261 42.5435 32.5484C42.4299 32.2706 42.2374 32.0332 41.9904 31.8662C41.7435 31.6991 41.4531 31.61 41.1561 31.61C40.758 31.6104 40.3763 31.7707 40.0948 32.0556C39.8133 32.3406 39.6549 32.7269 39.6544 33.1299ZM42.2253 33.1299C42.2253 33.3439 42.1626 33.5532 42.0451 33.7312C41.9276 33.9092 41.7606 34.048 41.5652 34.1299C41.3699 34.2118 41.1548 34.2333 40.9474 34.1915C40.74 34.1498 40.5494 34.0467 40.3999 33.8953C40.2503 33.7439 40.1485 33.5511 40.1072 33.3411C40.066 33.1312 40.0872 32.9135 40.1681 32.7158C40.2491 32.518 40.3862 32.349 40.562 32.23C40.7379 32.1111 40.9446 32.0477 41.1561 32.0477C41.4396 32.048 41.7113 32.1621 41.9118 32.365C42.1122 32.5679 42.2249 32.8429 42.2253 33.1299Z" fill="#F9FAFA"/>
<path d="M37.8981 37.066H36.8712C36.7374 37.066 36.6091 37.1198 36.5145 37.2155C36.4199 37.3113 36.3667 37.4412 36.3667 37.5766V38.6165C36.3667 38.7519 36.4199 38.8818 36.5145 38.9776C36.6091 39.0734 36.7374 39.1272 36.8712 39.1272H37.8981C38.0319 39.1272 38.1602 39.0734 38.2549 38.9776C38.3495 38.8818 38.4026 38.7519 38.4026 38.6165V37.5766C38.4026 37.4412 38.3495 37.3113 38.2549 37.2155C38.1602 37.1198 38.0319 37.066 37.8981 37.066ZM37.9702 38.6165C37.9702 38.6358 37.9626 38.6544 37.9491 38.6681C37.9356 38.6818 37.9172 38.6894 37.8981 38.6894H36.8712C36.8521 38.6894 36.8338 38.6818 36.8203 38.6681C36.8067 38.6544 36.7992 38.6358 36.7992 38.6165V37.5766C36.7992 37.5573 36.8067 37.5387 36.8203 37.5251C36.8338 37.5114 36.8521 37.5037 36.8712 37.5037H37.8981C37.9172 37.5037 37.9356 37.5114 37.9491 37.5251C37.9626 37.5387 37.9702 37.5573 37.9702 37.5766V38.6165Z" fill="#F9FAFA"/>
<path d="M45.4977 37.066H44.4702C44.3364 37.066 44.2081 37.1198 44.1135 37.2155C44.0189 37.3113 43.9657 37.4412 43.9657 37.5766V38.6165C43.9657 38.7519 44.0189 38.8818 44.1135 38.9776C44.2081 39.0734 44.3364 39.1272 44.4702 39.1272H45.4975C45.6313 39.1272 45.7597 39.0734 45.8543 38.9776C45.9489 38.8818 46.002 38.7519 46.002 38.6165V37.5766C46.002 37.4412 45.9489 37.3114 45.8543 37.2156C45.7597 37.1198 45.6315 37.066 45.4977 37.066ZM45.5697 38.6165C45.5697 38.6358 45.5622 38.6544 45.5486 38.6681C45.5351 38.6818 45.5168 38.6894 45.4977 38.6894H44.4702C44.4511 38.6894 44.4328 38.6818 44.4192 38.6681C44.4057 38.6544 44.3981 38.6358 44.3981 38.6165V37.5766C44.3981 37.5573 44.4057 37.5387 44.4192 37.5251C44.4328 37.5114 44.4511 37.5037 44.4702 37.5037H45.4975C45.5166 37.5037 45.535 37.5114 45.5485 37.5251C45.562 37.5387 45.5696 37.5573 45.5696 37.5766L45.5697 38.6165Z" fill="#F9FAFA"/>
</g>
<g style="mix-blend-mode:overlay">
<path d="M52.2833 34.7425C52.2833 41.0645 47.2224 46.174 40.9986 46.174C34.7748 46.174 29.7139 41.0645 29.7139 34.7425C29.7139 28.4204 34.7748 23.311 40.9986 23.311C47.2224 23.311 52.2833 28.4204 52.2833 34.7425Z" stroke="#F9FAFA" stroke-width="1.5"/>
</g>
</g>
<g filter="url(#filter1_d)">
<path d="M40.3361 43.2532L40.1381 40.9852L41.5241 40.9132C42.4841 40.8532 42.9641 40.3492 42.9641 39.4012V30.3832H45.7541V39.3652C45.7541 41.7412 44.4941 43.0132 41.9741 43.1812L40.3361 43.2532ZM52.667 43.2712C51.623 43.2712 50.723 43.0852 49.967 42.7132C49.223 42.3292 48.647 41.7952 48.239 41.1112C47.843 40.4152 47.645 39.5992 47.645 38.6632C47.645 37.7512 47.837 36.9532 48.221 36.2692C48.617 35.5732 49.151 35.0332 49.823 34.6492C50.507 34.2532 51.293 34.0552 52.181 34.0552C53.465 34.0552 54.485 34.4632 55.241 35.2792C55.997 36.0832 56.375 37.1752 56.375 38.5552V39.2392H50.237C50.333 39.9352 50.585 40.4452 50.993 40.7692C51.413 41.0812 51.989 41.2372 52.721 41.2372C53.201 41.2372 53.687 41.1652 54.179 41.0212C54.671 40.8772 55.115 40.6552 55.511 40.3552L56.231 42.1732C55.787 42.5092 55.241 42.7792 54.593 42.9832C53.957 43.1752 53.315 43.2712 52.667 43.2712ZM52.289 35.8552C51.713 35.8552 51.245 36.0292 50.885 36.3772C50.537 36.7252 50.321 37.2112 50.237 37.8352H54.125C54.053 36.5152 53.441 35.8552 52.289 35.8552ZM61.2499 43.2712C60.1099 43.2712 59.2759 42.9772 58.7479 42.3892C58.2199 41.7892 57.9559 40.9012 57.9559 39.7252V30.3832H60.6739V39.6172C60.6739 40.5772 61.0999 41.0572 61.9519 41.0572C62.0839 41.0572 62.2099 41.0512 62.3299 41.0392C62.4619 41.0272 62.5879 41.0032 62.7079 40.9672L62.6719 43.0732C62.2159 43.2052 61.7419 43.2712 61.2499 43.2712ZM67.244 43.2712C66.104 43.2712 65.27 42.9772 64.742 42.3892C64.214 41.7892 63.95 40.9012 63.95 39.7252V30.3832H66.668V39.6172C66.668 40.5772 67.094 41.0572 67.946 41.0572C68.078 41.0572 68.204 41.0512 68.324 41.0392C68.456 41.0272 68.582 41.0032 68.702 40.9672L68.666 43.0732C68.21 43.2052 67.736 43.2712 67.244 43.2712ZM70.3821 46.3132L72.0741 42.5872L68.4381 34.2352H71.3001L73.5141 39.8512L75.8001 34.2352H78.5001L73.1541 46.3132H70.3821ZM84.5395 43.0732V30.3832H90.3535C91.7095 30.3832 92.7535 30.6772 93.4855 31.2652C94.2295 31.8532 94.6015 32.6572 94.6015 33.6772C94.6015 34.3492 94.4335 34.9312 94.0975 35.4232C93.7615 35.9032 93.2935 36.2632 92.6935 36.5032C93.4135 36.7072 93.9655 37.0672 94.3495 37.5832C94.7455 38.0992 94.9435 38.7352 94.9435 39.4912C94.9435 40.6192 94.5475 41.5012 93.7555 42.1372C92.9755 42.7612 91.9075 43.0732 90.5515 43.0732H84.5395ZM87.2035 35.6032H89.8675C91.2355 35.6032 91.9195 35.0752 91.9195 34.0192C91.9195 32.9752 91.2355 32.4532 89.8675 32.4532H87.2035V35.6032ZM87.2035 41.0032H90.1735C90.8935 41.0032 91.4215 40.8652 91.7575 40.5892C92.0935 40.3132 92.2615 39.8932 92.2615 39.3292C92.2615 38.7772 92.0935 38.3632 91.7575 38.0872C91.4215 37.8112 90.8935 37.6732 90.1735 37.6732H87.2035V41.0032ZM101.411 43.2712C100.367 43.2712 99.4671 43.0852 98.7111 42.7132C97.9671 42.3292 97.3911 41.7952 96.9831 41.1112C96.5871 40.4152 96.3891 39.5992 96.3891 38.6632C96.3891 37.7512 96.5811 36.9532 96.9651 36.2692C97.3611 35.5732 97.8951 35.0332 98.5671 34.6492C99.2511 34.2532 100.037 34.0552 100.925 34.0552C102.209 34.0552 103.229 34.4632 103.985 35.2792C104.741 36.0832 105.119 37.1752 105.119 38.5552V39.2392H98.9811C99.0771 39.9352 99.3291 40.4452 99.7371 40.7692C100.157 41.0812 100.733 41.2372 101.465 41.2372C101.945 41.2372 102.431 41.1652 102.923 41.0212C103.415 40.8772 103.859 40.6552 104.255 40.3552L104.975 42.1732C104.531 42.5092 103.985 42.7792 103.337 42.9832C102.701 43.1752 102.059 43.2712 101.411 43.2712ZM101.033 35.8552C100.457 35.8552 99.9891 36.0292 99.6291 36.3772C99.2811 36.7252 99.0651 37.2112 98.9811 37.8352H102.869C102.797 36.5152 102.185 35.8552 101.033 35.8552ZM109.688 43.2712C109.028 43.2712 108.446 43.1452 107.942 42.8932C107.438 42.6412 107.036 42.2992 106.736 41.8672C106.448 41.4352 106.304 40.9492 106.304 40.4092C106.304 39.7732 106.472 39.2632 106.808 38.8792C107.144 38.4952 107.69 38.2252 108.446 38.0692C109.202 37.9012 110.204 37.8172 111.452 37.8172H112.1V37.5112C112.1 36.9832 111.98 36.6112 111.74 36.3952C111.5 36.1672 111.092 36.0532 110.516 36.0532C110.036 36.0532 109.526 36.1312 108.986 36.2872C108.458 36.4312 107.93 36.6532 107.402 36.9532L106.664 35.1352C106.976 34.9312 107.354 34.7452 107.798 34.5772C108.254 34.4092 108.728 34.2832 109.22 34.1992C109.712 34.1032 110.18 34.0552 110.624 34.0552C111.992 34.0552 113.012 34.3672 113.684 34.9912C114.356 35.6032 114.692 36.5572 114.692 37.8532V43.0732H112.154V41.7412C111.974 42.2092 111.668 42.5812 111.236 42.8572C110.816 43.1332 110.3 43.2712 109.688 43.2712ZM110.3 41.4532C110.804 41.4532 111.23 41.2792 111.578 40.9312C111.926 40.5832 112.1 40.1332 112.1 39.5812V39.2212H111.47C110.546 39.2212 109.892 39.3052 109.508 39.4732C109.124 39.6292 108.932 39.9052 108.932 40.3012C108.932 40.6372 109.046 40.9132 109.274 41.1292C109.514 41.3452 109.856 41.4532 110.3 41.4532ZM116.72 43.0732V34.2352H119.384V35.5312C119.684 35.0512 120.086 34.6852 120.59 34.4332C121.094 34.1812 121.658 34.0552 122.282 34.0552C123.326 34.0552 124.106 34.3612 124.622 34.9732C125.138 35.5732 125.396 36.5032 125.396 37.7632V43.0732H122.678V37.8892C122.678 37.2772 122.564 36.8392 122.336 36.5752C122.108 36.2992 121.772 36.1612 121.328 36.1612C120.752 36.1612 120.29 36.3412 119.942 36.7012C119.606 37.0612 119.438 37.5412 119.438 38.1412V43.0732H116.72Z" fill="#FFF1E5"/>
</g>
</g>
</g>
<defs>
<filter id="filter0_d" x="0" y="0" width="156" height="156" filterUnits="userSpaceOnUse" color-interpolation-filters="sRGB">
<feFlood flood-opacity="0" result="BackgroundImageFix"/>
<feColorMatrix in="SourceAlpha" type="matrix" values="0 0 0 0 0 0 0 0 0 0 0 0 0 0 0 0 0 0 127 0"/>
<feOffset dy="4"/>
<feGaussianBlur stdDeviation="2"/>
<feColorMatrix type="matrix" values="0 0 0 0 0 0 0 0 0 0 0 0 0 0 0 0 0 0 0.25 0"/>
<feBlend mode="normal" in2="BackgroundImageFix" result="effect1_dropShadow"/>
<feBlend mode="normal" in="SourceGraphic" in2="effect1_dropShadow" result="shape"/>
</filter>
<filter id="filter1_d" x="39.1382" y="30.3832" width="87.2574" height="19.93" filterUnits="userSpaceOnUse" color-interpolation-filters="sRGB">
<feFlood flood-opacity="0" result="BackgroundImageFix"/>
<feColorMatrix in="SourceAlpha" type="matrix" values="0 0 0 0 0 0 0 0 0 0 0 0 0 0 0 0 0 0 127 0"/>
<feOffset dy="3"/>
<feGaussianBlur stdDeviation="0.5"/>
<feColorMatrix type="matrix" values="0 0 0 0 0 0 0 0 0 0 0 0 0 0 0 0 0 0 0.5 0"/>
<feBlend mode="normal" in2="BackgroundImageFix" result="effect1_dropShadow"/>
<feBlend mode="normal" in="SourceGraphic" in2="effect1_dropShadow" result="shape"/>
</filter>
<clipPath id="clip0">
<rect x="4" width="148" height="148" rx="74" fill="white"/>
</clipPath>
</defs>
</svg>
