<svg width="156" height="157" viewBox="0 0 156 157" fill="none" xmlns="http://www.w3.org/2000/svg">
<g filter="url(#filter0_d)">
<g clip-path="url(#clip0)">
<rect x="4" width="148" height="149" rx="74" fill="#6499C6"/>
<path d="M10.8646 144.224C9.6851 144.53 8.50897 144.854 7.32281 145.143C6.64787 145.306 5.94954 145.32 5.28129 145.14C3.94477 144.775 3.58726 143.495 4.52616 142.453C5.10086 141.816 5.90945 141.507 6.63451 141.084C8.33856 140.097 10.2498 139.484 11.8202 138.187C11.0951 137.332 10.0894 137.067 9.31421 136.45C8.5925 135.882 8.16147 135.194 8.41541 134.244C8.68271 133.253 9.4913 133.005 10.36 132.919C11.3691 132.821 12.3214 133.073 13.2369 133.505C14.8942 134.285 16.6316 134.921 18.1987 135.854C19.6989 136.746 21.3963 136.76 22.9533 137.349C23.7218 137.639 24.4034 136.998 25.0918 136.719C32.3022 133.801 39.4994 130.856 46.6965 127.904C51.802 125.81 57.0745 124.339 62.5008 123.44C62.8783 123.379 63.2559 123.338 63.6335 123.277C64.6693 123.113 65.107 122.647 65.0468 121.435C64.8564 117.546 64.99 113.634 66.0225 109.875C69.0163 99.0068 75.1609 90.7125 85.422 85.9456C87.9112 84.788 90.474 83.7972 92.99 82.6906C93.6749 82.3875 94.3733 82.1186 94.9012 81.4784C98.1055 77.5798 101.848 74.2533 106.084 71.6111C112.279 67.7465 116.556 62.2238 119.994 55.8839C120.138 55.6217 120.201 55.3119 120.295 55.0565C119.436 54.0385 118.367 53.824 117.167 53.8308C115.878 53.8376 114.578 54.0453 113.298 53.698C111.611 53.2417 111.033 52.5471 111.41 50.8617C112.353 46.6499 112.349 42.3904 112.256 38.1172C112.192 35.2401 112.303 32.3698 112.7 29.5165C112.814 28.6926 112.77 27.5247 113.783 27.4634C114.989 27.3919 114.732 28.7028 114.835 29.4348C115.203 32.0498 115.664 34.6443 116.379 37.1843C116.957 39.2272 117.879 41.0999 119.423 42.5674C121.394 44.4367 122.657 46.6601 123.025 49.3942C123.055 49.6257 123.122 49.8505 123.165 50.0786C123.229 50.4089 123.392 50.6677 123.736 50.7017C124.101 50.7392 124.264 50.4327 124.378 50.1637C125.1 48.4681 125.367 46.7146 124.709 44.9509C122.497 39.0229 120.883 32.8329 117.528 27.3953C114.815 22.9928 112.246 18.4983 109.419 14.1673C108.38 12.5738 107.264 11.9541 105.506 12.5364C101.674 13.8098 98.6768 12.2402 95.9904 9.63202C95.5561 9.21322 94.968 8.82165 95.1551 8.09301C95.3823 7.21455 96.1909 7.33372 96.8425 7.21114C98.9107 6.81618 100.939 7.15326 102.957 7.59249C103.605 7.73209 104.24 7.93298 104.895 8.10663C105.072 5.74705 103.578 5.1546 101.28 4.99116C98.9809 4.82773 96.7322 4.48384 94.5236 3.9697C89.4916 2.79842 85.0377 4.19442 80.7943 6.78553C79.5547 7.54142 78.3719 8.39945 77.1523 9.19279C73.7776 11.3821 70.2459 11.7805 66.4669 10.3334C62.2635 8.72632 58.0101 7.22817 53.5361 6.60507C50.5958 6.19308 47.612 6.04327 44.6951 5.51211C34.8249 3.71433 26.4583 -0.810754 20.1433 -8.92459C14.8541 -15.7173 13.7013 -23.3034 15.9567 -31.5398C16.6049 -33.9028 17.9748 -35.8742 19.4149 -37.7878C21.3161 -40.3142 23.3376 -42.7453 25.0617 -45.4079C25.9037 -46.7086 26.6889 -48.0365 27.16 -49.5278C27.9185 -51.9351 28.4264 -54.3525 26.9963 -56.7121C26.6989 -57.2058 26.5218 -57.7608 26.8894 -58.2341C27.2703 -58.7278 27.8684 -58.5678 28.3863 -58.4316C31.6941 -57.5565 34.6545 -56.0618 36.9934 -53.44C39.1552 -51.0123 40.9261 -48.2953 42.56 -45.4896C43.8831 -43.2152 45.37 -41.0599 46.8301 -38.8807C51.5414 -31.8429 57.8998 -26.9875 65.6549 -23.981C69.4306 -22.5169 73.0859 -20.7906 76.7112 -18.9928C84.9341 -14.9104 91.6869 -8.94162 97.5709 -1.89351C98.4062 -0.895878 99.0444 0.271989 99.7828 1.35474C100.575 2.51581 101.467 3.53387 102.984 3.71092C103.348 2.9959 102.91 2.47155 102.7 1.93358C101.991 0.135798 101.296 -1.67219 100.518 -3.43933C98.9107 -7.10298 98.1556 -10.8245 99.7561 -14.9444C96.7255 -15.479 95.0382 -17.7466 93.167 -19.7419C91.2057 -21.8359 88.8735 -23.46 86.7017 -25.2919C85.8229 -26.0341 84.9241 -26.7662 84.1423 -27.6106C82.485 -29.3947 81.6964 -31.5058 82.0506 -34.0016C82.368 -36.2318 82.8993 -38.4177 83.4439 -40.5968C83.5809 -41.1416 83.7881 -41.6625 84.463 -41.6591C85.0043 -41.6557 85.2783 -41.254 85.422 -40.7977C86.7919 -36.4837 89.7823 -33.3444 92.9532 -30.4332C96.0773 -27.5697 97.7914 -24.1274 98.1823 -19.919C98.2525 -19.1495 98.4062 -18.3834 98.5298 -17.6173C98.6133 -17.1031 98.9007 -16.7626 99.4186 -16.7218C99.9666 -16.6775 100.214 -17.0282 100.341 -17.5321C100.762 -19.1835 101.213 -20.8281 101.634 -22.4794C102.563 -26.1465 103.746 -29.7455 104.086 -33.5623C104.247 -35.3431 103.421 -36.5722 102.369 -37.6448C100.378 -39.6741 98.2625 -41.5842 95.9203 -43.205C95.0382 -43.8144 94.1461 -44.4273 93.4978 -45.3126C93.1838 -45.7416 92.8396 -46.1944 93.2372 -46.7835C93.5513 -47.2499 93.9957 -47.2329 94.4568 -47.1716C96.4114 -46.9095 98.1322 -47.6892 100.301 -48.3838C99.011 -49.4699 98.0219 -50.4063 96.9293 -51.1996C93.8153 -53.4605 91.8406 -56.4465 90.9184 -60.2396C90.2234 -63.0997 89.3747 -65.9189 88.7499 -68.7995C87.1093 -76.3311 84.2258 -83.4302 81.4291 -90.5567C81.242 -91.0333 81.1151 -91.51 80.3466 -91.4828C77.3394 -91.384 74.8936 -92.7698 72.9089 -94.9081C71.3953 -96.539 70.0855 -98.3709 68.769 -100.175C67.9337 -101.319 68.2177 -101.97 69.5609 -102.344C71.0311 -102.756 72.4377 -102.474 73.7809 -101.837C74.7399 -101.381 75.6621 -100.839 76.621 -100.329C76.3537 -104.922 75.2945 -105.453 71.8764 -105.943C68.0306 -106.498 64.5122 -107.932 61.3748 -110.203C58.7117 -112.13 56.6936 -114.629 55.8917 -117.98C55.3504 -120.237 54.6788 -122.467 54.2044 -124.738C53.5561 -127.827 52.3366 -130.629 50.5289 -133.179C48.8817 -135.508 47.3414 -137.922 45.2698 -139.91C44.8421 -140.322 44.2507 -140.782 44.7886 -141.477C45.2932 -142.127 45.9113 -141.793 46.4258 -141.456C47.5084 -140.738 48.5977 -140.016 49.6168 -139.206C51.6115 -137.612 53.77 -136.325 56.1256 -135.392C60.4693 -133.673 64.4788 -131.279 68.5451 -129.005C70.737 -127.779 72.4077 -125.998 73.664 -123.805C74.3456 -122.614 75.0172 -121.419 75.7322 -120.155C76.7814 -121.224 76.601 -123.002 77.8506 -123.519C79.0134 -124.003 80.3867 -123.935 81.6497 -124.193C83.8115 -124.636 85.9599 -125.16 88.1184 -125.617C88.6664 -125.733 89.0974 -125.995 89.5084 -126.359C94.1694 -130.452 99.8329 -132.202 105.684 -133.465C108.443 -134.061 111.253 -134.343 114.087 -134.255C115.083 -134.224 116.065 -134.115 117 -133.754C117.966 -133.38 118.374 -132.781 118.684 -131.623C119.774 -127.571 119.827 -123.513 119.56 -119.382C119.399 -116.934 120.091 -114.592 121.077 -112.396C122.316 -109.638 123.192 -106.757 124.188 -103.914C124.635 -102.63 124.161 -101.292 124.441 -99.9848C125.22 -99.978 125.41 -100.676 125.758 -101.115C127.519 -103.339 129.721 -104.949 132.237 -106.165C132.811 -106.444 133.383 -106.767 133.907 -106.229C134.338 -105.787 134.151 -105.221 133.914 -104.711C131.822 -100.162 129.367 -95.9159 124.756 -93.5121C124.388 -93.3214 124.104 -93.175 124.111 -92.712C124.151 -90.4239 123.977 -88.129 124.281 -85.3778C125.688 -87.1688 127.028 -88.3809 128.555 -89.3922C132.821 -92.2251 137.416 -92.9196 142.334 -91.7416C145.301 -91.0299 148.171 -90.0017 151.031 -88.9427C156.678 -86.8487 162.312 -84.6935 168.222 -83.4745C173.786 -82.3271 179.426 -82.0717 185.049 -82.7459C187.044 -82.9842 188.955 -83.9818 190.903 -84.6322C192.878 -85.2927 193.008 -85.1259 193.192 -82.9604C193.332 -81.309 192.791 -80.1513 191.511 -79.1707C189.653 -77.7475 187.605 -76.743 185.386 -76.1438C181.384 -75.061 177.955 -73.0658 175.052 -70.0354C172.817 -67.6997 170.421 -65.5342 167.955 -63.447C164.407 -60.4439 160.217 -59.5348 155.803 -59.6029C149.023 -59.7084 143.447 -62.5549 139.04 -67.8052C137.058 -70.1648 135.03 -72.4869 133.019 -74.8227C131.441 -76.6545 129.58 -78.1186 127.439 -79.198C126.623 -79.61 125.785 -79.9777 124.832 -79.9641C124.251 -79.9539 123.783 -79.8824 123.69 -79.1537C123.219 -75.3845 122.103 -71.7311 121.802 -67.921C121.418 -63.0282 122.447 -58.3499 123.673 -53.6886C123.519 -52.7148 123.944 -51.9249 124.572 -50.7774C124.572 -52.0032 124.572 -52.851 124.572 -53.6954C125.972 -58.6597 129.45 -62.0033 133.189 -65.1358C133.587 -65.4695 134.101 -65.7214 134.602 -65.8542C135.551 -66.1062 136.139 -65.524 135.829 -64.5944C134.108 -59.4905 133.122 -54.0325 129.062 -50.0385C127.987 -48.9796 127.679 -47.587 127.542 -46.0378C127.185 -42.0439 127.318 -38.1691 129.123 -34.3829C129.898 -34.7064 130.168 -35.4895 130.67 -36.0138C131.595 -36.974 132.641 -37.7163 133.874 -38.1896C134.826 -38.5539 135.732 -38.4824 136.343 -37.6175C136.945 -36.7697 136.774 -35.8436 136.196 -35.0128C135.655 -34.2365 134.913 -33.6951 134.114 -33.2286C132.918 -32.5238 131.842 -31.6658 130.927 -30.6069C129.761 -29.2586 128.942 -27.8081 128.578 -25.9524C127.826 -22.1015 126.242 -18.5945 123.556 -15.6765C120.525 -12.3874 117.963 -8.70327 115.173 -5.21327C114.521 -4.3995 114.164 -3.57211 114.394 -2.43488C114.591 -1.4679 114.652 -0.37153 114.414 0.571623C113.946 2.42047 114.585 3.92203 115.437 5.41677C116.429 7.16007 117.512 8.8557 118.427 10.6433C118.962 11.692 119.854 12.2742 120.739 12.8054C123.559 14.501 125.791 16.7414 127.515 19.5777C128.18 20.6741 129.129 21.5934 130.055 22.7272C130.83 21.6921 130.97 20.6094 131.381 19.6696C132.38 17.3883 133.466 15.1684 135.234 13.3944C136.597 12.0291 137.766 11.6647 138.652 12.2231C139.554 12.7883 139.785 14.0243 139.15 15.8425C137.957 19.2576 136.159 22.3016 133.456 24.7122C132.711 25.3762 132.33 25.8529 132.831 27.0105C133.867 29.4042 133.393 32.0191 132.654 34.3208C131.558 37.7291 132.036 40.6607 133.83 43.5957C134.592 44.8385 135.11 46.2345 135.785 47.6611C138.298 46.2788 140.824 44.8827 143.356 43.5004C145.973 42.0737 148.576 40.579 151.509 39.9321C157.086 38.7029 162.579 39.2102 167.938 41.0999C170.524 42.0124 173.054 43.0918 175.583 44.1541C179.823 45.9349 184.227 46.4728 188.781 46.2243C194.344 45.9212 199.824 44.8828 205.371 44.4435C206.326 44.3686 207.636 43.8204 208.08 44.8896C208.518 45.9519 207.222 46.5852 206.497 47.181C203.109 49.9662 200.432 53.303 198.812 57.4298C194.836 67.5593 187.194 73.0309 177.057 75.3803C172.519 76.4324 167.895 76.9193 163.304 77.6071C158.108 78.3834 152.939 79.3674 147.693 79.7862C142.959 80.1607 138.254 80.0995 133.613 78.935C129.884 78.002 126.934 75.6357 123.91 73.4123C123.235 72.9152 122.617 72.3397 121.802 71.6553C117.545 76.4188 111.441 78.6592 107.05 83.2354C104.761 85.6222 104.755 84.8765 106.278 88.0771C107.053 89.708 108.27 91.0053 109.486 92.2923C112.399 95.3772 115.089 98.639 117.391 102.235C118.771 104.39 119.941 106.644 120.83 109.048C121.077 109.719 121.261 110.277 122.096 110.491C126.911 111.727 131.301 114.131 135.982 115.755C139.507 116.978 142.929 118.51 146.577 119.368C147.546 119.596 148.509 119.743 149.538 119.763C149.989 118.217 149.855 116.797 149.344 115.374C148.589 113.263 147.854 111.142 147.152 109.01C146.387 106.685 146.08 104.308 146.801 101.915C147.125 100.839 146.811 100.314 145.762 100.096C144.87 99.9091 143.975 99.6945 143.113 99.4017C142.324 99.1327 141.539 98.8093 140.817 98.3905C139.892 97.8491 139.3 97.0183 139.651 95.8709C139.968 94.8256 140.871 94.5872 141.83 94.5191C142.511 94.4715 143.186 94.7847 143.884 94.5293C144.275 93.9233 143.721 93.559 143.5 93.1299C142.902 91.9621 142.227 90.8316 141.662 89.6468C141.265 88.8126 140.977 87.9239 141.024 86.9569C141.071 85.9661 141.328 85.0842 142.301 84.679C143.343 84.2398 144.282 84.5803 144.97 85.4179C145.552 86.1261 145.989 86.9569 146.511 87.7196C146.928 88.329 146.995 89.1735 147.737 89.6944C148.048 88.0465 148.318 86.4836 148.649 84.9378C148.846 84.0253 149.194 83.1536 149.778 82.4148C150.818 81.1107 152.154 81.3252 152.745 82.9051C153.106 83.8721 152.969 84.8969 152.966 85.9048C152.963 86.6641 152.966 87.4234 152.966 88.3631C153.745 87.9681 153.912 87.2565 154.289 86.7594C154.854 86.0171 155.422 85.2851 156.237 84.822C157.637 84.0287 159.211 84.3283 159.081 86.5143C158.977 88.2746 158.462 89.8579 157.597 91.3492C156.865 92.609 156.1 93.845 155.211 95.3227C156.387 95.5508 157.45 95.3601 158.426 95.6938C159.184 95.9526 159.876 96.2284 159.926 97.192C159.969 98.0466 159.391 98.3973 158.74 98.7037C156.932 99.5481 155.018 100.079 153.096 100.549C152.004 100.818 151.656 101.291 151.787 102.49C152.157 105.895 152.789 109.232 153.694 112.528C154.349 114.921 154.817 117.356 154.82 119.865C154.824 121.203 154.613 122.497 154.269 123.77C153.628 126.137 152.745 126.627 150.407 125.99C146.364 124.891 142.377 123.61 138.428 122.194C134.125 120.652 129.824 119.065 125.253 118.486C124.655 118.411 124.057 118.36 123.466 118.299C122.988 119.198 123.309 120.063 123.406 120.87C123.967 125.66 123.229 130.332 122.079 134.928C120.98 139.324 118.805 143.107 114.892 145.855C115.988 147.016 117.214 147.734 118.454 148.388C122.036 150.274 125.628 152.137 129.497 153.379C131.575 154.047 132.016 155.215 131.134 157.281C130.573 158.596 129.654 159.62 128.628 160.564C125.511 163.42 122.4 166.28 119.286 169.141C118.985 169.205 118.758 169.444 118.761 169.706C118.761 170.155 119.172 170.009 119.393 169.965C119.647 169.913 119.877 169.723 120.115 169.593C121.331 169.399 122.46 168.902 123.549 168.378C127.074 166.675 130.81 165.62 134.539 164.541C141.084 162.644 149.097 165.981 152.966 172.957C153.621 174.136 153.457 175.331 153.103 176.56C151.319 182.753 145.819 187.084 139.354 187.156C134.469 187.207 129.637 186.543 124.856 185.511C120.465 184.565 116.078 183.591 111.691 182.634C109.823 182.225 108.093 181.395 106.288 180.789C105.149 180.404 104.848 179.651 104.999 178.449C105.52 174.258 107.374 170.983 110.989 168.793C112.69 167.762 114.364 166.686 116.011 165.565C118.123 164.129 119.961 162.392 121.271 160.145C122.143 158.647 122.113 158.466 120.759 157.526C116.787 154.772 112.45 152.668 108.293 150.237C107.812 149.957 107.454 150.06 107.02 150.233C100.003 153.039 92.9499 152.014 85.9065 150.39C84.0554 149.964 84.0855 149.889 83.1866 151.534C81.5528 154.523 79.6349 157.326 77.5566 160.005C76.8115 160.965 76.5609 161.803 77.2726 162.91C77.9809 164.009 78.5356 165.208 79.1771 166.352C79.9857 167.796 81.0616 168.906 82.5886 169.644C83.9518 170.305 85.1981 171.231 86.4578 172.099C87.7408 172.981 88.2788 174.279 88.4726 175.838C88.8267 178.739 87.5403 181.299 86.9556 183.999C86.8286 184.588 86.0769 184.806 85.5255 185.072C83.9852 185.804 82.3279 186.124 80.664 186.236C77.3194 186.465 73.968 186.587 70.6201 186.71C64.3184 186.941 58.6282 184.96 53.3456 181.606C49.9776 179.468 46.78 177.064 43.7829 174.432C39.5027 170.669 40.2278 169.508 42.9643 165.92C45.4669 162.637 48.6211 160.329 52.7709 159.617C54.9261 159.249 56.8473 159.644 58.6215 160.911C58.9958 161.18 59.4168 161.401 59.7308 161.732C63.5031 165.719 68.4182 167.625 73.3299 169.542C73.6406 169.862 74.0616 170.234 74.4225 169.92C74.7399 169.644 74.3423 169.341 74.0382 169.171C72.842 167.564 71.6225 165.974 70.6368 164.22C70.0654 163.209 69.591 162.157 69.5342 160.955C69.4907 160.067 69.6879 159.372 70.3394 158.667C72.2172 156.634 73.9848 154.5 75.7757 152.382C76.4707 151.561 77.159 150.724 77.7537 149.825C78.9967 147.949 78.9399 147.727 76.9685 146.508C73.958 144.646 71.7795 141.993 70.012 138.953C68.1843 135.807 66.8745 132.432 65.8721 128.793C61.1275 129.501 56.5834 130.642 52.0659 131.986C43.6426 134.492 35.7672 138.367 27.7614 141.915C27.2034 142.164 26.6254 142.368 26.0875 142.654C25.0149 143.223 23.6182 143.369 22.8932 144.346C22.1481 145.351 23.1872 146.566 23.0937 147.717C23.0703 148.023 23.1304 148.337 23.1271 148.647C23.1204 149.549 22.9032 150.376 22.0178 150.768C21.2125 151.122 20.5443 150.737 19.9595 150.169C19.8025 150.019 19.6288 149.886 19.4116 149.702C18.7066 150.152 18.5261 150.948 18.1252 151.565C17.6173 152.344 17.1328 153.138 16.4111 153.723C15.1347 154.762 14.0989 154.343 13.8784 152.685C13.7347 151.602 13.7915 150.516 14.119 149.46C14.3963 149.225 14.413 148.885 14.1323 148.756C13.9486 148.67 13.6211 148.902 13.5175 149.208C12.4383 149.927 11.3925 150.707 10.2665 151.34C9.5481 151.742 8.72615 152.007 7.9209 152.177C7.15575 152.341 6.37723 152.188 5.94286 151.394C5.53857 150.655 5.94286 150.009 6.36386 149.484C6.93856 148.769 7.62353 148.146 8.2851 147.509C9.22066 146.607 10.1796 145.729 11.1319 144.836C11.466 144.656 12.0039 144.516 11.7333 144.023C11.5963 143.788 11.0884 143.825 10.8646 144.224ZM107.204 7.30307C107.227 7.36436 107.241 7.43246 107.277 7.48353C107.297 7.51077 107.398 7.51077 107.401 7.50737C107.434 7.36777 107.361 7.30648 107.19 7.3201C107.555 4.63705 107.555 1.90974 108.119 -0.749473C108.223 -1.23637 108.403 -1.71987 108.931 -1.70965C109.543 -1.69944 109.556 -1.13082 109.546 -0.660943C109.533 0.0370577 109.596 0.765697 109.426 1.42965C108.61 4.59619 109.399 7.75253 109.406 10.9089C109.409 11.692 109.887 12.1891 110.261 12.7611C112.192 15.737 114.18 18.6788 115.998 21.733C118.407 25.7814 121.003 29.7242 122.671 34.1744C123.89 37.4329 124.983 40.739 126.119 44.0315C126.941 46.4149 126.724 48.7507 125.718 51.032C125.467 51.6006 125.19 52.4348 124.609 52.4041C122.935 52.3156 122.664 53.303 122.56 54.6275C122.53 54.9884 122.263 55.3357 122.083 55.6762C118.28 62.7992 113.576 69.0676 106.576 73.3101C103.031 75.4586 99.9766 78.2881 97.053 81.2537C96.211 82.1083 95.7332 82.9732 95.6396 84.267C95.536 85.6937 95.5928 87.1952 94.8878 88.5606C94.126 90.0315 94.283 91.2198 95.2019 92.1766C96.0071 93.0176 97.9785 93.433 99.0611 92.9869C100.12 92.5511 100.421 91.5603 100.652 90.5797C100.885 89.5923 100.104 89.2484 99.4286 88.8772C99.1613 88.7308 98.8907 88.5844 98.63 88.4278C98.336 88.2473 98.2224 87.9715 98.3293 87.6447C98.4329 87.328 98.6969 87.1135 99.0076 87.1067C99.3785 87.0999 99.7928 87.1169 100.114 87.2769C101.196 87.8217 101.818 87.3451 102.349 86.4155C103.041 85.2 103.963 84.1785 104.918 83.1638C107.635 80.2833 110.819 78.0361 114.077 75.8706C116.182 74.4712 118.223 72.9867 119.988 71.1276C120.672 70.4058 120.88 69.878 120.338 68.9451C119.807 68.0223 119.46 66.9566 119.901 65.8296C120.074 65.387 120.238 64.8967 120.813 65.009C121.241 65.0907 121.311 65.5197 121.367 65.9249C121.478 66.7217 121.08 67.6716 121.999 68.2539C122.864 68.0257 123.112 67.2256 123.439 66.5582C124.054 65.3121 124.605 64.0318 125.146 62.7516C125.841 61.107 126.189 60.9095 127.933 61.1445C130.486 61.485 132.945 61.9719 134.004 64.9511C134.171 63.0546 133.653 61.679 132.096 60.712C130.67 59.8268 129.266 58.8564 128.548 57.1948C127.863 55.6115 128.05 54.8386 129.397 53.8104C130.493 52.9728 131.612 52.1658 132.671 51.2805C134.375 49.8607 134.616 48.8426 133.687 46.8167C132.848 44.9883 131.906 43.211 131.027 41.403C130.372 40.0546 129.991 38.6893 130.452 37.1469C130.827 35.8905 131.067 34.5864 131.278 33.2891C131.792 30.1498 131.889 27.1195 129.413 24.5999C127.579 22.734 126.095 20.5583 124.622 18.3826C123.887 17.2998 122.981 16.3124 121.819 15.6791C119.105 14.198 117.144 12.0256 115.794 9.22343C115.293 8.18154 114.645 7.21455 114.04 6.22714C113.001 4.5281 112.47 2.73373 112.72 0.694204C112.851 -0.374929 112.777 -1.47812 112.704 -2.56087C112.627 -3.68789 112.72 -4.76383 113.472 -5.62867C114.077 -6.32667 113.94 -6.94976 113.676 -7.7397C113.038 -9.64984 111.728 -11.0595 110.435 -12.4725C107.708 -15.4483 105.871 -18.8396 105.376 -22.9357C105.242 -24.0593 104.968 -25.1659 104.748 -26.3235C104.03 -25.9694 104.016 -25.2885 103.873 -24.7198C102.827 -20.5931 101.828 -16.4528 100.772 -12.3295C100.274 -10.3751 100.474 -8.5092 101.136 -6.63311C102.579 -2.54044 104.304 1.43306 105.971 5.42699C106.248 6.09775 106.479 6.88427 107.204 7.30307ZM98.9408 3.1355C98.316 2.04594 97.9083 1.31048 97.474 0.588643C97.2735 0.258369 97.0329 -0.0446586 96.789 -0.340883C90.0831 -8.49217 82.1275 -14.9478 72.4979 -19.2312C67.8268 -21.3082 63.022 -23.0923 58.548 -25.629C55.3939 -27.4165 52.4803 -29.5173 50.0545 -32.2446C46.7199 -35.99 43.823 -40.0657 41.2936 -44.4273C39.4726 -47.5666 37.5614 -50.6753 34.8917 -53.171C33.3882 -54.5773 31.7309 -55.7588 29.7194 -56.1367C29.3218 -55.4898 29.412 -55.0165 29.4454 -54.5602C29.7027 -50.9953 28.6369 -47.8356 26.6922 -44.9176C25.3223 -42.8611 23.8889 -40.859 22.3719 -38.9114C20.5743 -36.6063 18.5595 -34.3727 17.6774 -31.5228C15.8431 -25.5949 16.1505 -19.7453 18.8235 -14.083C20.4474 -10.6475 23.0536 -8.02911 25.7066 -5.45842C31.6306 0.278806 38.908 2.96185 46.8335 4.10248C50.8196 4.67791 54.8793 4.77665 58.7652 5.97517C61.6053 6.85022 64.4521 7.72868 67.2187 8.81484C70.4163 10.0678 73.3265 9.58435 76.1466 7.82062C76.7948 7.41544 77.4296 6.98642 78.0544 6.54038C80.2497 4.96733 82.6153 3.72114 85.148 2.83247C87.6138 1.97103 90.1031 1.54542 92.7694 2.01189C94.6974 2.34557 96.6286 2.75075 98.9408 3.1355ZM103.943 87.2157C103.127 88.0328 102.583 88.6798 102.546 89.7149C102.516 90.4673 102.245 91.23 101.991 91.9552C101.363 93.753 100.01 94.7847 98.2124 94.8494C96.495 94.9141 94.0124 93.9914 93.2573 92.1357C92.6458 90.6308 92.285 89.1837 93.441 87.7809C94.0425 87.0522 93.8988 86.1704 93.9255 85.3294C93.9556 84.3181 93.4444 84.107 92.6124 84.4781C90.8683 85.2545 89.1575 86.1125 87.3866 86.8139C79.705 89.8647 74.3256 95.4589 70.4797 102.708C67.1251 109.031 66.3633 115.83 66.821 122.936C67.1618 128.262 68.7456 133.107 71.2249 137.696C72.822 140.648 74.9537 143.223 77.7972 144.983C80.9279 146.92 84.3461 148.218 87.9146 149.157C90.6511 149.879 93.0134 149.494 95.1585 147.625C95.7933 147.073 96.4783 146.576 97.1532 146.076C97.474 145.838 97.8649 145.708 98.1957 146.018C98.6267 146.42 98.4663 146.883 98.1322 147.24C97.7145 147.686 97.2568 148.102 96.7823 148.487C96.3246 148.861 95.6764 149.045 95.5995 149.889C96.8625 150.097 98.0654 150.519 99.3885 150.359C103.448 149.869 107.227 148.551 110.779 146.515C114.501 144.38 117.802 141.786 119.403 137.574C121.992 130.761 122.487 123.726 121.2 116.562C119.924 109.439 116.613 103.355 112.136 97.7946C109.352 94.3421 105.68 91.6148 103.943 87.2157ZM204.281 46.1868C200.142 46.6942 195.631 47.3819 191.093 47.7701C185.112 48.2808 179.228 47.8348 173.665 45.1688C171.741 44.246 169.736 43.4765 167.721 42.7785C160.374 40.2351 153.12 39.9389 146.063 43.8579C143.253 45.4173 140.409 46.9087 137.583 48.434C136.838 48.8358 136.029 49.2478 135.688 50.0548C134.916 51.8764 133.393 52.9183 131.929 54.0283C129.527 55.8533 129.493 56.3504 131.752 58.2844C131.986 58.4853 132.207 58.7202 132.477 58.8496C135.371 60.249 135.698 63.167 136.437 65.8228C136.644 66.565 136.183 67.1643 135.605 67.6137C135.01 68.0768 134.452 67.7704 133.901 67.4878C133.115 67.0826 132.571 66.4663 132.314 65.5981C131.669 63.3985 129.878 63.041 128.003 62.8129C127.305 62.7277 126.851 63.0104 126.563 63.6641C125.658 65.7206 124.699 67.7465 123.449 69.6158C123.075 70.1776 123.232 70.6475 123.7 71.0425C126.71 73.5621 129.794 76.0068 133.59 77.161C138.495 78.649 143.55 78.4753 148.559 78.0259C152.565 77.665 156.545 76.9601 160.521 76.3132C166.224 75.3871 171.998 74.9104 177.625 73.5144C183.144 72.1457 188.033 69.626 191.999 65.3836C194.518 62.6903 196.139 59.4523 197.602 56.1121C198.601 53.8274 199.894 51.73 201.385 49.7585C202.357 48.4749 203.409 47.256 204.281 46.1868ZM108.056 -73.0726C108.056 -74.5469 108.056 -75.4424 108.056 -76.3379C108.059 -80.0117 108.935 -83.4166 111.177 -86.3482C112.857 -88.5512 114.521 -90.7712 116.472 -92.7528C118.872 -95.1873 120.683 -98.044 122.109 -101.17C122.55 -102.133 122.657 -103.015 122.377 -104.067C121.715 -106.549 120.82 -108.923 119.79 -111.269C118.444 -114.34 117.391 -117.557 117.943 -120.955C118.471 -124.207 117.966 -127.292 117.157 -130.37C116.676 -132.202 116.108 -132.535 114.204 -132.61C111.06 -132.733 107.959 -132.348 104.928 -131.572C100.642 -130.476 96.3914 -129.226 92.6725 -126.635C91.9809 -126.155 91.2258 -125.763 91.0453 -124.8C90.7647 -123.281 89.8458 -122.171 88.8234 -121.085C86.5714 -118.691 85.9465 -114.486 87.3633 -111.33C88.9804 -113.652 90.9484 -115.603 92.3919 -117.983C92.7093 -118.507 93.0902 -119.1 93.8153 -118.943C94.6539 -118.763 94.7408 -118.01 94.7775 -117.295C94.978 -113.346 94.5169 -109.696 90.9117 -107.217C89.4716 -106.229 89.4749 -106.045 90.5241 -104.636C92.6057 -101.834 93.6883 -98.6228 94.2997 -95.2452C95.1718 -90.4171 97.0797 -86.0792 99.8697 -82.116C102.132 -78.9086 104.952 -76.2459 108.056 -73.0726ZM88.1952 -123.594C88.0248 -123.649 87.811 -123.792 87.6306 -123.758C84.8673 -123.233 82.1074 -122.699 79.3509 -122.13C78.8263 -122.021 78.3184 -121.742 78.1046 -121.194C76.7914 -117.813 75.3814 -114.473 75.9762 -110.666C76.2635 -108.817 76.7981 -107.05 77.2592 -105.252C77.8306 -103.019 78.9332 -100.904 78.7929 -98.5003C78.7594 -97.9146 79.1804 -97.5128 79.4511 -97.0498C80.5036 -95.252 81.7232 -93.5257 82.5451 -91.6258C85.1914 -85.5242 87.684 -79.3512 89.4148 -72.8989C90.5174 -68.7892 91.5098 -64.6455 92.579 -60.529C93.0869 -58.5678 93.6783 -56.5725 95.1284 -55.1323C97.6845 -52.5922 100.391 -50.219 103.485 -48.3463C105.356 -47.2159 107.291 -46.1604 108.193 -43.8927C108.624 -42.8134 109.64 -42.1052 110.438 -41.2778C113.268 -38.3564 116.322 -35.6223 118.063 -31.7884C118.096 -31.7169 118.317 -31.7373 118.601 -31.6896C119.109 -33.3376 120.746 -34.2331 121.438 -35.7925C122.45 -38.0772 123.753 -40.1406 125.297 -42.0813C126.326 -43.3786 126.139 -45.1764 125.103 -46.5043C122.493 -49.8411 119.917 -53.2017 117.639 -56.7904C115.901 -59.5246 114.384 -62.3949 112.486 -65.0337C109.723 -68.8744 106.345 -72.1294 103.137 -75.5479C99.863 -79.0345 96.8725 -82.7322 94.9212 -87.2131C93.5145 -90.4375 92.9064 -93.8662 92.0978 -97.2507C91.4797 -99.8384 90.4773 -102.273 88.673 -104.261C87.6172 -105.422 87.4334 -105.375 86.7284 -104.037C86.3675 -103.352 86.0802 -102.627 85.706 -101.953C85.3485 -101.309 85.011 -100.278 84.0988 -100.73C83.0864 -101.234 83.8349 -102.106 84.1656 -102.726C85.6959 -105.586 85.9933 -108.487 85.2215 -111.701C84.2726 -115.647 84.8907 -119.41 87.7007 -122.559C87.9446 -122.832 88.2921 -123.066 88.1952 -123.594ZM157.193 -61.1861C160.394 -61.4007 164.016 -62.1191 167.07 -64.9009C169.739 -67.332 172.456 -69.7086 175.002 -72.2758C176.986 -74.2745 179.285 -75.7148 181.898 -76.7226C184.24 -77.6283 186.74 -78.1152 188.932 -79.4397C189.723 -79.9198 190.509 -80.3965 191.103 -81.1183C191.521 -81.6257 191.708 -82.2692 191.26 -82.814C190.89 -83.2668 190.418 -82.831 190.017 -82.6846C187.725 -81.8402 185.396 -81.0196 182.961 -80.8766C174.738 -80.3999 166.749 -81.6154 158.927 -84.3155C153.664 -86.1303 148.532 -88.3265 143.163 -89.8348C138.455 -91.1559 133.981 -90.904 129.734 -88.2958C127.676 -87.0326 125.908 -85.4766 124.829 -83.2328C124.411 -82.3645 124.468 -81.8742 125.594 -81.6257C128.511 -80.9821 130.877 -79.3103 132.978 -77.2061C135.541 -74.6456 137.807 -71.8128 140.139 -69.048C144.466 -63.9203 149.899 -61.2713 157.193 -61.1861ZM110.087 149.259C110.725 150.124 111.658 150.346 112.45 150.771C115.677 152.508 118.945 154.176 121.949 156.311C123.606 157.489 123.807 158.143 123.051 159.998C122.878 160.424 122.641 160.829 122.4 161.224C121.174 163.226 119.587 164.901 117.722 166.263C115.56 167.84 113.325 169.311 111.093 170.785C108.717 172.358 107.421 174.612 106.833 177.387C106.579 178.589 106.893 179.26 108.093 179.638C109.249 180.006 110.371 180.469 111.547 180.809C115.935 182.079 120.425 182.883 124.879 183.812C129.48 184.772 134.148 185.358 138.876 185.45C145.321 185.576 149.154 181.81 151.289 176.655C151.843 175.31 151.81 173.996 150.911 172.695C150.066 171.473 149.097 170.373 147.998 169.437C144.279 166.263 140.019 165.075 135.234 166.165C131.746 166.958 128.324 167.973 125.046 169.464C123.593 170.125 122.046 170.567 120.552 171.139C119.663 171.48 118.751 171.514 117.852 171.337C116.212 171.01 115.961 170.23 117.107 169.001C119.573 166.355 122.303 163.999 125.036 161.65C126.724 160.199 128.468 158.797 129.64 156.856C130.322 155.732 130.192 155.436 128.992 154.993C123.89 153.11 119.049 150.707 114.525 147.649C114.083 147.353 113.582 146.975 113.044 147.254C111.989 147.795 110.766 148.115 110.087 149.259ZM72.1337 184.871C75.2444 185.229 78.3284 184.544 81.4425 184.425C82.4081 184.388 83.3771 184.037 84.316 183.744C84.8874 183.567 85.4621 183.288 85.6425 182.586C86.0869 180.864 86.6549 179.165 86.9489 177.418C87.2162 175.821 86.7852 174.282 85.422 173.277C84.0721 172.28 82.759 171.153 81.1585 170.608C80.1327 170.261 79.4244 169.573 78.8664 168.776C77.4931 166.818 76.3771 164.69 75.4081 162.494C75.0038 161.575 75.0239 160.7 75.6988 159.883C76.0898 159.409 76.4072 158.875 76.7747 158.381C78.6492 155.838 80.517 153.291 82.0038 150.485C82.2878 149.951 82.6855 149.345 81.8 148.956C81.0382 148.623 80.3332 148.146 79.7184 149.324C78.0645 152.504 75.6253 155.089 73.2664 157.717C70.5031 160.792 70.4597 161.129 72.7552 164.68C74.0984 166.761 75.7924 168.548 77.2893 170.499C77.6134 170.921 78.1146 171.303 77.7838 171.912C77.4497 172.528 76.8583 172.351 76.3604 172.195C75.1275 171.81 73.8812 171.446 72.6917 170.949C68.7623 169.304 64.6425 168.041 61.2645 165.242C60.1452 164.312 59.1261 163.267 57.9199 162.436C56.0187 161.122 54.074 160.877 51.8487 161.514C48.2736 162.542 45.6974 164.806 43.6526 167.823C42.2693 169.866 42.3127 170.458 43.8898 172.317C44.1838 172.665 44.5514 172.957 44.9089 173.24C46.5361 174.513 48.1767 175.77 49.8072 177.043C56.3896 182.178 63.5199 185.692 72.1337 184.871ZM50.7361 -136.002C54.0106 -131.882 55.5943 -127.071 56.5366 -121.977C56.7036 -121.068 57.0545 -120.193 57.2416 -119.284C58.1237 -114.99 60.8201 -112.198 64.4554 -110.203C67.6831 -108.429 71.1146 -107.346 74.9637 -107.145C74.1084 -110.325 73.9313 -113.448 74.7232 -116.594C74.937 -117.438 74.6096 -118.262 74.2855 -119.069C72.4778 -123.547 69.5676 -126.832 65.2473 -129.086C60.516 -131.551 55.6478 -133.707 50.7361 -136.002ZM121.13 -55.0403C121.565 -56.072 121.371 -56.7462 121.187 -57.4135C119.633 -62.9907 119.79 -68.5441 121.1 -74.1622C121.799 -77.1584 122.427 -80.2024 122.4 -83.3315C122.36 -87.7442 122.357 -92.1604 122.323 -96.5731C122.323 -96.6412 122.106 -96.7059 121.922 -96.8114C119.887 -93.9207 117.558 -91.2751 115.169 -88.6704C112.035 -85.2553 109.71 -81.3805 109.68 -76.5217C109.663 -73.8319 109.76 -71.1454 111.668 -68.888C113.903 -66.2458 115.788 -63.338 117.532 -60.3247C118.547 -58.561 119.463 -56.6883 121.13 -55.0403ZM21.4264 148.837C21.9242 147.533 21.0822 146.481 21.1457 145.317C21.2626 143.199 21.4564 142.834 23.3342 142.01C28.57 139.716 33.8058 137.421 39.0049 135.044C45.4769 132.085 52.1929 129.944 59.1194 128.439C60.8234 128.067 62.5208 127.7 64.2516 127.461C64.7862 127.39 65.5547 127.175 65.3308 126.287C65.1471 125.558 65.0268 124.69 63.9409 124.799C63.6368 124.829 63.3261 124.789 63.0287 124.846C57.7227 125.854 52.5337 127.274 47.5184 129.334C39.7667 132.518 32.0049 135.674 24.2531 138.851C23.7552 139.055 23.1906 139.467 22.7428 139.15C21.1557 138.02 19.1209 138.265 17.4803 137.189C16.0269 136.236 14.3128 135.694 12.7257 134.945C11.9806 134.595 11.2689 134.424 10.2832 134.908C11.1419 135.511 11.7433 135.98 12.3849 136.375C14.677 137.792 14.6569 138.442 12.2445 139.828C11.9137 140.019 11.5596 140.168 11.2288 140.362C9.63498 141.285 8.04787 142.218 6.45742 143.148C8.70276 143.223 10.6608 142.327 12.7156 141.867C13.414 141.711 14.0622 141.421 14.54 142.184C15.0245 142.964 14.4899 143.495 14.002 143.999C12.5519 145.487 11.0818 146.954 9.64166 148.452C9.31087 148.796 8.72281 149.103 9.19059 149.865C11.0283 149.338 12.1944 147.823 13.7047 146.862C14.5066 146.352 15.1782 144.704 16.3109 145.65C17.2431 146.43 16.2574 147.666 16.0536 148.694C15.8431 149.767 15.0078 150.73 15.3953 151.977C16.2039 151.799 16.4412 151.214 16.7118 150.666C17.2264 149.624 17.7342 148.582 18.2388 147.54C18.4927 147.016 18.476 146.267 19.3381 146.273C20.2168 146.28 20.1801 146.965 20.3338 147.56C20.4674 148.061 20.5576 148.643 21.4264 148.837ZM151.125 83.8278C149.979 85.1285 149.829 86.6096 149.788 88.0158C149.735 89.8374 148.94 91.6216 149.661 93.5113C149.956 94.2808 149.277 95.0673 148.475 95.2171C147.693 95.3601 147.62 94.5872 147.443 93.9743C146.905 92.1153 146.177 90.3243 145.248 88.6287C144.88 87.9545 144.456 87.3042 144.021 86.6709C143.798 86.3474 143.467 86.1159 143.046 86.3338C142.661 86.5313 142.481 86.8888 142.608 87.2974C142.835 88.0328 143.106 88.7615 143.4 89.4731C144.115 91.1994 145.291 92.6499 146.19 94.2638C147.232 96.1433 147.112 96.351 145.094 96.3476C144.262 96.3442 143.413 96.4769 142.601 96.1773C142.15 96.0139 141.642 95.8538 141.425 96.4088C141.185 97.0115 141.779 97.1749 142.164 97.3486C142.575 97.5359 143.022 97.638 143.46 97.7606C144.556 98.0704 145.649 98.3973 146.755 98.6629C147.994 98.9591 148.552 99.6809 148.398 100.999C148.325 101.611 148.362 102.228 148.178 102.837C147.79 104.128 147.884 105.408 148.181 106.729C148.759 109.313 149.785 111.727 150.711 114.182C151.452 116.154 151.92 118.132 151.222 120.287C150.924 121.207 150.57 121.554 149.668 121.54C148.285 121.52 146.968 121.115 145.649 120.808C140.887 119.708 136.443 117.645 131.896 115.902C129.196 114.867 126.56 113.658 123.88 112.558C122.62 112.041 122.183 112.402 122.34 113.746C122.377 114.05 122.5 114.342 122.574 114.642C123.092 116.746 123.092 116.767 125.267 116.852C126.647 116.906 127.953 117.315 129.28 117.614C134.713 118.837 139.855 121.002 145.154 122.671C146.965 123.243 148.793 123.764 150.637 124.22C151.96 124.547 152.348 124.247 152.749 122.844C152.856 122.477 152.943 122.088 152.946 121.707C152.963 118.922 153.05 116.164 152.254 113.413C151.162 109.637 150.36 105.772 150.229 101.812C150.159 99.7116 150.219 99.6911 152.261 99.1736C153.928 98.7514 155.569 98.2747 157.089 97.4099C156.304 97.2737 155.549 97.2873 154.794 97.2737C152.866 97.2362 152.498 96.6063 153.474 94.8732C154.266 93.4636 155.078 92.0506 156.02 90.7431C156.959 89.439 157.233 87.9886 157.453 86.5108C157.096 86.3781 156.919 86.5245 156.745 86.6675C155.689 87.5051 155.094 88.6729 154.526 89.8681C153.865 91.2675 153.176 92.6533 152.488 94.0356C152.278 94.4613 151.984 94.8869 151.446 94.7438C150.834 94.5804 150.697 94.039 150.717 93.4568C150.724 93.3036 150.737 93.1436 150.781 92.9971C151.519 90.6001 150.791 88.043 151.546 85.6358C151.68 85.1795 151.68 84.5701 151.125 83.8278ZM107.411 -41.4719C107.231 -38.4483 106.612 -35.6836 105.506 -33.0244C105.166 -32.2072 105.273 -31.3287 105.443 -30.5013C106.064 -27.5084 106.729 -24.5258 107.428 -21.315C107.768 -22.1151 107.972 -22.7723 108.31 -23.3477C109.242 -24.9309 110.515 -25.1318 111.912 -23.9503C112.944 -23.0787 113.482 -21.8802 113.97 -20.651C114.184 -20.113 114.083 -19.3912 114.865 -19.1154C115.397 -21.7882 115.788 -24.4713 116.486 -27.0726C117.081 -29.2824 116.686 -31.1346 115.524 -33.0175C113.429 -36.4156 110.198 -38.6492 107.411 -41.4719ZM115.41 -8.25043C116.73 -9.93925 117.742 -11.3829 118.912 -12.6802C119.931 -13.8106 120.609 -15.0398 120.763 -16.5549C120.953 -18.431 121.641 -20.1369 122.383 -21.8393C122.841 -22.8948 123.252 -23.9946 123.506 -25.1182C124.167 -28.0328 123.569 -30.6784 121.812 -33.1435C121.504 -32.8711 121.378 -32.7826 121.281 -32.6668C118.928 -29.8748 117.849 -26.5449 117.234 -22.98C116.763 -20.256 116.128 -17.6207 114.879 -15.0568C113.963 -13.1773 114.03 -10.7462 115.41 -8.25043ZM84.5633 -38.1078C84.2124 -36.7527 84.0554 -35.8436 83.8115 -34.9685C82.9427 -31.8258 84.2692 -29.5786 86.4411 -27.6106C86.7251 -27.3552 87.0158 -27.1067 87.3131 -26.8649C90.327 -24.4032 93.5145 -22.1424 95.9236 -18.9894C96.0439 -18.8328 96.2945 -18.7817 96.7289 -18.5536C96.3246 -21.9891 95.8735 -25.1352 93.4076 -27.5697C90.2568 -30.6886 87.1327 -33.8279 84.5633 -38.1078ZM120.646 53.0715C121.722 49.1184 121.631 48.0186 120.011 45.5807C119.63 45.0087 119.169 44.4742 118.671 44.0043C116.894 42.3291 115.721 40.293 114.919 37.9811C114.708 37.3784 114.775 36.5987 113.987 36.0471C114.097 40.9978 114.077 45.8021 113.148 50.5417C112.931 51.6448 113.409 52.1045 114.488 52.1318C116.516 52.1794 118.614 51.6789 120.646 53.0715ZM125.604 -39.6537C124.445 -38.4858 123.837 -37.1579 123.148 -35.8742C122.717 -35.0673 122.894 -34.5327 123.386 -33.7939C125.253 -30.9882 126.045 -27.9443 125.08 -24.553C124.675 -23.1332 124.164 -21.7712 123.596 -20.4161C123.245 -19.5785 122.711 -18.7477 123.005 -17.2393C127.599 -24.5326 129.353 -31.676 125.604 -39.6537ZM105.222 -36.9604C105.577 -39.732 105.43 -42.0166 104.888 -44.2775C104.471 -46.0174 103.111 -47.3827 101.781 -47.0797C99.9165 -46.6541 98.0219 -46.2251 95.9804 -45.2819C99.3518 -42.7725 102.349 -40.2393 105.222 -36.9604ZM126.506 -49.3269C129.978 -53.3481 132.851 -57.3863 133.236 -63.0997C130.636 -60.8695 128.558 -58.6223 127.125 -55.8984C126.092 -53.9406 125.35 -51.775 126.506 -49.3269ZM79.6683 -93.0388C77.8239 -98.0031 74.3389 -100.955 70.6468 -100.656C72.842 -97.1485 75.1174 -93.9479 79.6683 -93.0388ZM112.714 -12.8232C113.248 -14.9785 113.221 -17.0146 112.704 -19.2686C112.44 -20.4161 111.975 -21.458 111.23 -22.3569C110.936 -22.7144 110.575 -23.0651 110.071 -22.8199C109.713 -22.6463 109.543 -22.2751 109.513 -21.87C109.369 -19.6942 109.429 -17.5117 110.395 -15.5335C110.903 -14.495 111.514 -13.385 112.714 -12.8232ZM138.03 13.6396C134.873 15.4918 132.08 20.5344 131.986 24.096C135.05 21.3074 136.968 18.0421 138.03 13.6396ZM124.421 -95.4324C127.733 -97.1757 129.697 -100.118 131.231 -103.444C127.87 -101.772 125.634 -99.0757 124.421 -95.4324ZM88.0382 -107.629C91.7637 -109.185 93.4778 -112.065 92.6692 -115.405C90.915 -112.923 88.3389 -111.044 88.0382 -107.629ZM97.6878 8.75015C100.411 11.6375 103.114 12.1789 105.533 10.4866C103.204 8.93401 100.662 8.55607 97.6878 8.75015ZM130.987 -32.8813C132.203 -33.7564 133.426 -34.6212 134.629 -35.5167C134.94 -35.7483 135.177 -36.1364 134.977 -36.5075C134.736 -36.9536 134.318 -36.7255 133.998 -36.5552C132.521 -35.7789 131.401 -34.6485 130.987 -32.8813ZM121.585 -54.3696L121.668 -54.516L121.545 -54.533L121.585 -54.3696Z" fill="#0E0D0D"/>
<path d="M60.9203 88.4856C56.8372 81.2127 52.0692 74.7979 46.369 69.1084C45.0291 67.7703 45.0659 67.0178 46.5461 65.8976C48.3771 64.5118 50.2916 63.235 52.2196 61.9888C57.8797 58.3319 63.7503 55.0496 69.6778 51.8729C71.8262 50.722 72.852 51.008 74.3188 53.0407C75.6854 54.9339 76.5174 57.113 77.3861 59.2615C78.7193 62.5608 79.7384 65.9725 80.7073 69.4012C81.1718 71.0424 81.7966 72.6222 82.4749 74.1851C82.8625 75.0737 83.2734 75.101 84.0319 74.6243C85.9064 73.4394 87.8243 72.326 89.7288 71.1854C90.1866 70.9096 90.6309 70.5861 91.1221 70.3886C92.2581 69.9256 92.8328 70.3035 92.9899 71.5463C92.9999 71.6212 92.9865 71.7029 92.9932 71.7778C93.4142 76.6093 93.4109 76.6025 89.2343 79.1562C78.8563 85.4995 68.4816 91.8462 58.1036 98.1895C56.2324 99.3335 56.0587 99.3335 55.0396 97.3315C52.5604 92.4625 52.9914 93.3443 56.5398 91.1652C57.9632 90.2935 59.39 89.4219 60.9203 88.4856ZM62.8849 87.0521C63.3327 87.076 63.737 86.6946 64.1947 86.4188C66.3565 85.1181 68.535 83.8481 70.6969 82.5509C73.7107 80.7429 76.7346 78.9451 79.7183 77.0894C81.3656 76.0646 81.3823 75.9931 80.6405 74.1374C79.6649 71.6927 78.9131 69.1799 78.1813 66.6535C77.0152 62.6357 75.6453 58.686 73.6739 54.9883C72.4744 52.7377 71.9097 52.5062 69.7245 53.6877C66.6339 55.3595 63.5933 57.1266 60.526 58.8392C56.453 61.1103 52.5403 63.6504 48.6477 66.221C46.9437 67.3447 46.9504 67.4059 48.4239 68.9109C51.8119 72.3771 54.8892 76.0918 57.6892 80.0755C59.0224 81.972 60.0816 84.0354 61.4415 85.9013C61.789 86.3711 61.9861 87.0623 62.8849 87.0521ZM90.9116 72.7516C90.3269 72.6256 89.8992 73.0036 89.4515 73.2691C87.0892 74.6788 84.7403 76.1122 82.3813 77.5321C73.7976 82.6905 65.2071 87.842 56.6267 93.0038C55.2802 93.8142 55.3136 94.1513 56.1222 95.8401C56.8071 97.2634 57.5456 96.4598 58.3174 96.0785C58.5914 95.9423 58.8554 95.7856 59.116 95.6256C63.483 92.9494 67.8467 90.2663 72.2171 87.5935C78.2816 83.8822 84.3393 80.1538 90.4338 76.4936C91.4863 75.8603 91.8305 75.1384 91.4329 74.0216C91.2792 73.5926 91.3025 73.0853 90.9116 72.7516Z" fill="#0C0C0D"/>
<path d="M98.9407 3.13543C96.6286 2.75408 94.6973 2.34549 92.766 2.005C90.103 1.53853 87.6104 1.96074 85.1446 2.82558C82.6119 3.71085 80.2463 4.96045 78.051 6.5335C77.4296 6.97954 76.7914 7.40855 76.1432 7.81373C73.3231 9.57746 70.4129 10.061 67.2153 8.80796C64.4487 7.72521 61.6019 6.84675 58.7618 5.96829C54.8759 4.76977 50.8162 4.67103 46.8301 4.09561C38.9046 2.95157 31.6272 0.271918 25.7031 -5.46531C23.0502 -8.03599 20.444 -10.6543 18.8201 -14.0899C16.1471 -19.7488 15.843 -25.5984 17.674 -31.5297C18.5561 -34.383 20.5709 -36.6132 22.3685 -38.9183C23.8855 -40.8659 25.3222 -42.8679 26.6888 -44.9245C28.6301 -47.8425 29.696 -51.0022 29.442 -54.5671C29.4086 -55.0234 29.3184 -55.5 29.716 -56.1436C31.7241 -55.7622 33.3848 -54.5807 34.8883 -53.1779C37.558 -50.6821 39.4692 -47.5735 41.2902 -44.4342C43.8196 -40.0725 46.7165 -35.9969 50.0511 -32.2515C52.4769 -29.5276 55.3905 -27.4234 58.5446 -25.6358C63.0186 -23.0992 67.8234 -21.315 72.4945 -19.238C82.1241 -14.9547 90.0797 -8.49906 96.7856 -0.347771C97.0295 -0.051546 97.2734 0.254897 97.4706 0.581766C97.9083 1.30701 98.3159 2.04586 98.9407 3.13543Z" fill="#428652"/>
<path d="M103.943 87.2156C105.684 91.6147 109.356 94.342 112.139 97.798C116.616 103.358 119.927 109.443 121.204 116.566C122.49 123.73 121.996 130.767 119.406 137.577C117.806 141.789 114.505 144.384 110.782 146.518C107.231 148.555 103.452 149.872 99.3919 150.363C98.0688 150.523 96.8659 150.1 95.6029 149.893C95.6798 149.048 96.328 148.864 96.7857 148.49C97.2602 148.102 97.7179 147.69 98.1356 147.244C98.4697 146.883 98.6301 146.423 98.1991 146.021C97.8683 145.712 97.4807 145.841 97.1566 146.079C96.4817 146.58 95.7967 147.073 95.1618 147.628C93.0167 149.498 90.6511 149.879 87.918 149.161C84.3495 148.221 80.9313 146.924 77.8005 144.986C74.9571 143.226 72.822 140.652 71.2282 137.7C68.749 133.11 67.1652 128.265 66.8244 122.94C66.37 115.837 67.1285 109.038 70.4831 102.711C74.329 95.4623 79.7084 89.868 87.39 86.8173C89.1609 86.1124 90.8716 85.2578 92.6158 84.4815C93.4478 84.1104 93.959 84.3215 93.9289 85.3327C93.9055 86.1771 94.0459 87.0556 93.4444 87.7842C92.2884 89.187 92.6492 90.6375 93.2607 92.1391C94.0158 93.9947 96.495 94.9141 98.2158 94.8528C100.013 94.7881 101.367 93.7564 101.995 91.9586C102.249 91.2334 102.519 90.4741 102.549 89.7182C102.583 88.6797 103.127 88.0328 103.943 87.2156ZM78.1013 114.788C78.5891 115.592 78.3218 116.47 78.4053 117.301C78.6392 119.616 78.9332 121.911 80.0392 124.005C80.9881 125.807 82.3948 126.722 84.4597 126.702C86.3409 126.682 88.1418 126.348 89.6654 125.275C90.8683 124.428 91.7972 124.288 93.1571 124.986C96.4616 126.688 99.9432 125.265 101.727 122.463C102.934 120.57 104 118.619 104.771 116.508C105.373 114.856 105.406 114.816 106.973 115.125C107.267 115.183 107.548 115.381 107.839 115.388C108.423 115.405 108.891 115.142 108.965 114.489C109.032 113.906 108.58 113.767 108.156 113.552C107.337 113.137 106.342 113.372 105.52 112.797C105.921 111.016 105.901 109.232 105.754 107.464C105.637 106.051 104.868 105.272 103.746 105.449C101.881 105.742 99.9733 105.796 98.1891 106.569C96.5117 107.294 94.6941 107.72 93.1003 108.591C91.1623 109.65 89.4616 109.194 87.6974 108.353C85.8363 107.464 83.9251 106.709 81.9671 106.085C79.9156 105.432 79.2106 105.874 78.8865 108.057C78.6927 109.354 78.5122 110.655 78.402 111.962C78.3385 112.691 78.118 113.14 77.3428 113.161C76.4908 113.185 75.7089 113.491 74.9304 113.801C74.6497 113.913 74.4559 114.182 74.4994 114.536C74.5495 114.945 74.8903 115.02 75.1743 115.01C76.1466 114.962 77.1223 114.867 78.1013 114.788ZM91.7003 134.54C94.4736 134.639 101.721 131.38 103.508 129.276C103.655 129.103 103.809 128.922 103.906 128.718C104.046 128.428 104.046 128.118 103.812 127.86C103.572 127.591 103.244 127.598 102.98 127.741C102.65 127.918 102.349 128.17 102.068 128.425C100.281 130.059 98.2124 131.169 95.907 131.826C94.4502 132.242 92.98 132.62 91.5299 133.052C91.0855 133.185 90.6712 133.464 90.865 134.057C91.0086 134.506 91.4196 134.52 91.7003 134.54ZM105.229 122.46C106.135 122.47 106.258 121.264 106.927 121.346C107.521 121.421 107.956 122.269 108.741 121.976C108.951 121.898 109.175 121.799 109.336 121.646C110.348 120.706 111.35 119.753 112.346 118.793C112.65 118.496 112.75 118.118 112.456 117.764C112.176 117.424 111.765 117.386 111.434 117.645C110.712 118.21 109.997 118.793 109.339 119.436C108.774 119.991 108.32 120.338 107.708 119.484C107.348 118.98 106.783 118.901 106.302 119.313C105.593 119.916 105.075 120.703 104.674 121.537C104.424 122.078 104.748 122.412 105.229 122.46ZM75.4182 125.292C75.8659 125.452 76.3371 125.592 76.5776 125.01C76.7915 124.496 76.4306 124.152 76.1232 123.798C75.4583 123.032 74.7366 122.851 73.9781 123.621C73.3032 124.308 72.6617 124.223 71.9733 123.665C71.7395 123.474 71.4755 123.297 71.1948 123.195C70.8072 123.052 70.4397 123.144 70.2359 123.553C70.0755 123.869 70.2225 124.131 70.4297 124.383C71.4889 125.677 72.8421 126.052 74.349 125.395C74.7266 125.231 75.0407 125.098 75.4182 125.292ZM102.586 98.9829C102.519 98.5164 102.249 98.1827 101.828 98.336C100.819 98.7105 100.007 99.4323 99.295 100.215C98.9074 100.641 99.2583 101.148 99.7361 101.281C100.454 101.482 102.556 99.7115 102.586 98.9829ZM81.4025 99.1395C81.3089 98.353 79.0736 97.1817 78.4354 97.5903C77.9943 97.8729 77.8573 98.3428 78.3017 98.7378C78.9332 99.2996 79.7084 99.6503 80.5036 99.8648C80.9982 99.9942 81.3523 99.6673 81.4025 99.1395ZM108.043 125.367C107.959 124.921 107.742 124.506 107.197 124.526C106.663 124.547 106.402 124.972 106.399 125.463C106.395 126.062 106.699 126.556 107.351 126.457C107.832 126.382 108.063 125.936 108.043 125.367Z" fill="#21375B"/>
<path d="M204.282 46.1868C203.409 47.256 202.357 48.4749 201.388 49.7585C199.898 51.73 198.608 53.8308 197.606 56.1121C196.142 59.4522 194.522 62.6903 192.002 65.3835C188.036 69.626 183.145 72.1456 177.628 73.5144C172.001 74.907 166.224 75.3871 160.524 76.3132C156.548 76.9601 152.569 77.6649 148.562 78.0259C143.554 78.4787 138.498 78.6489 133.593 77.161C129.798 76.0102 126.714 73.5621 123.703 71.0424C123.235 70.6509 123.075 70.1776 123.453 69.6158C124.702 67.7465 125.665 65.7206 126.567 63.6641C126.854 63.0069 127.308 62.7277 128.007 62.8129C129.881 63.041 131.669 63.3985 132.317 65.598C132.571 66.4663 133.116 67.0826 133.904 67.4878C134.455 67.7738 135.01 68.0768 135.608 67.6137C136.186 67.1677 136.647 66.5684 136.44 65.8228C135.702 63.167 135.374 60.249 132.481 58.8496C132.213 58.7202 131.99 58.4853 131.756 58.2844C129.497 56.347 129.53 55.8533 131.933 54.0283C133.393 52.9183 134.917 51.8798 135.692 50.0548C136.033 49.2478 136.841 48.8358 137.586 48.434C140.413 46.9086 143.26 45.4173 146.066 43.8579C153.12 39.9423 160.377 40.2351 167.725 42.7785C169.739 43.4765 171.744 44.2494 173.669 45.1688C179.232 47.8348 185.116 48.2808 191.097 47.7701C195.628 47.3819 200.142 46.6942 204.282 46.1868Z" fill="#438653"/>
<path d="M107.204 7.30317C106.479 6.88437 106.248 6.09785 105.961 5.40665C104.29 1.40932 102.569 -2.56418 101.126 -6.65344C100.464 -8.52613 100.264 -10.3954 100.762 -12.3498C101.818 -16.4731 102.817 -20.6135 103.862 -24.7402C104.006 -25.3088 104.023 -25.9898 104.738 -26.3439C104.955 -25.1862 105.229 -24.0796 105.366 -22.956C105.861 -18.8599 107.695 -15.4687 110.425 -12.4928C111.718 -11.0798 113.028 -9.67357 113.666 -7.76003C113.93 -6.9701 114.067 -6.34359 113.462 -5.649C112.71 -4.78416 112.617 -3.70822 112.693 -2.58121C112.767 -1.49845 112.841 -0.395273 112.71 0.67386C112.46 2.71338 112.991 4.50776 114.03 6.20679C114.635 7.19421 115.283 8.16461 115.784 9.2031C117.134 12.0053 119.095 14.1776 121.808 15.6588C122.971 16.2921 123.877 17.2795 124.612 18.3622C126.085 20.5379 127.566 22.7137 129.403 24.5795C131.882 27.0992 131.782 30.1295 131.268 33.2688C131.054 34.5661 130.817 35.8701 130.442 37.1265C129.981 38.669 130.362 40.0377 131.017 41.3826C131.896 43.1906 132.838 44.968 133.677 46.7964C134.606 48.8223 134.365 49.8404 132.661 51.2602C131.602 52.1455 130.482 52.9524 129.387 53.79C128.04 54.8183 127.853 55.5912 128.538 57.1745C129.256 58.8361 130.66 59.8064 132.086 60.6917C133.643 61.6587 134.161 63.0343 133.994 64.9308C132.935 61.9515 130.479 61.4646 127.923 61.1241C126.179 60.8926 125.835 61.0867 125.136 62.7313C124.595 64.0115 124.044 65.2917 123.429 66.5379C123.102 67.2053 122.854 68.0054 121.989 68.2335C121.07 67.6479 121.468 66.7013 121.357 65.9046C121.304 65.5028 121.23 65.0738 120.803 64.9887C120.228 64.8763 120.064 65.3666 119.891 65.8093C119.446 66.9363 119.794 68.002 120.328 68.9247C120.87 69.8611 120.662 70.3854 119.977 71.1073C118.21 72.9663 116.172 74.4474 114.067 75.8503C110.809 78.0192 107.625 80.263 104.908 83.1435C103.953 84.1582 103.03 85.1831 102.339 86.3952C101.808 87.3281 101.186 87.8014 100.104 87.2566C99.7828 87.0966 99.3684 87.0796 98.9976 87.0864C98.6868 87.0932 98.4229 87.3077 98.3193 87.6243C98.2124 87.9546 98.326 88.2304 98.62 88.4075C98.8806 88.5675 99.1513 88.7105 99.4186 88.8569C100.094 89.228 100.875 89.5719 100.641 90.5594C100.411 91.54 100.11 92.5308 99.051 92.9666C97.9685 93.4126 95.9938 92.9973 95.1919 92.1562C94.273 91.1961 94.116 90.0112 94.8778 88.5403C95.5828 87.1749 95.526 85.67 95.6296 84.2467C95.7231 82.9529 96.2009 82.088 97.0429 81.2334C99.9665 78.2711 103.024 75.4383 106.566 73.2898C113.566 69.0473 118.27 62.7823 122.072 55.6559C122.253 55.3154 122.524 54.9681 122.55 54.6072C122.654 53.2861 122.924 52.2953 124.598 52.3838C125.18 52.4145 125.457 51.5803 125.708 51.0116C126.71 48.7304 126.931 46.398 126.109 44.0112C124.973 40.7221 123.88 37.4125 122.661 34.1541C120.993 29.7039 118.4 25.7576 115.988 21.7126C114.17 18.6585 112.182 15.7166 110.251 12.7408C109.88 12.1653 109.399 11.6716 109.396 10.8885C109.386 7.72878 108.597 4.57586 109.416 1.40932C109.586 0.748769 109.526 0.0201295 109.536 -0.681276C109.543 -1.14775 109.533 -1.71637 108.921 -1.72999C108.393 -1.7402 108.213 -1.2567 108.109 -0.769806C107.541 1.88941 107.541 4.61672 107.18 7.29977L107.204 7.30317Z" fill="#73583D"/>
<path d="M110.087 149.26C110.765 148.119 111.988 147.795 113.038 147.254C113.576 146.975 114.077 147.349 114.518 147.649C119.042 150.71 123.883 153.11 128.986 154.993C130.185 155.436 130.312 155.732 129.634 156.856C128.461 158.797 126.713 160.199 125.029 161.65C122.296 163.999 119.566 166.355 117.101 169.001C115.955 170.23 116.205 171.013 117.846 171.337C118.744 171.514 119.657 171.483 120.545 171.139C122.039 170.567 123.586 170.125 125.039 169.464C128.321 167.973 131.739 166.958 135.227 166.165C140.012 165.075 144.272 166.264 147.991 169.437C149.09 170.373 150.059 171.473 150.904 172.695C151.803 173.999 151.84 175.314 151.282 176.655C149.147 181.814 145.314 185.576 138.869 185.45C134.138 185.358 129.47 184.772 124.872 183.812C120.418 182.883 115.928 182.079 111.541 180.809C110.365 180.469 109.242 180.002 108.086 179.638C106.89 179.257 106.572 178.589 106.826 177.387C107.414 174.612 108.707 172.358 111.086 170.785C113.318 169.311 115.554 167.837 117.715 166.263C119.583 164.902 121.17 163.226 122.393 161.224C122.634 160.829 122.871 160.428 123.045 159.999C123.8 158.139 123.599 157.486 121.942 156.311C118.938 154.176 115.67 152.511 112.443 150.771C111.658 150.346 110.729 150.124 110.087 149.26Z" fill="#20365B"/>
<path d="M72.1338 184.871C63.52 185.692 56.3863 182.178 49.8073 177.043C48.1768 175.773 46.5362 174.514 44.909 173.24C44.5482 172.957 44.184 172.665 43.8899 172.317C42.3129 170.458 42.2694 169.866 43.6527 167.823C45.6976 164.803 48.2737 162.539 51.8489 161.514C54.0708 160.874 56.0155 161.122 57.92 162.436C59.1295 163.271 60.1453 164.316 61.2646 165.242C64.6427 168.041 68.7625 169.304 72.6918 170.949C73.8813 171.446 75.1276 171.81 76.3605 172.195C76.8584 172.351 77.4498 172.528 77.7839 171.912C78.1147 171.303 77.6135 170.921 77.2894 170.499C75.7925 168.548 74.0985 166.761 72.7553 164.68C70.4598 161.129 70.5033 160.792 73.2665 157.717C75.6254 155.092 78.0612 152.504 79.7185 149.324C80.3333 148.146 81.0383 148.623 81.8001 148.956C82.6856 149.345 82.288 149.951 82.004 150.485C80.5171 153.294 78.6493 155.841 76.7748 158.381C76.4106 158.878 76.0899 159.409 75.699 159.883C75.024 160.7 75.004 161.575 75.4083 162.494C76.3772 164.694 77.4932 166.818 78.8665 168.776C79.4245 169.573 80.1295 170.261 81.1586 170.608C82.7591 171.149 84.0722 172.28 85.4221 173.278C86.7853 174.282 87.2164 175.818 86.9491 177.418C86.655 179.165 86.0837 180.864 85.6426 182.586C85.4622 183.288 84.8875 183.564 84.3161 183.744C83.3739 184.037 82.4083 184.388 81.4426 184.425C78.3285 184.544 75.2445 185.229 72.1338 184.871Z" fill="#20365B"/>
<path d="M21.4263 148.837C20.5609 148.64 20.4674 148.058 20.3404 147.564C20.1867 146.968 20.2235 146.287 19.3447 146.277C18.486 146.27 18.4994 147.019 18.2454 147.543C17.7409 148.589 17.2297 149.631 16.7184 150.669C16.4478 151.217 16.2072 151.803 15.402 151.98C15.0144 150.734 15.8464 149.77 16.0602 148.698C16.264 147.673 17.2497 146.433 16.3175 145.654C15.1848 144.707 14.5132 146.359 13.7113 146.866C12.201 147.826 11.0349 149.341 9.19722 149.869C8.72944 149.106 9.31751 148.8 9.64829 148.456C11.0884 146.958 12.5586 145.49 14.0087 144.002C14.4965 143.502 15.0311 142.971 14.5466 142.188C14.0722 141.425 13.4239 141.714 12.7223 141.871C10.664 142.331 8.70939 143.226 6.46405 143.151C8.0545 142.222 9.64161 141.289 11.2354 140.366C11.5662 140.175 11.9204 140.022 12.2512 139.831C14.6636 138.446 14.6836 137.795 12.3915 136.379C11.75 135.981 11.1485 135.514 10.2898 134.911C11.2755 134.431 11.9872 134.598 12.7323 134.949C14.3194 135.698 16.0301 136.239 17.4869 137.193C19.1275 138.269 21.159 138.023 22.7495 139.154C23.1972 139.471 23.7619 139.059 24.2597 138.854C32.0115 135.677 39.7733 132.521 47.5251 129.338C52.5403 127.278 57.7293 125.858 63.0353 124.85C63.3327 124.792 63.6434 124.833 63.9475 124.802C65.0367 124.693 65.157 125.562 65.3375 126.29C65.5613 127.175 64.7895 127.393 64.2582 127.465C62.5274 127.7 60.8301 128.071 59.126 128.442C52.1962 129.947 45.4802 132.092 39.0115 135.048C33.8124 137.424 28.5767 139.719 23.3409 142.014C21.4631 142.838 21.2693 143.202 21.1523 145.32C21.0822 146.481 21.9242 147.533 21.4263 148.837Z" fill="#121E31"/>
<path d="M151.125 83.8278C151.683 84.57 151.683 85.1795 151.536 85.6494C150.781 88.0566 151.509 90.6103 150.771 93.0107C150.727 93.1571 150.711 93.3172 150.707 93.4704C150.687 94.0526 150.824 94.594 151.436 94.7574C151.974 94.9004 152.264 94.4748 152.478 94.0492C153.166 92.6634 153.855 91.2776 154.516 89.8816C155.084 88.6865 155.679 87.5187 156.735 86.6811C156.912 86.5415 157.089 86.3916 157.443 86.5244C157.223 88.0021 156.949 89.4526 156.01 90.7567C155.071 92.0642 154.259 93.4772 153.464 94.8868C152.488 96.6199 152.856 97.2532 154.784 97.2873C155.539 97.3009 156.294 97.2907 157.079 97.4234C155.559 98.2917 153.915 98.765 152.251 99.1872C150.209 99.7047 150.149 99.7251 150.219 101.826C150.353 105.786 151.152 109.65 152.244 113.426C153.039 116.178 152.956 118.936 152.936 121.721C152.933 122.102 152.842 122.49 152.739 122.858C152.338 124.257 151.95 124.56 150.627 124.233C148.786 123.777 146.958 123.253 145.144 122.684C139.848 121.016 134.702 118.85 129.27 117.628C127.943 117.328 126.633 116.92 125.257 116.865C123.082 116.777 123.082 116.76 122.564 114.656C122.49 114.356 122.363 114.063 122.33 113.76C122.169 112.412 122.61 112.054 123.87 112.572C126.546 113.672 129.183 114.88 131.886 115.915C136.433 117.655 140.877 119.719 145.639 120.822C146.962 121.128 148.275 121.533 149.658 121.554C150.56 121.567 150.914 121.22 151.212 120.301C151.91 118.146 151.442 116.167 150.701 114.196C149.775 111.741 148.749 109.327 148.171 106.743C147.877 105.422 147.78 104.141 148.168 102.851C148.352 102.241 148.318 101.625 148.388 101.012C148.545 99.6979 147.987 98.9727 146.744 98.6764C145.639 98.4109 144.546 98.084 143.45 97.7742C143.012 97.6516 142.565 97.546 142.154 97.3622C141.766 97.1851 141.175 97.0251 141.415 96.4224C141.636 95.8674 142.144 96.024 142.591 96.1909C143.403 96.4905 144.252 96.3577 145.084 96.3611C147.105 96.3679 147.226 96.1568 146.18 94.2773C145.281 92.66 144.105 91.2095 143.39 89.4867C143.096 88.775 142.825 88.0464 142.598 87.311C142.471 86.9024 142.651 86.5449 143.036 86.3474C143.46 86.1295 143.787 86.361 144.011 86.6845C144.446 87.3178 144.87 87.9647 145.238 88.6423C146.163 90.3379 146.895 92.1289 147.433 93.9879C147.61 94.6008 147.687 95.3737 148.465 95.2307C149.27 95.0843 149.945 94.2944 149.651 93.5249C148.93 91.6318 149.725 89.851 149.778 88.0294C149.828 86.6096 149.979 85.1284 151.125 83.8278Z" fill="#121E31"/>
<path d="M120.646 53.0716C118.614 51.679 116.516 52.1795 114.488 52.1284C113.409 52.1012 112.934 51.6449 113.148 50.5383C114.077 45.7988 114.097 40.9945 113.987 36.0438C114.775 36.5954 114.712 37.3717 114.919 37.9777C115.721 40.2896 116.894 42.3292 118.671 44.001C119.169 44.4708 119.633 45.0054 120.011 45.5774C121.632 48.0187 121.722 49.1185 120.646 53.0716Z" fill="#428652"/>
<path d="M138.03 13.6395C136.971 18.042 135.053 21.3073 131.986 24.0959C132.08 20.5344 134.873 15.4918 138.03 13.6395Z" fill="#3F7F4E"/>
<path d="M97.6877 8.75015C100.661 8.55607 103.201 8.93401 105.533 10.4866C103.114 12.1789 100.414 11.6375 97.6877 8.75015Z" fill="#3F7F4E"/>
<path d="M107.187 7.31656C107.361 7.30296 107.434 7.36756 107.397 7.50357C107.397 7.50697 107.294 7.50697 107.274 7.47977C107.237 7.43216 107.224 7.36076 107.201 7.29956C107.204 7.30296 107.187 7.31656 107.187 7.31656Z" fill="#73583D"/>
<path d="M62.8849 87.0522C61.9861 87.0624 61.789 86.3712 61.4448 85.8979C60.0849 84.032 59.0257 81.9687 57.6926 80.0722C54.8926 76.0918 51.8153 72.3737 48.4272 68.9075C46.9537 67.4026 46.947 67.3413 48.6511 66.2177C52.5437 63.647 56.4563 61.1104 60.5293 58.8359C63.6 57.1232 66.6372 55.3527 69.7279 53.6843C71.9131 52.5028 72.4778 52.7344 73.6773 54.985C75.6486 58.6861 77.0186 62.6357 78.1847 66.6501C78.9198 69.1799 79.6682 71.6893 80.6439 74.134C81.3856 75.9897 81.3689 76.0612 79.7217 77.0861C76.7346 78.9417 73.714 80.7395 70.7002 82.5475C68.5384 83.8447 66.3599 85.1148 64.1981 86.4155C63.7336 86.6981 63.3327 87.076 62.8849 87.0522Z" fill="#21375B"/>
<path d="M90.9117 72.7517C91.2993 73.0888 91.2792 73.5927 91.4329 74.0217C91.8305 75.1385 91.4864 75.8637 90.4339 76.4936C84.3394 80.1539 78.285 83.8822 72.2172 87.5935C67.8468 90.2664 63.4831 92.9494 59.116 95.6257C58.8554 95.7857 58.5914 95.9457 58.3175 96.0785C57.5456 96.4599 56.8039 97.2634 56.1222 95.8402C55.3103 94.1513 55.2802 93.8143 56.6268 93.0039C65.2072 87.8387 73.7976 82.6905 82.3814 77.5321C84.7403 76.1157 87.0892 74.6822 89.4515 73.2692C89.8993 73.0036 90.3269 72.6257 90.9117 72.7517Z" fill="#121E31"/>
<path d="M78.1012 114.788C77.1188 114.867 76.1432 114.965 75.1675 115.006C74.8835 115.02 74.5427 114.942 74.4926 114.533C74.4491 114.179 74.6463 113.91 74.9236 113.798C75.6988 113.488 76.484 113.178 77.336 113.157C78.1112 113.137 78.3351 112.688 78.3952 111.959C78.5055 110.651 78.6859 109.351 78.8797 108.054C79.2038 105.871 79.9088 105.428 81.9604 106.082C83.9217 106.705 85.8296 107.461 87.6907 108.35C89.4548 109.191 91.1589 109.65 93.0935 108.588C94.684 107.716 96.505 107.291 98.1823 106.566C99.9665 105.793 101.878 105.742 103.739 105.445C104.862 105.268 105.63 106.051 105.747 107.461C105.894 109.232 105.911 111.016 105.513 112.793C106.332 113.369 107.327 113.134 108.149 113.549C108.577 113.764 109.025 113.903 108.958 114.485C108.884 115.139 108.417 115.398 107.832 115.384C107.541 115.377 107.261 115.18 106.967 115.122C105.403 114.816 105.366 114.857 104.765 116.504C103.996 118.619 102.927 120.57 101.721 122.46C99.9365 125.262 96.4548 126.688 93.1503 124.983C91.7937 124.281 90.8615 124.424 89.6587 125.272C88.1384 126.345 86.3341 126.678 84.4529 126.699C82.388 126.719 80.9814 125.803 80.0324 124.002C78.9265 121.905 78.6324 119.613 78.3985 117.298C78.3217 116.47 78.589 115.592 78.1012 114.788ZM97.6243 112.681V112.684C98.463 112.684 99.3016 112.684 100.14 112.684C104.28 112.688 104.487 112.432 104.006 108.244C103.899 107.322 103.565 107.148 102.666 107.264C99.0677 107.73 95.9169 109.541 92.5255 110.624C91.9942 110.794 91.6 111.162 91.6835 111.836C91.7938 112.718 92.4486 112.671 93.0568 112.674C94.577 112.688 96.1007 112.681 97.6243 112.681ZM91.8773 120.621C91.61 121.356 91.5766 121.966 92.1613 122.558C94.1828 124.608 97.8649 124.581 99.736 122.388C101.604 120.199 102.803 117.645 103.498 114.819C101.564 114.462 101.587 114.472 100.935 116.14C100.575 117.073 100.127 117.972 99.7026 118.878C98.4596 121.516 95.7832 122.994 92.7026 121.043C92.4486 120.883 92.1646 120.767 91.8773 120.621ZM80.8544 107.689C80.6272 108.918 80.3766 110.042 80.2229 111.176C80.1059 112.051 80.3632 112.694 81.4257 112.684C83.8582 112.66 86.2907 112.674 88.7231 112.664C89.2009 112.66 89.6486 112.551 89.7455 111.969C89.8257 111.472 89.7221 111.06 89.1976 110.846C86.4744 109.729 83.8749 108.278 80.8544 107.689ZM80.3031 119.143C81.1885 124.111 82.4315 125.47 85.2749 125.085C89.3847 124.526 90.3971 123.471 90.1298 119.8C86.8587 122.303 83.6276 122.994 80.3031 119.143ZM88.8668 116.862C88.9403 115.034 88.8167 114.901 86.9622 115C86.3007 115.034 85.4286 114.85 85.0945 115.537C84.7236 116.3 85.6057 116.685 86.0033 117.179C86.3842 117.652 86.8186 118.101 87.3031 118.462C88.1417 119.089 88.7064 118.827 88.8601 117.788C88.9035 117.485 88.8668 117.172 88.8668 116.862ZM99.3818 115.963C99.4687 115.177 99.3183 114.843 98.9608 114.632C98.5999 114.417 95.9737 114.458 95.8701 114.72C95.4692 115.732 96.4181 116.205 96.8257 116.862C97.2033 117.475 97.4773 118.561 98.3026 118.408C99.2649 118.227 98.9073 116.971 99.315 116.27C99.4252 116.089 99.4052 115.827 99.3818 115.963Z" fill="#070708"/>
<path d="M91.7002 134.54C91.4195 134.52 91.0119 134.506 90.8649 134.06C90.6711 133.468 91.0854 133.188 91.5298 133.056C92.9833 132.623 94.4501 132.245 95.9069 131.83C98.2124 131.176 100.277 130.063 102.068 128.428C102.349 128.173 102.65 127.921 102.98 127.744C103.244 127.601 103.572 127.591 103.812 127.863C104.043 128.122 104.043 128.428 103.906 128.721C103.809 128.925 103.655 129.106 103.508 129.28C101.717 131.38 94.4735 134.639 91.7002 134.54Z" fill="#070708"/>
<path d="M105.229 122.46C104.748 122.412 104.42 122.075 104.678 121.54C105.075 120.706 105.597 119.923 106.305 119.317C106.789 118.905 107.354 118.98 107.712 119.487C108.32 120.342 108.774 119.995 109.342 119.44C109.997 118.796 110.715 118.214 111.437 117.649C111.768 117.39 112.179 117.424 112.46 117.768C112.75 118.122 112.653 118.5 112.349 118.796C111.354 119.756 110.351 120.71 109.339 121.649C109.175 121.799 108.955 121.898 108.744 121.98C107.956 122.272 107.524 121.425 106.93 121.35C106.258 121.265 106.135 122.47 105.229 122.46Z" fill="#D99985"/>
<path d="M75.4181 125.296C75.0405 125.102 74.7264 125.231 74.3556 125.395C72.8486 126.052 71.4954 125.677 70.4362 124.383C70.2291 124.131 70.0821 123.873 70.2424 123.553C70.4463 123.144 70.8138 123.052 71.2014 123.195C71.4787 123.297 71.7427 123.478 71.9799 123.665C72.6682 124.223 73.3097 124.308 73.9847 123.621C74.7431 122.848 75.4649 123.032 76.1298 123.798C76.4338 124.148 76.7947 124.496 76.5842 125.01C76.3369 125.595 75.8658 125.452 75.4181 125.296Z" fill="#D99985"/>
<path d="M102.586 98.9829C102.556 99.7115 100.454 101.479 99.7361 101.281C99.2583 101.148 98.9074 100.641 99.295 100.215C100.007 99.4323 100.822 98.7105 101.828 98.336C102.249 98.1827 102.519 98.5198 102.586 98.9829Z" fill="#070708"/>
<path d="M81.4024 99.1396C81.3522 99.6673 80.9981 99.9942 80.5036 99.8614C79.7083 99.6469 78.9331 99.2996 78.3016 98.7344C77.8573 98.3394 77.9942 97.8696 78.4353 97.587C79.0735 97.1818 81.3088 98.3531 81.4024 99.1396Z" fill="#0C0C0D"/>
<path d="M108.043 125.367C108.063 125.933 107.835 126.382 107.354 126.457C106.703 126.556 106.402 126.062 106.402 125.463C106.405 124.973 106.666 124.547 107.201 124.526C107.742 124.506 107.956 124.925 108.043 125.367Z" fill="#0C0C0D"/>
<path d="M97.6243 112.681C96.1007 112.681 94.5771 112.687 93.0534 112.677C92.4453 112.674 91.7904 112.721 91.6802 111.84C91.5967 111.165 91.9909 110.794 92.5222 110.628C95.9136 109.545 99.0644 107.733 102.663 107.267C103.565 107.151 103.899 107.325 104.003 108.247C104.484 112.432 104.28 112.691 100.137 112.687C99.2983 112.687 98.4596 112.687 97.621 112.687C97.6243 112.681 97.6243 112.681 97.6243 112.681Z" fill="#121E31"/>
<path d="M91.8774 120.621C92.1647 120.767 92.4487 120.883 92.7027 121.043C95.7867 122.994 98.4597 121.517 99.7027 118.878C100.13 117.972 100.575 117.073 100.936 116.14C101.584 114.468 101.56 114.462 103.498 114.819C102.803 117.645 101.604 120.199 99.7361 122.388C97.865 124.581 94.1829 124.612 92.1614 122.558C91.5767 121.966 91.6101 121.356 91.8774 120.621Z" fill="#ECEEEE"/>
<path d="M80.8545 107.689C83.8751 108.278 86.4779 109.729 89.1944 110.842C89.7223 111.057 89.8259 111.469 89.7423 111.966C89.6454 112.548 89.1977 112.66 88.7199 112.66C86.2875 112.671 83.855 112.657 81.4226 112.681C80.36 112.691 80.1028 112.047 80.2197 111.172C80.3767 110.042 80.6273 108.922 80.8545 107.689Z" fill="#121E31"/>
<path d="M80.3031 119.143C83.6243 122.991 86.8554 122.303 90.1298 119.801C90.3971 123.471 89.3847 124.526 85.2749 125.085C82.4349 125.473 81.1886 124.115 80.3031 119.143Z" fill="#ECEEEE"/>
<path d="M88.8668 116.862C88.8668 117.168 88.9036 117.485 88.8602 117.785C88.7065 118.823 88.1418 119.085 87.3031 118.459C86.8186 118.098 86.3843 117.648 86.0034 117.175C85.6058 116.681 84.7237 116.297 85.0945 115.534C85.4287 114.846 86.3007 115.03 86.9623 114.996C88.8167 114.901 88.937 115.033 88.8668 116.862Z" fill="#ECEEEE"/>
<path d="M99.3819 115.963C99.4053 115.823 99.4253 116.086 99.3184 116.269C98.9074 116.971 99.2683 118.227 98.306 118.408C97.4807 118.561 97.2067 117.475 96.8291 116.862C96.4248 116.205 95.4726 115.731 95.8735 114.72C95.9771 114.458 98.6034 114.417 98.9642 114.632C99.3184 114.846 99.4687 115.18 99.3819 115.963Z" fill="#ECEEEE"/>
<g style="mix-blend-mode:soft-light">
<g style="mix-blend-mode:overlay">
<path d="M50.1988 40.4873L49.0422 38.1291H49.2963C49.372 38.1285 49.4462 38.1068 49.5108 38.0666C49.5755 38.0263 49.6281 37.9689 49.6632 37.9004C49.7042 37.824 49.7252 37.738 49.7242 37.6509C49.7232 37.5637 49.7002 37.4783 49.6574 37.4028L48.6134 35.2606H48.7927C48.8684 35.2599 48.9426 35.2382 49.0073 35.1979C49.0719 35.1576 49.1246 35.1002 49.1596 35.0317C49.2017 34.9529 49.2226 34.8642 49.22 34.7745C49.2175 34.6848 49.1917 34.5974 49.1452 34.5212L47.795 32.3916H47.8263C47.9021 32.3909 47.9762 32.3693 48.0408 32.329C48.1055 32.2887 48.1582 32.2313 48.1932 32.1629C48.2352 32.0852 48.2563 31.9976 48.2545 31.9089C48.2527 31.8202 48.228 31.7336 48.1829 31.6578L46.9145 29.5229C46.9836 29.5215 47.0509 29.5006 47.1089 29.4624C47.1669 29.4241 47.2132 29.3702 47.2427 29.3065C47.2765 29.2373 47.2912 29.16 47.2852 29.083C47.2793 29.0059 47.2529 28.932 47.209 28.869L45.9277 26.8749C45.8909 26.8152 45.8399 26.7661 45.7794 26.732C45.7189 26.6979 45.6509 26.68 45.5818 26.68C45.5126 26.68 45.4447 26.6979 45.3842 26.732C45.3237 26.7661 45.2726 26.8152 45.2359 26.8749L43.9546 28.869C43.9103 28.9319 43.8837 29.0058 43.8775 29.0829C43.8713 29.16 43.8858 29.2374 43.9194 29.3068C43.9489 29.3705 43.9952 29.4244 44.0532 29.4627C44.1112 29.5009 44.1785 29.5218 44.2476 29.5232L43.646 30.5366L42.6133 29.1853C42.5743 29.1342 42.553 29.0714 42.5529 29.0066V28.7506C42.5526 28.5567 42.4768 28.3709 42.3422 28.2338C42.2077 28.0968 42.0253 28.0197 41.835 28.0195H40.4864C40.2962 28.0197 40.1138 28.0968 39.9792 28.2339C39.8447 28.3709 39.7689 28.5567 39.7686 28.7506V29.0063C39.7686 29.071 39.7474 29.1338 39.7084 29.1849L38.6189 30.6107L37.9725 29.5232C38.0415 29.5218 38.1088 29.5009 38.1668 29.4627C38.2247 29.4245 38.2711 29.3706 38.3005 29.307C38.3342 29.2376 38.3486 29.1601 38.3425 29.083C38.3363 29.0059 38.3096 28.9319 38.2654 28.869L36.9841 26.8749C36.9474 26.8151 36.8963 26.7658 36.8357 26.7316C36.7752 26.6974 36.7071 26.6794 36.6378 26.6794C36.5686 26.6794 36.5005 26.6974 36.4399 26.7316C36.3793 26.7658 36.3283 26.8151 36.2915 26.8749L35.0102 28.869C34.966 28.9319 34.9394 29.0059 34.9332 29.083C34.927 29.1601 34.9415 29.2376 34.9751 29.307C35.0047 29.3707 35.0511 29.4247 35.1093 29.4629C35.1674 29.5011 35.2348 29.522 35.304 29.5232L35.0517 29.9479C34.8861 29.9619 34.7315 30.0387 34.6188 30.1632C34.506 30.2877 34.4431 30.4507 34.4427 30.6201V30.9735L34.0391 31.6543C33.9931 31.7304 33.9678 31.8176 33.9655 31.907C33.9633 31.9964 33.9843 32.0847 34.0264 32.1632C34.0615 32.2316 34.1142 32.289 34.1788 32.3293C34.2434 32.3696 34.3176 32.3912 34.3934 32.3919H34.4246L33.072 34.5227C33.026 34.5988 33.0006 34.6859 32.9983 34.7753C32.9961 34.8647 33.0172 34.953 33.0593 35.0314C33.0943 35.1 33.147 35.1575 33.2116 35.1978C33.2763 35.2381 33.3505 35.2597 33.4263 35.2603H33.6054L32.5615 37.4028C32.5186 37.4783 32.4955 37.5638 32.4945 37.651C32.4935 37.7382 32.5145 37.8242 32.5556 37.9007C32.5907 37.9692 32.6433 38.0266 32.708 38.0669C32.7726 38.1071 32.8468 38.1288 32.9225 38.1294H33.2202L32.0635 40.4873C32.0174 40.5679 31.9924 40.6594 31.991 40.7528C31.9897 40.8461 32.012 40.9383 32.0559 41.0203C32.0932 41.0934 32.1493 41.1549 32.2183 41.1979C32.2873 41.241 32.3665 41.2641 32.4473 41.2648H35.2628V42.692C35.2629 42.8488 35.3242 42.9992 35.433 43.1101C35.5418 43.221 35.6894 43.2834 35.8433 43.2836H46.4693C46.6232 43.2834 46.7708 43.221 46.8796 43.1101C46.9885 42.9992 47.0497 42.8488 47.0499 42.692V41.2648H49.8151C49.896 41.2642 49.9752 41.241 50.0441 41.1979C50.1131 41.1549 50.1692 41.0934 50.2064 41.0203C50.2503 40.9383 50.2727 40.8461 50.2714 40.7528C50.27 40.6594 50.245 40.5679 50.1988 40.4873V40.4873ZM36.6379 27.1404L37.8857 29.0825H37.6831C37.6361 29.0827 37.5899 29.0957 37.5494 29.12C37.5089 29.1443 37.4755 29.1792 37.4525 29.221C37.4283 29.2647 37.416 29.3141 37.4167 29.3642C37.4175 29.4143 37.4313 29.4634 37.4567 29.5063L38.3338 30.9831L37.1504 32.5304V32.2253C37.2816 32.18 37.3955 32.0941 37.4764 31.9795C37.5573 31.865 37.601 31.7275 37.6014 31.5864V30.6201C37.6012 30.4404 37.531 30.268 37.4063 30.1409C37.2815 30.0137 37.1124 29.9422 36.9359 29.942H35.5598L35.8192 29.5063C35.8446 29.4632 35.8584 29.4141 35.859 29.3639C35.8596 29.3137 35.8472 29.2643 35.8228 29.2206C35.7999 29.1788 35.7664 29.1439 35.7259 29.1195C35.6854 29.0952 35.6393 29.0823 35.5922 29.0821H35.3904L36.6379 27.1404ZM34.8743 30.6201C34.8744 30.5572 34.899 30.4968 34.9427 30.4523C34.9864 30.4078 35.0456 30.3827 35.1074 30.3826H36.9359C36.9977 30.3827 37.057 30.4078 37.1007 30.4523C37.1443 30.4968 37.1689 30.5572 37.169 30.6201V31.5864C37.169 31.6494 37.1444 31.7098 37.1007 31.7543C37.057 31.7989 36.9978 31.824 36.9359 31.824H35.1074C35.0456 31.824 34.9863 31.7989 34.9426 31.7543C34.8989 31.7098 34.8744 31.6494 34.8743 31.5864V30.6201ZM36.718 32.2651V33.0962L35.3252 34.9175V32.2647L36.718 32.2651ZM34.4039 31.9512C34.3989 31.9411 34.3964 31.9299 34.3967 31.9185C34.3969 31.9072 34.3999 31.8961 34.4053 31.8862L34.4713 31.7748C34.4886 31.837 34.5144 31.8964 34.5482 31.9511L34.4039 31.9512ZM35.2628 40.8242H32.4478C32.4371 40.8145 32.4297 40.8015 32.4269 40.7872C32.4232 40.7749 32.422 40.7619 32.4234 40.7491C32.4248 40.7363 32.4288 40.7239 32.4351 40.7127C32.439 40.7063 32.4427 40.6997 32.446 40.6928L33.7634 38.0071C33.7799 37.9735 33.7877 37.9361 33.786 37.8986C33.7843 37.8611 33.7733 37.8246 33.7539 37.7927C33.7345 37.7607 33.7075 37.7343 33.6753 37.7161C33.6431 37.6978 33.6068 37.6882 33.57 37.6882H32.9345C32.9296 37.6788 32.927 37.6684 32.9268 37.6578C32.9266 37.6472 32.9289 37.6366 32.9335 37.6271C32.9375 37.6207 32.9412 37.614 32.9444 37.6071L34.1063 35.2234C34.1271 35.1802 34.1368 35.1324 34.1345 35.0843C34.1323 35.0362 34.1181 34.9895 34.0933 34.9486C34.0698 34.9093 34.0369 34.8769 33.9975 34.8543C33.9582 34.8318 33.9139 34.82 33.8687 34.8199H33.4382C33.4333 34.8109 33.4306 34.8007 33.4302 34.7904C33.4298 34.78 33.4318 34.7697 33.4361 34.7603L34.8928 32.4631V35.4829L34.0578 36.5749C33.9925 36.6626 33.9525 36.7672 33.9423 36.8769C33.9321 36.9865 33.9522 37.0969 34.0002 37.1955C34.0483 37.2942 34.1224 37.3772 34.2143 37.4352C34.3062 37.4933 34.4121 37.524 34.5202 37.524H35.2628V40.8242ZM46.6181 42.692C46.618 42.732 46.6024 42.7704 46.5746 42.7987C46.5468 42.827 46.5092 42.8429 46.4699 42.843H35.8433C35.804 42.8429 35.7664 42.827 35.7386 42.7987C35.7108 42.7704 35.6952 42.732 35.6951 42.692V42.4398H46.6181V42.692ZM35.6957 41.9992V40.1847H36.4714V41.9992H35.6957ZM36.9038 41.9992V40.1847H37.6377V41.9992H36.9038ZM38.0701 41.9992V40.1847H38.8598V41.9992H38.0701ZM39.2922 41.9992V39.4282C39.29 39.1767 39.3367 38.9273 39.4296 38.6944C39.5226 38.4614 39.6599 38.2495 39.8336 38.0709C40.0073 37.8923 40.214 37.7506 40.4418 37.6538C40.6696 37.5571 40.9139 37.5073 41.1607 37.5073C41.4075 37.5073 41.6518 37.5571 41.8796 37.6538C42.1074 37.7506 42.3141 37.8923 42.4878 38.0709C42.6615 38.2495 42.7988 38.4614 42.8918 38.6944C42.9847 38.9273 43.0314 39.1767 43.0293 39.4282V41.9984L39.2922 41.9992ZM43.4616 41.9992V40.1847H44.2435V41.9992H43.4616ZM44.6759 41.9992V40.1847H45.41V41.9992H44.6759ZM46.6181 41.9992H45.8418V40.1847H46.6181V41.9992ZM46.6181 39.7441H43.4616V39.4282C43.4641 39.1187 43.4063 38.8118 43.2918 38.5252C43.1772 38.2386 43.0081 37.9779 42.7942 37.7582C42.5803 37.5385 42.3258 37.3641 42.0455 37.2451C41.7651 37.1261 41.4644 37.0648 41.1607 37.0648C40.857 37.0648 40.5563 37.1261 40.2759 37.2451C39.9956 37.3641 39.7411 37.5385 39.5272 37.7582C39.3133 37.9779 39.1442 38.2386 39.0297 38.5252C38.9151 38.8118 38.8574 39.1187 38.8598 39.4282V39.7441H35.6951V37.3773L36.112 36.8117H46.2001L46.6169 37.3773L46.6181 39.7441ZM45.6534 36.0691L45.8759 36.3711H36.4367L36.6588 36.0691H45.6534ZM36.9839 35.6285L40.916 30.2928C40.9451 30.2564 40.9817 30.2271 41.0233 30.2069C41.0648 30.1868 41.1103 30.1763 41.1563 30.1763C41.2023 30.1763 41.2478 30.1868 41.2893 30.2069C41.3309 30.2271 41.3675 30.2564 41.3966 30.2928L45.3287 35.6285H36.9839ZM46.9418 37.0834L41.7422 30.0284C41.6739 29.9358 41.5855 29.8606 41.4838 29.8089C41.3821 29.7571 41.27 29.7301 41.1563 29.7301C41.0426 29.7301 40.9305 29.7571 40.8289 29.8089C40.7272 29.8606 40.6387 29.9358 40.5704 30.0284L35.371 37.0834H34.5206C34.4933 37.0834 34.4665 37.0756 34.4432 37.0611C34.4199 37.0465 34.401 37.0256 34.3886 37.0008C34.3762 36.9759 34.3708 36.9481 34.373 36.9203C34.3752 36.8925 34.3849 36.8659 34.401 36.8434L40.0494 29.4556C40.1472 29.327 40.2005 29.169 40.2009 29.0063V28.7508C40.201 28.6737 40.2311 28.5998 40.2846 28.5452C40.3381 28.4907 40.4106 28.4601 40.4863 28.4599H41.8337C41.9094 28.4601 41.9819 28.4907 42.0354 28.5452C42.0889 28.5997 42.1191 28.6736 42.1192 28.7508V29.0062C42.1196 29.1689 42.1729 29.327 42.2709 29.4556L47.9181 36.8412C47.9348 36.8636 47.945 36.8903 47.9475 36.9183C47.9501 36.9462 47.945 36.9744 47.9327 36.9996C47.9205 37.0247 47.9015 37.0459 47.8781 37.0607C47.8547 37.0755 47.8276 37.0834 47.8001 37.0834H46.9418ZM49.8356 40.7875C49.8327 40.8016 49.8255 40.8145 49.8151 40.8242H47.0504V37.524H47.7999C47.9083 37.5241 48.0144 37.4932 48.1065 37.435C48.1985 37.3767 48.2727 37.2934 48.3207 37.1944C48.3687 37.0955 48.3885 36.9848 48.378 36.8749C48.3675 36.765 48.327 36.6604 48.2611 36.5727L43.9293 30.908L44.7618 29.5063C44.7873 29.4633 44.8012 29.4142 44.8019 29.364C44.8026 29.3138 44.7902 29.2643 44.766 29.2206C44.7431 29.1788 44.7096 29.1439 44.6691 29.1195C44.6286 29.0952 44.5824 29.0823 44.5354 29.0821H44.333L45.5811 27.14L46.8289 29.0821H46.6263C46.5792 29.0823 46.5331 29.0952 46.4926 29.1195C46.4521 29.1439 46.4186 29.1788 46.3957 29.2206C46.3715 29.2643 46.3592 29.3137 46.3599 29.3638C46.3607 29.4139 46.3744 29.4629 46.3999 29.5058L47.8156 31.8895C47.8202 31.8991 47.8225 31.9097 47.8223 31.9203C47.8221 31.9309 47.8195 31.9414 47.8146 31.9508H47.4961C47.4484 31.951 47.4016 31.9643 47.3607 31.9893C47.3198 32.0144 47.2862 32.0502 47.2636 32.093C47.2398 32.1376 47.2282 32.1879 47.23 32.2387C47.2319 32.2895 47.2472 32.3388 47.2743 32.3814L48.7814 34.7583C48.786 34.7678 48.7883 34.7784 48.7881 34.789C48.7879 34.7997 48.7852 34.8101 48.7803 34.8195H48.3493C48.3042 34.8195 48.2598 34.8313 48.2205 34.8539C48.1811 34.8764 48.1481 34.9089 48.1246 34.9482C48.1 34.9892 48.086 35.0358 48.0838 35.0839C48.0816 35.1319 48.0914 35.1797 48.1122 35.2228L49.2744 37.607C49.2776 37.6138 49.2813 37.6205 49.2853 37.627C49.29 37.6365 49.2923 37.647 49.2921 37.6576C49.2919 37.6683 49.2893 37.6787 49.2843 37.6881H48.6924C48.6555 37.6881 48.6193 37.6977 48.5871 37.716C48.5549 37.7343 48.5279 37.7606 48.5085 37.7926C48.4891 37.8245 48.4781 37.861 48.4765 37.8985C48.4748 37.936 48.4826 37.9733 48.4991 38.0069L49.8163 40.6926C49.8196 40.6995 49.8233 40.7061 49.8274 40.7126C49.8337 40.7238 49.8376 40.7363 49.839 40.7492C49.8405 40.7621 49.8393 40.7751 49.8356 40.7875V40.7875Z" fill="#F9FAFA"/>
<path d="M39.6544 33.3538C39.6544 33.6564 39.7424 33.9523 39.9074 34.204C40.0724 34.4557 40.3069 34.6518 40.5813 34.7677C40.8557 34.8835 41.1577 34.9138 41.449 34.8548C41.7403 34.7958 42.0079 34.65 42.2179 34.436C42.428 34.222 42.571 33.9494 42.629 33.6525C42.6869 33.3557 42.6572 33.048 42.5435 32.7683C42.4299 32.4887 42.2374 32.2497 41.9904 32.0815C41.7435 31.9134 41.4531 31.8236 41.1561 31.8236C40.758 31.8241 40.3763 31.9854 40.0948 32.2723C39.8133 32.5591 39.6549 32.9481 39.6544 33.3538V33.3538ZM42.2253 33.3538C42.2253 33.5693 42.1626 33.78 42.0451 33.9592C41.9276 34.1384 41.7606 34.2781 41.5652 34.3606C41.3699 34.443 41.1548 34.4646 40.9474 34.4226C40.74 34.3806 40.5494 34.2768 40.3999 34.1244C40.2503 33.972 40.1485 33.7778 40.1072 33.5664C40.066 33.3551 40.0872 33.136 40.1681 32.9369C40.2491 32.7377 40.3862 32.5676 40.562 32.4479C40.7379 32.3281 40.9446 32.2642 41.1561 32.2643C41.4396 32.2646 41.7113 32.3795 41.9118 32.5837C42.1122 32.788 42.2249 33.0649 42.2253 33.3538V33.3538Z" fill="#F9FAFA"/>
<path d="M37.8981 37.3165H36.8712C36.7374 37.3165 36.6091 37.3706 36.5145 37.467C36.4199 37.5635 36.3667 37.6942 36.3667 37.8306V38.8775C36.3667 39.0138 36.4199 39.1446 36.5145 39.241C36.6091 39.3374 36.7374 39.3916 36.8712 39.3916H37.8981C38.0319 39.3916 38.1602 39.3374 38.2549 39.241C38.3495 39.1446 38.4026 39.0138 38.4026 38.8775V37.8306C38.4026 37.6942 38.3495 37.5635 38.2549 37.467C38.1602 37.3706 38.0319 37.3165 37.8981 37.3165ZM37.9702 38.8775C37.9702 38.8969 37.9626 38.9156 37.9491 38.9294C37.9356 38.9432 37.9172 38.9509 37.8981 38.9509H36.8712C36.8521 38.9509 36.8338 38.9432 36.8203 38.9294C36.8068 38.9156 36.7992 38.8969 36.7992 38.8775V37.8306C36.7992 37.8111 36.8068 37.7924 36.8203 37.7786C36.8338 37.7649 36.8521 37.7571 36.8712 37.7571H37.8981C37.9172 37.7571 37.9356 37.7649 37.9491 37.7786C37.9626 37.7924 37.9702 37.8111 37.9702 37.8306V38.8775Z" fill="#F9FAFA"/>
<path d="M45.4977 37.3165H44.4702C44.3364 37.3165 44.2081 37.3706 44.1135 37.467C44.0189 37.5635 43.9657 37.6942 43.9657 37.8306V38.8775C43.9657 39.0138 44.0189 39.1446 44.1135 39.241C44.2081 39.3374 44.3364 39.3916 44.4702 39.3916H45.4975C45.6313 39.3916 45.7597 39.3374 45.8543 39.241C45.9489 39.1446 46.002 39.0138 46.002 38.8775V37.8306C46.002 37.6943 45.9489 37.5635 45.8543 37.4671C45.7597 37.3707 45.6315 37.3165 45.4977 37.3165ZM45.5697 38.8775C45.5697 38.8969 45.5622 38.9156 45.5486 38.9294C45.5351 38.9432 45.5168 38.9509 45.4977 38.9509H44.4702C44.4511 38.9509 44.4328 38.9432 44.4192 38.9294C44.4057 38.9156 44.3981 38.8969 44.3981 38.8775V37.8306C44.3981 37.8111 44.4057 37.7924 44.4192 37.7786C44.4328 37.7649 44.4511 37.7571 44.4702 37.7571H45.4975C45.5166 37.7571 45.535 37.7649 45.5485 37.7786C45.562 37.7924 45.5696 37.8111 45.5696 37.8306L45.5697 38.8775Z" fill="#F9FAFA"/>
</g>
<g style="mix-blend-mode:overlay">
<path d="M52.2833 34.9772C52.2833 41.3495 47.2177 46.4911 40.9986 46.4911C34.7795 46.4911 29.7139 41.3495 29.7139 34.9772C29.7139 28.605 34.7795 23.4634 40.9986 23.4634C47.2177 23.4634 52.2833 28.605 52.2833 34.9772Z" stroke="#F9FAFA" stroke-width="1.5"/>
</g>
</g>
<g filter="url(#filter1_d)">
<path d="M37.7097 44.9182V32.2282H40.0317L44.3157 40.0222L48.5817 32.2282H50.8677V44.9182H48.3297V37.1782L45.0537 43.0102H43.4877L40.2297 37.2322V44.9182H37.7097ZM56.1953 45.1162C55.5353 45.1162 54.9533 44.9902 54.4493 44.7382C53.9453 44.4862 53.5433 44.1442 53.2433 43.7122C52.9553 43.2802 52.8113 42.7942 52.8113 42.2542C52.8113 41.6182 52.9793 41.1082 53.3153 40.7242C53.6513 40.3402 54.1973 40.0702 54.9533 39.9142C55.7093 39.7462 56.7113 39.6622 57.9593 39.6622H58.6073V39.3562C58.6073 38.8282 58.4873 38.4562 58.2473 38.2402C58.0073 38.0122 57.5993 37.8982 57.0233 37.8982C56.5433 37.8982 56.0333 37.9762 55.4933 38.1322C54.9653 38.2762 54.4373 38.4982 53.9093 38.7982L53.1713 36.9802C53.4833 36.7762 53.8613 36.5902 54.3053 36.4222C54.7613 36.2542 55.2353 36.1282 55.7273 36.0442C56.2193 35.9482 56.6873 35.9002 57.1313 35.9002C58.4993 35.9002 59.5193 36.2122 60.1913 36.8362C60.8633 37.4482 61.1993 38.4022 61.1993 39.6982V44.9182H58.6613V43.5862C58.4813 44.0542 58.1753 44.4262 57.7433 44.7022C57.3233 44.9782 56.8073 45.1162 56.1953 45.1162ZM56.8073 43.2982C57.3113 43.2982 57.7373 43.1242 58.0853 42.7762C58.4333 42.4282 58.6073 41.9782 58.6073 41.4262V41.0662H57.9773C57.0533 41.0662 56.3993 41.1502 56.0153 41.3182C55.6313 41.4742 55.4393 41.7502 55.4393 42.1462C55.4393 42.4822 55.5533 42.7582 55.7813 42.9742C56.0213 43.1902 56.3633 43.2982 56.8073 43.2982ZM67.4748 48.3562C66.6228 48.3562 65.8248 48.2662 65.0808 48.0862C64.3488 47.9062 63.7068 47.6242 63.1548 47.2402L63.8928 45.3862C64.3728 45.6862 64.9128 45.9142 65.5128 46.0702C66.1248 46.2382 66.7008 46.3222 67.2408 46.3222C68.7768 46.3222 69.5448 45.6142 69.5448 44.1982V43.1902C69.3048 43.6462 68.9268 44.0122 68.4108 44.2882C67.8948 44.5642 67.3308 44.7022 66.7188 44.7022C65.9268 44.7022 65.2368 44.5222 64.6488 44.1622C64.0608 43.7902 63.6048 43.2742 63.2808 42.6142C62.9568 41.9542 62.7948 41.1802 62.7948 40.2922C62.7948 39.4162 62.9568 38.6482 63.2808 37.9882C63.6048 37.3282 64.0608 36.8182 64.6488 36.4582C65.2368 36.0862 65.9268 35.9002 66.7188 35.9002C67.3548 35.9002 67.9248 36.0382 68.4288 36.3142C68.9328 36.5902 69.3048 36.9562 69.5448 37.4122V36.0802H72.1908V43.8922C72.1908 45.3802 71.7888 46.4962 70.9848 47.2402C70.1808 47.9842 69.0108 48.3562 67.4748 48.3562ZM67.5288 42.6682C68.1288 42.6682 68.6088 42.4582 68.9688 42.0382C69.3408 41.6182 69.5268 41.0362 69.5268 40.2922C69.5268 39.5482 69.3408 38.9722 68.9688 38.5642C68.6088 38.1442 68.1288 37.9342 67.5288 37.9342C66.9168 37.9342 66.4308 38.1442 66.0708 38.5642C65.7108 38.9722 65.5308 39.5482 65.5308 40.2922C65.5308 41.0362 65.7108 41.6182 66.0708 42.0382C66.4308 42.4582 66.9168 42.6682 67.5288 42.6682ZM74.193 34.3702V31.8322H77.127V34.3702H74.193ZM74.301 44.9182V36.0802H77.019V44.9182H74.301ZM83.4195 45.1162C82.4595 45.1162 81.6195 44.9302 80.8995 44.5582C80.1915 44.1742 79.6455 43.6342 79.2615 42.9382C78.8775 42.2422 78.6855 41.4202 78.6855 40.4722C78.6855 39.5242 78.8775 38.7082 79.2615 38.0242C79.6455 37.3402 80.1915 36.8182 80.8995 36.4582C81.6195 36.0862 82.4595 35.9002 83.4195 35.9002C83.9835 35.9002 84.5535 35.9842 85.1295 36.1522C85.7055 36.3202 86.1735 36.5602 86.5335 36.8722L85.7775 38.7442C85.4775 38.5042 85.1415 38.3182 84.7695 38.1862C84.3975 38.0422 84.0375 37.9702 83.6895 37.9702C82.9815 37.9702 82.4295 38.1922 82.0335 38.6362C81.6495 39.0682 81.4575 39.6862 81.4575 40.4902C81.4575 41.2822 81.6495 41.9062 82.0335 42.3622C82.4295 42.8062 82.9815 43.0282 83.6895 43.0282C84.0255 43.0282 84.3795 42.9622 84.7515 42.8302C85.1355 42.6982 85.4775 42.5062 85.7775 42.2542L86.5335 44.1262C86.1735 44.4382 85.7055 44.6842 85.1295 44.8642C84.5535 45.0322 83.9835 45.1162 83.4195 45.1162ZM92.9569 44.9182V32.2282H98.7709C100.127 32.2282 101.171 32.5222 101.903 33.1102C102.647 33.6982 103.019 34.5022 103.019 35.5222C103.019 36.1942 102.851 36.7762 102.515 37.2682C102.179 37.7482 101.711 38.1082 101.111 38.3482C101.831 38.5522 102.383 38.9122 102.767 39.4282C103.163 39.9442 103.361 40.5802 103.361 41.3362C103.361 42.4642 102.965 43.3462 102.173 43.9822C101.393 44.6062 100.325 44.9182 98.9689 44.9182H92.9569ZM95.6209 37.4482H98.2849C99.6529 37.4482 100.337 36.9202 100.337 35.8642C100.337 34.8202 99.6529 34.2982 98.2849 34.2982H95.6209V37.4482ZM95.6209 42.8482H98.5909C99.3109 42.8482 99.8389 42.7102 100.175 42.4342C100.511 42.1582 100.679 41.7382 100.679 41.1742C100.679 40.6222 100.511 40.2082 100.175 39.9322C99.8389 39.6562 99.3109 39.5182 98.5909 39.5182H95.6209V42.8482ZM109.829 45.1162C108.785 45.1162 107.885 44.9302 107.129 44.5582C106.385 44.1742 105.809 43.6402 105.401 42.9562C105.005 42.2602 104.807 41.4442 104.807 40.5082C104.807 39.5962 104.999 38.7982 105.383 38.1142C105.779 37.4182 106.313 36.8782 106.985 36.4942C107.669 36.0982 108.455 35.9002 109.343 35.9002C110.627 35.9002 111.647 36.3082 112.403 37.1242C113.159 37.9282 113.537 39.0202 113.537 40.4002V41.0842H107.399C107.495 41.7802 107.747 42.2902 108.155 42.6142C108.575 42.9262 109.151 43.0822 109.883 43.0822C110.363 43.0822 110.849 43.0102 111.341 42.8662C111.833 42.7222 112.277 42.5002 112.673 42.2002L113.393 44.0182C112.949 44.3542 112.403 44.6242 111.755 44.8282C111.119 45.0202 110.477 45.1162 109.829 45.1162ZM109.451 37.7002C108.875 37.7002 108.407 37.8742 108.047 38.2222C107.699 38.5702 107.483 39.0562 107.399 39.6802H111.287C111.215 38.3602 110.603 37.7002 109.451 37.7002ZM118.105 45.1162C117.445 45.1162 116.863 44.9902 116.359 44.7382C115.855 44.4862 115.453 44.1442 115.153 43.7122C114.865 43.2802 114.721 42.7942 114.721 42.2542C114.721 41.6182 114.889 41.1082 115.225 40.7242C115.561 40.3402 116.107 40.0702 116.863 39.9142C117.619 39.7462 118.621 39.6622 119.869 39.6622H120.517V39.3562C120.517 38.8282 120.397 38.4562 120.157 38.2402C119.917 38.0122 119.509 37.8982 118.933 37.8982C118.453 37.8982 117.943 37.9762 117.403 38.1322C116.875 38.2762 116.347 38.4982 115.819 38.7982L115.081 36.9802C115.393 36.7762 115.771 36.5902 116.215 36.4222C116.671 36.2542 117.145 36.1282 117.637 36.0442C118.129 35.9482 118.597 35.9002 119.041 35.9002C120.409 35.9002 121.429 36.2122 122.101 36.8362C122.773 37.4482 123.109 38.4022 123.109 39.6982V44.9182H120.571V43.5862C120.391 44.0542 120.085 44.4262 119.653 44.7022C119.233 44.9782 118.717 45.1162 118.105 45.1162ZM118.717 43.2982C119.221 43.2982 119.647 43.1242 119.995 42.7762C120.343 42.4282 120.517 41.9782 120.517 41.4262V41.0662H119.887C118.963 41.0662 118.309 41.1502 117.925 41.3182C117.541 41.4742 117.349 41.7502 117.349 42.1462C117.349 42.4822 117.463 42.7582 117.691 42.9742C117.931 43.1902 118.273 43.2982 118.717 43.2982ZM125.137 44.9182V36.0802H127.801V37.3762C128.101 36.8962 128.503 36.5302 129.007 36.2782C129.511 36.0262 130.075 35.9002 130.699 35.9002C131.743 35.9002 132.523 36.2062 133.039 36.8182C133.555 37.4182 133.813 38.3482 133.813 39.6082V44.9182H131.095V39.7342C131.095 39.1222 130.981 38.6842 130.753 38.4202C130.525 38.1442 130.189 38.0062 129.745 38.0062C129.169 38.0062 128.707 38.1862 128.359 38.5462C128.023 38.9062 127.855 39.3862 127.855 39.9862V44.9182H125.137Z" fill="#FFF1E5"/>
</g>
</g>
</g>
<defs>
<filter id="filter0_d" x="0" y="0" width="156" height="157" filterUnits="userSpaceOnUse" color-interpolation-filters="sRGB">
<feFlood flood-opacity="0" result="BackgroundImageFix"/>
<feColorMatrix in="SourceAlpha" type="matrix" values="0 0 0 0 0 0 0 0 0 0 0 0 0 0 0 0 0 0 127 0"/>
<feOffset dy="4"/>
<feGaussianBlur stdDeviation="2"/>
<feColorMatrix type="matrix" values="0 0 0 0 0 0 0 0 0 0 0 0 0 0 0 0 0 0 0.25 0"/>
<feBlend mode="normal" in2="BackgroundImageFix" result="effect1_dropShadow"/>
<feBlend mode="normal" in="SourceGraphic" in2="effect1_dropShadow" result="shape"/>
</filter>
<filter id="filter1_d" x="36.7097" y="31.8322" width="98.1033" height="20.524" filterUnits="userSpaceOnUse" color-interpolation-filters="sRGB">
<feFlood flood-opacity="0" result="BackgroundImageFix"/>
<feColorMatrix in="SourceAlpha" type="matrix" values="0 0 0 0 0 0 0 0 0 0 0 0 0 0 0 0 0 0 127 0"/>
<feOffset dy="3"/>
<feGaussianBlur stdDeviation="0.5"/>
<feColorMatrix type="matrix" values="0 0 0 0 0 0 0 0 0 0 0 0 0 0 0 0 0 0 0.5 0"/>
<feBlend mode="normal" in2="BackgroundImageFix" result="effect1_dropShadow"/>
<feBlend mode="normal" in="SourceGraphic" in2="effect1_dropShadow" result="shape"/>
</filter>
<clipPath id="clip0">
<rect x="4" width="148" height="149" rx="74" fill="white"/>
</clipPath>
</defs>
</svg>
