<svg width="1031" height="76" viewBox="0 0 1031 76" fill="none" xmlns="http://www.w3.org/2000/svg">
<mask id="mask0" mask-type="alpha" maskUnits="userSpaceOnUse" x="0" y="0" width="1031" height="76">
<rect width="1031" height="76" fill="#C4C4C4"/>
</mask>
<g mask="url(#mask0)">
<path d="M-63 68.0874L200.087 -195M-57.1555 73.9318L205.932 -189.156M-51.3112 79.7762L211.776 -183.311M-45.4667 85.6206L217.621 -177.467M-39.6223 91.465L223.465 -171.622M-33.7779 97.3094L229.309 -165.778M-27.9336 103.154L235.154 -159.934M-22.0891 108.998L240.998 -154.089M-16.352 114.735L246.735 -148.352M-10.5076 120.58L252.58 -142.508M-4.66323 126.424L258.424 -136.663M1.18121 132.269L264.269 -130.819M7.02562 138.113L270.113 -124.974M12.8701 143.957L275.957 -119.13M18.7144 149.802L281.802 -113.286M24.5589 155.646L287.646 -107.441M30.2959 161.383L293.383 -101.704M36.1404 167.228L299.228 -95.8597M41.9847 173.072L305.072 -90.0152M47.8292 178.917L310.916 -84.1708M53.6736 184.761L316.761 -78.3264M59.518 190.605L322.605 -72.482M65.3623 196.45L328.45 -66.6376M71.2068 202.294L334.294 -60.7932M76.9439 208.031L340.031 -55.0561M82.7883 213.876L345.876 -49.2117M88.6327 219.72L351.72 -43.3673M94.4771 225.564L357.564 -37.5229M100.322 231.409L363.409 -31.6785M106.166 237.253L369.253 -25.8341M112.01 243.098L375.098 -19.9896M117.855 248.942L380.942 -14.1453" stroke="#3785EF" stroke-opacity="0.5"/>
<path d="M298 80.0874L561.087 -183M303.844 85.9318L566.932 -177.156M309.689 91.7762L572.776 -171.311M315.533 97.6206L578.621 -165.467M321.378 103.465L584.465 -159.622M327.222 109.309L590.309 -153.778M333.066 115.154L596.154 -147.934M338.911 120.998L601.998 -142.089M344.648 126.735L607.735 -136.352M350.492 132.58L613.58 -130.508M356.337 138.424L619.424 -124.663M362.181 144.269L625.269 -118.819M368.026 150.113L631.113 -112.974M373.87 155.957L636.957 -107.13M379.714 161.802L642.802 -101.286M385.559 167.646L648.646 -95.4412M391.296 173.383L654.383 -89.7041M397.14 179.228L660.228 -83.8597M402.985 185.072L666.072 -78.0152M408.829 190.917L671.916 -72.1708M414.674 196.761L677.761 -66.3264M420.518 202.605L683.605 -60.482M426.362 208.45L689.45 -54.6376M432.207 214.294L695.294 -48.7932M437.944 220.031L701.031 -43.0561M443.788 225.876L706.876 -37.2117M449.633 231.72L712.72 -31.3673M455.477 237.564L718.564 -25.5229M461.322 243.409L724.409 -19.6785M467.166 249.253L730.253 -13.8341M473.01 255.098L736.098 -7.98964M478.855 260.942L741.942 -2.14528" stroke="#3785EF" stroke-opacity="0.5"/>
<path d="M669 84.0874L932.087 -179M674.844 89.9318L937.932 -173.156M680.689 95.7762L943.776 -167.311M686.533 101.621L949.621 -161.467M692.378 107.465L955.465 -155.622M698.222 113.309L961.309 -149.778M704.066 119.154L967.154 -143.934M709.911 124.998L972.998 -138.089M715.648 130.735L978.735 -132.352M721.492 136.58L984.58 -126.508M727.337 142.424L990.424 -120.663M733.181 148.269L996.269 -114.819M739.026 154.113L1002.11 -108.974M744.87 159.957L1007.96 -103.13M750.714 165.802L1013.8 -97.2856M756.559 171.646L1019.65 -91.4412M762.296 177.383L1025.38 -85.7041M768.14 183.228L1031.23 -79.8597M773.985 189.072L1037.07 -74.0152M779.829 194.917L1042.92 -68.1708M785.674 200.761L1048.76 -62.3264M791.518 206.605L1054.61 -56.482M797.362 212.45L1060.45 -50.6376M803.207 218.294L1066.29 -44.7932M808.944 224.031L1072.03 -39.0561M814.788 229.876L1077.88 -33.2117M820.633 235.72L1083.72 -27.3673M826.477 241.564L1089.56 -21.5229M832.322 247.409L1095.41 -15.6785M838.166 253.253L1101.25 -9.83409M844.01 259.098L1107.1 -3.98964M849.855 264.942L1112.94 1.85472" stroke="#3785EF" stroke-opacity="0.5"/>
</g>
</svg>
