<svg width="156" height="156" viewBox="0 0 156 156" fill="none" xmlns="http://www.w3.org/2000/svg">
<g filter="url(#filter0_d)">
<g clip-path="url(#clip0)">
<rect x="4" width="148" height="148" rx="74" fill="#C2A992"/>
<g clip-path="url(#clip1)">
<path d="M133.466 96.1223C133.962 96.3266 134.551 96.547 135.251 96.7841L133.466 96.1223Z" fill="#11100C"/>
<path d="M131.778 109.708C136.014 109.642 140.185 109.098 144.386 108.761C146.905 108.557 149.294 107.917 151.6 107.076C152.428 106.774 153.472 106.485 153.416 105.231C153.359 103.923 152.232 103.816 151.369 103.396C151.312 103.37 151.251 103.356 151.19 103.336C146.777 101.927 142.442 100.319 138.289 98.1964C137.471 97.779 137.044 97.5842 136.913 97.3179C136.301 97.1314 135.749 96.9528 135.251 96.7843C135.104 97.0798 134.957 97.3752 134.809 97.673C136.219 98.2692 137.037 98.6634 137.463 98.9404C138.093 99.219 138.715 99.5274 139.321 99.856C142.752 101.728 146.39 103.038 150.083 104.208C150.435 104.319 150.765 104.499 151.108 104.648C147.494 104.453 144.01 103.597 140.587 102.416C139.112 101.907 137.635 101.416 136.162 100.896C135.98 100.831 135.813 100.761 135.678 100.669C134.25 100.674 129.928 99.1373 129.034 98.9405C128.556 98.834 128.053 98.8736 127.561 98.8707C127.091 98.8675 126.761 98.7849 126.63 98.2283C126.272 96.6753 125.005 95.9836 123.603 95.9304C121.35 95.8472 120.057 94.9232 119.559 92.7716C119.386 92.0225 118.9 91.3187 118.335 90.7348C117.844 90.2252 117.987 89.9076 118.442 89.584C118.73 89.3804 119.022 89.1816 119.283 88.9469C119.769 88.5053 120.157 88.4835 120.612 89.1144C122.959 92.3792 126.458 94.0915 129.987 95.7309C131.172 96.1951 132.188 96.6024 133.061 96.9557C133.197 96.6807 133.329 96.4032 133.466 96.1282C132.44 95.7079 131.814 95.36 131.431 95.0823C130.666 94.8832 129.795 94.14 128.977 93.8256C128.626 93.6926 128.276 93.5479 127.944 93.3704C125.79 92.2068 123.613 91.0887 122.057 89.1103C120.879 87.6119 120.864 87.6531 121.842 86.2169C123.64 83.5772 125.481 80.9657 127.166 78.2571C130.948 72.1758 133.923 65.6972 136.412 58.9591C138.938 52.1147 138.675 45.2962 135.448 38.3629C134.416 36.1445 133.283 33.9744 132.05 31.8412C128.183 25.1577 125.2 18.1721 123.128 10.8759C121.986 6.85774 120.04 3.213 116.905 0.159066C115.469 -1.23992 113.857 -2.42891 112.235 -3.60902C111.077 -4.45294 110.987 -4.6101 111.794 -5.54916C112.912 -6.85409 113.632 -8.3679 114.253 -9.93733C114.883 -11.5307 115.069 -13.2224 114.687 -14.9672C114.319 -16.6478 113.614 -17.3607 111.82 -17.6539C111.053 -17.7802 110.97 -17.9903 110.975 -18.6658C111.017 -24.4654 109.572 -29.8807 105.331 -34.5356C104.705 -35.2225 104.149 -35.9728 103.577 -36.7063C102.09 -38.607 100.426 -40.4064 99.5816 -42.6806C99.4476 -43.0395 99.2329 -43.3655 98.7931 -43.356C98.2008 -43.3417 98.2103 -42.8496 98.183 -42.4561C98.0619 -40.8025 97.6686 -39.2051 97.1604 -37.6662C95.73 -33.3378 95.6161 -28.9396 97.0779 -24.4135C97.163 -24.1535 97.1369 -23.9532 96.7798 -23.759C94.784 -25.087 92.4495 -25.7897 90.1682 -26.6363C86.6593 -27.9405 83.6505 -29.856 82.0773 -33.3761C82.0295 -33.4832 81.9421 -33.5847 81.8575 -33.6734C81.5071 -34.0344 80.9962 -33.913 80.8592 -33.4528C80.7677 -33.1519 80.8799 -32.8724 80.9624 -32.5825C81.9567 -29.0383 82.951 -25.4941 83.9335 -21.9446C84.4666 -20.0231 85.1273 -18.1363 85.8061 -16.2488C88.947 -7.51035 98.6265 -2.63334 106.566 -3.86609C108.717 -4.19974 110.4 -3.69543 111.984 -2.27257C112.215 -2.06631 112.5 -1.91827 112.756 -1.73657C117.733 1.82054 120.818 6.48435 122.223 12.1643C122.841 14.6557 122.646 16.9754 121.579 19.2182C120.343 21.8135 118.667 24.0967 116.731 26.2037C112.105 31.2397 108.097 36.7077 104.877 42.7193C101.828 48.4027 98.9667 54.1669 96.8696 60.3095C94.9333 65.9813 92.9179 71.6271 90.6491 77.1664C90.1646 78.3498 89.6191 79.5078 89.0723 80.6622C88.9043 81.0183 88.6624 81.5047 88.1328 81.1464C86.8744 80.2885 86.1807 81.0916 85.4942 81.7817C84.2389 83.0423 83.5333 84.6515 82.8064 86.2356C82.0077 87.9825 81.2188 89.7345 80.1594 91.3343C79.5683 92.2268 79.145 93.2562 77.9644 94.2187C77.8651 91.6408 76.7385 89.582 76.0162 87.4187C75.8329 86.8694 75.3243 86.4506 75.4527 85.7553C75.8005 83.8554 76.0965 81.9548 76.9004 80.1849C77.2739 79.3666 77.8183 78.9375 78.706 78.7176C80.0518 78.3835 81.3825 77.9876 82.6735 77.5174C83.7399 77.1292 83.9005 76.5786 83.4067 75.5633C83.2474 75.237 83.0166 74.937 82.811 74.6299C81.4708 72.6247 80.9172 70.6272 82.3698 68.6067C82.8445 67.9483 83.2625 67.2496 83.6746 66.5507C84.589 65.0024 85.5582 63.4791 86.3686 61.8749C87.0522 60.5195 86.2889 59.3069 84.7001 58.916C84.1815 58.7883 83.7305 58.8633 83.2837 59.0715C82.3477 59.5119 81.6339 60.1767 81.0427 60.9894C80.6854 61.4797 80.504 62.1337 79.7346 62.4054C79.8722 61.125 80.0505 59.9166 80.1143 58.6983C80.1611 57.816 79.7815 57.027 78.8496 56.6461C77.8995 56.2586 77.1647 56.6392 76.594 57.2999C75.6309 58.4103 74.9448 59.6847 74.4546 61.0703C73.8916 62.6638 73.3846 64.2802 73.1576 65.9681C73.0398 66.8455 72.6018 67.1408 71.7354 67.1209C70.7535 67.099 69.7721 67.1316 68.793 67.1596C67.5844 67.1932 66.7571 67.7659 66.2174 68.7645C65.7629 69.6041 65.5363 70.503 65.6571 71.4734C66.0398 74.5349 66.9944 77.4691 68.7499 80.1361C69.1528 80.749 69.0949 81.05 68.845 81.5153C67.4658 84.0718 66.1795 86.6758 64.9763 89.322C64.847 89.6066 64.803 90.003 64.3024 90.0299C64.038 89.8039 63.7713 89.5455 63.4711 89.3298C61.8752 88.1772 61.1975 88.1167 59.6171 89.0577C58.1806 89.9126 57.0123 91.0352 56.1036 92.4183C54.9516 94.1733 54.6496 96.0366 55.375 98.1444C56.3902 101.092 57.0758 104.075 56.4063 107.095C56.261 107.751 56.5299 108.196 57.1583 108.331C59.99 108.939 62.2905 110.585 64.6435 112.143C65.8814 112.962 65.9384 112.977 65.3779 114.233C64.0291 117.258 62.6963 120.294 61.0335 123.162C60.713 123.714 60.3963 124.27 60.1002 124.835C59.9346 125.149 59.7868 125.612 60.1926 125.782C61.5487 126.345 60.8518 126.896 60.3518 127.439C59.6005 128.247 58.8456 129.056 58.046 129.82C56.1911 131.589 54.2817 133.309 52.4454 135.097C51.4456 136.071 50.4584 137.064 49.6923 138.241C49.0925 139.163 49.068 140.105 49.7155 141.076C50.0915 141.638 50.474 142.212 50.9415 142.701C52.6683 144.496 54.4337 146.256 56.1815 148.034C56.6275 148.486 57.1335 149.015 57.7281 149.033C58.7379 149.06 59.2635 149.599 59.7803 150.315C60.0305 150.662 60.3356 151.034 60.7026 151.233C61.7814 151.811 61.5691 152.478 61.1982 153.297C60.3384 155.204 59.4872 157.118 58.77 159.083C58.4058 160.08 57.7726 160.515 56.7523 160.762C52.407 161.803 48.0409 161.538 43.6416 160.219C42.327 159.825 41.0265 159.347 39.6965 159.04C38.2296 158.7 36.699 158.512 35.4086 159.307C33.2761 160.625 31.52 162.326 30.396 164.548C29.7767 165.768 29.9367 166.457 31.0277 167.423C32.2907 168.543 33.6599 169.523 35.0992 170.436C38.3691 172.51 42.0101 173.691 45.5326 175.159C47.5321 175.993 49.6206 176.254 51.7194 176.001C53.2312 175.82 54.7347 175.607 56.2367 175.384C57.4946 175.196 58.7429 174.971 59.963 174.767C61.6611 177.408 62.7548 178.344 65.5288 179.715C67.0557 180.471 68.5231 180.484 69.9633 179.825C71.4627 179.139 72.6348 178.138 73.3026 176.623C74.901 173.01 76.5347 169.412 78.1612 165.811C78.7761 164.452 78.472 163.16 77.5748 161.933C77.1752 161.387 76.6719 160.909 76.2251 160.39C74.7137 158.637 73.4081 156.777 72.6154 154.632C72.2935 153.765 72.3303 153.062 72.9305 152.343C73.7103 151.41 74.3396 150.354 75.0491 149.365C77.3218 146.201 79.7663 143.185 82.6349 140.498C83.2562 139.915 83.7208 139.775 84.5182 140.279C85.4151 140.847 86.3725 141.349 87.3465 141.769C90.1722 142.987 90.5177 142.81 91.2594 140.057C92.2952 136.219 93.617 132.491 95.408 128.959C97.645 124.549 100.251 120.364 103.294 116.453C105.718 113.335 108.171 110.24 111.239 107.67C112.07 106.973 112.852 106.19 113.941 105.805C114.878 107.661 115.393 107.881 117.128 107.227C117.463 107.101 117.787 106.95 118.114 106.809C118.332 106.55 118.608 106.377 118.981 106.342C119.079 106.737 118.874 106.977 118.596 107.183C117.935 108.401 117.017 109.489 116.753 110.907C116.552 111.976 116.98 112.482 118.121 112.554C118.962 112.606 119.642 112.232 120.355 111.932C121.4 111.493 122.38 110.861 123.635 110.888C125.077 110.452 127.91 109.748 130.932 109.844C131.173 109.759 131.451 109.712 131.778 109.708ZM99.474 -39.7978C100.148 -39.2977 100.507 -38.5731 101.009 -37.9613C101.164 -37.774 101.341 -37.5269 101.104 -37.3342C100.267 -36.6554 100.655 -35.7053 100.666 -34.8533C100.71 -31.3634 100.666 -27.8871 99.8111 -24.5247C99.7256 -24.1865 99.6376 -23.8495 99.5265 -23.5215C99.4714 -23.3615 99.3592 -23.2221 99.2691 -23.0657C96.7212 -26.1909 96.826 -35.9903 99.474 -39.7978ZM96.8766 -6.57408C92.7184 -8.44574 89.6579 -11.1626 87.7117 -15.1521C86.6305 -17.3701 85.992 -19.6957 85.2571 -21.9936C84.6314 -23.9509 84.1347 -25.9393 83.589 -27.9157C83.4928 -28.2582 83.3697 -28.6144 83.5997 -29.0642C85.1509 -27.8033 86.8755 -26.8416 88.5277 -25.7715C90.8992 -24.2378 92.4752 -21.9984 93.7526 -19.5836C93.9533 -19.2049 94.1458 -18.8219 94.3749 -18.4572C94.5396 -18.1909 94.7758 -17.9451 95.1264 -18.114C95.4249 -18.2582 95.5499 -18.5649 95.4409 -18.8569C95.2259 -19.4224 94.9584 -19.9748 94.6649 -20.5119C93.897 -21.9062 92.9154 -23.1788 91.8398 -24.4964C93.2745 -24.3748 95.8262 -23.1909 96.8282 -22.1872C97.8886 -21.1224 98.8759 -20.0151 99.3101 -18.56C99.4995 -17.9307 99.8454 -17.3327 100.135 -16.7263C100.794 -15.3417 100.707 -15.1667 99.1563 -14.8945C96.602 -14.447 94.152 -15.1516 91.722 -16.0256C90.7842 -16.364 89.8529 -16.7276 88.9193 -17.0867C88.565 -17.2245 88.1632 -17.4208 87.9574 -17.0071C87.7052 -16.5003 88.1681 -16.2729 88.5502 -16.0553C89.8701 -15.3027 91.3172 -14.8671 92.7349 -14.4095C95.3175 -13.5774 97.9449 -13.0815 100.531 -13.92C101.171 -14.127 101.585 -14.0356 101.801 -13.3555C101.818 -13.2982 101.853 -13.2437 101.884 -13.1905C103.019 -11.3328 102.82 -10.8899 100.621 -10.5348C98.6018 -10.208 96.5873 -10.5253 94.5777 -11.0311C94.0116 -11.1744 93.1663 -11.5939 92.9865 -10.8507C92.7888 -10.0283 93.7265 -10.0717 94.289 -9.92744C97.2921 -9.14602 100.276 -8.70198 103.084 -10.06C103.774 -10.3924 104.07 -9.9906 104.453 -9.54742C105.715 -8.08653 107.033 -6.67681 109.117 -5.52039C104.762 -4.71729 100.88 -4.77284 96.8766 -6.57408ZM111.609 -7.19073C111.375 -8.32153 111.72 -9.15127 111.682 -10.0053C111.665 -10.3589 111.719 -10.7133 111.667 -11.0646C111.621 -11.3902 111.366 -11.5996 111.019 -11.6226C110.624 -11.6474 110.528 -11.3802 110.497 -11.0655C110.413 -10.188 110.33 -9.3129 110.243 -8.43673C110.187 -7.85564 110.165 -7.26291 109.705 -6.83073C103.676 -10.2028 102.405 -14.6259 103.798 -20.1416C104.199 -21.7237 104.791 -23.2398 105.867 -24.515C106.16 -24.8642 106.334 -25.3172 106.537 -25.7321C106.674 -26.0129 106.653 -26.3226 106.353 -26.5267C106.068 -26.7176 105.727 -26.6976 105.504 -26.4893C105.255 -26.2543 105.04 -25.9682 104.881 -25.6674C103.486 -23.0558 102.062 -20.4512 101.986 -17.3358C101.98 -17.1648 101.884 -17.0028 101.833 -16.8381C101.905 -16.699 102 -16.5451 101.748 -16.5195C101.745 -16.5185 101.737 -16.528 101.728 -16.5469C101.705 -16.5986 101.67 -16.7133 101.642 -16.7814C101.345 -17.3175 101.042 -17.848 100.754 -18.3884C99.9089 -19.9729 99.6581 -21.4457 100.571 -23.0774C101.505 -24.7523 101.632 -26.7505 101.79 -28.6873C101.997 -31.209 102.104 -33.739 101.906 -36.3043C102.542 -36.4304 102.654 -35.8976 102.885 -35.6231C103.797 -34.5255 104.654 -33.3847 105.546 -32.2694C108.824 -28.1735 109.701 -23.5321 109.761 -18.7064C109.771 -17.8522 109.49 -17.1578 108.931 -16.4851C107.278 -14.4985 107.208 -12.1211 107.839 -9.62792C107.896 -9.40257 108.034 -9.18119 108.174 -8.98173C108.325 -8.76798 108.548 -8.66267 108.816 -8.72811C109.082 -8.7948 109.237 -8.98932 109.209 -9.23448C109.156 -9.70616 109.049 -10.174 108.951 -10.6427C108.621 -12.2328 108.857 -13.7052 109.647 -15.0602C109.792 -15.3084 109.938 -15.5703 110.14 -15.7724C110.713 -16.3463 111.45 -16.6319 112.291 -16.3456C113.011 -16.1007 113.295 -15.4263 113.43 -14.7677C113.802 -12.948 113.486 -11.2345 112.805 -9.60123C112.491 -8.8583 112.087 -8.15216 111.609 -7.19073ZM104.921 45.2663C108.434 38.8824 112.442 32.8706 117.349 27.448C118.466 26.2136 119.502 24.9127 120.714 23.4815C121.104 24.5578 121.025 25.4725 121.002 26.3695C120.901 30.5148 120.183 34.5428 119.342 38.5502C118.537 42.3853 117.489 46.1479 116.407 49.8989C116.299 50.2768 116.248 50.7123 115.846 50.9406C113.708 49.2269 111.921 49.0196 109.627 50.2806C108.956 50.6484 108.306 51.0749 107.736 51.5678C107.235 52.002 106.905 52.1983 106.542 51.4006C106.434 51.1665 106.122 51.1042 105.892 51.2092C105.672 51.3134 105.498 51.5698 105.613 51.788C106.378 53.2378 105.527 54.3939 105.149 55.6286C105.067 55.8975 105.006 56.1683 104.962 56.4421C104.829 57.2633 104.833 58.1058 104.771 58.9377C104.769 58.9365 104.766 58.9352 104.766 58.9352C104.902 59.1415 104.969 59.358 104.999 59.5812C105.018 59.7103 105.027 59.8402 105.025 59.9732C105.39 60.4215 105.594 60.9299 105.687 61.4759C106.887 62.9797 108.313 63.8831 110.337 63.6015C111.253 63.4728 111.541 63.8362 111.25 64.5881C109.942 67.9444 108.478 71.2303 106.893 74.4597C106.6 75.0541 106.123 75.0958 105.55 75.0345C103.825 74.8502 102.116 74.5775 100.484 73.8795C100.143 73.7341 99.8073 73.5518 99.4523 73.4648C99.2341 73.4106 98.9277 73.4538 98.8864 73.7462C98.8646 73.8947 98.9259 74.1225 99.0372 74.2191C99.3178 74.4619 99.6235 74.7403 99.9609 74.8382C101.568 75.3039 102.78 76.4321 104.18 77.2396C104.959 77.688 105.093 78.0099 104.715 78.7574C103.512 81.1445 102.123 83.4196 100.601 85.61C99.8753 86.6561 99.0536 87.6363 98.248 88.6275C97.9493 88.9938 97.8272 89.3932 98.2258 89.7189C98.6431 90.0626 99.0333 89.8142 99.3186 89.4809C100.91 87.6251 102.267 85.6046 103.526 83.5192C104.364 82.1289 105.173 80.7201 105.949 79.2952C106.264 78.7177 106.554 78.4355 107.347 78.7085C108.869 79.2336 110.259 78.885 111.521 78.1094C112.775 77.3381 114.015 76.5456 115.284 75.7992C115.857 75.4613 116.403 74.9478 117.13 75.8883C117.452 76.3061 117.982 75.969 117.894 75.4313C117.8 74.8505 117.52 74.2861 117.354 73.7085C117.247 73.3379 117.107 72.9903 116.677 72.9307C116.296 72.8787 116.195 73.192 116.126 73.4787C115.982 74.0636 115.421 74.0281 114.976 74.1404C112.87 74.6654 110.702 74.9083 108.266 75.0083C108.708 73.8974 109.082 72.9056 109.5 71.9304C110.347 69.9573 111.239 68.0043 112.062 66.0222C112.317 65.4055 112.655 65.3473 113.142 65.7607C113.487 66.0532 113.84 66.2986 114.201 66.5026C114.321 66.5695 114.442 66.634 114.563 66.6928C114.57 66.6965 114.578 66.7003 114.586 66.7017C114.678 66.7456 114.768 66.7859 114.862 66.8251C116.241 67.4029 117.717 67.4346 119.248 67.1975C120.208 66.7951 121.166 66.3914 122.123 65.9877C124.482 64.1726 126.491 62.1052 127.188 59.1096C127.373 58.3122 128.198 58.1999 128.694 57.7378C129.15 57.3147 130.304 57.1449 129.696 56.2365C129.162 55.4373 128.538 56.39 127.922 56.4011C127.873 56.4017 127.82 56.38 127.77 56.369C127.742 56.3147 127.686 56.2606 127.684 56.2085C127.553 52.8936 125.072 51.7031 122.12 51.5147C120.428 51.4069 118.883 51.9072 117.178 52.4029C117.302 50.7795 117.922 49.4287 118.313 48.021C120.105 41.5665 121.709 35.0669 122.224 28.2975C122.358 26.5391 122.487 24.7759 122.066 22.9996C121.805 21.8979 121.95 20.9174 122.508 19.9624C122.941 19.2203 123.207 18.3784 123.548 17.5809C123.51 17.3933 123.546 17.2349 123.759 17.2126C123.769 17.2118 123.782 17.2215 123.795 17.2393C123.836 17.2917 123.886 17.4081 123.93 17.4791C124.544 18.4444 124.875 19.5082 125.246 20.5548C125.298 20.7037 125.352 20.8537 125.407 21.0015C126.892 25.0067 128.851 28.8173 131.018 32.5465C132.816 35.6397 134.372 38.8121 135.555 42.1502C137.37 47.2781 137.21 52.237 135.605 57.1375C132.593 66.3326 128.246 74.83 122.629 82.6716C121.954 83.6154 121.295 84.5761 120.685 85.5616C120.036 86.6152 119.153 87.4416 118.221 88.2488C117.295 89.0505 116.406 89.6175 114.999 88.9855C114.162 88.6103 113.287 88.8539 112.562 89.3308C109.409 91.4075 106.31 93.5463 104.475 96.9159C104.248 97.3334 103.935 97.4898 103.508 97.5599C102.371 97.75 101.237 97.9609 100.093 98.1102C98.2215 98.3557 96.3395 98.5418 94.4676 98.7815C92.5911 99.0245 90.7666 99.4337 89.1154 100.265C88.5484 99.9015 88.8949 99.4883 88.9415 99.136C89.3674 95.9396 89.8707 92.7542 90.0307 89.5134C90.1377 87.3399 90.289 85.1575 89.6873 82.9674C89.5842 82.5957 89.6452 82.3191 89.833 81.9846C91.7562 78.5257 93.0193 74.7674 94.3974 71.0677C97.6376 62.3564 100.417 53.4502 104.921 45.2663ZM111.361 62.3024C109.735 62.2942 108.012 62.7638 106.925 60.902C105.901 59.1489 105.895 57.3935 106.666 55.2707C107.61 57.5357 109.254 58.4563 111.175 59.0364C111.532 59.1442 111.876 59.2967 112.231 59.4069C112.944 59.6306 113.12 60.0848 112.776 60.6276C112.389 61.2395 112.62 62.3089 111.361 62.3024ZM113.107 57.8131C112.426 57.7108 111.766 57.5457 111.155 57.1972C110.994 57.1034 110.81 57.0296 110.669 56.9122C109.456 55.8893 107.72 55.0302 107.877 53.3039C107.998 52.0089 111.665 50.4565 113.223 50.7064C114.373 50.8905 115.105 51.697 115.157 53.0398C115.22 54.6816 114.287 56.0326 113.872 57.5389C113.787 57.8575 113.437 57.8644 113.107 57.8131ZM125.556 57.5311C122.462 58.6438 119.225 58.9855 115.858 58.6825C115.233 58.6263 114.943 58.3785 115.176 57.7506C115.556 56.7162 115.907 55.6704 116.322 54.4856C116.419 54.23 116.712 53.9548 117.109 53.7842C119.168 52.9045 121.298 52.3549 123.665 52.9431C125.557 53.4145 126.379 54.4834 126.335 56.3411C126.314 56.9235 126.171 57.3094 125.556 57.5311ZM125.589 59.6878C124.213 62.8473 122.125 65.0229 118.764 65.9165C117.563 66.2361 116.36 66.1727 115.172 65.61C113.219 64.6828 112.96 64.1261 113.591 62.2111C113.627 62.1013 113.645 61.9851 113.681 61.8754C114.212 60.2911 114.211 60.2934 115.896 60.7931C117.42 61.2454 118.929 61.3535 120.425 60.9335C121.233 60.7072 122.054 60.5103 122.872 60.3144C123.678 60.1158 124.493 59.9383 125.589 59.6878ZM80.6453 64.0236C81.1132 63.2249 81.6041 62.4352 82.1518 61.6915C82.5278 61.1822 82.9774 60.7219 83.5626 60.4018C84.0035 60.1622 84.4357 60.0263 84.9265 60.3762C85.5145 60.7956 85.2143 61.2267 85.0055 61.6217C84.3291 62.9011 83.7156 64.2266 82.9116 65.4238C81.9722 66.8255 81.1952 68.3071 80.3964 69.7834C79.5294 71.3844 79.5527 71.3991 77.3029 71.0928C78.2898 68.6412 79.3296 66.2678 80.6453 64.0236ZM79.5908 72.4186C80.2936 72.4349 80.8686 73.2067 80.5829 73.7934C80.4918 73.8409 80.3551 73.9679 80.1947 73.9887C78.1497 74.2683 76.1383 74.776 74.0061 74.4613C73.7065 74.4168 73.3903 74.344 73.119 74.2057C72.7744 74.0301 72.5228 73.7166 72.4954 73.3408C72.4634 72.8999 72.8317 72.7571 73.1901 72.6834C73.7814 72.5603 74.3779 72.4084 74.9823 72.3945C76.5144 72.3635 78.0529 72.3812 79.5908 72.4186ZM69.8165 79.6427C68.3087 77.0876 67.4447 74.5871 66.9572 71.9766C66.8342 71.3184 66.8546 70.6678 67.0128 70.0418C67.2983 68.9137 67.9536 68.4157 69.1775 68.3329C69.3611 68.3211 69.545 68.3208 69.7301 68.3183C70.6496 68.3055 71.5691 68.2926 72.4165 68.2829C72.6974 68.4204 72.6549 68.5982 72.6674 68.7641C72.7019 69.212 72.5066 69.8447 73.1995 69.9301C73.9648 70.0238 73.9292 69.3503 73.9957 68.8286C74.4359 65.4373 75.1057 62.1202 76.8963 59.1864C77.1352 58.7924 77.3698 58.3763 77.6952 58.055C78.1244 57.6355 78.6871 57.8226 78.7777 58.4102C78.8512 58.8722 78.8051 59.353 78.7548 59.8174C78.4772 62.4569 77.7888 64.9923 76.9871 67.4842C76.686 68.422 76.5598 69.4148 76.1046 70.3111C75.8114 70.8882 75.5223 71.2537 74.7855 71.2257C73.9789 71.1964 73.2094 71.3882 72.4671 71.6424C71.0169 72.1369 70.7177 73.5573 71.8432 74.7008C72.4818 75.3511 73.2928 75.6363 74.1943 75.7397C75.9454 75.9399 77.6177 75.627 79.3077 75.4142C79.9712 75.3307 80.6391 75.2694 81.3078 75.237C81.7533 75.2162 81.982 75.5693 82.1164 75.9028C82.3172 76.3983 81.8831 76.4763 81.5497 76.5799C80.2849 76.9666 79.0321 77.3908 77.7459 77.7096C76.7079 77.9669 76.0762 78.5652 75.7608 79.5071C75.429 80.5005 74.9521 81.4712 74.8223 82.502C74.3435 86.3097 72.6515 89.5872 70.8151 92.8225C70.1327 94.0218 69.0965 94.8727 68.0177 95.6677C66.919 96.4782 65.8511 96.0563 65.5174 94.7009C65.138 93.1541 65.191 91.6311 65.8505 90.2008C67.794 85.9743 69.9748 81.8803 72.5411 77.997C73.3513 76.7688 73.4787 75.9277 72.9324 75.8743C71.9349 75.779 71.777 76.7185 71.3658 77.2925C70.8708 77.9918 70.5882 78.8308 69.8165 79.6427ZM59.0099 147.62C58.3828 147.945 57.81 147.969 57.1993 147.324C55.3596 145.381 53.4111 143.533 51.6044 141.566C50.1276 139.959 50.2032 139.535 51.5851 137.94C53.7607 135.434 56.2411 133.213 58.6522 130.929C59.9213 129.727 61.2668 128.581 62.0943 127.022C62.3736 126.498 62.7463 126.42 63.2756 126.582C64.3964 126.928 65.5787 127.089 66.6615 127.795C65.948 130.146 64.4764 132.02 63.1222 133.96C62.5251 134.815 61.9244 135.672 61.3151 136.521C60.6368 137.471 60.6392 138.464 61.2832 139.516C62.1197 140.877 62.8629 142.29 63.9817 143.49C64.6351 144.191 64.6206 144.608 63.8693 145.034C62.2769 145.938 60.6403 146.776 59.0099 147.62ZM61.4832 150.44C59.725 148.905 59.7202 148.792 61.6058 147.767C62.2691 147.407 62.8442 146.885 63.793 146.696C63.6094 148.235 62.6996 149.356 62.1836 150.8C61.8074 150.613 61.6169 150.559 61.4832 150.44ZM65.493 142.873C64.1558 142.297 63.8721 141.081 63.1382 140.228C61.8624 138.74 62.0777 137.445 63.1085 136.081C64.7891 133.855 66.4289 131.594 67.5087 128.999C67.814 128.268 68.2492 128.459 68.7988 128.764C70.8294 129.899 72.7459 131.189 74.7277 132.835C71.3123 135.986 67.1343 138.293 65.493 142.873ZM60.6848 173.482C58.2226 173.837 55.773 174.252 53.3136 174.62C50.4974 175.039 47.7631 174.814 44.9858 173.64C41.1823 172.035 37.2729 170.692 33.9074 168.181C33.6058 167.956 33.2973 167.745 33.0073 167.509C31.066 165.93 31.0388 165.676 32.4569 163.744C33.0461 162.941 33.8286 162.323 34.4911 161.595C35.9636 159.978 37.8558 159.771 39.9862 160.373C41.1255 160.694 42.2464 161.083 43.3768 161.429C48.1448 162.888 52.8737 163.107 57.5347 161.856C58.2978 161.652 58.9174 161.7 59.6188 162.132C60.362 162.59 61.1714 162.94 61.9511 163.338C61.9341 163.372 61.9172 163.406 61.9002 163.44C62.5856 163.744 63.2531 164.169 63.9616 164.328C65.3408 164.635 65.6695 165.526 65.8404 166.673C66.3095 169.807 63.8868 173.02 60.6848 173.482ZM71.4978 155.148C72.6528 157.877 74.3683 160.193 76.3425 162.359C77.1633 163.259 77.3705 164.265 76.8923 165.343C76.3746 166.507 75.9181 167.702 75.4029 168.867C74.4209 171.093 73.3987 173.301 72.4289 175.534C71.8023 176.978 70.7894 178.035 69.3218 178.7C68.467 179.088 67.5467 179.225 66.651 178.888C64.5653 178.105 62.7955 176.889 61.527 174.832C63.1391 174.246 64.3228 173.271 65.4228 172.156C67.0705 170.489 67.6098 168.524 67.0601 166.193C66.9076 165.551 66.7634 164.904 66.5691 164.273C66.4028 163.726 66.3805 163.248 66.7214 162.772C68.2737 160.594 69.3238 158.126 70.6642 155.826C70.8078 155.574 70.9563 155.325 71.4978 155.148ZM72.3226 150.91C70.0476 154.079 68.331 157.566 66.3474 160.9C64.5351 163.945 64.9348 163.616 61.8459 162.022C59.1212 160.613 59.3784 160.915 60.3787 158.43C62.3291 153.586 64.6661 148.914 66.3727 143.962C67.0823 141.908 68.2349 140.096 69.8796 138.638C71.5384 137.17 73.2594 135.768 74.912 134.294C75.4453 133.819 75.8462 133.759 76.4671 134.266C78.3506 135.807 80.2735 137.3 82.3787 138.969C78.3686 142.558 75.3301 146.719 72.3226 150.91ZM110.091 106.905C108.157 108.686 106.331 110.558 104.643 112.565C99.6361 118.515 95.5451 125.031 92.4654 132.158C91.5699 134.228 90.8504 136.389 90.2765 138.59C90.1885 138.927 90.0885 139.263 89.9689 139.59C89.3829 141.18 89.3137 141.196 87.6049 140.43C84.8289 139.186 82.4195 137.403 80.0683 135.52C77.9218 133.799 75.8018 132.043 73.6067 130.383C70.4815 128.018 67.0983 126.165 63.2372 125.322C61.4876 124.941 61.5106 124.87 62.4414 123.424C63.4158 121.909 64.1737 120.281 64.8312 118.596C65.402 117.134 66.1118 115.733 66.7155 114.285C66.9715 113.672 67.4227 113.566 68.0256 113.696C71.2303 114.387 73.0931 112.792 74.5485 110.476C77.4478 105.868 80.1458 101.129 83.6825 96.9396C84.429 96.0551 85.0385 95.0579 85.6434 94.0698C85.8904 93.6658 86.4587 93.1149 85.8459 92.6714C85.153 92.1672 84.9427 92.9718 84.6607 93.3353C83.5237 94.8015 82.4914 96.3467 81.3101 97.779C78.7888 100.839 76.7583 104.212 74.7243 107.586C74.0958 108.627 73.4515 109.664 72.7395 110.651C71.6048 112.23 69.4684 113.309 66.9811 111.879C65.7871 111.193 64.563 110.581 63.4163 109.794C61.9205 108.767 60.3193 107.865 58.5531 107.375C57.9744 107.214 57.6233 106.984 57.7429 106.392C58.2778 103.716 57.675 101.072 56.7795 98.4871C55.381 94.4434 57.281 92.121 60.7679 89.9778C61.8933 89.2863 63.8915 90.7265 64.0683 92.2556C64.1586 93.0225 64.1111 93.8017 64.2552 94.559C64.7227 97.0312 66.9284 97.9988 68.9258 96.5893C70.4702 95.4989 71.8164 94.2219 72.5953 92.4592C73.1767 91.1428 73.8666 89.8732 74.6469 88.305C75.9142 90.1363 76.3564 91.8034 76.5946 93.5233C76.6926 94.2315 76.7572 94.9454 76.8361 95.6552C76.8898 96.1384 76.9305 96.6663 77.5272 96.828C78.2101 97.0137 78.5085 96.5247 78.7644 96.0596C79.1296 95.3996 79.6122 94.8051 79.9827 94.159C81.3308 91.8003 83.0341 89.6455 83.8397 86.9732C84.31 85.4121 85.1932 84.0188 86.26 82.7675C86.5603 82.4163 86.8519 81.978 87.4148 82.0968C88.0309 82.2257 88.3235 82.7338 88.4966 83.2665C88.723 83.9632 88.7551 84.6748 88.7884 85.3898C88.9638 89.0836 88.4592 92.6843 87.9546 96.2851C87.7023 98.0854 87.485 99.8894 87.2437 101.693C87.1836 102.152 86.9826 102.679 87.5487 102.976C88.1356 103.287 88.4096 102.822 88.7008 102.447C89.9012 100.896 91.7864 100.543 93.6288 100.209C97.1476 99.572 100.769 99.4122 104.29 98.7534C105.354 98.5549 106.564 98.8558 107.694 98.5995C107.638 101.908 107.638 101.908 110.068 102.75C110.003 103.769 109.818 104.805 110.628 105.794C111.058 106.304 110.418 106.604 110.091 106.905ZM120.003 104.17C118.847 104.769 117.77 105.494 116.629 106.118C116.296 106.301 115.856 106.564 115.467 106.132C115.184 105.814 115.387 105.456 115.46 105.117C115.62 104.383 116.081 103.895 116.712 103.513C118.223 102.593 119.728 101.662 121.232 100.734C121.581 100.518 121.938 100.313 122.258 100.063C122.459 99.9058 122.473 99.631 122.328 99.4175C122.187 99.2087 121.915 99.0785 121.677 99.1682C121.177 99.3548 120.667 99.5479 120.221 99.8221C118.369 100.975 116.542 102.161 114.702 103.328C113.855 103.866 113.004 104.395 112.006 104.676C111.429 104.837 111.181 104.56 111.207 104.04C111.269 102.813 111.662 101.771 112.789 101.1C114.462 100.103 115.961 98.8643 117.745 98.0244C117.853 97.9739 117.964 97.9282 118.063 97.8647C118.381 97.6645 118.651 97.3978 118.39 97.0054C118.146 96.639 117.749 96.65 117.397 96.8015C116.961 96.9893 116.519 97.1803 116.125 97.4321C114.783 98.2869 113.474 99.1869 112.128 100.033C111.482 100.439 110.812 100.836 110.095 101.114C109.142 101.483 108.603 101.052 108.899 100.088C109.324 98.7097 109.795 97.3315 111.363 96.6804C113.123 95.9507 114.772 94.9902 116.75 94.7532C117.189 94.7009 117.655 94.5964 117.496 94.0225C117.35 93.4977 116.886 93.4751 116.436 93.5362C115.406 93.6781 114.41 93.9195 113.481 94.3382C111.583 95.1971 109.699 96.0773 107.799 96.9292C107.219 97.1892 106.672 97.5801 105.673 97.4269C106.232 96.1479 107.15 95.3251 108.004 94.478C109.372 93.1208 110.902 91.935 112.534 90.8721C114.317 89.7093 116.343 90.1266 117.658 91.9481C118.206 92.7062 118.568 93.549 118.867 94.4137C119.402 95.9627 120.414 96.8719 122.159 96.9238C122.954 96.9469 123.769 97.0263 124.524 97.3742C125.188 97.6783 125.507 98.0972 125.08 98.7886C123.773 100.929 122.359 102.952 120.003 104.17ZM119.261 110.941C118.966 111.095 118.647 111.323 118.169 111.011C118.763 109.052 120.018 107.46 121.233 105.874C122.536 104.173 123.997 102.59 125.352 100.927C125.872 100.289 126.491 100.055 127.366 100.051C130.393 100.044 133.23 101.068 136.025 102.12C140.13 103.662 144.263 105.028 148.553 105.822C148.787 105.864 149.01 105.975 149.694 106.209C147.666 106.965 145.969 107.285 144.209 107.471C138.814 108.043 133.371 108.298 127.951 108.709C124.88 108.939 121.929 109.526 119.261 110.941Z" fill="#11100C"/>
<path d="M134.809 97.6728C134.956 97.3774 135.103 97.0819 135.251 96.7841C134.552 96.5447 133.963 96.3243 133.466 96.1222C133.329 96.3973 133.195 96.6735 133.06 96.9498C133.726 97.2204 134.305 97.459 134.809 97.6728Z" fill="#11100C"/>
<path d="M118.98 106.338C118.606 106.376 118.331 106.546 118.113 106.806C118.275 106.931 118.434 107.054 118.595 107.179C118.872 106.973 119.078 106.733 118.98 106.338Z" fill="#FAB895"/>
<path d="M89.8224 81.9875C89.6359 82.3255 89.576 82.5999 89.6767 82.9703C90.2784 85.1604 90.1282 87.3405 90.0201 89.5164C89.8601 92.7571 89.358 95.9402 88.9309 99.1388C88.8843 99.4912 88.5378 99.9044 89.1048 100.267C90.7571 99.4343 92.5805 99.0274 94.457 98.7844C96.3276 98.5412 98.212 98.3564 100.083 98.1132C101.23 97.9628 102.361 97.7529 103.497 97.5628C103.924 97.4927 104.237 97.3328 104.464 96.9188C106.299 93.5515 109.398 91.4104 112.552 89.3337C113.276 88.8568 114.151 88.6132 114.988 88.9884C116.396 89.6204 117.284 89.0534 118.21 88.2517C119.142 87.4445 120.025 86.6181 120.675 85.5645C121.285 84.579 121.941 83.6171 122.618 82.6745C128.235 74.8329 132.585 66.3367 135.595 57.1404C137.199 52.2399 137.36 47.2787 135.544 42.1531C134.364 38.8162 132.806 35.6426 131.008 32.5494C128.84 28.8202 126.881 25.0096 125.396 21.0044C125.341 20.8566 125.287 20.7066 125.236 20.5577C124.867 19.5123 124.533 18.4473 123.919 17.482C123.792 17.5167 123.665 17.5491 123.538 17.5838C123.196 18.3813 122.931 19.2232 122.497 19.9653C121.939 20.9203 121.794 21.9008 122.055 23.0025C122.477 24.7788 122.348 26.5455 122.214 28.3004C121.7 35.0675 120.098 41.5683 118.302 48.0239C117.911 49.4316 117.289 50.7812 117.167 52.4058C118.876 51.9091 120.421 51.4088 122.11 51.5176C125.062 51.706 127.543 52.8965 127.674 56.2114C127.675 56.2636 127.73 56.3199 127.759 56.3719C127.811 56.3842 127.863 56.4046 127.912 56.404C128.527 56.3929 129.151 55.4402 129.685 56.2394C130.293 57.1478 129.142 57.3188 128.684 57.7407C128.187 58.2028 127.362 58.3151 127.177 59.1125C126.48 62.1081 124.471 64.1755 122.113 65.9906C123.348 66.7112 124.369 67.7365 125.678 68.3579C126.142 68.5773 125.969 68.9933 125.739 69.2522C125.206 69.8553 124.388 69.9285 123.625 70.0581C123.28 70.1162 123.214 69.8858 123.307 68.8306C122.722 68.9423 122.241 69.3101 121.647 69.2179C120.939 69.1077 121.309 68.2904 120.986 68.2C120.587 68.0849 120.086 68.6359 119.648 68.1734C119.417 67.9301 119.367 67.5314 119.237 67.2004C117.707 67.4375 116.23 67.4058 114.851 66.8281C114.76 66.79 114.667 66.7485 114.575 66.7046C114.568 66.7009 114.561 66.6972 114.552 66.6957C114.431 66.6369 114.309 66.5746 114.19 66.5055C113.829 66.3015 113.476 66.0561 113.132 65.7636C112.645 65.3502 112.306 65.4084 112.052 66.0251C111.23 68.0084 110.336 69.9602 109.489 71.9333C109.071 72.9085 108.696 73.9026 108.255 75.0112C110.692 74.9112 112.859 74.6683 114.965 74.1433C115.41 74.031 115.971 74.0665 116.115 73.4817C116.184 73.1949 116.286 72.8793 116.667 72.9336C117.097 72.9932 117.236 73.3408 117.343 73.7114C117.509 74.289 117.789 74.8534 117.883 75.4342C117.971 75.9719 117.442 76.309 117.12 75.8912C116.393 74.9507 115.848 75.4655 115.273 75.8021C114.003 76.5507 112.764 77.341 111.51 78.1123C110.247 78.8901 108.857 79.2387 107.336 78.7114C106.544 78.4384 106.253 78.7206 105.938 79.2981C105.162 80.723 104.354 82.1318 103.515 83.5221C102.257 85.6075 100.898 87.6245 99.308 89.4838C99.0216 89.8194 98.6325 90.0656 98.2152 89.7218C97.8177 89.3938 97.9387 88.9967 98.2374 88.6304C99.0419 87.6415 99.8647 86.659 100.59 85.6129C102.113 83.4202 103.502 81.1474 104.704 78.7603C105.083 78.0128 104.947 77.6931 104.17 77.2426C102.767 76.4337 101.557 75.3068 99.9503 74.8411C99.6129 74.7432 99.3059 74.4613 99.0266 74.222C98.9153 74.1254 98.854 73.8976 98.8758 73.7491C98.9184 73.4603 99.2224 73.4158 99.4417 73.4677C99.7967 73.5547 100.132 73.737 100.473 73.8824C102.105 74.5804 103.815 74.8509 105.539 75.0374C106.113 75.0987 106.59 75.0571 106.883 74.4626C108.47 71.2344 109.933 67.9485 111.239 64.591C111.532 63.8368 111.245 63.477 110.327 63.6044C108.305 63.8873 106.878 62.9861 105.676 61.4788C104.66 62.8071 104.67 62.7184 103.316 61.7945C102.772 61.423 102.386 60.9161 101.819 60.59C100.788 59.9902 100.796 59.8458 101.701 59.2274C102.626 58.5934 103.63 58.4529 104.745 58.9354C104.748 58.9344 104.748 58.9344 104.752 58.9334L104.754 58.9346L104.763 58.9419L104.765 58.9431C104.827 58.1112 104.822 57.271 104.956 56.4475C105 56.1737 105.059 55.9016 105.143 55.634C105.523 54.4028 106.375 53.2444 105.608 51.7934C105.493 51.5752 105.667 51.3166 105.886 51.2146C106.115 51.1061 106.43 51.1696 106.536 51.406C106.901 52.2049 107.229 52.0074 107.73 51.5732C108.3 51.0803 108.951 50.6538 109.621 50.286C111.916 49.0285 113.702 49.2323 115.84 50.946C116.24 50.7164 116.293 50.2822 116.401 49.9043C117.483 46.1533 118.531 42.3907 119.336 38.5556C120.178 34.5482 120.895 30.5202 120.996 26.3749C121.02 25.4779 121.098 24.5632 120.708 23.4869C119.497 24.918 118.459 26.2213 117.344 27.4534C112.438 32.8737 108.428 38.8878 104.915 45.2717C100.413 53.4592 97.6307 62.3641 94.3822 71.0797C93.0076 74.7726 91.748 78.5298 89.8224 81.9875ZM127.616 47.0274C127.382 46.9506 127.153 46.8624 126.924 46.7743C126.752 46.7067 126.582 46.6369 126.41 46.5693C125.895 46.3666 125.375 46.1753 124.823 46.0882C124.607 46.0236 124.454 45.9 124.381 45.74C124.337 45.6435 124.319 45.5376 124.334 45.4224C124.375 45.0872 124.71 44.9791 125.006 45.0072C126.112 45.1064 127.153 45.4775 128.112 46.0608C128.376 46.2208 128.516 46.5371 128.385 46.832C128.241 47.1519 127.925 47.1277 127.616 47.0274ZM110.78 41.9445C111.382 41.4735 114.01 41.3909 114.684 41.8284C114.895 41.9645 115.059 42.1568 115.016 42.3913C114.933 42.6879 114.719 42.8097 114.472 42.7834C113.363 42.6655 112.276 42.6896 111.199 42.8761C110.955 42.917 110.707 42.8304 110.599 42.5616C110.5 42.3057 110.584 42.0982 110.78 41.9445Z" fill="#F9EA9B"/>
<path d="M123.924 17.4788C124.538 18.4441 124.872 19.5091 125.24 20.5546C124.869 19.5079 124.538 18.4441 123.924 17.4788Z" fill="#F9EA9B"/>
<path d="M104.759 58.9255C104.761 58.9265 104.761 58.9265 104.759 58.9255C104.761 58.9265 104.763 58.9303 104.765 58.9312L104.759 58.9255Z" fill="#F9EA9B"/>
<path d="M110.636 105.792C109.824 104.806 110.012 103.77 110.076 102.748C107.645 101.906 107.645 101.906 107.701 98.5974C106.571 98.8536 105.361 98.5528 104.297 98.7513C100.776 99.41 97.1523 99.5686 93.636 100.207C91.7911 100.54 89.9084 100.894 88.708 102.444C88.4168 102.82 88.1428 103.285 87.5559 102.974C86.9898 102.677 87.1908 102.15 87.2509 101.69C87.4911 99.8895 87.7095 98.0833 87.9618 96.2829C88.4688 92.6834 88.971 89.0814 88.7956 85.3877C88.7623 84.6726 88.7302 83.961 88.5038 83.2644C88.3294 82.7281 88.0357 82.2223 87.422 82.0947C86.8556 81.9769 86.564 82.4152 86.2672 82.7654C85.2003 84.0166 84.3172 85.4099 83.8469 86.971C83.0413 89.6433 81.338 91.7982 79.9899 94.1569C79.6194 94.8029 79.1379 95.3951 78.7716 96.0575C78.5132 96.5213 78.2173 97.0115 77.5344 96.8259C76.9388 96.6619 76.8982 96.134 76.8433 95.653C76.7644 94.9432 76.7023 94.2305 76.6018 93.5211C76.3636 91.8012 75.9214 90.1341 74.6541 88.3028C73.8738 89.8711 73.185 91.1384 72.6025 92.457C71.8236 94.2197 70.4774 95.4967 68.933 96.5871C66.9345 97.9989 64.7287 97.0313 64.2624 94.5568C64.1194 93.7973 64.1634 93.0191 64.0755 92.2534C63.8987 90.7244 61.9005 89.2841 60.7751 89.9756C57.2858 92.1176 55.3846 94.4423 56.7867 98.4849C57.6822 101.07 58.2825 103.712 57.7501 106.39C57.6329 106.983 57.984 107.213 58.5602 107.373C60.3265 107.863 61.9266 108.767 63.4235 109.792C64.5702 110.579 65.7943 111.191 66.9883 111.877C69.4731 113.306 71.6096 112.226 72.7467 110.649C73.4586 109.662 74.103 108.625 74.7315 107.584C76.7642 104.206 78.7971 100.835 81.3172 97.7768C82.495 96.3456 83.5309 94.7993 84.6679 93.3331C84.9487 92.9719 85.159 92.1674 85.8531 92.6693C86.4634 93.1115 85.8976 93.6636 85.6506 94.0677C85.0457 95.0557 84.4362 96.0529 83.6897 96.9375C80.153 101.127 77.455 105.866 74.5557 110.474C73.1003 112.79 71.2375 114.385 68.0328 113.694C67.4299 113.564 66.9776 113.672 66.7227 114.283C66.119 115.73 65.4092 117.132 64.8384 118.594C64.1784 120.277 63.4229 121.907 62.4486 123.422C61.5178 124.868 61.4948 124.939 63.2443 125.32C67.108 126.164 70.4899 128.014 73.6139 130.381C75.809 132.041 77.9278 133.799 80.0755 135.518C82.4267 137.4 84.835 139.186 87.6121 140.428C89.3209 141.194 89.3901 141.178 89.9761 139.587C90.0956 139.261 90.1957 138.924 90.2836 138.587C90.8587 136.385 91.5771 134.226 92.4726 132.155C95.5523 125.029 99.6433 118.513 104.65 112.562C106.337 110.559 108.164 108.684 110.098 106.903C110.418 106.604 111.058 106.304 110.636 105.792Z" fill="#428652"/>
<path d="M74.9157 134.293C73.2631 135.767 71.5397 137.168 69.8833 138.637C68.2386 140.095 67.0825 141.908 66.3764 143.961C64.6699 148.913 62.3317 153.587 60.3825 158.429C59.3822 160.914 59.125 160.612 61.8496 162.021C64.9385 163.615 64.5388 163.944 66.3511 160.899C68.3347 157.565 70.0513 154.077 72.3263 150.909C75.3349 146.716 78.3698 142.555 82.3835 138.965C80.2783 137.297 78.3554 135.804 76.4719 134.262C75.8475 133.756 75.4491 133.818 74.9157 134.293Z" fill="#F8E99A"/>
<path d="M72.9348 75.8754C73.4824 75.9265 73.3538 76.7699 72.5436 77.9981C69.9773 81.8814 67.7965 85.9754 65.853 90.2019C65.1959 91.6335 65.1405 93.1552 65.5199 94.702C65.8536 96.0574 66.9215 96.4793 68.0202 95.6688C69.1001 94.8716 70.1352 94.0229 70.8176 92.8236C72.6565 89.5896 74.346 86.3108 74.8248 82.5031C74.9546 81.4723 75.4315 80.5016 75.7633 79.5082C76.0798 78.564 76.7079 77.9667 77.7484 77.7107C79.0346 77.3918 80.2874 76.9677 81.5522 76.5809C81.8881 76.4786 82.3221 76.4007 82.1189 75.9039C81.9845 75.5704 81.7557 75.2173 81.3103 75.2381C80.6415 75.2705 79.9726 75.3341 79.3102 75.4153C77.6202 75.6281 75.949 75.9387 74.1968 75.7408C73.2953 75.6374 72.4854 75.3499 71.8457 74.7019C70.7203 73.5583 71.0218 72.1393 72.4696 71.6435C73.2108 71.3916 73.9814 71.1975 74.788 71.2268C75.5248 71.2548 75.8139 70.8892 76.1071 70.3122C76.5623 69.4158 76.6861 68.4218 76.9896 67.4853C77.7913 64.9933 78.4797 62.4579 78.7573 59.8185C78.8064 59.3563 78.8537 58.8732 78.7803 58.4112C78.6885 57.8259 78.1258 57.6389 77.6977 58.056C77.3699 58.3762 77.1389 58.7912 76.8988 59.1874C75.1096 62.1248 74.4409 65.4396 73.9982 68.8297C73.9292 69.3502 73.9673 70.0249 73.202 69.9311C72.5091 69.8458 72.7044 69.2131 72.6699 68.7652C72.6574 68.5993 72.6999 68.4215 72.419 68.284C71.5705 68.296 70.6521 68.3066 69.7326 68.3194C69.5475 68.3219 69.3636 68.3222 69.18 68.334C67.9561 68.4168 67.3008 68.9148 67.0153 70.0429C66.8571 70.6688 66.8367 71.3195 66.9597 71.9777C67.4472 74.5882 68.3087 77.0874 69.819 79.6438C70.5907 78.8319 70.8732 77.9929 71.3696 77.2971C71.7794 76.7196 71.9363 75.7824 72.9348 75.8754Z" fill="#C1A63C"/>
<path d="M63.9808 143.492C62.862 142.292 62.1188 140.879 61.2823 139.518C60.6359 138.465 60.6334 137.472 61.3142 136.523C61.9211 135.673 62.5206 134.818 63.1213 133.962C64.4755 132.023 65.9495 130.15 66.6606 127.797C65.5802 127.092 64.3955 126.93 63.2747 126.584C62.7465 126.42 62.3738 126.498 62.0934 127.024C61.2672 128.586 59.9204 129.729 58.6513 130.931C56.2402 133.216 53.7598 135.436 51.5842 137.943C50.2035 139.535 50.1267 139.961 51.6035 141.568C53.4102 143.535 55.3612 145.384 57.1984 147.326C57.8091 147.971 58.3819 147.947 59.009 147.623C60.6394 146.778 62.2735 145.939 63.8648 145.037C64.6197 144.61 64.6342 144.193 63.9808 143.492Z" fill="#F8E99A"/>
<path d="M149.695 106.207C149.012 105.973 148.788 105.861 148.555 105.819C144.267 105.027 140.132 103.663 136.026 102.117C133.229 101.064 130.395 100.042 127.367 100.048C126.493 100.05 125.874 100.284 125.353 100.925C123.999 102.588 122.537 104.171 121.234 105.872C120.018 107.46 118.765 109.049 118.17 111.009C118.649 111.321 118.967 111.093 119.262 110.938C121.933 109.524 124.881 108.939 127.954 108.704C133.374 108.293 138.816 108.038 144.212 107.466C145.967 107.281 147.667 106.963 149.695 106.207Z" fill="#418451"/>
<path d="M124.526 97.3776C123.772 97.0331 122.954 96.9525 122.161 96.9271C120.413 96.874 119.405 95.9638 118.869 94.417C118.571 93.5558 118.207 92.7118 117.66 91.9515C116.344 90.13 114.318 89.7127 112.536 90.8754C110.906 91.9396 109.373 93.1242 108.005 94.4813C107.152 95.3285 106.231 96.15 105.674 97.4302C106.675 97.5811 107.22 97.1926 107.8 96.9325C109.702 96.0842 111.587 95.2017 113.483 94.3415C114.412 93.9206 115.409 93.6792 116.437 93.5396C116.888 93.4784 117.354 93.5023 117.498 94.0259C117.656 94.5997 117.191 94.7043 116.751 94.7566C114.773 94.9936 113.125 95.9541 111.365 96.6838C109.797 97.3349 109.323 98.7118 108.9 100.092C108.605 101.055 109.144 101.487 110.096 101.118C110.814 100.839 111.483 100.443 112.129 100.037C113.476 99.1903 114.785 98.2903 116.126 97.4354C116.521 97.1837 116.962 96.9926 117.399 96.8049C117.75 96.6533 118.15 96.6436 118.391 97.0087C118.651 97.4035 118.382 97.6679 118.065 97.8681C117.966 97.9316 117.854 97.9773 117.746 98.0277C115.962 98.8676 114.463 100.107 112.791 101.103C111.663 101.774 111.27 102.818 111.208 104.044C111.183 104.563 111.428 104.839 112.008 104.679C113.005 104.398 113.859 103.87 114.703 103.332C116.542 102.161 118.37 100.975 120.222 99.8255C120.667 99.5478 121.178 99.3581 121.678 99.1715C121.916 99.0818 122.188 99.212 122.33 99.4208C122.475 99.6343 122.46 99.9092 122.26 100.066C121.939 100.316 121.583 100.522 121.234 100.737C119.73 101.666 118.225 102.597 116.713 103.516C116.085 103.899 115.62 104.389 115.462 105.12C115.388 105.459 115.185 105.817 115.468 106.135C115.854 106.568 116.297 106.304 116.631 106.121C117.771 105.497 118.849 104.773 120.005 104.174C122.36 102.955 123.772 100.931 125.083 98.7955C125.505 98.1016 125.186 97.6827 124.526 97.3776Z" fill="#BFA43B"/>
<path d="M123.662 52.944C121.298 52.3548 119.168 52.9044 117.106 53.7851C116.708 53.9558 116.419 54.2299 116.319 54.4866C115.904 55.6713 115.552 56.7171 115.172 57.7516C114.942 58.3807 115.23 58.6272 115.855 58.6835C119.221 58.9864 122.458 58.6448 125.552 57.532C126.172 57.3092 126.311 56.9244 126.325 56.3418C126.376 54.4843 125.553 53.4154 123.662 52.944Z" fill="#C1A63C"/>
<path d="M130.876 97.9961C131.661 96.4615 131.629 96.4882 129.989 95.7262C126.371 94.3034 122.961 92.3745 120.614 89.1098C120.16 88.4766 119.774 88.5019 119.285 88.9423C119.028 89.1759 118.733 89.3757 118.444 89.5793C117.989 89.9029 117.846 90.2205 118.338 90.7301C118.901 91.3163 119.387 92.0201 119.561 92.7669C120.06 94.9163 121.352 95.8426 123.606 95.9257C125.005 95.9777 126.272 96.6694 126.633 98.2236C126.762 98.7825 127.093 98.8628 127.563 98.866C128.055 98.8689 128.558 98.8316 129.036 98.9358C130.092 99.172 130.673 98.7732 130.876 97.9961Z" fill="#408250"/>
<path d="M132.973 99.7489C132.062 99.5862 131.862 99.4019 132.246 98.6118C132.513 98.0557 132.788 97.5034 133.061 96.9499C132.189 96.5965 131.173 96.1928 129.987 95.7251C131.627 96.487 131.659 96.4604 130.874 97.9949C130.671 98.772 130.09 99.1709 129.033 98.9369C129.927 99.1337 134.248 100.672 135.676 100.665C135.391 100.474 135.258 100.195 135.459 99.7051C135.88 98.6664 136.169 98.3946 136.944 98.7155C137.117 98.7866 137.29 98.8635 137.461 98.9391C137.035 98.6621 136.217 98.2679 134.806 97.6717C134.592 98.1035 134.376 98.5377 134.161 98.9695C133.928 99.4435 133.728 99.8828 132.973 99.7489Z" fill="#408250"/>
<path d="M132.246 98.6117C131.864 99.4031 132.061 99.5861 132.973 99.7489C133.727 99.885 133.928 99.4434 134.163 98.9707C134.378 98.5388 134.594 98.1047 134.809 97.6728C134.305 97.459 133.726 97.2204 133.061 96.9498C132.788 97.5033 132.513 98.0556 132.246 98.6117Z" fill="#408250"/>
<path d="M120.423 60.9321C118.927 61.3521 117.415 61.2428 115.893 60.7917C114.211 60.2932 114.21 60.2897 113.679 61.874C113.643 61.9837 113.625 62.1 113.588 62.2097C112.958 64.1225 113.218 64.6792 115.17 65.6086C116.356 66.1736 117.561 66.2347 118.762 65.9151C122.123 65.0215 124.213 62.8471 125.586 59.6864C124.49 59.9369 123.675 60.1167 122.867 60.3118C122.049 60.5077 121.229 60.7023 120.423 60.9321Z" fill="#C1A63C"/>
<path d="M115.16 53.0409C115.109 51.6958 114.373 50.8904 113.226 50.7075C111.668 50.4577 107.999 52.0123 107.88 53.305C107.72 55.03 109.456 55.8892 110.671 56.9133C110.812 57.0307 110.993 57.1055 111.158 57.1983C111.768 57.5491 112.428 57.7119 113.11 57.8142C113.441 57.8633 113.79 57.8563 113.877 57.5413C114.29 56.0337 115.222 54.6827 115.16 53.0409Z" fill="#BFA43B"/>
<path d="M80.3966 69.7832C81.1967 68.3106 81.9724 66.8254 82.9118 65.4237C83.7158 64.2265 84.3294 62.9009 85.0057 61.6216C85.2156 61.2243 85.5148 60.7955 84.9268 60.3761C84.4384 60.0275 84.0049 60.1598 83.5628 60.4017C82.9788 60.7195 82.5256 61.1808 82.1521 61.6914C81.6032 62.4374 81.1158 63.2261 80.6456 64.0235C79.3299 66.2677 78.2889 68.6433 77.302 71.095C79.5541 71.3967 79.5272 71.383 80.3966 69.7832Z" fill="#BFA43B"/>
<path d="M112.227 59.4043C111.872 59.2919 111.527 59.1416 111.17 59.0338C109.249 58.4537 107.606 57.5331 106.661 55.2681C105.894 57.3899 105.9 59.1453 106.92 60.8994C108.01 62.7624 109.73 62.2916 111.356 62.2998C112.615 62.3063 112.383 61.2392 112.768 60.626C113.115 60.0822 112.94 59.628 112.227 59.4043Z" fill="#BFA43B"/>
<path d="M136.134 100.497C136.103 100.615 135.939 100.668 135.678 100.669C135.813 100.76 135.98 100.831 136.162 100.896C137.631 101.417 139.111 101.909 140.587 102.416C144.013 103.598 147.493 104.455 151.108 104.648C150.768 104.5 150.434 104.321 150.083 104.208C146.388 103.037 142.75 101.727 139.321 99.856C138.716 99.5251 138.093 99.2189 137.463 98.9403C138.705 99.7445 136.616 99.5517 136.134 100.497Z" fill="#408250"/>
<path d="M135.461 99.7063C135.261 100.194 135.395 100.473 135.679 100.666C135.937 100.664 136.103 100.615 136.135 100.494C136.616 99.5516 138.706 99.7422 137.464 98.938C137.293 98.8624 137.119 98.7878 136.947 98.7144C136.171 98.3958 135.882 98.6699 135.461 99.7063Z" fill="#408250"/>
<path d="M73.1902 72.6833C72.8318 72.7571 72.4636 72.8999 72.4955 73.3407C72.523 73.7166 72.7745 74.03 73.1192 74.2057C73.3905 74.344 73.7066 74.4168 74.0062 74.4612C76.1385 74.7759 78.1498 74.2683 80.1948 73.9886C80.3553 73.9678 80.4931 73.8386 80.5831 73.7933C80.8688 73.2066 80.2937 72.4348 79.591 72.4185C78.0519 72.3834 76.5146 72.3634 74.9813 72.3967C74.378 72.4083 73.7816 72.5602 73.1902 72.6833Z" fill="#BFA43B"/>
<path d="M119.657 68.1669C120.093 68.6281 120.595 68.0806 120.995 68.1935C121.317 68.2862 120.945 69.1022 121.656 69.2114C122.251 69.3036 122.731 68.9358 123.317 68.824C123.226 69.8806 123.294 70.1086 123.634 70.0516C124.4 69.9232 125.215 69.8488 125.748 69.2457C125.978 68.9868 126.154 68.572 125.688 68.3514C124.379 67.73 123.355 66.7035 122.122 65.9841C121.165 66.3878 120.204 66.7903 119.247 67.1939C119.376 67.5249 119.429 67.9248 119.657 68.1669Z" fill="#FAB895"/>
<path d="M122.121 65.9864C121.163 66.3901 120.203 66.7925 119.246 67.1962C120.203 66.7925 121.163 66.3901 122.121 65.9864Z" fill="#FAB895"/>
<path d="M105.024 59.9696C104.721 59.8325 104.417 59.6918 104.115 59.5547C104.115 59.5547 104.115 59.5547 104.114 59.557C104.111 59.5557 104.111 59.5558 104.11 59.558C104.063 59.591 103.987 59.6577 103.973 59.6479C103.869 59.5631 103.919 59.5291 104.11 59.558C104.11 59.558 104.111 59.5557 104.114 59.557C104.114 59.557 104.114 59.557 104.116 59.5582C104.133 59.5241 104.152 59.4913 104.172 59.4584C104.191 59.4256 104.211 59.3928 104.233 59.3612C104.274 59.2967 104.321 59.2383 104.371 59.1811C104.471 59.0725 104.595 58.9844 104.755 58.9324C103.641 58.4499 102.637 58.5904 101.712 59.2244C100.806 59.8428 100.799 59.9872 101.83 60.587C102.396 60.9153 102.784 61.4235 103.327 61.7915C104.681 62.7154 104.672 62.8019 105.687 61.4758C105.593 60.9263 105.388 60.4202 105.024 59.9696Z" fill="#FAB895"/>
<path d="M105.024 59.9696C105.389 60.4179 105.593 60.9263 105.686 61.4723C105.593 60.9263 105.388 60.4202 105.024 59.9696Z" fill="#FAB895"/>
<path d="M104.759 58.9255C104.761 58.9269 104.76 58.9294 104.762 58.9334C104.763 58.9308 104.763 58.9308 104.759 58.9255C104.759 58.9255 104.761 58.9269 104.759 58.9255Z" fill="#FAB895"/>
<path d="M104.761 58.9268C104.763 58.9277 104.762 58.9297 104.764 58.9306C104.766 58.9315 104.768 58.9325 104.768 58.9325L104.766 58.9315C104.766 58.9315 104.762 58.9297 104.761 58.9268Z" fill="#FAB895"/>
<path d="M63.7944 146.7C62.8443 146.885 62.2715 147.408 61.6072 147.77C59.7227 148.793 59.7275 148.906 61.4846 150.443C61.6194 150.56 61.8099 150.615 62.1863 150.806C62.701 149.359 63.6108 148.239 63.7944 146.7Z" fill="#BFA43B"/>
<path d="M104.761 58.9325C104.759 58.9313 104.756 58.9301 104.752 58.9276C104.593 58.9808 104.47 59.0689 104.367 59.1762C104.316 59.2299 104.27 59.2919 104.229 59.3563C104.207 59.3879 104.187 59.4208 104.168 59.4536C104.149 59.4865 104.129 59.5193 104.112 59.5534C104.415 59.6905 104.719 59.8311 105.021 59.9683C105.025 59.8365 105.014 59.7054 104.996 59.5763C104.965 59.3553 104.899 59.1365 104.761 58.9325Z" fill="#F9EA9B"/>
<path d="M105.024 59.9693C105.028 59.8376 105.017 59.7066 104.998 59.5776C105.017 59.7066 105.026 59.8364 105.024 59.9693Z" fill="#F9EA9B"/>
<path d="M105.024 59.9696C104.721 59.8325 104.417 59.6919 104.115 59.5547C104.417 59.6919 104.719 59.8313 105.024 59.9696Z" fill="#F9EA9B"/>
<path d="M104.758 58.9249C104.755 58.9259 104.755 58.9259 104.752 58.9269C104.754 58.9279 104.756 58.9288 104.759 58.9306C104.758 58.9278 104.758 58.9278 104.758 58.9249Z" fill="#F9EA9B"/>
<path d="M123.789 17.2392C123.777 17.2213 123.763 17.2116 123.754 17.2124C123.54 17.2347 123.504 17.3934 123.542 17.5814C123.67 17.5467 123.797 17.5142 123.925 17.4794C123.88 17.4082 123.828 17.2904 123.789 17.2392Z" fill="#F9EA9B"/>
<path d="M123.924 17.4786C123.88 17.4076 123.829 17.2937 123.789 17.239C123.828 17.2901 123.88 17.4076 123.924 17.4786Z" fill="#F9EA9B"/>
<path d="M123.924 17.4787C123.796 17.5134 123.67 17.5458 123.543 17.5805C123.67 17.5458 123.798 17.5111 123.924 17.4787Z" fill="#F9EA9B"/>
<path d="M111.201 42.8739C112.277 42.6874 113.364 42.6633 114.473 42.7812C114.723 42.8088 114.935 42.6834 115.018 42.3891C115.063 42.1559 114.896 41.9623 114.685 41.8262C114.011 41.3887 111.383 41.4736 110.782 41.9423C110.586 42.096 110.5 42.3058 110.601 42.5571C110.709 42.8283 110.956 42.9171 111.201 42.8739Z" fill="#11100C"/>
<path d="M128.113 46.0609C127.153 45.4776 126.114 45.1078 125.006 45.0073C124.709 44.9815 124.375 45.0873 124.334 45.4225C124.319 45.5377 124.336 45.6459 124.381 45.7401C124.454 45.9001 124.605 46.0225 124.821 46.087C125.372 46.1742 125.89 46.3642 126.408 46.5682C126.58 46.6357 126.75 46.7056 126.922 46.7731C127.149 46.8636 127.382 46.9507 127.614 47.0262C127.923 47.1266 128.238 47.1508 128.383 46.8286C128.517 46.535 128.376 46.2209 128.113 46.0609Z" fill="#332414"/>
<path d="M124.381 45.7401C124.454 45.9002 124.605 46.0225 124.823 46.0883C125.375 46.1754 125.893 46.3655 126.41 46.5694C125.895 46.3668 125.375 46.1754 124.823 46.0883C124.605 46.0225 124.456 45.8979 124.381 45.7401Z" fill="#332414"/>
<path d="M103.972 59.6444C103.984 59.6529 104.06 59.5864 104.109 59.5547C103.918 59.5255 103.87 59.5607 103.972 59.6444Z" fill="#F8E99A"/>
<path d="M104.109 59.5548C104.111 59.556 104.111 59.556 104.112 59.5536L104.111 59.55C104.11 59.5524 104.109 59.5548 104.109 59.5548Z" fill="#F8E99A"/>
</g>
<g style="mix-blend-mode:soft-light">
<g style="mix-blend-mode:overlay">
<path d="M50.1988 40.2155L49.0422 37.8732H49.2963C49.372 37.8725 49.4462 37.8511 49.5108 37.8111C49.5755 37.771 49.6281 37.714 49.6632 37.646C49.7042 37.5701 49.7252 37.4847 49.7242 37.3981C49.7232 37.3116 49.7002 37.2267 49.6574 37.1518L48.6134 35.0239H48.7927C48.8684 35.0232 48.9426 35.0017 49.0073 34.9617C49.0719 34.9217 49.1246 34.8646 49.1596 34.7966C49.2017 34.7183 49.2226 34.6302 49.22 34.5411C49.2175 34.452 49.1917 34.3652 49.1452 34.2895L47.795 32.1741H47.8263C47.9021 32.1735 47.9762 32.152 48.0408 32.112C48.1055 32.072 48.1582 32.015 48.1932 31.947C48.2352 31.8698 48.2563 31.7828 48.2545 31.6947C48.2527 31.6067 48.228 31.5206 48.1829 31.4453L46.9145 29.3247C46.9836 29.3234 47.0509 29.3026 47.1089 29.2646C47.1669 29.2266 47.2132 29.173 47.2427 29.1098C47.2765 29.0411 47.2912 28.9643 47.2852 28.8878C47.2793 28.8113 47.2529 28.7378 47.209 28.6752L45.9277 26.6945C45.8909 26.6353 45.8399 26.5864 45.7794 26.5526C45.7189 26.5187 45.6509 26.5009 45.5818 26.5009C45.5126 26.5009 45.4447 26.5187 45.3842 26.5526C45.3237 26.5864 45.2726 26.6353 45.2359 26.6945L43.9546 28.6752C43.9103 28.7377 43.8837 28.8111 43.8775 28.8877C43.8713 28.9643 43.8858 29.0412 43.9194 29.1101C43.9489 29.1733 43.9952 29.2269 44.0532 29.2649C44.1112 29.3029 44.1785 29.3237 44.2476 29.325L43.646 30.3316L42.6133 28.9894C42.5743 28.9387 42.553 28.8762 42.5529 28.8119V28.5576C42.5526 28.3651 42.4768 28.1805 42.3422 28.0443C42.2077 27.9082 42.0253 27.8316 41.835 27.8314H40.4864C40.2962 27.8316 40.1138 27.9082 39.9792 28.0443C39.8447 28.1805 39.7689 28.3651 39.7686 28.5576V28.8116C39.7686 28.8759 39.7474 28.9383 39.7084 28.989L38.6189 30.4053L37.9725 29.325C38.0415 29.3237 38.1088 29.3029 38.1668 29.2649C38.2247 29.227 38.2711 29.1734 38.3005 29.1102C38.3342 29.0413 38.3486 28.9644 38.3425 28.8878C38.3363 28.8112 38.3096 28.7377 38.2654 28.6752L36.9841 26.6945C36.9474 26.6351 36.8963 26.5861 36.8357 26.5521C36.7752 26.5182 36.7071 26.5004 36.6378 26.5004C36.5686 26.5004 36.5005 26.5182 36.4399 26.5521C36.3793 26.5861 36.3283 26.6351 36.2915 26.6945L35.0102 28.6752C34.966 28.7377 34.9394 28.8112 34.9332 28.8878C34.927 28.9644 34.9415 29.0413 34.9751 29.1102C35.0047 29.1735 35.0511 29.2272 35.1093 29.2651C35.1674 29.3031 35.2348 29.3238 35.304 29.325L35.0517 29.7469C34.8861 29.7608 34.7315 29.8371 34.6188 29.9607C34.506 30.0844 34.4431 30.2463 34.4427 30.4146V30.7656L34.0391 31.4418C33.9931 31.5174 33.9678 31.604 33.9655 31.6928C33.9633 31.7816 33.9843 31.8694 34.0264 31.9473C34.0615 32.0153 34.1142 32.0723 34.1788 32.1123C34.2434 32.1523 34.3176 32.1738 34.3934 32.1744H34.4246L33.072 34.291C33.026 34.3665 33.0006 34.4531 32.9983 34.5419C32.9961 34.6307 33.0172 34.7184 33.0593 34.7963C33.0943 34.8644 33.147 34.9215 33.2116 34.9615C33.2763 35.0016 33.3505 35.023 33.4263 35.0236H33.6054L32.5615 37.1518C32.5186 37.2267 32.4955 37.3116 32.4945 37.3983C32.4935 37.4849 32.5145 37.5703 32.5556 37.6463C32.5907 37.7143 32.6433 37.7713 32.708 37.8113C32.7726 37.8514 32.8468 37.8728 32.9225 37.8735H33.2202L32.0635 40.2155C32.0174 40.2957 31.9924 40.3865 31.991 40.4792C31.9897 40.572 32.012 40.6635 32.0559 40.745C32.0932 40.8176 32.1493 40.8786 32.2183 40.9214C32.2873 40.9642 32.3665 40.9872 32.4473 40.9879H35.2628V42.4054C35.2629 42.5612 35.3242 42.7106 35.433 42.8207C35.5418 42.9309 35.6894 42.9929 35.8433 42.9931H46.4693C46.6232 42.9929 46.7708 42.9309 46.8796 42.8207C46.9885 42.7106 47.0497 42.5612 47.0499 42.4054V40.9879H49.8151C49.896 40.9872 49.9752 40.9642 50.0441 40.9214C50.1131 40.8786 50.1692 40.8176 50.2064 40.745C50.2503 40.6635 50.2727 40.572 50.2714 40.4792C50.27 40.3865 50.245 40.2956 50.1988 40.2155V40.2155ZM36.6379 26.9583L37.8857 28.8873H37.6831C37.6361 28.8875 37.5899 28.9004 37.5494 28.9245C37.5089 28.9487 37.4755 28.9833 37.4525 29.0249C37.4283 29.0683 37.416 29.1173 37.4167 29.1671C37.4175 29.2169 37.4313 29.2656 37.4567 29.3082L38.3338 30.7751L37.1504 32.312V32.009C37.2816 31.964 37.3955 31.8787 37.4764 31.7649C37.5573 31.6511 37.601 31.5146 37.6014 31.3744V30.4146C37.6012 30.236 37.531 30.0648 37.4063 29.9385C37.2815 29.8123 37.1124 29.7412 36.9359 29.7411H35.5598L35.8192 29.3082C35.8446 29.2655 35.8584 29.2167 35.859 29.1668C35.8596 29.117 35.8472 29.0678 35.8228 29.0245C35.7999 28.9829 35.7664 28.9483 35.7259 28.9241C35.6854 28.8999 35.6393 28.8871 35.5922 28.8869H35.3904L36.6379 26.9583ZM34.8743 30.4146C34.8744 30.3521 34.899 30.2921 34.9427 30.2479C34.9864 30.2037 35.0456 30.1788 35.1074 30.1787H36.9359C36.9977 30.1788 37.057 30.2037 37.1007 30.2479C37.1443 30.2921 37.1689 30.3521 37.169 30.4146V31.3744C37.169 31.437 37.1444 31.497 37.1007 31.5412C37.057 31.5855 36.9978 31.6104 36.9359 31.6104H35.1074C35.0456 31.6104 34.9863 31.5855 34.9426 31.5412C34.8989 31.497 34.8744 31.437 34.8743 31.3744V30.4146ZM36.718 32.0485V32.8741L35.3252 34.6831V32.0481L36.718 32.0485ZM34.4039 31.7368C34.3989 31.7267 34.3964 31.7155 34.3967 31.7043C34.3969 31.693 34.3999 31.682 34.4053 31.6721L34.4713 31.5616C34.4886 31.6233 34.5144 31.6823 34.5482 31.7366L34.4039 31.7368ZM35.2628 40.5502H32.4478C32.4371 40.5406 32.4297 40.5277 32.4269 40.5134C32.4232 40.5012 32.422 40.4883 32.4234 40.4756C32.4248 40.4629 32.4288 40.4506 32.4351 40.4395C32.439 40.433 32.4427 40.4265 32.446 40.4196L33.7634 37.752C33.7799 37.7186 33.7877 37.6815 33.786 37.6442C33.7843 37.607 33.7733 37.5707 33.7539 37.539C33.7345 37.5073 33.7075 37.4811 33.6753 37.4629C33.6431 37.4448 33.6068 37.4352 33.57 37.4352H32.9345C32.9296 37.4259 32.927 37.4156 32.9268 37.405C32.9266 37.3945 32.9289 37.384 32.9335 37.3745C32.9375 37.3681 32.9412 37.3615 32.9444 37.3547L34.1063 34.987C34.1271 34.9441 34.1368 34.8965 34.1345 34.8488C34.1323 34.8011 34.1181 34.7547 34.0933 34.714C34.0698 34.675 34.0369 34.6428 33.9975 34.6204C33.9582 34.598 33.9139 34.5862 33.8687 34.5862H33.4382C33.4333 34.5772 33.4306 34.5672 33.4302 34.5569C33.4298 34.5466 33.4318 34.5364 33.4361 34.527L34.8928 32.2452V35.2448L34.0578 36.3294C33.9925 36.4166 33.9525 36.5204 33.9423 36.6293C33.9321 36.7383 33.9522 36.8479 34.0002 36.9459C34.0483 37.0439 34.1224 37.1263 34.2143 37.184C34.3062 37.2416 34.4121 37.2721 34.5202 37.2721H35.2628V40.5502ZM46.6181 42.4054C46.618 42.4452 46.6024 42.4833 46.5746 42.5114C46.5468 42.5395 46.5092 42.5554 46.4699 42.5554H35.8433C35.804 42.5554 35.7664 42.5395 35.7386 42.5114C35.7108 42.4833 35.6952 42.4452 35.6951 42.4054V42.1549H46.6181V42.4054ZM35.6957 41.7173V39.915H36.4714V41.7173H35.6957ZM36.9038 41.7173V39.915H37.6377V41.7173H36.9038ZM38.0701 41.7173V39.915H38.8598V41.7173H38.0701ZM39.2922 41.7173V39.1635C39.29 38.9138 39.3367 38.666 39.4296 38.4346C39.5226 38.2033 39.6599 37.9928 39.8336 37.8154C40.0073 37.638 40.214 37.4972 40.4418 37.4011C40.6696 37.305 40.9139 37.2555 41.1607 37.2555C41.4075 37.2555 41.6518 37.305 41.8796 37.4011C42.1074 37.4972 42.3141 37.638 42.4878 37.8154C42.6615 37.9928 42.7988 38.2033 42.8918 38.4346C42.9847 38.666 43.0314 38.9138 43.0293 39.1635V41.7166L39.2922 41.7173ZM43.4616 41.7173V39.915H44.2435V41.7173H43.4616ZM44.6759 41.7173V39.915H45.41V41.7173H44.6759ZM46.6181 41.7173H45.8418V39.915H46.6181V41.7173ZM46.6181 39.4773H43.4616V39.1635C43.4641 38.8561 43.4063 38.5513 43.2918 38.2666C43.1772 37.9819 43.0081 37.723 42.7942 37.5047C42.5803 37.2865 42.3258 37.1133 42.0455 36.9951C41.7651 36.8769 41.4644 36.816 41.1607 36.816C40.857 36.816 40.5563 36.8769 40.2759 36.9951C39.9956 37.1133 39.7411 37.2865 39.5272 37.5047C39.3133 37.723 39.1442 37.9819 39.0297 38.2666C38.9151 38.5513 38.8574 38.8561 38.8598 39.1635V39.4773H35.6951V37.1264L36.112 36.5646H46.2001L46.6169 37.1264L46.6181 39.4773ZM45.6534 35.827L45.8759 36.1269H36.4367L36.6588 35.827H45.6534ZM36.9839 35.3893L40.916 30.0894C40.9451 30.0533 40.9817 30.0242 41.0233 30.0042C41.0648 29.9842 41.1103 29.9738 41.1563 29.9738C41.2023 29.9738 41.2478 29.9842 41.2893 30.0042C41.3309 30.0242 41.3675 30.0533 41.3966 30.0894L45.3287 35.3893H36.9839ZM46.9418 36.8345L41.7422 29.8268C41.6739 29.7348 41.5855 29.6602 41.4838 29.6088C41.3821 29.5574 41.27 29.5306 41.1563 29.5306C41.0426 29.5306 40.9305 29.5574 40.8289 29.6088C40.7272 29.6602 40.6387 29.7348 40.5704 29.8268L35.371 36.8345H34.5206C34.4933 36.8345 34.4665 36.8268 34.4432 36.8123C34.4199 36.7978 34.401 36.7771 34.3886 36.7524C34.3762 36.7277 34.3708 36.7001 34.373 36.6725C34.3752 36.6449 34.3849 36.6185 34.401 36.5961L40.0494 29.2579C40.1472 29.1301 40.2005 28.9732 40.2009 28.8116V28.5578C40.201 28.4812 40.2311 28.4078 40.2846 28.3536C40.3381 28.2995 40.4106 28.269 40.4863 28.2689H41.8337C41.9094 28.269 41.9819 28.2995 42.0354 28.3536C42.0889 28.4078 42.1191 28.4812 42.1192 28.5578V28.8115C42.1196 28.9732 42.1729 29.1302 42.2709 29.2579L47.9181 36.5939C47.9348 36.6162 47.945 36.6427 47.9475 36.6705C47.9501 36.6982 47.945 36.7262 47.9327 36.7512C47.9205 36.7762 47.9015 36.7973 47.8781 36.812C47.8547 36.8267 47.8276 36.8345 47.8001 36.8345H46.9418ZM49.8356 40.5137C49.8327 40.5277 49.8255 40.5405 49.8151 40.5502H47.0504V37.2721H47.7999C47.9083 37.2722 48.0144 37.2416 48.1065 37.1837C48.1985 37.1259 48.2727 37.0431 48.3207 36.9448C48.3687 36.8465 48.3885 36.7365 48.378 36.6274C48.3675 36.5183 48.327 36.4143 48.2611 36.3272L43.9293 30.7005L44.7618 29.3082C44.7873 29.2655 44.8012 29.2168 44.8019 29.1669C44.8026 29.117 44.7902 29.0679 44.766 29.0245C44.7431 28.9829 44.7096 28.9483 44.6691 28.9241C44.6286 28.8999 44.5824 28.8871 44.5354 28.8869H44.333L45.5811 26.9578L46.8289 28.8869H46.6263C46.5792 28.8871 46.5331 28.8999 46.4926 28.9241C46.4521 28.9483 46.4186 28.9829 46.3957 29.0245C46.3715 29.0678 46.3592 29.1169 46.3599 29.1667C46.3607 29.2165 46.3744 29.2652 46.3999 29.3078L47.8156 31.6755C47.8202 31.685 47.8225 31.6955 47.8223 31.706C47.8221 31.7166 47.8195 31.727 47.8146 31.7363H47.4961C47.4484 31.7365 47.4016 31.7498 47.3607 31.7746C47.3198 31.7995 47.2862 31.835 47.2636 31.8776C47.2398 31.9219 47.2282 31.9719 47.23 32.0223C47.2319 32.0727 47.2472 32.1217 47.2743 32.1641L48.7814 34.525C48.786 34.5345 48.7883 34.5449 48.7881 34.5555C48.7879 34.5661 48.7852 34.5765 48.7803 34.5858H48.3493C48.3042 34.5858 48.2598 34.5976 48.2205 34.6199C48.1811 34.6423 48.1481 34.6746 48.1246 34.7136C48.1 34.7543 48.086 34.8007 48.0838 34.8484C48.0816 34.8961 48.0914 34.9435 48.1122 34.9864L49.2744 37.3546C49.2776 37.3614 49.2813 37.368 49.2853 37.3744C49.29 37.3839 49.2923 37.3943 49.2921 37.4049C49.2919 37.4154 49.2893 37.4258 49.2843 37.4351H48.6924C48.6555 37.4351 48.6193 37.4446 48.5871 37.4628C48.5549 37.481 48.5279 37.5072 48.5085 37.5389C48.4891 37.5707 48.4781 37.6069 48.4765 37.6441C48.4748 37.6814 48.4826 37.7184 48.4991 37.7518L49.8163 40.4195C49.8196 40.4263 49.8233 40.4329 49.8274 40.4393C49.8337 40.4505 49.8376 40.4629 49.839 40.4757C49.8405 40.4885 49.8393 40.5014 49.8356 40.5137V40.5137Z" fill="#F9FAFA"/>
<path d="M39.6544 33.1299C39.6544 33.4305 39.7424 33.7244 39.9074 33.9744C40.0724 34.2244 40.3069 34.4192 40.5813 34.5343C40.8557 34.6494 41.1577 34.6795 41.449 34.6208C41.7403 34.5622 42.0079 34.4174 42.2179 34.2049C42.428 33.9923 42.571 33.7215 42.629 33.4266C42.6869 33.1317 42.6572 32.8261 42.5435 32.5484C42.4299 32.2706 42.2374 32.0332 41.9904 31.8662C41.7435 31.6991 41.4531 31.61 41.1561 31.61C40.758 31.6104 40.3763 31.7707 40.0948 32.0556C39.8133 32.3406 39.6549 32.7269 39.6544 33.1299V33.1299ZM42.2253 33.1299C42.2253 33.3439 42.1626 33.5532 42.0451 33.7312C41.9276 33.9092 41.7606 34.048 41.5652 34.1299C41.3699 34.2118 41.1548 34.2333 40.9474 34.1915C40.74 34.1498 40.5494 34.0467 40.3999 33.8953C40.2503 33.7439 40.1485 33.5511 40.1072 33.3411C40.066 33.1312 40.0872 32.9135 40.1681 32.7158C40.2491 32.518 40.3862 32.349 40.562 32.23C40.7379 32.1111 40.9446 32.0477 41.1561 32.0477C41.4396 32.048 41.7113 32.1621 41.9118 32.365C42.1122 32.5679 42.2249 32.8429 42.2253 33.1299V33.1299Z" fill="#F9FAFA"/>
<path d="M37.8981 37.066H36.8712C36.7374 37.066 36.6091 37.1198 36.5145 37.2155C36.4199 37.3113 36.3667 37.4412 36.3667 37.5766V38.6165C36.3667 38.7519 36.4199 38.8818 36.5145 38.9776C36.6091 39.0734 36.7374 39.1272 36.8712 39.1272H37.8981C38.0319 39.1272 38.1602 39.0734 38.2549 38.9776C38.3495 38.8818 38.4026 38.7519 38.4026 38.6165V37.5766C38.4026 37.4412 38.3495 37.3113 38.2549 37.2155C38.1602 37.1198 38.0319 37.066 37.8981 37.066ZM37.9702 38.6165C37.9702 38.6358 37.9626 38.6544 37.9491 38.6681C37.9356 38.6818 37.9172 38.6894 37.8981 38.6894H36.8712C36.8521 38.6894 36.8338 38.6818 36.8203 38.6681C36.8068 38.6544 36.7992 38.6358 36.7992 38.6165V37.5766C36.7992 37.5573 36.8068 37.5387 36.8203 37.5251C36.8338 37.5114 36.8521 37.5037 36.8712 37.5037H37.8981C37.9172 37.5037 37.9356 37.5114 37.9491 37.5251C37.9626 37.5387 37.9702 37.5573 37.9702 37.5766V38.6165Z" fill="#F9FAFA"/>
<path d="M45.4977 37.066H44.4702C44.3364 37.066 44.2081 37.1198 44.1135 37.2155C44.0189 37.3113 43.9657 37.4412 43.9657 37.5766V38.6165C43.9657 38.7519 44.0189 38.8818 44.1135 38.9776C44.2081 39.0734 44.3364 39.1272 44.4702 39.1272H45.4975C45.6313 39.1272 45.7597 39.0734 45.8543 38.9776C45.9489 38.8818 46.002 38.7519 46.002 38.6165V37.5766C46.002 37.4412 45.9489 37.3114 45.8543 37.2156C45.7597 37.1198 45.6315 37.066 45.4977 37.066ZM45.5697 38.6165C45.5697 38.6358 45.5622 38.6544 45.5486 38.6681C45.5351 38.6818 45.5168 38.6894 45.4977 38.6894H44.4702C44.4511 38.6894 44.4328 38.6818 44.4192 38.6681C44.4057 38.6544 44.3981 38.6358 44.3981 38.6165V37.5766C44.3981 37.5573 44.4057 37.5387 44.4192 37.5251C44.4328 37.5114 44.4511 37.5037 44.4702 37.5037H45.4975C45.5166 37.5037 45.535 37.5114 45.5485 37.5251C45.562 37.5387 45.5696 37.5573 45.5696 37.5766L45.5697 38.6165Z" fill="#F9FAFA"/>
</g>
<g style="mix-blend-mode:overlay">
<path d="M52.2833 34.7425C52.2833 41.0645 47.2224 46.174 40.9986 46.174C34.7748 46.174 29.7139 41.0645 29.7139 34.7425C29.7139 28.4204 34.7748 23.311 40.9986 23.311C47.2224 23.311 52.2833 28.4204 52.2833 34.7425Z" stroke="#F9FAFA" stroke-width="1.5"/>
</g>
</g>
<g filter="url(#filter1_d)">
<path d="M49.9345 43.2712C48.9385 43.2712 47.9965 43.1452 47.1085 42.8932C46.2325 42.6412 45.5005 42.2992 44.9125 41.8672L45.7225 39.6712C46.2865 40.0672 46.9285 40.3792 47.6485 40.6072C48.3805 40.8352 49.1425 40.9492 49.9345 40.9492C50.7985 40.9492 51.4165 40.8172 51.7885 40.5532C52.1725 40.2772 52.3645 39.9352 52.3645 39.5272C52.3645 39.1792 52.2325 38.9032 51.9685 38.6992C51.7045 38.4952 51.2425 38.3212 50.5825 38.1772L48.5485 37.7452C46.2805 37.2652 45.1465 36.0892 45.1465 34.2172C45.1465 33.4132 45.3625 32.7112 45.7945 32.1112C46.2265 31.4992 46.8265 31.0252 47.5945 30.6892C48.3745 30.3532 49.2745 30.1852 50.2945 30.1852C51.1705 30.1852 51.9925 30.3112 52.7605 30.5632C53.5285 30.8152 54.1645 31.1692 54.6685 31.6252L53.8585 33.6772C52.8745 32.8972 51.6805 32.5072 50.2765 32.5072C49.5205 32.5072 48.9325 32.6572 48.5125 32.9572C48.1045 33.2452 47.9005 33.6232 47.9005 34.0912C47.9005 34.4392 48.0265 34.7212 48.2785 34.9372C48.5305 35.1532 48.9685 35.3272 49.5925 35.4592L51.6265 35.8912C53.9545 36.3952 55.1185 37.5352 55.1185 39.3112C55.1185 40.1032 54.9025 40.7992 54.4705 41.3992C54.0505 41.9872 53.4505 42.4492 52.6705 42.7852C51.9025 43.1092 50.9905 43.2712 49.9345 43.2712ZM60.9437 43.2712C59.9957 43.2712 59.1677 43.0852 58.4597 42.7132C57.7637 42.3292 57.2237 41.7952 56.8397 41.1112C56.4557 40.4152 56.2637 39.5932 56.2637 38.6452C56.2637 37.7092 56.4557 36.8992 56.8397 36.2152C57.2237 35.5192 57.7637 34.9852 58.4597 34.6132C59.1677 34.2412 59.9957 34.0552 60.9437 34.0552C61.8917 34.0552 62.7137 34.2412 63.4097 34.6132C64.1177 34.9852 64.6637 35.5192 65.0477 36.2152C65.4437 36.8992 65.6417 37.7092 65.6417 38.6452C65.6417 39.5932 65.4437 40.4152 65.0477 41.1112C64.6637 41.7952 64.1177 42.3292 63.4097 42.7132C62.7137 43.0852 61.8917 43.2712 60.9437 43.2712ZM60.9437 41.2372C61.5197 41.2372 61.9877 41.0272 62.3477 40.6072C62.7197 40.1872 62.9057 39.5332 62.9057 38.6452C62.9057 37.7692 62.7197 37.1272 62.3477 36.7192C61.9877 36.2992 61.5197 36.0892 60.9437 36.0892C60.3677 36.0892 59.8997 36.2992 59.5397 36.7192C59.1797 37.1272 58.9997 37.7692 58.9997 38.6452C58.9997 39.5332 59.1797 40.1872 59.5397 40.6072C59.8997 41.0272 60.3677 41.2372 60.9437 41.2372ZM67.7684 46.3132L69.4604 42.5872L65.8244 34.2352H68.6864L70.9004 39.8512L73.1864 34.2352H75.8864L70.5404 46.3132H67.7684ZM81.9258 43.0732V30.3832H87.7398C89.0958 30.3832 90.1398 30.6772 90.8718 31.2652C91.6158 31.8532 91.9878 32.6572 91.9878 33.6772C91.9878 34.3492 91.8198 34.9312 91.4838 35.4232C91.1478 35.9032 90.6798 36.2632 90.0798 36.5032C90.7998 36.7072 91.3518 37.0672 91.7358 37.5832C92.1318 38.0992 92.3298 38.7352 92.3298 39.4912C92.3298 40.6192 91.9338 41.5012 91.1418 42.1372C90.3618 42.7612 89.2938 43.0732 87.9378 43.0732H81.9258ZM84.5898 35.6032H87.2538C88.6218 35.6032 89.3058 35.0752 89.3058 34.0192C89.3058 32.9752 88.6218 32.4532 87.2538 32.4532H84.5898V35.6032ZM84.5898 41.0032H87.5598C88.2798 41.0032 88.8078 40.8652 89.1438 40.5892C89.4798 40.3132 89.6478 39.8932 89.6478 39.3292C89.6478 38.7772 89.4798 38.3632 89.1438 38.0872C88.8078 37.8112 88.2798 37.6732 87.5598 37.6732H84.5898V41.0032ZM98.7975 43.2712C97.7535 43.2712 96.8535 43.0852 96.0975 42.7132C95.3535 42.3292 94.7775 41.7952 94.3695 41.1112C93.9735 40.4152 93.7755 39.5992 93.7755 38.6632C93.7755 37.7512 93.9675 36.9532 94.3515 36.2692C94.7475 35.5732 95.2815 35.0332 95.9535 34.6492C96.6375 34.2532 97.4235 34.0552 98.3115 34.0552C99.5955 34.0552 100.615 34.4632 101.371 35.2792C102.127 36.0832 102.505 37.1752 102.505 38.5552V39.2392H96.3675C96.4635 39.9352 96.7155 40.4452 97.1235 40.7692C97.5435 41.0812 98.1195 41.2372 98.8515 41.2372C99.3315 41.2372 99.8175 41.1652 100.309 41.0212C100.801 40.8772 101.245 40.6552 101.641 40.3552L102.361 42.1732C101.917 42.5092 101.371 42.7792 100.723 42.9832C100.087 43.1752 99.4455 43.2712 98.7975 43.2712ZM98.4195 35.8552C97.8435 35.8552 97.3755 36.0292 97.0155 36.3772C96.6675 36.7252 96.4515 37.2112 96.3675 37.8352H100.255C100.183 36.5152 99.5715 35.8552 98.4195 35.8552ZM107.074 43.2712C106.414 43.2712 105.832 43.1452 105.328 42.8932C104.824 42.6412 104.422 42.2992 104.122 41.8672C103.834 41.4352 103.69 40.9492 103.69 40.4092C103.69 39.7732 103.858 39.2632 104.194 38.8792C104.53 38.4952 105.076 38.2252 105.832 38.0692C106.588 37.9012 107.59 37.8172 108.838 37.8172H109.486V37.5112C109.486 36.9832 109.366 36.6112 109.126 36.3952C108.886 36.1672 108.478 36.0532 107.902 36.0532C107.422 36.0532 106.912 36.1312 106.372 36.2872C105.844 36.4312 105.316 36.6532 104.788 36.9532L104.05 35.1352C104.362 34.9312 104.74 34.7452 105.184 34.5772C105.64 34.4092 106.114 34.2832 106.606 34.1992C107.098 34.1032 107.566 34.0552 108.01 34.0552C109.378 34.0552 110.398 34.3672 111.07 34.9912C111.742 35.6032 112.078 36.5572 112.078 37.8532V43.0732H109.54V41.7412C109.36 42.2092 109.054 42.5812 108.622 42.8572C108.202 43.1332 107.686 43.2712 107.074 43.2712ZM107.686 41.4532C108.19 41.4532 108.616 41.2792 108.964 40.9312C109.312 40.5832 109.486 40.1332 109.486 39.5812V39.2212H108.856C107.932 39.2212 107.278 39.3052 106.894 39.4732C106.51 39.6292 106.318 39.9052 106.318 40.3012C106.318 40.6372 106.432 40.9132 106.66 41.1292C106.9 41.3452 107.242 41.4532 107.686 41.4532ZM114.106 43.0732V34.2352H116.77V35.5312C117.07 35.0512 117.472 34.6852 117.976 34.4332C118.48 34.1812 119.044 34.0552 119.668 34.0552C120.712 34.0552 121.492 34.3612 122.008 34.9732C122.524 35.5732 122.782 36.5032 122.782 37.7632V43.0732H120.064V37.8892C120.064 37.2772 119.95 36.8392 119.722 36.5752C119.494 36.2992 119.158 36.1612 118.714 36.1612C118.138 36.1612 117.676 36.3412 117.328 36.7012C116.992 37.0612 116.824 37.5412 116.824 38.1412V43.0732H114.106Z" fill="#FFF1E5"/>
</g>
</g>
</g>
<defs>
<filter id="filter0_d" x="0" y="0" width="156" height="156" filterUnits="userSpaceOnUse" color-interpolation-filters="sRGB">
<feFlood flood-opacity="0" result="BackgroundImageFix"/>
<feColorMatrix in="SourceAlpha" type="matrix" values="0 0 0 0 0 0 0 0 0 0 0 0 0 0 0 0 0 0 127 0"/>
<feOffset dy="4"/>
<feGaussianBlur stdDeviation="2"/>
<feColorMatrix type="matrix" values="0 0 0 0 0 0 0 0 0 0 0 0 0 0 0 0 0 0 0.25 0"/>
<feBlend mode="normal" in2="BackgroundImageFix" result="effect1_dropShadow"/>
<feBlend mode="normal" in="SourceGraphic" in2="effect1_dropShadow" result="shape"/>
</filter>
<filter id="filter1_d" x="43.9125" y="30.1852" width="79.8694" height="20.128" filterUnits="userSpaceOnUse" color-interpolation-filters="sRGB">
<feFlood flood-opacity="0" result="BackgroundImageFix"/>
<feColorMatrix in="SourceAlpha" type="matrix" values="0 0 0 0 0 0 0 0 0 0 0 0 0 0 0 0 0 0 127 0"/>
<feOffset dy="3"/>
<feGaussianBlur stdDeviation="0.5"/>
<feColorMatrix type="matrix" values="0 0 0 0 0 0 0 0 0 0 0 0 0 0 0 0 0 0 0.5 0"/>
<feBlend mode="normal" in2="BackgroundImageFix" result="effect1_dropShadow"/>
<feBlend mode="normal" in="SourceGraphic" in2="effect1_dropShadow" result="shape"/>
</filter>
<clipPath id="clip0">
<rect x="4" width="148" height="148" rx="74" fill="white"/>
</clipPath>
<clipPath id="clip1">
<rect width="126.97" height="219.608" fill="white" transform="matrix(0.890931 0.454138 -0.44544 0.895312 88.4487 -48.7317)"/>
</clipPath>
</defs>
</svg>
